<svg width="73" height="70" viewBox="0 0 73 70" fill="none" xmlns="http://www.w3.org/2000/svg">
<path d="M10.1571 61.6358V62.9062H19.5311V61.6358H10.1571Z" fill="#E0E0E0"/>
<path d="M11.4359 61.6855C11.4675 61.6855 11.4941 61.9525 11.4941 62.2819C11.4941 62.6113 11.4675 62.8766 11.4359 62.8766C11.4042 62.8766 11.3759 62.6096 11.3759 62.2819C11.3759 61.9542 11.4026 61.6855 11.4359 61.6855Z" fill="#FAFAFA"/>
<path d="M11.2311 61.6582C11.2644 61.6582 11.2893 61.9251 11.2893 62.2529C11.2893 62.5806 11.2644 62.8492 11.2311 62.8492C11.1978 62.8492 11.1728 62.5823 11.1728 62.2529C11.1728 61.9234 11.1978 61.6582 11.2311 61.6582Z" fill="#FAFAFA"/>
<path d="M18.8069 61.6855C18.8402 61.6855 18.8668 61.9525 18.8668 62.2819C18.8668 62.6113 18.8402 62.8766 18.8069 62.8766C18.7736 62.8766 18.7486 62.6096 18.7486 62.2819C18.7486 61.9542 18.7752 61.6855 18.8069 61.6855Z" fill="#FAFAFA"/>
<path d="M18.6037 61.6582C18.6353 61.6582 18.662 61.9251 18.662 62.2529C18.662 62.5806 18.6353 62.8492 18.6037 62.8492C18.5721 62.8492 18.5438 62.5823 18.5438 62.2529C18.5438 61.9234 18.5704 61.6582 18.6037 61.6582Z" fill="#FAFAFA"/>
<path d="M17.3783 62.3072C17.3783 62.341 16.3044 62.3663 14.9807 62.3663C13.657 62.3663 12.5831 62.341 12.5831 62.3072C12.5831 62.2734 13.657 62.248 14.9807 62.248C16.3044 62.248 17.3783 62.2734 17.3783 62.3072Z" fill="#FAFAFA"/>
<path d="M10.1171 67.3557V69.8965H19.4911V67.3557H10.1171Z" fill="#E0E0E0"/>
<path d="M19.611 69.1802C19.611 69.1802 19.596 69.1921 19.5611 69.2089C19.5261 69.2258 19.4745 69.2512 19.4046 69.2816C19.2008 69.3692 18.9872 69.4311 18.7685 69.4657C18.4182 69.5302 18.0567 69.478 17.7379 69.3171C17.5407 69.2105 17.3725 69.0561 17.2484 68.8677C17.1058 68.653 17.0465 68.3925 17.0819 68.1362C17.1023 67.997 17.1599 67.8662 17.2484 67.7578C17.2957 67.6984 17.356 67.6511 17.4245 67.6194C17.493 67.5878 17.5678 67.5727 17.643 67.5753C17.7204 67.5817 17.7957 67.6042 17.8641 67.6414C17.9326 67.6786 17.9928 67.7297 18.0409 67.7916C18.1434 67.9142 18.2067 68.0657 18.2224 68.2257C18.2352 68.3905 18.2129 68.5562 18.1572 68.7115C18.1015 68.8669 18.0136 69.0083 17.8994 69.1262C17.6622 69.3807 17.3423 69.5397 16.9986 69.5739C16.6448 69.6084 16.2878 69.5634 15.953 69.4421C15.5952 69.3285 15.2776 69.112 15.0389 68.8187C14.9158 68.6612 14.8416 68.4701 14.8258 68.2696C14.8158 68.1654 14.8286 68.0603 14.8631 67.9616C14.8976 67.8629 14.9531 67.7732 15.0256 67.6986C15.1049 67.6213 15.2088 67.5752 15.3186 67.5686C15.4272 67.5656 15.534 67.5962 15.625 67.6564C15.8007 67.7732 15.9244 67.9551 15.9696 68.1632C16.0088 68.3664 15.9954 68.5764 15.9306 68.7728C15.8658 68.9691 15.7519 69.145 15.6 69.2833C15.3024 69.5382 14.9328 69.6908 14.5444 69.7191C14.1762 69.7621 13.8032 69.7246 13.4505 69.6093C13.1042 69.4988 12.8087 69.2655 12.618 68.9522C12.5231 68.8035 12.4643 68.6341 12.4464 68.4579C12.4284 68.2817 12.4519 68.1038 12.5148 67.9385C12.5459 67.8557 12.5972 67.7822 12.6639 67.7249C12.7305 67.6676 12.8104 67.6283 12.896 67.6108C12.9784 67.5958 13.0629 67.5982 13.1443 67.618C13.2257 67.6378 13.3022 67.6744 13.3689 67.7257C13.4858 67.8298 13.5694 67.9669 13.6091 68.1194C13.6489 68.272 13.6429 68.4331 13.592 68.5822C13.5009 68.8484 13.3369 69.0828 13.1192 69.2579C12.7586 69.5679 12.306 69.7463 11.8338 69.7648C11.5463 69.7751 11.26 69.7241 10.9932 69.6149C10.7265 69.5058 10.4853 69.341 10.2853 69.1312C10.2453 69.0894 10.2075 69.0454 10.1721 68.9995C10.1596 68.9842 10.1485 68.9678 10.1388 68.9505C10.3367 69.1721 10.5732 69.3548 10.8364 69.4894C11.1466 69.6439 11.4903 69.716 11.8354 69.6989C12.291 69.6726 12.7253 69.4945 13.0709 69.192C13.2737 69.0254 13.426 68.804 13.5104 68.5535C13.5545 68.4229 13.5596 68.282 13.5249 68.1485C13.4902 68.015 13.4174 67.8949 13.3156 67.8034C13.2597 67.7611 13.1958 67.731 13.128 67.7147C13.0601 67.6984 12.9897 67.6964 12.921 67.7088C12.8514 67.7234 12.7866 67.7559 12.733 67.8033C12.6793 67.8506 12.6386 67.9111 12.6147 67.9791C12.5599 68.1283 12.5406 68.2885 12.5582 68.4467C12.5759 68.6049 12.63 68.7566 12.7162 68.8897C12.895 69.1792 13.1704 69.3938 13.4921 69.4945C13.8296 69.6031 14.1861 69.6376 14.5377 69.5958C14.9013 69.5684 15.2471 69.426 15.5268 69.1887C15.6639 69.0634 15.7667 68.9041 15.825 68.7264C15.8834 68.5488 15.8954 68.3588 15.8598 68.175C15.8222 67.9964 15.7177 67.8395 15.5684 67.7375C15.501 67.6869 15.4183 67.6619 15.3346 67.6668C15.2509 67.6718 15.1716 67.7063 15.1105 67.7645C15.05 67.8266 15.0037 67.9015 14.9749 67.9839C14.9461 68.0662 14.9356 68.154 14.944 68.2409C14.958 68.4184 15.0235 68.5877 15.1321 68.7275C15.3566 69.0024 15.6542 69.2059 15.9896 69.3137C16.3093 69.4304 16.6503 69.4748 16.9886 69.4438C17.3054 69.4128 17.6007 69.2677 17.8211 69.0349C17.9262 68.9282 18.0075 68.7998 18.0595 68.6585C18.1115 68.5171 18.133 68.3661 18.1225 68.2156C18.1169 68.0789 18.0657 67.9482 17.9774 67.8447C17.8891 67.7413 17.7689 67.6714 17.6363 67.6463C17.5746 67.6443 17.5133 67.6566 17.457 67.6824C17.4007 67.7082 17.351 67.7467 17.3116 67.7949C17.2304 67.891 17.1769 68.0079 17.1568 68.1328C17.1227 68.3693 17.1768 68.6103 17.3083 68.8086C17.4238 68.989 17.581 69.138 17.7662 69.2427C18.0738 69.4029 18.4238 69.4592 18.7652 69.4032C18.9812 69.3732 19.1934 69.3194 19.3979 69.2427C19.5378 69.2073 19.6094 69.1752 19.611 69.1802Z" fill="#FAFAFA"/>
<path d="M10.9547 62.9403V67.3496H19.4912V62.9403H10.9547Z" fill="#EBEBEB"/>
<path d="M12.3732 63.0918C12.4049 63.0918 12.4315 64.0463 12.4315 65.2255C12.4315 66.4047 12.4049 67.3592 12.3732 67.3592C12.3416 67.3592 12.3133 66.4047 12.3133 65.2255C12.3133 64.0463 12.3399 63.0918 12.3732 63.0918Z" fill="#E0E0E0"/>
<path d="M13.021 63.0352C13.0526 63.0352 13.0793 63.9795 13.0793 65.1418C13.0793 66.3041 13.0526 67.2485 13.021 67.2485C12.9894 67.2485 12.9611 66.3058 12.9611 65.1418C12.9611 63.9778 12.9877 63.0352 13.021 63.0352Z" fill="#E0E0E0"/>
<path d="M18.5271 62.9004C18.5587 62.9004 18.5854 63.8937 18.5854 65.1202C18.5854 66.3467 18.5587 67.3384 18.5271 67.3384C18.4955 67.3384 18.4672 66.345 18.4672 65.1202C18.4672 63.8954 18.4938 62.9004 18.5271 62.9004Z" fill="#E0E0E0"/>
<path d="M17.7662 62.957C17.7978 62.957 17.8245 63.9234 17.8245 65.1177C17.8245 66.3121 17.7978 67.2785 17.7662 67.2785C17.7345 67.2785 17.7062 66.3121 17.7062 65.1177C17.7062 63.9234 17.7329 62.957 17.7662 62.957Z" fill="#E0E0E0"/>
<path d="M63.7187 53.3157C64.6045 52.8512 65.6451 52.792 66.6291 52.9559C67.157 53.0454 67.7064 53.2042 68.066 53.608C68.4257 54.0118 68.4923 54.7179 68.081 55.0626C67.8346 55.2687 67.4933 55.3008 67.1736 55.2957C66.4044 55.2872 65.5519 55.1504 64.9375 55.62C64.5862 55.887 64.3531 56.333 63.9385 56.4647C63.5239 56.5965 63.066 56.3482 62.8496 55.9731C62.6495 55.582 62.6054 55.1277 62.7264 54.7044C62.7754 54.4111 62.8904 54.1332 63.0625 53.8924C63.2347 53.6515 63.4592 53.4542 63.7187 53.3157Z" fill="#EBEBEB"/>
<path d="M61.6907 49.3443C62.2319 50.1282 63.2841 49.868 63.772 49.3899C64.2598 48.9118 64.4663 48.2175 64.6528 47.5552C65.0823 46.0449 65.5136 44.4586 65.1956 42.9196C65.1193 42.4527 64.917 42.0165 64.6111 41.6593C64.4564 41.4832 64.259 41.3512 64.0385 41.2766C63.818 41.2019 63.582 41.1871 63.3541 41.2336C62.8246 41.3772 62.4949 41.9093 62.2568 42.4043C61.5552 43.8849 61.1873 45.5053 61.1796 47.1481C61.1796 47.9117 61.2661 48.7125 61.6907 49.3443Z" fill="#EBEBEB"/>
<path d="M60.2106 50.4686C60.7983 49.7608 60.9099 48.7286 60.6485 47.8433C60.387 46.9581 59.796 46.2013 59.115 45.5863C58.3138 44.8626 57.3812 44.3042 56.3694 43.9426C55.9779 43.7827 55.5572 43.7101 55.1356 43.7297C54.9249 43.7421 54.7203 43.8066 54.5398 43.9176C54.3593 44.0286 54.2083 44.1828 54.1 44.3666C53.8103 44.9258 54.0883 45.6032 54.388 46.1574C54.9162 47.1315 55.5185 48.0624 56.1896 48.9414C56.7307 49.6493 57.3551 50.347 58.1726 50.6663C58.9901 50.9856 59.8526 50.9467 60.2888 50.3673" fill="#EBEBEB"/>
<path d="M61.6541 61.1741C61.6827 61.0573 61.6994 60.9379 61.704 60.8176C61.729 60.5592 61.759 60.2331 61.7973 59.8463C61.845 59.367 61.9167 58.8906 62.0121 58.4187C62.1373 57.8425 62.3083 57.2776 62.5232 56.7293C62.7342 56.1848 63.0195 55.673 63.3707 55.2089C63.657 54.8307 64.0227 54.5219 64.4413 54.3051C64.7258 54.1633 65.0302 54.067 65.3437 54.0196C65.4618 54.0159 65.579 53.9989 65.6934 53.9689C65.575 53.9557 65.4555 53.9557 65.3371 53.9689C65.0114 53.994 64.6928 54.0781 64.3963 54.2172C63.956 54.4285 63.5696 54.7401 63.2675 55.1278C62.9002 55.5989 62.6039 56.1227 62.3883 56.682C62.1733 57.2367 62.0061 57.8093 61.8888 58.3934C61.7982 58.8707 61.7353 59.353 61.7007 59.8378C61.6707 60.25 61.6591 60.5845 61.6541 60.816C61.6417 60.935 61.6417 61.055 61.6541 61.1741Z" fill="#E0E0E0"/>
<path d="M61.7207 60.4247C61.7307 60.369 61.7341 60.3123 61.7307 60.2558C61.7307 60.1324 61.7307 59.9753 61.7307 59.7827C61.7307 59.3739 61.7307 58.7792 61.7507 58.0461C61.7873 56.5797 61.9172 55.0052 62.1519 52.7752C62.3801 50.6837 62.6847 48.2476 63.0078 46.6647C63.076 46.3049 63.146 45.9805 63.2126 45.6967C63.2792 45.4129 63.3274 45.1679 63.3791 44.9702C63.4307 44.7726 63.459 44.6324 63.4873 44.5107C63.5023 44.4555 63.5123 44.3989 63.5173 44.3418C63.4918 44.3909 63.4728 44.4431 63.4606 44.4972C63.424 44.6155 63.3791 44.7658 63.3241 44.95C63.2692 45.1341 63.2026 45.3892 63.1326 45.673C63.0627 45.9568 62.9828 46.2795 62.9079 46.6394C62.5079 48.5115 62.2072 50.4041 62.0071 52.3089C61.7673 54.5389 61.6591 56.5695 61.6491 58.0393C61.6408 58.7742 61.6491 59.3688 61.6741 59.7794C61.6857 59.9719 61.6957 60.1291 61.7024 60.2524C61.7014 60.3104 61.7076 60.3683 61.7207 60.4247Z" fill="#E0E0E0"/>
<path d="M61.7307 56.5095C61.7434 56.3454 61.7434 56.1804 61.7307 56.0162C61.7124 55.6986 61.6691 55.2391 61.5808 54.6782C61.4747 54.0207 61.3318 53.3698 61.1529 52.7287C60.943 51.9399 60.6741 51.1684 60.3487 50.421C59.7916 49.0433 58.9922 47.7799 57.9894 46.6925C57.8146 46.5068 57.6289 46.3319 57.4333 46.1688C57.3484 46.0962 57.2668 46.0235 57.1969 45.9661L56.9821 45.8157C56.8525 45.7154 56.715 45.6261 56.5708 45.5488C56.5475 45.5809 57.1519 45.9408 57.9145 46.7652C58.8845 47.8621 59.6627 49.119 60.2155 50.4818C60.5336 51.2241 60.8023 51.9871 61.0197 52.7659C61.2312 53.4822 61.3711 54.141 61.4776 54.6951C61.5842 55.2493 61.6358 55.7088 61.6708 56.0213C61.6778 56.1854 61.6978 56.3487 61.7307 56.5095Z" fill="#E0E0E0"/>
<path d="M57.7413 62.8203L58.1293 68.1959H64.9342L65.3221 62.8203H57.7413Z" fill="#EBEBEB"/>
<path d="M66.133 60.7031H57.0837V62.8216H66.133V60.7031Z" fill="#EBEBEB"/>
<path d="M57.0837 67.9922V68.5801H57.5099H65.9848V67.9922H57.0837Z" fill="#E0E0E0"/>
<path d="M57.9262 69.5478L57.5099 68.5156H65.6602L65.174 69.5478H57.9262Z" fill="#E0E0E0"/>
<path d="M65.1956 64.579C65.1873 64.5967 65.1766 64.6132 65.164 64.628C65.1357 64.6652 65.1024 64.7091 65.0624 64.7648L64.6645 65.2801L64.6478 65.3037L64.6312 65.2784C64.3814 64.9287 64.0484 64.4624 63.6572 63.9117H63.7071L62.7481 65.2902L62.7181 65.3325L62.6848 65.2919L61.5526 63.9151H61.6175L61.5559 63.9945L60.5436 65.2919L60.5086 65.3358L60.4787 65.2902C60.1323 64.7952 59.8127 64.3307 59.5179 63.9134H59.5746L58.3924 65.2801L58.3724 65.3037L58.3558 65.2767L57.9861 64.6466C57.9462 64.5773 57.9162 64.5216 57.8912 64.4776C57.8789 64.4592 57.8689 64.4394 57.8613 64.4185C57.8766 64.4343 57.89 64.4519 57.9012 64.4709L58.0061 64.6398L58.3941 65.2598H58.3574L59.5229 63.8762L59.5512 63.8424L59.5779 63.8796L60.5469 65.2514H60.4803L61.496 63.9556L61.5576 63.8745L61.5909 63.834L61.6242 63.8745L62.758 65.2497H62.6948L63.6638 63.8779L63.6921 63.8374L63.7188 63.8779L64.6728 65.2598H64.6378C64.8127 65.047 64.9492 64.8797 65.0508 64.753L65.1607 64.6229C65.1806 64.5908 65.194 64.5773 65.1956 64.579Z" fill="#F5F5F5"/>
<path d="M65.417 62.7864C65.417 62.81 63.7104 62.8286 61.6075 62.8286C59.5046 62.8286 57.798 62.81 57.798 62.7864C57.798 62.7627 59.5029 62.7441 61.6075 62.7441C63.7121 62.7441 65.417 62.7627 65.417 62.7864Z" fill="#F5F5F5"/>
<path d="M26.6124 6.78685C26.6124 6.78685 26.5974 6.78685 26.5724 6.77503L26.4625 6.7311L26.043 6.55372L24.5028 5.87796L19.4412 3.64122L19.2647 3.56182H19.3013L14.3413 5.72254L12.8428 6.36113L12.4332 6.53007C12.3865 6.55181 12.338 6.56933 12.2883 6.58244C12.3325 6.5557 12.3787 6.53254 12.4265 6.51317L12.8295 6.32734L14.328 5.66003L19.2764 3.48242H19.2947H19.313L19.4895 3.56013L24.5411 5.8239L26.0679 6.51824L26.4808 6.71252L26.5874 6.76489C26.5966 6.7712 26.6049 6.77857 26.6124 6.78685Z" fill="#E0E0E0"/>
<path d="M34.5079 6.05078H1.99194V30.7546H34.5079V6.05078Z" fill="#E0E0E0"/>
<path d="M33.4938 7.19727H3.12909V29.737H33.4938V7.19727Z" fill="#FAFAFA"/>
<path d="M9.83575 17.0469C9.83575 17.0469 9.86739 20.8294 10.0572 21.9849L14.7342 21.7602C14.7342 21.7602 14.3246 18.0436 14.4828 17.0469H9.83575Z" fill="#E0E0E0"/>
<path d="M12.1401 17.5788H12.2084C12.2735 17.5763 12.3386 17.5797 12.4032 17.5889C12.5056 17.6043 12.6054 17.6345 12.6995 17.6784C12.8241 17.741 12.9342 17.8297 13.0225 17.9386C13.1311 18.071 13.2081 18.2271 13.2473 18.3947C13.2839 18.591 13.2672 18.7936 13.199 18.9809C13.1642 19.0828 13.1202 19.1812 13.0675 19.2749C13.0116 19.3702 12.9616 19.469 12.9177 19.5705C12.8244 19.786 12.7605 20.0133 12.7278 20.2463V20.2615H12.7129H12.2516H11.7671H11.7488V20.2446C11.7281 20.0128 11.6508 19.7899 11.524 19.5959C11.4674 19.4979 11.4058 19.4084 11.3575 19.3154C11.2971 19.228 11.2415 19.1372 11.191 19.0435C11.1056 18.864 11.0799 18.6612 11.1178 18.4657C11.145 18.2969 11.2068 18.1357 11.2993 17.9927C11.3782 17.8777 11.4818 17.7824 11.6023 17.7139C11.751 17.6339 11.9141 17.585 12.0818 17.5703H12.1484C12.1484 17.5703 12.1484 17.5703 12.1318 17.5703H12.0818C12.0183 17.5779 11.9554 17.5903 11.8937 17.6075C11.7952 17.6336 11.7006 17.6728 11.6123 17.724C11.4945 17.7916 11.3936 17.8858 11.3176 17.9994C11.2316 18.1412 11.1749 18.2993 11.1511 18.464C11.1147 18.6535 11.1405 18.8499 11.2243 19.0232C11.2753 19.1155 11.3309 19.2052 11.3908 19.2918C11.4491 19.3813 11.5107 19.4742 11.5673 19.5722C11.6988 19.7707 11.7784 19.9997 11.7988 20.2378L11.7805 20.2193H12.265H12.7278L12.7095 20.2362C12.7428 20.0002 12.8078 19.77 12.9027 19.552C12.9484 19.4496 12.9995 19.3497 13.0558 19.2529C13.1076 19.1614 13.151 19.0652 13.1857 18.9657C13.2531 18.7841 13.271 18.5875 13.2373 18.3964C13.1994 18.2329 13.126 18.0799 13.0225 17.9487C12.9367 17.8412 12.8294 17.7531 12.7079 17.6903C12.6157 17.6451 12.5176 17.6137 12.4165 17.5973C12.3531 17.5875 12.2891 17.5818 12.225 17.5805H12.1734C12.1468 17.5805 12.1401 17.5804 12.1401 17.5788Z" fill="white"/>
<path d="M12.3799 20.2171C12.3796 20.212 12.3796 20.207 12.3799 20.2019V20.158C12.3799 20.1191 12.3649 20.0617 12.3549 19.989C12.3333 19.8404 12.3016 19.6275 12.2817 19.3623C12.2817 19.2964 12.2717 19.2271 12.27 19.1545C12.2658 19.0785 12.2658 19.0024 12.27 18.9264C12.2718 18.8449 12.2893 18.7646 12.3216 18.6899C12.3576 18.6093 12.4216 18.5449 12.5014 18.5091C12.544 18.491 12.5908 18.486 12.6361 18.4947C12.6814 18.5034 12.7232 18.5255 12.7562 18.5581C12.7738 18.5747 12.7876 18.5948 12.7968 18.6173C12.806 18.6397 12.8103 18.6639 12.8095 18.6882C12.8085 18.7372 12.7922 18.7845 12.7628 18.8234C12.7327 18.8629 12.694 18.8947 12.6496 18.9163C12.6056 18.9373 12.5592 18.9526 12.5114 18.9619C12.3164 19.0024 12.116 19.0092 11.9187 18.9822C11.8699 18.9754 11.8222 18.9618 11.7772 18.9416C11.7332 18.9216 11.6936 18.8929 11.6606 18.8572C11.6268 18.8214 11.6032 18.777 11.5923 18.7288C11.5819 18.6815 11.5877 18.632 11.609 18.5885C11.6283 18.5448 11.6635 18.5103 11.7072 18.4923C11.728 18.4832 11.7504 18.4785 11.773 18.4785C11.7956 18.4785 11.818 18.4832 11.8388 18.4923C11.879 18.5108 11.9135 18.5399 11.9387 18.5767C11.9621 18.6128 11.979 18.6529 11.9886 18.695C12.0027 18.7753 12.0105 18.8567 12.0119 18.9383L12.0352 19.3724C12.0469 19.6377 12.0585 19.8522 12.0652 20.0026C12.0652 20.0752 12.0652 20.1326 12.0652 20.1715V20.2306C12.0656 20.2256 12.0656 20.2205 12.0652 20.2154C12.0652 20.2053 12.0652 20.1901 12.0652 20.1715C12.0652 20.1529 12.0652 20.0735 12.0552 20.0026C12.0552 19.8522 12.0336 19.6377 12.0186 19.3724C12.0186 19.2406 12.0036 19.0954 11.9953 18.9383C11.9942 18.8577 11.9858 18.7774 11.9703 18.6984C11.9622 18.6579 11.9463 18.6195 11.9237 18.5852C11.899 18.5508 11.8664 18.5229 11.8288 18.5041C11.8096 18.4958 11.7889 18.4915 11.768 18.4915C11.7471 18.4915 11.7264 18.4958 11.7072 18.5041C11.6667 18.5212 11.634 18.5532 11.6157 18.5936C11.5965 18.6347 11.5912 18.681 11.6007 18.7254C11.6119 18.7703 11.6342 18.8116 11.6656 18.8453C11.7332 18.913 11.8211 18.9558 11.9154 18.967C12.013 18.98 12.1116 18.9845 12.2101 18.9805C12.3085 18.9779 12.4066 18.9666 12.5031 18.9467C12.5499 18.9376 12.5952 18.9223 12.638 18.9011C12.6802 18.8805 12.7172 18.8505 12.7462 18.8132C12.7737 18.7767 12.7894 18.7325 12.7911 18.6865C12.7911 18.6642 12.7866 18.6421 12.778 18.6215C12.7694 18.6009 12.7569 18.5822 12.7412 18.5666C12.7099 18.5363 12.6706 18.5157 12.6281 18.5073C12.5857 18.4989 12.5417 18.5031 12.5014 18.5193C12.4275 18.5531 12.3683 18.6132 12.3349 18.6882C12.3033 18.7619 12.2858 18.841 12.2833 18.9214C12.2833 18.9991 12.2833 19.0734 12.2833 19.146C12.2833 19.2187 12.2833 19.288 12.295 19.3555C12.315 19.6208 12.3449 19.8336 12.3632 19.9806C12.3732 20.0549 12.3816 20.1107 12.3866 20.1495V20.1935C12.3853 20.2016 12.383 20.2095 12.3799 20.2171Z" fill="white"/>
<path d="M11.7589 20.2422C11.7664 20.2943 11.7709 20.3468 11.7722 20.3994C11.7722 20.512 11.7788 20.6488 11.7921 20.8099V20.7997L12.1085 21.1731H12.0919L12.4565 21.1528H12.4415L12.6213 20.9298L12.7129 20.8166V20.8318C12.7129 20.6139 12.7029 20.4095 12.6996 20.2237L12.7196 20.2422H12.0386H11.7589C11.7804 20.2391 11.8022 20.2391 11.8238 20.2422L12.0153 20.2321L12.7079 20.2051H12.7279V20.2253C12.7279 20.4129 12.7395 20.6173 12.7462 20.8335V20.8352C12.7162 20.8724 12.6863 20.9112 12.6546 20.9484L12.4731 21.1731H12.4631L12.0985 21.1917H12.0919L11.7822 20.8183C11.7822 20.6494 11.7822 20.5142 11.7822 20.396C11.7714 20.3452 11.7636 20.2939 11.7589 20.2422Z" fill="white"/>
<path d="M12.7046 20.7751C12.7046 20.7751 12.6912 20.7751 12.6696 20.7599C12.6386 20.7458 12.6069 20.7334 12.5747 20.7227C12.4678 20.6849 12.3548 20.6677 12.2417 20.672C12.1273 20.6746 12.0144 20.6986 11.9087 20.743L11.8171 20.7869L11.7838 20.8038C11.7924 20.7947 11.8026 20.7873 11.8138 20.7819C11.8433 20.7636 11.8739 20.7473 11.9054 20.7329C12.0104 20.6856 12.1235 20.6597 12.2384 20.6568C12.3519 20.6526 12.4652 20.6715 12.5714 20.7126C12.6035 20.7242 12.6346 20.7383 12.6646 20.7548L12.7046 20.7751Z" fill="white"/>
<path d="M12.7029 20.6299L12.6696 20.6147L12.5747 20.5759C12.4675 20.539 12.3548 20.5219 12.2417 20.5252C12.1275 20.5294 12.0149 20.5534 11.9087 20.5962C11.8687 20.6131 11.8388 20.6283 11.8171 20.6401L11.7838 20.657L11.8138 20.635C11.843 20.6168 11.8736 20.601 11.9054 20.5877C12.0102 20.5398 12.1234 20.5134 12.2384 20.51C12.3518 20.5074 12.4647 20.5263 12.5714 20.5657C12.6113 20.5826 12.643 20.5978 12.6646 20.6097C12.6862 20.6215 12.7046 20.6283 12.7029 20.6299Z" fill="white"/>
<path d="M12.6946 20.4876L12.6613 20.4741C12.638 20.464 12.6064 20.4487 12.5664 20.4352C12.4592 20.3984 12.3465 20.3813 12.2334 20.3846C12.119 20.3868 12.006 20.4109 11.9004 20.4555C11.8604 20.4724 11.8305 20.4876 11.8088 20.4994L11.7755 20.5163L11.8055 20.4944C11.8348 20.4758 11.8654 20.4594 11.8971 20.4454C12.0023 20.3989 12.1153 20.3731 12.2301 20.3693C12.3435 20.3669 12.4564 20.3858 12.5631 20.4251C12.5951 20.4375 12.6263 20.4522 12.6563 20.469C12.6702 20.4726 12.6832 20.4789 12.6946 20.4876Z" fill="white"/>
<path d="M4.62762 10.8691C4.62762 10.8691 4.65926 14.6534 4.84907 15.8072L9.52607 15.5825C9.52607 15.5825 9.11482 11.8659 9.27299 10.8691H4.62762Z" fill="#EBEBEB"/>
<path d="M8.56873 12.4483C8.04961 12.5263 7.52648 12.5737 7.00196 12.5902C6.47896 12.6392 5.9535 12.6555 5.42853 12.6392C5.94776 12.5623 6.47084 12.5149 6.9953 12.4973C7.51842 12.4504 8.04376 12.4341 8.56873 12.4483Z" fill="white"/>
<path d="M8.56871 13.249C8.04972 13.3283 7.52654 13.3762 7.00194 13.3926C6.47938 13.4395 5.95459 13.4558 5.43018 13.4416C5.94928 13.3635 6.47242 13.3161 6.99695 13.2997C7.51945 13.2518 8.04427 13.2348 8.56871 13.249Z" fill="white"/>
<path d="M7.77448 14.0387C7.48113 14.1029 7.18213 14.1369 6.88204 14.1401C6.58422 14.1708 6.28409 14.1708 5.98627 14.1401C6.27907 14.0759 6.57751 14.042 6.87705 14.0387C7.17542 14.0079 7.47611 14.0079 7.77448 14.0387Z" fill="white"/>
<path d="M4.40619 21.9922C4.40619 21.9922 4.43782 25.7747 4.62763 26.9302L9.30464 26.7056C9.30464 26.7056 8.89338 22.9889 9.05156 21.9922H4.40619Z" fill="#EBEBEB"/>
<path d="M8.34728 23.581C7.82826 23.6601 7.30509 23.708 6.78051 23.7246C6.25794 23.7715 5.73315 23.7878 5.20874 23.7736C5.72728 23.6954 6.24987 23.6481 6.77385 23.6317C7.29691 23.5838 7.82228 23.5669 8.34728 23.581Z" fill="white"/>
<path d="M8.34728 24.3819C7.82819 24.4601 7.30504 24.5075 6.78051 24.5238C6.25794 24.5707 5.73315 24.5871 5.20874 24.5728C5.72784 24.4947 6.25098 24.4474 6.77551 24.4309C7.29807 24.384 7.82286 24.3677 8.34728 24.3819Z" fill="white"/>
<path d="M7.55305 25.1706C7.26026 25.2347 6.96177 25.2681 6.66227 25.2703C6.36417 25.3039 6.06349 25.3067 5.76483 25.2788C6.05764 25.2146 6.35608 25.1807 6.65561 25.1774C6.95373 25.1438 7.25447 25.1415 7.55305 25.1706Z" fill="white"/>
<path d="M17.1885 11.8613L17.6513 22.7747L31.078 22.9386L30.4752 12.0049L17.1885 11.8613Z" fill="#EBEBEB"/>
<path d="M30.3703 11.7852H17.0319V22.0042H30.3703V11.7852Z" fill="#F5F5F5"/>
<path d="M30.3703 22.0054C30.3703 22.0054 30.3703 21.9396 30.3703 21.8145C30.3703 21.6895 30.3703 21.5071 30.3703 21.2706C30.3703 20.7908 30.3703 20.088 30.3603 19.2028C30.3603 17.4205 30.3487 14.8712 30.3403 11.7864L30.3786 11.8235H17.0419L17.0885 11.7779C17.0885 15.4523 17.0885 18.9325 17.0885 21.997L17.0469 21.9548L26.6673 21.975L29.4046 21.9869H30.1322H30.3203H30.3853H30.1405L29.4079 22.019L26.6823 22.0308L17.0253 22.0511H16.9836V22.0105C16.9836 18.946 16.9836 15.4658 16.9836 11.7914V11.7441H17.0303H30.367H30.4069V11.783C30.4069 14.8763 30.3919 17.4357 30.3869 19.2163C30.3869 20.1032 30.3869 20.7975 30.377 21.2756C30.377 21.5088 30.377 21.6878 30.377 21.8129C30.3736 21.9446 30.3703 22.0054 30.3703 22.0054Z" fill="#E0E0E0"/>
<path d="M24.0482 13.9512H18.642V20.8557H24.0482V13.9512Z" fill="#F5F5F5"/>
<path d="M24.0482 20.8557C24.0464 20.8439 24.0464 20.8319 24.0482 20.8202V20.7222C24.0482 20.631 24.0482 20.506 24.0482 20.3455C24.0482 20.0076 24.0482 19.5329 24.0382 18.9281C24.0382 17.7134 24.0249 15.9936 24.0166 13.9512L24.0582 13.9934H18.6519C18.6403 13.9934 18.7385 13.9055 18.6969 13.9478V15.8247C18.6969 16.4379 18.6969 17.036 18.6969 17.6154C18.6969 18.776 18.6969 19.8623 18.6969 20.8489L18.6603 20.81L22.5747 20.8303L23.6719 20.8405H23.9633H24.0665C24.035 20.8428 24.0032 20.8428 23.9716 20.8405H23.6886L22.598 20.8506L18.6603 20.8709H18.622V20.832C18.622 19.8454 18.622 18.7591 18.622 17.5985C18.622 17.0191 18.622 16.416 18.622 15.8078V13.9545C18.5803 13.9951 18.6769 13.8954 18.6686 13.9072H24.0749H24.1165V13.9495C24.1082 16.0021 24.0998 17.732 24.0949 18.9534L24.0849 20.3607C24.0849 20.5183 24.0849 20.6417 24.0849 20.7306C24.0849 20.7678 24.0849 20.7982 24.0849 20.8236C24.0739 20.8357 24.0616 20.8465 24.0482 20.8557Z" fill="#E0E0E0"/>
<path d="M29.2098 12.3691H18.8484V13.3642H29.2098V12.3691Z" fill="#F5F5F5"/>
<path d="M29.2098 13.364C29.2098 13.364 29.2098 13.3387 29.2098 13.2965C29.2098 13.2542 29.2098 13.1833 29.2098 13.1022C29.2098 12.9332 29.2098 12.6849 29.1981 12.369L29.2165 12.3876C27.4699 12.4045 23.4872 12.4163 18.8551 12.4163C18.9467 12.3217 18.8801 12.3893 18.9017 12.369V13.3607L18.8568 13.3134L26.2011 13.3336L28.4056 13.3471H29.005H29.1632C29.1815 13.3458 29.1998 13.3458 29.2181 13.3471H29.1698H29.0183H28.4289L26.2344 13.3623L18.8568 13.3809H18.8118V13.3353C18.8118 13.1765 18.8118 13.0126 18.8118 12.8471V12.3403L18.8584 12.293C23.4905 12.293 27.4732 12.3048 29.2198 12.3217H29.2398V12.3403C29.2398 12.6596 29.2398 12.9096 29.2298 13.0853C29.2298 13.1647 29.2298 13.2255 29.2298 13.2728C29.2284 13.3042 29.2217 13.335 29.2098 13.364Z" fill="#E0E0E0"/>
<path d="M29.2098 13.9512H24.7093V18.1121H29.2098V13.9512Z" fill="#F5F5F5"/>
<path d="M29.2098 18.1099C29.2098 18.1099 29.2098 18.0811 29.2098 18.0305V17.8041C29.2098 17.6014 29.2098 17.3158 29.1998 16.9594C29.1998 16.2262 29.1881 15.194 29.1798 13.9523L29.2181 13.9928H24.7226L24.7675 13.9472V15.0639C24.7675 15.4288 24.7675 15.787 24.7675 16.1367C24.7675 16.8344 24.7675 17.4882 24.7675 18.1065L24.7259 18.0659L27.9727 18.0862L28.8934 18.098H29.1398C29.1686 18.0956 29.1976 18.0956 29.2264 18.098C29.2004 18.1005 29.1742 18.1005 29.1482 18.098H28.9101L27.9993 18.1082L24.7259 18.1284H24.6859V18.0862C24.6859 17.4763 24.6859 16.8141 24.6859 16.1164C24.6859 15.7667 24.6859 15.4085 24.6859 15.0436V13.9269C24.6443 13.9675 24.7409 13.8695 24.7326 13.8796H29.2281H29.268V13.9185C29.2597 15.1703 29.2531 16.2127 29.2481 16.9594C29.2481 17.3142 29.2397 17.5963 29.2381 17.8041C29.2381 17.8931 29.2381 17.9657 29.2381 18.022C29.2326 18.0525 29.2231 18.082 29.2098 18.1099Z" fill="#E0E0E0"/>
<path d="M29.2098 18.7637H24.7093V20.8551H29.2098V18.7637Z" fill="#F5F5F5"/>
<path d="M29.2098 20.8542C29.2098 20.8542 29.2098 20.8001 29.2098 20.7022L29.2015 20.2832C29.2015 19.9132 29.1915 19.398 29.1832 18.7628L29.2165 18.7965L24.721 18.8101C24.6793 18.8523 24.7759 18.7526 24.7659 18.7644V19.8406C24.7659 20.1903 24.7659 20.5298 24.7659 20.8542L24.721 20.8103L27.9394 20.8306L28.8785 20.8441H29.1316H29.2215C29.1949 20.8466 29.1681 20.8466 29.1416 20.8441H28.8968L27.9694 20.8576L24.721 20.8779H24.6777V20.8339C24.6777 20.5096 24.6777 20.17 24.6777 19.8203V18.7442C24.6677 18.7442 24.7643 18.6546 24.7243 18.6969L29.2198 18.7087H29.2415V18.7425C29.2415 19.3861 29.2281 19.9098 29.2248 20.2832C29.2248 20.4521 29.2248 20.5924 29.2248 20.6954C29.2249 20.7487 29.2199 20.8019 29.2098 20.8542Z" fill="#E0E0E0"/>
<path d="M23.9134 13.9609C22.2384 16.3075 20.3137 18.5071 18.6403 20.8536L23.9134 13.9609Z" fill="white"/>
<path d="M18.642 20.8537C18.642 20.8537 18.6536 20.825 18.6853 20.776L18.8268 20.5665C18.95 20.384 19.1348 20.1256 19.3679 19.8097C19.8324 19.1745 20.4968 18.3162 21.2427 17.3786C21.9886 16.441 22.6596 15.5896 23.1358 14.9662L23.7003 14.2279L23.8551 14.0269C23.8917 13.983 23.9117 13.9593 23.915 13.961C23.903 13.9886 23.8879 14.0146 23.8701 14.0387L23.7286 14.2482C23.6054 14.4307 23.4205 14.6891 23.1874 15.0067C22.7229 15.6403 22.0586 16.4985 21.3126 17.4361C20.5667 18.3737 19.8974 19.2251 19.4195 19.8485L18.8551 20.5885L18.7002 20.7878C18.6834 20.812 18.6639 20.8341 18.642 20.8537Z" fill="#E0E0E0"/>
<path d="M24.0483 20.8558C24.0283 20.871 22.8012 19.3354 21.3094 17.4331C19.8175 15.5309 18.622 13.9682 18.6454 13.9513C18.6687 13.9344 19.8908 15.4718 21.3843 17.3757C22.8778 19.2796 24.0683 20.8372 24.0483 20.8558Z" fill="#E0E0E0"/>
<path d="M17.6513 13.9637C17.6513 14.1334 17.6017 14.2993 17.5088 14.4405C17.4158 14.5816 17.2837 14.6916 17.1292 14.7566C16.9746 14.8215 16.8045 14.8385 16.6405 14.8054C16.4764 14.7723 16.3257 14.6905 16.2074 14.5705C16.0891 14.4505 16.0085 14.2976 15.9759 14.1311C15.9433 13.9646 15.96 13.7921 16.024 13.6353C16.0881 13.4784 16.1965 13.3444 16.3356 13.2501C16.4747 13.1558 16.6382 13.1055 16.8055 13.1055C17.0297 13.1059 17.2446 13.1965 17.4031 13.3573C17.5616 13.5182 17.6509 13.7362 17.6513 13.9637Z" fill="#E0E0E0"/>
<path d="M31.4859 11.8836C31.4859 12.0533 31.4363 12.2193 31.3434 12.3604C31.2504 12.5015 31.1183 12.6115 30.9638 12.6765C30.8092 12.7414 30.6391 12.7584 30.4751 12.7253C30.311 12.6922 30.1603 12.6105 30.042 12.4904C29.9237 12.3704 29.8431 12.2175 29.8105 12.051C29.7779 11.8845 29.7946 11.712 29.8586 11.5552C29.9227 11.3984 30.0311 11.2643 30.1702 11.17C30.3093 11.0757 30.4728 11.0254 30.6401 11.0254C30.8643 11.0258 31.0791 11.1164 31.2377 11.2772C31.3962 11.4381 31.4855 11.6561 31.4859 11.8836Z" fill="#E0E0E0"/>
<path d="M64.5729 17.8613H54.8259V32.1974H64.5729V17.8613Z" fill="#E0E0E0"/>
<path d="M64.085 17.8613H54.3381V32.1974H64.085V17.8613Z" fill="#F5F5F5"/>
<path d="M62.8746 19.4102H55.5485V30.6412H62.8746V19.4102Z" fill="white"/>
<path d="M62.8745 30.6433C62.8745 30.6433 62.8745 30.623 62.8745 30.5875C62.8745 30.5521 62.8745 30.498 62.8745 30.4287C62.8745 30.2868 62.8745 30.0807 62.8745 29.8121C62.8745 29.2749 62.8745 28.4893 62.8745 27.4993C62.8745 25.5194 62.8745 22.715 62.8629 19.4123L62.8878 19.4376H55.5485L55.5751 19.4106C55.5751 23.6476 55.5751 27.5534 55.5751 30.6416L55.5535 30.6196L60.8815 30.6315H62.355H62.7413H62.8762H62.7463H62.3634H60.8948L55.5501 30.6416H55.5285V30.6213C55.5285 27.5331 55.5285 23.6273 55.5285 19.3903V19.3633H55.5485H62.8745H62.8978V19.3869C62.8978 22.6964 62.8895 25.5059 62.8862 27.496C62.8862 28.4843 62.8862 29.2664 62.8862 29.8037C62.8862 30.0689 62.8862 30.2733 62.8862 30.4135C62.8862 30.4828 62.8862 30.5335 62.8862 30.5706L62.8745 30.6433Z" fill="#E0E0E0"/>
<path d="M64.1117 17.8613C64.0647 17.9523 64.0089 18.0383 63.9452 18.1181C63.8319 18.2718 63.6704 18.4796 63.4873 18.706C63.3041 18.9324 63.1326 19.1317 63.0061 19.2753C62.9415 19.3557 62.8696 19.4298 62.7913 19.4966C62.8469 19.4095 62.9092 19.327 62.9778 19.25L63.4473 18.6722L63.9152 18.0945C63.975 18.012 64.0407 17.9341 64.1117 17.8613Z" fill="#E0E0E0"/>
<path d="M62.9112 30.6055C63.2749 31.1935 63.7033 31.7376 64.1883 32.2273L62.9112 30.6055Z" fill="white"/>
<path d="M64.1883 32.2273C64.1072 32.1671 64.0329 32.0979 63.9668 32.0212C63.7966 31.8462 63.6354 31.6624 63.484 31.4704C63.3326 31.2785 63.1909 31.0789 63.0594 30.8724C63.0008 30.789 62.9511 30.6995 62.9112 30.6055C62.9767 30.6828 63.0367 30.7646 63.091 30.8504C63.1976 31.0042 63.3491 31.212 63.5256 31.4366C63.7021 31.6613 63.8702 31.8556 63.9934 31.9958C64.0642 32.0677 64.1294 32.1451 64.1883 32.2273Z" fill="#E0E0E0"/>
<path d="M54.3364 32.1821L55.6135 30.584L54.3364 32.1821Z" fill="white"/>
<path d="M55.6135 30.584C55.6235 30.584 55.3471 30.959 54.9958 31.4C54.7875 31.6724 54.5652 31.9335 54.3298 32.1821C54.7276 31.6271 55.1538 31.0936 55.6068 30.584H55.6135Z" fill="#E0E0E0"/>
<path d="M54.3381 17.8613C54.5568 18.1012 54.7635 18.3521 54.9575 18.6131C55.1642 18.8639 55.3571 19.1262 55.5352 19.3987C55.3158 19.1576 55.109 18.905 54.9158 18.6418C54.7086 18.3931 54.5157 18.1325 54.3381 17.8613Z" fill="#E0E0E0"/>
<path d="M60.5918 21.6914H58.1393V28.7581H60.5918V21.6914Z" fill="#E0E0E0"/>
<path d="M62.3265 2.62711L60.9313 2.63477L60.9688 9.67938L62.3641 9.67172L62.3265 2.62711Z" fill="#E0E0E0"/>
<path d="M52.4566 2.64423L48.8436 2.66406L48.8644 6.55296L52.4774 6.53313L52.4566 2.64423Z" fill="#EBEBEB"/>
<path d="M56.0512 2.6247L52.4382 2.64453L52.459 6.53343L56.072 6.51359L56.0512 2.6247Z" fill="#F5F5F5"/>
<path d="M48.8485 3.74332C51.2495 3.76359 53.6571 3.74332 56.058 3.70953C56.0682 3.70953 56.0779 3.70544 56.0851 3.69815C56.0923 3.69086 56.0963 3.68098 56.0963 3.67067C56.0963 3.66037 56.0923 3.65049 56.0851 3.6432C56.0779 3.63591 56.0682 3.63182 56.058 3.63182C53.6549 3.6183 51.2517 3.63294 48.8485 3.67574C48.8397 3.67574 48.8312 3.6793 48.825 3.68564C48.8188 3.69198 48.8152 3.70057 48.8152 3.70953C48.8152 3.71849 48.8188 3.72709 48.825 3.73342C48.8312 3.73976 48.8397 3.74332 48.8485 3.74332Z" fill="#E0E0E0"/>
<path d="M53.1548 6.47177L46.5897 6.50781L46.6066 9.67705L53.1717 9.641L53.1548 6.47177Z" fill="#EBEBEB"/>
<path d="M59.6895 6.43466L53.1245 6.4707L53.1414 9.63994L59.7064 9.6039L59.6895 6.43466Z" fill="#F5F5F5"/>
<path d="M46.5942 7.39022C50.9565 7.4409 55.3321 7.39022 59.6928 7.32433C59.7029 7.32433 59.7127 7.32024 59.7198 7.31295C59.727 7.30566 59.7311 7.29578 59.7311 7.28548C59.7311 7.27517 59.727 7.26529 59.7198 7.258C59.7127 7.25071 59.7029 7.24662 59.6928 7.24662C55.3304 7.22297 50.9548 7.22635 46.5942 7.32264C46.5853 7.32264 46.5769 7.3262 46.5706 7.33254C46.5644 7.33888 46.5609 7.34747 46.5609 7.35643C46.5609 7.36539 46.5644 7.37399 46.5706 7.38032C46.5769 7.38666 46.5853 7.39022 46.5942 7.39022Z" fill="#E0E0E0"/>
<path d="M69.5746 9.67773H44.14V10.813H69.5746V9.67773Z" fill="#E0E0E0"/>
<path d="M49.3364 10.2227H48.3041V14.0964H49.3364V10.2227Z" fill="#E0E0E0"/>
<path d="M64.7493 10.2227H63.717V14.0964H64.7493V10.2227Z" fill="#E0E0E0"/>
<path d="M63.6877 0.000152851L62.2925 0.0078125L62.3441 9.69627L63.7394 9.68861L63.6877 0.000152851Z" fill="#EBEBEB"/>
<path d="M65.8685 1.80451L63.7007 1.81641L63.7426 9.66853L65.9104 9.65663L65.8685 1.80451Z" fill="#F5F5F5"/>
<path d="M65.8533 3.3183C65.1327 3.36995 64.4094 3.36995 63.6888 3.3183C64.4095 3.2689 65.1326 3.2689 65.8533 3.3183Z" fill="#E0E0E0"/>
<path d="M65.8533 2.98822C65.1327 3.03987 64.4094 3.03987 63.6888 2.98822C64.4095 2.93882 65.1326 2.93882 65.8533 2.98822Z" fill="#E0E0E0"/>
<path d="M65.8533 8.4765C65.1327 8.52815 64.4094 8.52815 63.6888 8.4765C64.4095 8.4271 65.1326 8.4271 65.8533 8.4765Z" fill="#E0E0E0"/>
<path d="M65.8533 8.14643C65.1327 8.19807 64.4094 8.19807 63.6888 8.14643C64.4095 8.09702 65.1326 8.09702 65.8533 8.14643Z" fill="#E0E0E0"/>
<path d="M64.8043 7.42624C64.7826 7.42624 64.766 6.63392 64.766 5.65745C64.766 4.68099 64.7826 3.88867 64.8043 3.88867C64.8259 3.88867 64.8409 4.68099 64.8409 5.65745C64.8409 6.63392 64.8243 7.42624 64.8043 7.42624Z" fill="#E0E0E0"/>
<path d="M68.2359 3.73438H65.8766V9.66072H68.2359V3.73438Z" fill="#EBEBEB"/>
<path d="M67.1237 8.12368C67.0534 8.12783 66.9831 8.11688 66.9173 8.09155C66.8515 8.06621 66.7918 8.02706 66.7419 7.97666C66.6921 7.92626 66.6533 7.86575 66.6282 7.79909C66.603 7.73242 66.592 7.66112 66.5958 7.58984C66.592 7.51215 66.6076 7.43474 66.6411 7.36476C66.6745 7.29479 66.7248 7.23449 66.7873 7.18945L66.8406 7.26547C66.7906 7.30253 66.7503 7.35149 66.7233 7.40805C66.6963 7.46461 66.6834 7.52704 66.6858 7.58984C66.6858 7.70767 66.7319 7.82069 66.814 7.90401C66.8961 7.98733 67.0075 8.03414 67.1237 8.03414C67.2398 8.03414 67.3512 7.98733 67.4333 7.90401C67.5154 7.82069 67.5616 7.70767 67.5616 7.58984C67.564 7.52684 67.551 7.46421 67.5237 7.40759C67.4964 7.35097 67.4556 7.30213 67.405 7.26547L67.46 7.18945C67.5217 7.23511 67.5714 7.29557 67.6045 7.36543C67.6376 7.43529 67.6532 7.51239 67.6498 7.58984C67.6536 7.66097 67.6427 7.73212 67.6176 7.79866C67.5925 7.8652 67.5539 7.92563 67.5043 7.976C67.4546 8.02637 67.395 8.06556 67.3295 8.09101C67.2639 8.11645 67.1938 8.12759 67.1237 8.12368Z" fill="#FAFAFA"/>
<path d="M67.5167 7.04301L67.4384 6.9974C67.5202 6.88815 67.5641 6.7545 67.5633 6.61729C67.5633 6.39598 67.485 6.30644 67.3685 6.30644C67.0654 6.30644 67.2886 7.00584 66.8806 7.00584C66.7241 7.00584 66.5959 6.87238 66.5959 6.60546C66.5939 6.47742 66.6292 6.35163 66.6975 6.24393L66.7774 6.29124C66.7146 6.38412 66.682 6.49456 66.6842 6.60715C66.6842 6.81325 66.7674 6.90448 66.879 6.90448C67.1903 6.90448 66.9705 6.20508 67.3668 6.20508C67.5333 6.20508 67.6499 6.35374 67.6499 6.62236C67.6549 6.77401 67.6078 6.92272 67.5167 7.04301Z" fill="#FAFAFA"/>
<path d="M67.5167 6.07817L67.4384 6.03255C67.5202 5.9233 67.5641 5.78966 67.5633 5.65244C67.5633 5.43113 67.485 5.3416 67.3685 5.3416C67.0654 5.3416 67.2886 6.03931 66.8806 6.03931C66.7241 6.03931 66.5959 5.90754 66.5959 5.64062C66.5939 5.51258 66.6292 5.38679 66.6975 5.27909L66.7774 5.3247C66.7148 5.4183 66.6823 5.52922 66.6842 5.64231C66.6842 5.84841 66.7674 5.93964 66.879 5.93964C67.1903 5.93964 66.9705 5.24023 67.3668 5.24023C67.5333 5.24023 67.6499 5.38721 67.6499 5.65582C67.6552 5.80803 67.6081 5.95736 67.5167 6.07817Z" fill="#FAFAFA"/>
<path d="M62.9695 2.06623C63.1911 2.06623 63.3708 1.88395 63.3708 1.65909C63.3708 1.43424 63.1911 1.25195 62.9695 1.25195C62.7479 1.25195 62.5682 1.43424 62.5682 1.65909C62.5682 1.88395 62.7479 2.06623 62.9695 2.06623Z" fill="#E0E0E0"/>
<path d="M63.0927 2.77734H62.8446V8.54151H63.0927V2.77734Z" fill="#E0E0E0"/>
<path d="M72.5 69.8271C72.5 69.8508 56.4177 69.8711 36.5842 69.8711C16.7506 69.8711 0.664978 69.8542 0.664978 69.8271C0.664978 69.8001 16.7439 69.7832 36.5842 69.7832C56.4244 69.7832 72.5 69.8069 72.5 69.8271Z" fill="#263238"/>
<path d="M20.1138 11.7517C17.4415 16.0157 17.6163 21.9285 20.5367 26.0219C22.4831 28.7519 25.4019 30.5832 27.7196 32.9923C30.0372 35.4013 31.7988 38.9575 30.575 42.0896C29.3296 45.2775 25.6816 46.5732 22.951 48.5937C19.9382 50.8201 17.8929 54.1445 17.2447 57.8686C16.5964 61.5926 17.3956 65.4267 19.4744 68.5656H47.8495C47.8495 68.5656 52.8345 58.9277 46.4259 51.5805C40.0173 44.2334 36.5757 44.1152 36.8122 39.297C37.0486 34.4789 40.3719 32.9163 42.2717 31.1086C44.1715 29.301 53.4273 25.0894 47.9677 11.75L20.1138 11.7517Z" fill="#FAFAFA"/>
<path d="M20.1139 11.7515H20.6017H22.0403H27.5781L47.9678 11.7363H47.9894V11.7566C48.4074 12.7666 48.7633 13.8019 49.055 14.8566C49.3614 15.9608 49.5632 17.0922 49.6578 18.2354C49.756 19.4303 49.6955 20.6332 49.478 21.8118C49.239 23.0335 48.806 24.2077 48.1959 25.2885C47.8798 25.8398 47.5224 26.3656 47.127 26.8614C46.7233 27.3637 46.2866 27.8379 45.8199 28.2804C45.3473 28.7311 44.8521 29.1568 44.3364 29.5559C43.8203 29.9614 43.2808 30.3432 42.7547 30.7486C42.4916 30.9497 42.2551 31.176 41.9987 31.4024C41.7423 31.6288 41.4876 31.84 41.2245 32.0528C40.7 32.4785 40.1706 32.8975 39.6711 33.3689C38.6285 34.2857 37.8274 35.4515 37.3401 36.7611C37.1059 37.4328 36.9581 38.1324 36.9005 38.8425C36.8855 39.0114 36.8622 39.1972 36.8555 39.3763C36.8489 39.5554 36.8422 39.7344 36.8555 39.9135C36.8593 40.2731 36.895 40.6315 36.9621 40.9846C37.0941 41.7 37.382 42.3764 37.8046 42.9645C38.2395 43.5525 38.7321 44.0942 39.2748 44.5813C40.3521 45.5797 41.4959 46.5342 42.5898 47.5647C43.6837 48.5952 44.7543 49.6697 45.7866 50.8066C46.3133 51.3694 46.806 51.964 47.2618 52.5873C47.7204 53.2183 48.119 53.892 48.4523 54.5993C49.1261 56.033 49.5401 57.5781 49.6744 59.1606C49.8102 60.7651 49.7171 62.381 49.398 63.9585C49.2429 64.7555 49.0394 65.542 48.7886 66.3135C48.5421 67.0915 48.2417 67.8508 47.8895 68.5857L47.8779 68.6093H19.4512L19.4396 68.5908C18.1089 66.558 17.2928 64.2236 17.0636 61.7944C16.833 59.461 17.1703 57.1058 18.046 54.9355C18.8782 52.861 20.1597 51.003 21.7955 49.4991C22.5894 48.788 23.4467 48.1535 24.3563 47.6036C25.2421 47.0461 26.1362 46.5291 26.9804 45.9649C27.8253 45.429 28.6016 44.7889 29.2914 44.0593C29.9502 43.3427 30.4388 42.4829 30.72 41.5455C30.9664 40.6308 31.0051 39.6714 30.8332 38.7394C30.6689 37.84 30.3732 36.9705 29.9557 36.1597C29.5565 35.379 29.0777 34.6429 28.5272 33.9635C27.9958 33.3117 27.4182 32.7002 26.7989 32.1339C25.5984 31.0122 24.368 30.0306 23.2624 29.0221C22.708 28.5153 22.1835 28.0084 21.699 27.4898C21.2294 26.9821 20.7965 26.4406 20.4036 25.8697C19.6934 24.8226 19.1459 23.6711 18.7802 22.4555C18.4599 21.4056 18.2741 20.3183 18.2274 19.2203C18.2041 18.9703 18.2141 18.7236 18.2141 18.482C18.2141 18.2404 18.2141 18.0056 18.2358 17.7776C18.2574 17.5495 18.2691 17.3265 18.2857 17.1018C18.3024 16.8771 18.3473 16.6761 18.3756 16.4717C18.5596 15.2273 18.9349 14.0199 19.4878 12.8936C19.5627 12.7193 19.6484 12.55 19.7443 12.3867L19.9491 12.0337C20.0573 11.8461 20.1156 11.7515 20.1156 11.7515L19.9491 12.0387L19.7509 12.3867C19.6573 12.5508 19.5728 12.72 19.4978 12.8936C18.9499 14.0226 18.5791 15.2316 18.3989 16.4767C18.3706 16.6795 18.3373 16.8889 18.3124 17.1035C18.2874 17.318 18.2791 17.5427 18.2624 17.7708C18.2458 17.9989 18.2458 18.2337 18.2441 18.4736C18.2424 18.7135 18.2358 18.9601 18.2591 19.2101C18.3072 20.3045 18.4947 21.3879 18.8169 22.4335C19.1821 23.6448 19.7291 24.7919 20.4386 25.8342C20.8304 26.4028 21.2628 26.9414 21.7323 27.4459C22.2151 27.9662 22.7396 28.473 23.2941 28.9663C24.3996 29.98 25.6251 30.9513 26.8339 32.0748C27.4579 32.6452 28.04 33.2612 28.5755 33.9179C29.129 34.6023 29.6106 35.3434 30.0124 36.1293C30.4338 36.9451 30.7323 37.8203 30.8981 38.7259C31.0725 39.6679 31.0338 40.6378 30.7849 41.5624C30.5025 42.5107 30.0092 43.3805 29.343 44.1049C28.6498 44.8387 27.8703 45.4833 27.022 46.024C26.1745 46.59 25.2804 47.1069 24.3963 47.6644C23.4905 48.2129 22.6366 48.8451 21.8455 49.5531C20.2197 51.0493 18.9457 52.8967 18.1175 54.9591C17.2472 57.1184 16.9127 59.4615 17.1435 61.7826C17.3728 64.1979 18.1848 66.5187 19.5078 68.5401L19.4745 68.5215H47.8496L47.8113 68.5452C48.1629 67.8121 48.4622 67.0545 48.7071 66.278C48.9565 65.5098 49.1589 64.7267 49.3131 63.9331C49.6308 62.3635 49.7233 60.7555 49.5878 59.1589C49.4562 57.585 49.0449 56.0483 48.3741 54.623C48.0431 53.9207 47.6479 53.2516 47.1936 52.6244C46.7388 52.0044 46.2484 51.4121 45.725 50.8506C44.6983 49.7164 43.6343 48.6375 42.5332 47.6137C41.441 46.5849 40.3004 45.6321 39.2198 44.6286C38.6729 44.1375 38.1758 43.5919 37.7363 43C37.3054 42.4048 37.0103 41.7198 36.8722 40.9947C36.8055 40.6364 36.7693 40.273 36.764 39.9084C36.7556 39.7277 36.764 39.5469 36.764 39.3662C36.764 39.1854 36.7939 39.0063 36.8072 38.8272C36.8684 38.1129 37.0194 37.4095 37.2568 36.7341C37.7484 35.413 38.557 34.2371 39.6095 33.3131C40.109 32.8435 40.6434 32.4177 41.1679 31.9937C41.431 31.7808 41.689 31.5663 41.9405 31.3467C42.1919 31.127 42.44 30.8905 42.6997 30.6878C43.2292 30.2824 43.767 29.9006 44.2815 29.4968C44.7956 29.0995 45.2896 28.676 45.7617 28.2281C46.2253 27.7875 46.6597 27.3162 47.062 26.8174C47.4543 26.3234 47.81 25.8005 48.126 25.2531C48.7326 24.1797 49.1634 23.0135 49.4014 21.8C49.6179 20.631 49.679 19.4378 49.5828 18.2523C49.4898 17.1093 49.2896 15.9779 48.9851 14.8735C48.6974 13.8159 48.346 12.7773 47.9328 11.7634L47.9611 11.7819L27.5831 11.7667H22.042H20.6001L20.1139 11.7515Z" fill="#263238"/>
<path d="M46.8356 19.5736C51.0148 20.2713 44.4264 27.7823 40.6951 30.7455C38.5306 32.4602 36.2162 34.3219 35.1906 36.9033C34.0251 39.8327 34.8892 43.1236 34.3264 46.0699C34.3083 46.1715 34.2529 46.2623 34.1715 46.3242C34.0901 46.3861 33.9886 46.4145 33.8874 46.4036C33.7862 46.3927 33.6928 46.3433 33.626 46.2654C33.5592 46.1875 33.5239 46.0869 33.5272 45.9837C33.5539 44.0494 33.5039 42.1167 33.1942 40.2128C32.7463 37.5098 31.724 34.8422 29.8642 32.864C28.3407 31.2472 26.3444 30.1745 24.721 28.6642C22.35 26.4595 19.9141 23.6163 19.676 20.3626C19.676 20.3626 24.2282 16.6459 26.7556 17.1105C29.7094 17.6595 32.6165 22.2834 37.1919 21.7546C40.3754 21.3846 41.9888 18.7661 46.8356 19.5736Z" fill="#E23E3E"/>
<path d="M47.2069 59.7717C47.102 58.7107 46.8222 57.5113 45.8948 57.0112C45.3337 56.7071 44.6494 56.7409 44.0334 56.9048C43.4173 57.0687 42.8396 57.3542 42.2302 57.5383C41.0187 57.8998 39.725 57.8577 38.5388 57.4184C37.405 56.996 36.4326 56.2358 35.3753 55.631C34.318 55.0262 33.0909 54.5836 31.9188 54.8792C29.8975 55.386 28.8452 57.8593 26.8472 58.4556C25.958 58.7192 25.004 58.5705 24.1016 58.3644C23.1991 58.1583 22.2917 57.8897 21.3676 57.9252C20.6417 57.9522 19.8874 58.2073 19.3796 58.7107L19.3663 58.7259C19.2817 58.81 19.2048 58.9016 19.1365 58.9996C18.5171 59.8443 18.4172 60.9644 18.6087 61.9881C18.8218 63.1352 19.3496 64.1945 19.9157 65.2098C20.5817 66.4059 21.341 67.5952 22.4432 68.3926C23.8052 69.3775 25.5152 68.6984 27.1818 68.8318C31.0663 69.1427 35.2455 69.3538 39.1316 69.0497C41.1845 68.8808 43.1076 69.1139 44.736 67.8351C45.8815 66.9363 46.6274 65.5815 46.9871 64.159C47.3467 62.7365 47.3517 61.233 47.2069 59.7717Z" fill="#E23E3E"/>
<g opacity="0.24">
<path d="M39.8741 57.7422C39.656 58.0801 39.5611 58.5396 39.7726 58.8842C39.984 59.2288 40.2721 59.5448 40.362 59.9418C40.5068 60.5635 40.1372 61.1716 39.8625 61.7477C39.354 62.7777 39.162 63.9389 39.3114 65.0809C39.4689 66.2266 40.052 67.2679 40.9414 67.9917C41.336 68.3008 41.8488 68.5407 42.325 68.3887C42.7729 68.2468 43.061 67.7856 43.1575 67.3176C43.2541 66.8496 43.1725 66.3682 43.1142 65.8968C42.8431 63.7001 42.8992 61.4745 43.2807 59.2947C43.344 58.9315 43.404 58.5159 43.1775 58.227C43.0142 58.0588 42.8067 57.9416 42.5798 57.8892C41.714 57.5969 40.7799 57.9213 39.8825 57.7489" fill="black"/>
</g>
<path d="M17.3916 69.8721C17.3916 69.8721 17.3134 68.551 19.0117 67.8145H48.8569C48.8569 67.8145 50.4137 68.6152 50.6052 69.8417L17.3916 69.8721Z" fill="#263238"/>
<path d="M48.2225 11.9126L48.1742 11.9346L20.1105 11.7521C20.1105 11.7521 20.0106 11.6879 19.8624 11.568C19.6875 11.4289 19.5598 11.2378 19.4974 11.0214C19.435 10.805 19.4409 10.5741 19.5144 10.3613C19.5879 10.1485 19.7252 9.96439 19.907 9.83479C20.0889 9.70519 20.3062 9.63662 20.5284 9.63872L47.7679 9.86172C48.8885 9.87185 49.2415 11.4261 48.2225 11.9126Z" fill="#263238"/>
<g opacity="0.24">
<path d="M43.7269 22.7771C43.7835 22.8869 43.5721 23.115 43.1708 23.4866C42.7695 23.8583 42.1718 24.3465 41.4292 24.9598C40.5376 25.7072 39.5914 26.3849 38.5987 26.987C37.9821 27.3493 37.3332 27.6519 36.6606 27.8908C36.2962 28.0187 35.9241 28.1231 35.5467 28.2034C35.1503 28.2888 34.7477 28.3419 34.3429 28.3622C33.5227 28.4075 32.7014 28.2928 31.9237 28.0243C31.2361 27.7706 30.5827 27.43 29.979 27.0107C29.4195 26.6356 28.9383 26.264 28.4805 25.9075C28.0226 25.5511 27.6147 25.2081 27.245 24.8837C25.7715 23.588 24.9956 22.6352 25.1455 22.451C25.2953 22.2669 26.3443 22.8666 27.976 23.8803L29.308 24.7081C29.7858 25.002 30.297 25.3281 30.8198 25.6288C31.3386 25.9378 31.8884 26.1898 32.4598 26.3805C33.0446 26.5582 33.6553 26.6314 34.2647 26.5968C35.5434 26.5292 36.7838 26.0731 37.8578 25.546C38.9317 25.0189 39.9041 24.404 40.7466 23.9242C41.4133 23.525 42.1104 23.1804 42.8312 22.8937C43.359 22.7061 43.6786 22.6707 43.7269 22.7771Z" fill="black"/>
</g>
<path d="M33.5472 49.5972C33.6651 49.5496 33.7968 49.551 33.9138 49.6012C34.0307 49.6514 34.1234 49.7463 34.1719 49.8654C34.2204 49.9844 34.2207 50.1181 34.1728 50.2374C34.1249 50.3566 34.0326 50.452 33.9159 50.5027C33.7992 50.5535 33.6675 50.5555 33.5493 50.5085C33.4311 50.4614 33.3359 50.369 33.2844 50.2513C33.2328 50.1336 33.2291 50 33.2739 49.8795C33.3187 49.7589 33.4085 49.6612 33.5239 49.6073" fill="#E23E3E"/>
<path d="M23.5105 27.4866C23.474 27.4562 23.4405 27.4223 23.4106 27.3853L23.1392 27.0846C23.0243 26.9511 22.8728 26.7957 22.718 26.598L22.1885 25.9223C22.007 25.6621 21.8022 25.3817 21.5957 25.0776L21.291 24.586C21.2394 24.5015 21.1845 24.417 21.1345 24.3275L20.988 24.0538C20.5449 23.257 20.1977 22.409 19.954 21.5282C19.7091 20.6481 19.5771 19.7396 19.5611 18.8252C19.5611 18.614 19.5728 18.4096 19.5761 18.2085C19.5761 18.1089 19.5761 18.0109 19.5894 17.9146C19.6027 17.8183 19.6094 17.7237 19.6194 17.6308C19.641 17.4449 19.6543 17.2642 19.6793 17.0919C19.7043 16.9196 19.7393 16.754 19.7676 16.6003C19.8142 16.2843 19.8974 16.009 19.9557 15.7556C19.9873 15.6339 20.0123 15.5191 20.0439 15.4177L20.1355 15.1356L20.2637 14.7487C20.276 14.7026 20.2927 14.6579 20.3137 14.6152C20.3068 14.6624 20.2957 14.7087 20.2804 14.7538C20.2521 14.8517 20.2154 14.9818 20.1672 15.1457L20.0839 15.4278C20.0556 15.5309 20.0323 15.6458 20.0023 15.7657C19.949 16.0107 19.8708 16.2877 19.8358 16.6104C19.8092 16.7658 19.7825 16.9297 19.7542 17.1003C19.7259 17.2709 19.7193 17.45 19.6993 17.6358C19.6993 17.7288 19.681 17.8217 19.671 17.918C19.661 18.0143 19.671 18.1123 19.661 18.2102C19.661 18.4096 19.6477 18.6123 19.6493 18.8218C19.6656 19.7308 19.796 20.634 20.0373 21.5096C20.2797 22.384 20.6222 23.2265 21.0579 24.02C21.1062 24.1112 21.1545 24.2025 21.2011 24.2937C21.2477 24.3849 21.306 24.4626 21.356 24.5505L21.6557 25.0421C21.8588 25.3529 22.0603 25.6334 22.2368 25.8868L22.7562 26.5625C22.9061 26.7636 23.0543 26.9207 23.1642 27.0592L23.4239 27.3718C23.4551 27.4082 23.484 27.4465 23.5105 27.4866Z" fill="#263238"/>
<path d="M21.9304 52.5859C21.9387 52.5664 21.9487 52.5477 21.9604 52.5301L22.0603 52.3713C22.1052 52.3004 22.1602 52.2159 22.2268 52.1145L22.3317 51.9456C22.3733 51.8899 22.4216 51.8341 22.4699 51.7767L22.8029 51.3712C22.9311 51.231 23.0776 51.0857 23.2325 50.9269C23.5915 50.5762 23.9731 50.2499 24.3747 49.9505C25.2588 49.2747 26.3993 48.5989 27.6347 47.8066C28.2844 47.4004 28.9088 46.9542 29.5045 46.4703C30.1436 45.9538 30.708 45.3487 31.1812 44.6728C32.0472 43.3227 32.5178 41.7509 32.5382 40.1402C32.5593 38.8274 32.3426 37.5218 31.8988 36.2884C31.6049 35.4561 31.2359 34.6531 30.7966 33.8895C30.6417 33.6175 30.5152 33.4114 30.4286 33.2712L30.3304 33.1124C30.3087 33.0769 30.2987 33.0566 30.2987 33.0566C30.3136 33.0718 30.3265 33.0888 30.337 33.1073L30.4436 33.2627C30.5352 33.3979 30.6667 33.6006 30.8249 33.8726C31.2778 34.6321 31.657 35.4343 31.9571 36.2682C32.4128 37.5066 32.6386 38.82 32.6231 40.1419C32.616 40.523 32.5855 40.9033 32.5315 41.2805C32.4776 41.6751 32.3958 42.0652 32.2868 42.4479C32.0593 43.2582 31.7058 44.0264 31.2395 44.7235C30.7615 45.4067 30.1909 46.0181 29.5445 46.5396C28.9452 47.0239 28.3175 47.4707 27.6647 47.8776C26.4243 48.6631 25.2821 49.3321 24.398 50.0028C23.9965 50.2983 23.6139 50.6194 23.2524 50.9641C23.0976 51.1212 22.9494 51.2631 22.8195 51.4016L22.4865 51.7986C22.4366 51.8595 22.3883 51.9152 22.3467 51.9676L22.2384 52.1281L22.0719 52.3798L21.9654 52.5335C21.9551 52.5519 21.9434 52.5694 21.9304 52.5859Z" fill="#263238"/>
<path d="M20.3819 55.5704C20.3719 55.5978 20.3596 55.6244 20.3453 55.6498L20.2254 55.8644C20.1721 55.9556 20.1089 56.0705 20.0439 56.2022C19.979 56.334 19.8957 56.4894 19.8258 56.6668C19.7892 56.7547 19.7492 56.8459 19.7093 56.9405C19.6693 57.0351 19.636 57.1398 19.596 57.2446C19.5161 57.4541 19.4529 57.6838 19.3796 57.9203C19.09 58.9794 18.9902 60.0826 19.0849 61.1775C19.1132 61.4275 19.1332 61.6674 19.1765 61.887C19.1948 61.9968 19.2098 62.1049 19.2314 62.2063C19.2531 62.3077 19.2764 62.4056 19.298 62.4985C19.3346 62.6861 19.3896 62.8499 19.4295 62.9952C19.4695 63.1405 19.5095 63.2655 19.5461 63.3669L19.6243 63.6C19.6356 63.6264 19.6429 63.6543 19.646 63.6828C19.6299 63.6593 19.6171 63.6337 19.6077 63.6068C19.5827 63.5443 19.5528 63.4699 19.5145 63.3787C19.4641 63.2584 19.4202 63.1355 19.3829 63.0104C19.338 62.8651 19.2797 62.7013 19.2381 62.5138C19.2148 62.4208 19.1914 62.3229 19.1665 62.2215C19.1415 62.1201 19.1265 62.0103 19.1049 61.9005C19.0582 61.6775 19.0349 61.4376 19.005 61.1859C18.9007 60.0842 19.0013 58.9725 19.3013 57.9085C19.3763 57.6652 19.4429 57.4338 19.5278 57.2243C19.5694 57.1196 19.6027 57.0165 19.646 56.9202L19.7692 56.6448C19.8425 56.4759 19.9357 56.3188 20.0006 56.1836C20.0593 56.0674 20.1244 55.9546 20.1954 55.8458L20.3286 55.638C20.3619 55.5924 20.3786 55.5687 20.3819 55.5704Z" fill="#263238"/>
<path d="M40.9664 59.6331L40.9331 59.6568L40.8299 59.7227L40.4253 59.9693L40.1322 60.1382C40.0223 60.2008 39.9008 60.2582 39.7709 60.3241C39.5079 60.4525 39.2181 60.6163 38.8752 60.7481L38.3424 60.9694C38.1575 61.0438 37.9561 61.1029 37.7529 61.1738C37.3483 61.3242 36.8988 61.4323 36.4309 61.5556C34.3767 62.0438 32.2458 62.1013 30.1688 61.7246C29.6926 61.6266 29.2398 61.5421 28.8268 61.4137C28.6204 61.3529 28.4173 61.3056 28.2274 61.2448L27.6846 61.0438C27.3367 60.9306 27.037 60.7836 26.7689 60.6687C26.6357 60.6096 26.5108 60.5572 26.3993 60.4998L26.0962 60.3393L25.68 60.1146L25.5734 60.0538L25.5385 60.0318C25.5385 60.0318 25.5534 60.0318 25.5784 60.047L25.6883 60.0994L26.1112 60.3089L26.4159 60.4609C26.5291 60.515 26.6557 60.564 26.7889 60.6214C27.0569 60.7295 27.3566 60.8731 27.7063 60.9812L28.2424 61.1789C28.4322 61.2431 28.6354 61.2887 28.8418 61.3478C29.2531 61.4729 29.7043 61.5523 30.1738 61.6485C32.2412 62.0118 34.359 61.9544 36.4043 61.4796C36.8705 61.358 37.3184 61.2549 37.723 61.1079C37.9261 61.0387 38.1259 60.9829 38.3107 60.9086L38.8435 60.694C39.1865 60.5657 39.4779 60.4069 39.741 60.2835C39.8708 60.2193 39.994 60.1636 40.1039 60.1146L40.4003 59.9457L40.8116 59.7125L40.9198 59.6551C40.9531 59.6365 40.9664 59.6314 40.9664 59.6331Z" fill="#263238"/>
<path d="M42.703 23.875C42.6929 23.8872 42.6811 23.898 42.6681 23.9071L42.5582 23.9983C42.4566 24.0811 42.3151 24.1977 42.1336 24.3362C41.764 24.6335 41.2278 25.0643 40.5502 25.5779C39.7616 26.1904 38.9346 26.7502 38.0743 27.2538C37.5627 27.5442 37.0294 27.7934 36.4792 27.9988C35.8858 28.2179 35.2668 28.3576 34.6377 28.4144C33.4148 28.484 32.1953 28.2265 31.1013 27.6677C30.6281 27.4238 30.1715 27.1484 29.7343 26.8432C29.328 26.5527 28.9567 26.2705 28.6287 25.9986C27.9627 25.4613 27.4532 25.0069 27.0936 24.696L26.6823 24.3345L26.5774 24.2399L26.5425 24.2044C26.5425 24.2044 26.5575 24.2044 26.5824 24.2315L26.694 24.321L27.1152 24.669C27.4815 24.9731 28.0044 25.4191 28.667 25.9496C29 26.2148 29.368 26.4935 29.7759 26.7807C30.2116 27.0806 30.666 27.3515 31.1362 27.5916C32.2194 28.1394 33.4244 28.3915 34.6328 28.3231C35.2542 28.2672 35.8659 28.1298 36.4526 27.9143C36.999 27.7116 37.529 27.4659 38.0377 27.1794C38.8966 26.685 39.7246 26.1372 40.5169 25.539C41.1962 25.0322 41.7373 24.6099 42.1153 24.321L42.5499 23.9831L42.6647 23.8987C42.6763 23.8889 42.6892 23.8809 42.703 23.875Z" fill="#263238"/>
<g opacity="0.24">
<path d="M27.6863 61.0506C28.4755 60.4323 29.5844 60.5809 30.5601 60.7904C31.5358 60.9999 32.5181 61.3361 33.5055 61.1959C34.2497 61.0894 34.9324 60.7195 35.67 60.5573C36.4076 60.3951 37.295 60.5151 37.703 61.1553C34.4426 62.2213 30.9293 62.1845 27.6913 61.0506" fill="black"/>
</g>
<path d="M55.2156 56.4655L51.6358 52.3924L51.5992 57.344L52.6781 60.52L41.9522 62.4071L41.4976 53.8199L40.725 47.2313C40.6791 46.8385 40.7627 46.4413 40.9627 46.1018C41.1627 45.7623 41.4679 45.4995 41.8306 45.3544L44.7827 44.1719L48.9452 44.9456L50.6185 45.591C51.3201 45.862 51.9455 46.3034 52.44 46.8766L57.475 52.7185" fill="#E23E3E"/>
<path d="M51.3861 51.4122C51.5882 51.4094 51.79 51.3947 51.9905 51.3683C52.4734 51.2935 52.9234 51.0741 53.2826 50.7382C53.6418 50.4023 53.894 49.9652 54.0068 49.4829C54.0483 49.2815 54.0789 49.0779 54.0984 48.873C54.1119 48.9282 54.117 48.9852 54.1134 49.042C54.1146 49.1953 54.099 49.3483 54.0668 49.4981C53.966 49.9998 53.7122 50.4565 53.3413 50.8037C52.9705 51.1508 52.5014 51.3708 52.0005 51.4325C51.8509 51.4521 51.6996 51.4555 51.5493 51.4426C51.4936 51.4414 51.4385 51.4312 51.3861 51.4122Z" fill="white"/>
<path d="M51.6975 57.132C51.7225 57.132 51.7291 55.4156 51.7125 53.3005C51.6958 51.1854 51.6609 49.4707 51.6359 49.4707C51.6109 49.4707 51.6043 51.1854 51.6209 53.3022C51.6376 55.419 51.6725 57.132 51.6975 57.132Z" fill="#263238"/>
<path d="M51.3045 58.3894L44.8243 55.7422C44.5682 55.6375 44.3459 55.4623 44.1826 55.2364C44.0193 55.0104 43.9215 54.7427 43.9003 54.4633L43.4257 48.1585C43.4257 48.1585 43.4823 45.4758 41.8306 45.3457L40.8966 45.7207C39.6828 46.3745 39.3831 48.1687 39.5479 49.5523C39.7827 51.5187 39.8809 54.3028 40.1423 56.0091C40.3588 57.4062 41.1413 58.6344 42.4933 58.9942L50.4754 60.7478L51.3045 58.3894Z" fill="#E23E3E"/>
<path d="M43.519 49.1211C43.5298 49.1683 43.5365 49.2163 43.539 49.2647C43.549 49.3677 43.564 49.5063 43.5806 49.6803C43.6139 50.0503 43.6605 50.5706 43.7171 51.2092C43.7738 51.8478 43.837 52.6266 43.9103 53.478C43.9269 53.6926 43.9453 53.9105 43.9636 54.1335C43.9764 54.3604 44.0042 54.5861 44.0468 54.8092C44.092 55.0349 44.2048 55.2408 44.3698 55.3988C44.5474 55.5573 44.7493 55.6851 44.9676 55.7773C46.7541 56.5611 48.4008 57.2099 49.5963 57.6643L51.0165 58.1948L51.4028 58.3384C51.448 58.3535 51.492 58.3721 51.5344 58.3941C51.4872 58.3854 51.441 58.3724 51.3962 58.3553L51.0049 58.2269C50.6719 58.112 50.1724 57.9414 49.5763 57.72C48.3725 57.2808 46.7241 56.6422 44.9309 55.8617C44.7041 55.765 44.4944 55.6315 44.3099 55.4664C44.1328 55.2958 44.0119 55.074 43.9636 54.8312C43.9206 54.6048 43.8933 54.3756 43.882 54.1453C43.8637 53.9206 43.847 53.7027 43.8304 53.4881C43.7654 52.6435 43.7055 51.8663 43.6639 51.2176C43.6222 50.5689 43.5806 50.057 43.554 49.687C43.5423 49.5181 43.534 49.3728 43.529 49.2698C43.5214 49.2206 43.5181 49.1708 43.519 49.1211Z" fill="#263238"/>
<path d="M39.806 52.5469C39.8127 52.5746 39.8166 52.6029 39.8176 52.6313L39.8393 52.8746C39.8592 53.0993 39.8842 53.4017 39.9159 53.77C39.9475 54.1383 39.9974 54.5961 40.0624 55.0928C40.1261 55.6306 40.2234 56.1639 40.3538 56.6892C40.415 56.9598 40.5221 57.2176 40.6701 57.4511C40.8147 57.6656 40.9768 57.8673 41.1546 58.0543C41.4577 58.3706 41.8077 58.6368 42.1919 58.8432C42.5501 59.0279 42.9343 59.1556 43.3308 59.2216C43.3026 59.2253 43.2741 59.2253 43.2459 59.2216C43.1654 59.2162 43.0853 59.2055 43.0061 59.1895C42.7132 59.1342 42.4296 59.0369 42.1636 58.9006C41.7685 58.6989 41.4086 58.4329 41.098 58.1134C40.9139 57.9244 40.7468 57.7192 40.5985 57.5001C40.443 57.2601 40.3303 56.9942 40.2655 56.7146C40.1334 56.1852 40.0371 55.6473 39.9775 55.1046C39.9175 54.5978 39.8776 54.1552 39.8509 53.7767C39.8243 53.3983 39.8093 53.0909 39.801 52.878C39.801 52.78 39.801 52.6989 39.801 52.633C39.7981 52.6042 39.7998 52.5751 39.806 52.5469Z" fill="#263238"/>
<path d="M42.5766 56.9591C42.5936 56.8359 42.6337 56.7172 42.6948 56.6094C42.8283 56.3402 43.0135 56.1006 43.2393 55.9048C43.4652 55.709 43.7272 55.5609 44.0102 55.4691C44.1249 55.4246 44.2471 55.4034 44.3698 55.4066C44.2609 55.4526 44.1497 55.4932 44.0368 55.5282C43.7691 55.6333 43.5209 55.7835 43.3025 55.9725C43.0847 56.1619 42.8996 56.3869 42.7548 56.6381C42.6382 56.8324 42.5899 56.9642 42.5766 56.9591Z" fill="#263238"/>
<path d="M43.8519 52.1644C43.8661 52.1686 43.8795 52.1749 43.8919 52.183L44.0084 52.2455C44.1587 52.3206 44.3133 52.3866 44.4713 52.4431C45.0539 52.6506 45.6788 52.7052 46.2878 52.6019C47.1924 52.4382 48.0006 51.9284 48.5456 51.1778C48.8713 50.7442 49.0755 50.2294 49.1367 49.6877C49.1669 49.4031 49.1374 49.1153 49.0501 48.8431C48.958 48.5652 48.7975 48.3157 48.5839 48.1183C48.3733 47.9183 48.1081 47.7876 47.823 47.7433C47.6879 47.7187 47.5491 47.7256 47.417 47.7633C47.2849 47.8011 47.163 47.8687 47.0604 47.9612C46.9675 48.0535 46.9137 48.179 46.9105 48.3109C46.9134 48.4421 46.9578 48.5688 47.0371 48.6724C47.1198 48.7725 47.2212 48.855 47.3355 48.915C47.4499 48.9751 47.5748 49.0115 47.7031 49.0221C48.154 49.0792 48.6117 49.0204 49.0344 48.8513C49.4571 48.6821 49.8312 48.408 50.1223 48.0541C50.3431 47.7787 50.5093 47.4626 50.6119 47.1233C50.6884 46.8661 50.7298 46.5995 50.7351 46.3309C50.7369 46.1613 50.7246 45.9917 50.6984 45.8241C50.6884 45.7718 50.6801 45.7278 50.6751 45.694C50.6737 45.6789 50.6737 45.6636 50.6751 45.6484C50.7439 45.8668 50.7777 46.095 50.775 46.3242C50.7767 46.5968 50.7397 46.8682 50.6651 47.13C50.4798 47.7612 50.0796 48.3051 49.5359 48.6649C48.9923 49.0247 48.3404 49.177 47.6964 49.0948C47.5589 49.0825 47.4252 49.0427 47.3029 48.9777C47.1806 48.9128 47.0721 48.824 46.9838 48.7163C46.8934 48.5983 46.8431 48.4536 46.8406 48.3041C46.8408 48.1504 46.9006 48.0029 47.0071 47.8936C47.119 47.7923 47.2519 47.7178 47.396 47.6757C47.5401 47.6335 47.6918 47.6249 47.8396 47.6504C48.1424 47.6959 48.4243 47.8344 48.6471 48.0474C48.8726 48.254 49.0412 48.5166 49.1367 48.8093C49.2273 49.0924 49.258 49.3918 49.2266 49.6877C49.1616 50.2412 48.9505 50.7665 48.6155 51.2082C48.1533 51.8481 47.4972 52.3168 46.7476 52.5426C45.998 52.7684 45.1961 52.7388 44.4646 52.4583C44.2485 52.3881 44.0425 52.2893 43.8519 52.1644Z" fill="white"/>
<path d="M39.6062 50.485C39.6343 50.4344 39.6703 50.3888 39.7128 50.3499C39.8192 50.2356 39.9363 50.132 40.0624 50.0407C40.4875 49.7444 40.9819 49.5667 41.496 49.5254C41.7781 49.4932 42.0633 49.5052 42.3418 49.5609C42.5681 49.6086 42.7871 49.687 42.9928 49.7941C43.1309 49.8647 43.2634 49.946 43.3891 50.0373C43.4377 50.0676 43.4815 50.1052 43.519 50.1488C43.509 50.1623 43.3158 50.0137 42.9662 49.8498C42.5104 49.6354 42.0049 49.5535 41.506 49.6133C41.005 49.6534 40.5213 49.8176 40.0974 50.0914C39.776 50.3093 39.6179 50.4968 39.6062 50.485Z" fill="white"/>
<path d="M40.6434 45.9753C40.8014 46.1263 40.9776 46.2562 41.1679 46.3622C41.3757 46.4702 41.6016 46.5379 41.8339 46.5615C42.1167 46.5903 42.4022 46.5497 42.6664 46.4432C42.9254 46.3312 43.1539 46.1573 43.3324 45.9364C43.4798 45.7521 43.5927 45.542 43.6654 45.3164C43.7253 45.1046 43.7594 44.8862 43.767 44.666C43.7832 44.7242 43.7905 44.7846 43.7886 44.8451C43.7914 45.0108 43.7695 45.176 43.7237 45.335C43.6558 45.5724 43.5427 45.7939 43.3907 45.9871C43.2082 46.2294 42.9657 46.4183 42.6878 46.5346C42.41 46.651 42.1067 46.6905 41.8089 46.6493C41.5675 46.6216 41.3338 46.5458 41.1213 46.4263C40.9782 46.3466 40.8479 46.2452 40.735 46.1256C40.6956 46.0817 40.6646 46.0307 40.6434 45.9753Z" fill="white"/>
<path d="M46.2912 56.3434C46.2915 56.3014 46.296 56.2595 46.3045 56.2184C46.3278 56.1011 46.3664 55.9874 46.4194 55.8805C46.6311 55.487 46.975 55.1837 47.3884 55.0257C47.997 54.7802 48.6705 54.7557 49.2949 54.9564C49.6379 55.0595 50.0308 55.1879 50.2939 55.5274C50.36 55.6142 50.4018 55.7175 50.4147 55.8263C50.4276 55.9352 50.4112 56.0456 50.3671 56.1458C50.2667 56.3412 50.1042 56.4965 49.9059 56.5867C49.7146 56.6828 49.505 56.7358 49.2915 56.7421C49.0796 56.7525 48.8709 56.6867 48.7021 56.5563C48.6242 56.4888 48.5607 56.4059 48.5155 56.3127C48.4702 56.2194 48.4442 56.1178 48.4391 56.014C48.4282 55.82 48.4582 55.6259 48.5273 55.4447C48.7782 54.8288 49.2561 54.3366 49.8593 54.0729C50.2595 53.892 50.6979 53.8153 51.1347 53.8499C51.2937 53.8622 51.4505 53.8957 51.6009 53.9496C51.6009 53.9614 51.4344 53.9056 51.1314 53.8837C50.7695 53.8638 50.4075 53.919 50.0673 54.0459C49.7272 54.1728 49.4162 54.3688 49.1533 54.6219C48.9093 54.8591 48.7189 55.1474 48.5956 55.4666C48.531 55.6372 48.5032 55.8198 48.514 56.0022C48.5188 56.0946 48.5423 56.185 48.5829 56.2678C48.6236 56.3506 48.6806 56.4241 48.7504 56.4836C48.9026 56.6023 49.0915 56.6622 49.2832 56.6526C49.4834 56.6473 49.68 56.5977 49.8593 56.5073C50.0403 56.4254 50.1892 56.2845 50.2822 56.1069C50.3197 56.0206 50.3336 55.9257 50.3225 55.832C50.3114 55.7384 50.2756 55.6495 50.2189 55.5748C50.1028 55.426 49.954 55.3068 49.7844 55.2267C49.6199 55.1469 49.4489 55.0819 49.2732 55.0325C48.6654 54.8329 48.0086 54.8502 47.4118 55.0814C47.0073 55.23 46.6668 55.5174 46.4494 55.894C46.3773 56.0361 46.3241 56.1872 46.2912 56.3434Z" fill="white"/>
<path d="M41.9755 58.717C41.9755 58.7002 42.2219 58.6799 42.5965 58.5481C43.0856 58.3733 43.5237 58.0771 43.871 57.6864C44.2183 57.2957 44.4636 56.823 44.5845 56.3114C44.6794 55.9194 44.6761 55.6643 44.6928 55.666C44.7044 55.7244 44.7072 55.7842 44.7011 55.8434C44.6972 56.0054 44.6783 56.1666 44.6445 56.3249C44.5366 56.853 44.2917 57.3423 43.9352 57.7423C43.5787 58.1423 43.1235 58.4386 42.6165 58.6005C42.4647 58.6506 42.3086 58.6863 42.1503 58.7069C42.0928 58.7188 42.0339 58.7222 41.9755 58.717Z" fill="white"/>
<path d="M39.8743 53.8148C39.8989 53.8008 39.9252 53.79 39.9525 53.7827C40.0058 53.7658 40.0824 53.7422 40.184 53.7151C40.4722 53.6382 40.7705 53.6074 41.0681 53.6239C41.2747 53.6398 41.4773 53.6906 41.6675 53.7743C41.8889 53.8712 42.0817 54.0249 42.2269 54.2203C42.3863 54.4419 42.4636 54.7135 42.445 54.9872C42.4343 55.1329 42.3905 55.274 42.3168 55.3994C42.2423 55.5317 42.1245 55.6333 41.9838 55.6866C41.9097 55.7123 41.8301 55.7177 41.7533 55.7023C41.6764 55.6868 41.6049 55.6512 41.5459 55.5988C41.446 55.487 41.3918 55.3408 41.3944 55.19C41.3858 54.9208 41.4382 54.6532 41.5476 54.4078C41.6996 54.0581 41.9623 53.7699 42.2941 53.589C42.6259 53.4081 43.0078 53.3449 43.3791 53.4093C43.4589 53.4219 43.5375 53.4417 43.6139 53.4685C43.6655 53.4888 43.6921 53.5006 43.6905 53.504C43.6888 53.5073 43.5789 53.4685 43.3741 53.4431C43.0847 53.4076 42.7911 53.4459 42.52 53.5546C42.1183 53.7182 41.7968 54.0365 41.6259 54.4399C41.5242 54.6743 41.4758 54.9289 41.4843 55.1849C41.4808 55.3141 41.5261 55.4398 41.6109 55.5363C41.6586 55.5775 41.7161 55.6054 41.7777 55.6173C41.8393 55.6291 41.9029 55.6245 41.9622 55.6039C42.0855 55.5576 42.1891 55.4692 42.2552 55.3538C42.3215 55.24 42.3613 55.1123 42.3718 54.9805C42.3892 54.7267 42.3192 54.4747 42.1736 54.2676C42.0385 54.0816 41.8576 53.9348 41.6492 53.8418C41.467 53.7579 41.2723 53.7054 41.0731 53.6864C40.7819 53.6644 40.4891 53.6854 40.2039 53.7489C39.9892 53.7912 39.8776 53.8216 39.8743 53.8148Z" fill="white"/>
<g opacity="0.3">
<path d="M49.4414 57.6387C48.7488 57.2417 48.0711 56.936 47.3469 56.6032C46.6226 56.2703 45.9116 55.8395 45.4371 55.1908C44.543 53.9677 44.6446 52.2023 43.7305 50.9961C43.7904 51.807 43.8498 52.6185 43.9086 53.4305C43.9636 54.1738 43.852 54.9104 44.3232 55.4155C44.7211 55.8412 45.497 56.1673 46.0465 56.3514C47.1504 56.7214 48.3392 57.2705 49.4414 57.6387Z" fill="black"/>
</g>
<path d="M60.7101 66.9043C60.7101 66.9043 66.1331 68.4247 66.3512 68.5058C66.6842 68.6224 66.6226 69.8371 66.1147 69.8168C65.8733 69.8083 61.9522 69.9655 61.4527 69.935C60.9532 69.9046 59.4547 69.3049 59.4547 69.3049L60.7101 66.9043Z" fill="#E23E3E"/>
<path d="M62.9629 69.0063C63.0299 68.8041 63.11 68.6065 63.2027 68.415C63.3194 68.2379 63.4473 68.0686 63.5856 67.9082C63.3927 68.0154 63.2325 68.1744 63.1227 68.3678C63.0129 68.5612 62.9576 68.7815 62.9629 69.0046V69.0063Z" fill="#263238"/>
<path d="M62.3968 68.7444C62.4234 68.7444 62.4784 68.4893 62.6232 68.2021C62.7681 67.9149 62.9379 67.7139 62.9196 67.6953C62.7613 67.8204 62.6323 67.9795 62.5419 68.1612C62.4515 68.3429 62.402 68.5426 62.3968 68.7461V68.7444Z" fill="#263238"/>
<path d="M61.8757 68.6003C61.9023 68.4034 61.9446 68.2091 62.0022 68.0192C62.0873 67.84 62.1858 67.6677 62.2969 67.5039C62.125 67.6214 61.9925 67.7893 61.9173 67.9852C61.842 68.1812 61.8275 68.3958 61.8757 68.6003Z" fill="#263238"/>
<path d="M61.9639 67.889C62.0117 67.7584 62.0316 67.6191 62.0222 67.4801C62.0205 67.3287 62.002 67.178 61.9672 67.0308C61.9464 66.9438 61.9191 66.8585 61.8856 66.7757C61.8699 66.7232 61.8399 66.6764 61.7991 66.6405C61.7717 66.6199 61.7381 66.6097 61.704 66.6115C61.67 66.6134 61.6377 66.6272 61.6126 66.6507C61.5705 66.6916 61.545 66.747 61.541 66.8061C61.5369 66.8544 61.5369 66.903 61.541 66.9514C61.5415 67.0419 61.5527 67.1321 61.5743 67.22C61.6103 67.3673 61.6664 67.5089 61.7408 67.6406C61.8004 67.7676 61.8829 67.8822 61.9839 67.9785C61.9972 67.9785 61.9056 67.8417 61.7974 67.617C61.7341 67.487 61.6866 67.3497 61.6559 67.2082C61.6383 67.1254 61.6294 67.0411 61.6292 66.9564C61.6292 66.872 61.6292 66.7672 61.6792 66.7267C61.689 66.7177 61.7017 66.7127 61.715 66.7127C61.7282 66.7127 61.741 66.7177 61.7508 66.7267C61.7778 66.7536 61.7984 66.7866 61.8107 66.823C61.8426 66.9024 61.8699 66.9836 61.8923 67.0662C61.9304 67.2065 61.9544 67.3502 61.9639 67.4953C61.9739 67.7319 61.9489 67.8873 61.9639 67.889Z" fill="#263238"/>
<path d="M61.9572 67.833C61.8468 67.7862 61.727 67.7665 61.6076 67.7756C61.478 67.7755 61.3488 67.7914 61.223 67.8229C61.1454 67.8407 61.0705 67.8685 60.9999 67.9057C60.9554 67.9286 60.9196 67.9655 60.8976 68.0109C60.8757 68.0563 60.8689 68.1077 60.8783 68.1574C60.8908 68.2048 60.9153 68.2481 60.9495 68.2828C60.9837 68.3175 61.0264 68.3424 61.0731 68.355C61.1529 68.3753 61.2364 68.3753 61.3162 68.355C61.4445 68.3253 61.565 68.2677 61.6692 68.1861C61.7679 68.119 61.8532 68.0336 61.9206 67.9344C61.8205 67.9938 61.7242 68.0599 61.6326 68.132C61.5318 68.2022 61.4188 68.2521 61.2996 68.279C61.2334 68.2959 61.1642 68.2959 61.0981 68.279C61.0668 68.271 61.0382 68.2548 61.0151 68.2319C60.992 68.2091 60.9753 68.1804 60.9666 68.1489C60.9615 68.118 60.9666 68.0862 60.981 68.0584C60.9954 68.0306 61.0184 68.0084 61.0465 67.9952C61.1083 67.9606 61.1744 67.9345 61.243 67.9175C61.3625 67.8829 61.4852 67.8614 61.6093 67.8533C61.8207 67.8263 61.9539 67.8482 61.9572 67.833Z" fill="#263238"/>
<path d="M63.7954 69.0622C63.8186 68.8941 63.8548 68.728 63.9036 68.5656C63.9797 68.4146 64.0683 68.2705 64.1684 68.1348C64.0104 68.2221 63.8871 68.3621 63.8191 68.5311C63.7511 68.7001 63.7428 68.8877 63.7954 69.0622Z" fill="#263238"/>
<path d="M60.0125 69.3181C60.0782 69.3603 60.1486 69.3943 60.2223 69.4195C60.4191 69.4953 60.6204 69.5585 60.825 69.6087C61.5051 69.7592 62.2005 69.8262 62.8963 69.8081C63.7088 69.7979 64.4414 69.7607 64.9726 69.7388L65.6003 69.705C65.6774 69.7037 65.7542 69.6958 65.83 69.6813C65.7535 69.6691 65.6759 69.6652 65.5986 69.6695H64.9709L62.8963 69.7101C62.2069 69.728 61.5176 69.6714 60.84 69.5411C60.3205 69.4347 60.0192 69.2996 60.0125 69.3181Z" fill="#263238"/>
<path d="M59.8527 69.4419C59.8527 69.4537 60.0075 69.3659 60.2589 69.2544C60.5783 69.1013 60.9338 69.0428 61.2846 69.0854C61.6295 69.1613 61.9409 69.3486 62.172 69.6193C62.2682 69.7347 62.3723 69.843 62.4834 69.9437C62.4119 69.8093 62.3229 69.6854 62.2186 69.5754C62.1117 69.4493 61.9911 69.3359 61.859 69.2375C61.6935 69.1132 61.5011 69.0309 61.2979 68.9976C60.9299 68.9524 60.5571 69.0238 60.2306 69.202C60.0927 69.2608 59.9651 69.3418 59.8527 69.4419Z" fill="#263238"/>
<path d="M54.9476 65.3848C54.9476 65.3848 49.816 68.7939 49.6328 68.9325C49.3565 69.1436 49.6728 70.1522 50.1523 69.9782C50.3788 69.8954 54.6845 68.6791 55.1473 68.4966C55.6102 68.3142 56.8573 67.2904 56.8573 67.2904L54.9476 65.3848Z" fill="#E23E3E"/>
<path d="M53.4241 68.0817C53.3622 67.8673 53.2435 67.6744 53.0808 67.5239C52.9181 67.3734 52.7178 67.2712 52.5017 67.2285C52.6821 67.3383 52.8551 67.4602 53.0195 67.5934C53.1643 67.7475 53.2994 67.9105 53.4241 68.0817Z" fill="#263238"/>
<path d="M53.8836 67.6611C53.8183 67.4683 53.7118 67.2925 53.5716 67.1465C53.4314 67.0004 53.261 66.8877 53.0728 66.8164C53.0594 66.8401 53.2842 66.9853 53.5057 67.2083C53.7271 67.4313 53.8603 67.6746 53.8836 67.6611Z" fill="#263238"/>
<path d="M54.3465 67.3578C54.3458 67.1453 54.2662 66.9408 54.1234 66.7851C54.0041 66.6134 53.826 66.4929 53.6239 66.4473C53.7783 66.5696 53.9236 66.7034 54.0585 66.8476C54.1677 67.0097 54.264 67.1803 54.3465 67.3578Z" fill="#263238"/>
<path d="M54.0501 66.7129C54.0635 66.7129 53.9935 66.5659 53.9353 66.3226C53.9002 66.1816 53.8796 66.0372 53.8736 65.8918C53.8679 65.8063 53.8679 65.7206 53.8736 65.6351C53.873 65.5965 53.8828 65.5585 53.902 65.5253C53.9092 65.5138 53.9205 65.5056 53.9335 65.5024C53.9466 65.4993 53.9604 65.5014 53.9719 65.5084C54.0302 65.532 54.0601 65.6334 54.0884 65.7145C54.1129 65.7949 54.1296 65.8775 54.1384 65.9611C54.1513 66.1058 54.1468 66.2516 54.1251 66.3953C54.0901 66.6419 54.0418 66.7923 54.0551 66.7974C54.1237 66.6765 54.1689 66.5435 54.1883 66.4054C54.2203 66.2574 54.2315 66.1055 54.2216 65.9543C54.215 65.8639 54.1988 65.7744 54.1733 65.6874C54.1596 65.6408 54.143 65.5951 54.1234 65.5506C54.1012 65.4953 54.0597 65.4502 54.0068 65.4239C53.976 65.4093 53.941 65.4062 53.9082 65.4152C53.8753 65.4241 53.8465 65.4446 53.827 65.4729C53.7995 65.5199 53.7851 65.5736 53.7854 65.6283C53.7671 65.8689 53.7942 66.1109 53.8653 66.3412C53.9004 66.477 53.9634 66.6036 54.0501 66.7129Z" fill="#263238"/>
<path d="M54.0319 66.6562C54.0319 66.6697 54.1584 66.6089 54.3649 66.5565C54.4855 66.5271 54.6088 66.5102 54.7328 66.5058C54.8036 66.5009 54.8747 66.5055 54.9443 66.5193C54.9749 66.5236 55.0034 66.5377 55.0256 66.5596C55.0478 66.5815 55.0624 66.61 55.0675 66.641C55.0689 66.6745 55.0615 66.7079 55.0459 66.7376C55.0304 66.7673 55.0074 66.7922 54.9792 66.8099C54.922 66.8464 54.8569 66.8685 54.7894 66.8741C54.6678 66.8862 54.5449 66.8735 54.4281 66.8369C54.3196 66.7957 54.2083 66.7624 54.0951 66.7373C54.1891 66.8134 54.2964 66.8707 54.4115 66.9062C54.535 66.9542 54.6674 66.9744 54.7994 66.9653C54.8816 66.9609 54.9612 66.9354 55.0309 66.891C55.0721 66.8653 55.1057 66.8289 55.1282 66.7855C55.1508 66.7421 55.1614 66.6933 55.1591 66.6443C55.1532 66.594 55.1313 66.547 55.0968 66.5104C55.0622 66.4739 55.0169 66.4497 54.9676 66.4416C54.8896 66.4276 54.8101 66.4242 54.7312 66.4315C54.6017 66.4403 54.4737 66.4646 54.3499 66.5041C54.2337 66.5293 54.1249 66.5813 54.0319 66.6562Z" fill="#263238"/>
<path d="M50.8051 69.7934C50.8051 69.8019 50.8916 69.7411 50.9316 69.5924C50.9715 69.3981 50.9369 69.1958 50.835 69.0265C50.7857 68.9358 50.7301 68.8489 50.6685 68.7663C50.6185 68.6959 50.5597 68.6323 50.4937 68.5771C50.4464 68.5374 50.3883 68.5133 50.3272 68.5078C50.2839 68.5078 50.2623 68.5163 50.2623 68.5213C50.2623 68.5264 50.3538 68.5298 50.4487 68.6278C50.5047 68.6852 50.5544 68.7487 50.5969 68.817C50.6567 68.8985 50.7122 68.9831 50.7634 69.0704C50.8554 69.2219 50.8952 69.4002 50.8767 69.5772C50.8571 69.6507 50.8332 69.7229 50.8051 69.7934Z" fill="#263238"/>
<path d="M52.6482 68.3939C52.6551 68.3025 52.6424 68.2106 52.6111 68.1246C52.5798 68.0386 52.5305 67.9605 52.4667 67.8956C52.4155 67.82 52.3485 67.7568 52.2705 67.7104C52.1926 67.664 52.1055 67.6355 52.0155 67.627C52.1516 67.725 52.2791 67.8346 52.3968 67.9547C52.4926 68.0937 52.5767 68.2406 52.6482 68.3939Z" fill="#263238"/>
<path d="M56.3295 67.4707C56.2497 67.5157 56.1739 67.5677 56.103 67.6261C55.8996 67.7694 55.6884 67.9008 55.4703 68.0198C55.1476 68.1934 54.8138 68.3452 54.4713 68.4742C54.0817 68.6212 53.6388 68.7597 53.1859 68.8949C52.2619 69.1652 51.426 69.4118 50.8233 69.5959L50.1057 69.824C50.0171 69.8479 49.9307 69.8795 49.8476 69.9186C49.9383 69.9061 50.028 69.8863 50.1157 69.8595L50.8366 69.6551C51.4443 69.4861 52.2818 69.2496 53.2059 68.9793C53.6671 68.8425 54.105 68.7006 54.4946 68.5485C54.8414 68.4148 55.178 68.2556 55.502 68.0721C55.7195 67.9471 55.9276 67.8059 56.1247 67.6498C56.1977 67.5959 56.2662 67.536 56.3295 67.4707Z" fill="#263238"/>
<path d="M56.5193 67.5414C56.3813 67.4798 56.2347 67.4399 56.0848 67.4232C55.72 67.3547 55.3433 67.4018 55.0058 67.5583C54.8234 67.6552 54.6669 67.7955 54.5496 67.9672C54.4531 68.1027 54.3721 68.2489 54.3082 68.403C54.2414 68.5398 54.1938 68.6854 54.1667 68.8355C54.2421 68.705 54.3088 68.5695 54.3665 68.4301C54.5053 68.1002 54.7461 67.8251 55.0525 67.6462C55.3748 67.4991 55.7313 67.447 56.0814 67.4958C56.3478 67.5178 56.516 67.555 56.5193 67.5414Z" fill="#263238"/>
<path d="M65.612 57.0722C65.612 57.0722 67.1521 57.6297 67.1571 59.3816C67.1704 62.735 60.4771 66.4331 60.4771 66.4331L51.5693 60.4459L51.0115 60.2161C51.0115 60.2161 63.0412 55.6345 65.612 57.0722Z" fill="#263238"/>
<path d="M56.0814 63.4708C56.1634 63.4247 56.2414 63.3716 56.3145 63.312C56.4594 63.2039 56.6675 63.0451 56.9222 62.8441C57.4334 62.4454 58.126 61.8777 58.8736 61.2273C59.6212 60.5769 60.2772 59.967 60.7434 59.516C60.9765 59.2913 61.163 59.1055 61.2912 58.9754C61.3605 58.912 61.424 58.8424 61.481 58.7676C61.4044 58.822 61.3325 58.8831 61.2662 58.95L60.7001 59.4687C60.2223 59.9062 59.5596 60.5093 58.8137 61.1581C58.0678 61.8068 57.3818 62.3812 56.884 62.7934L56.2929 63.2833C56.2176 63.34 56.1469 63.4027 56.0814 63.4708Z" fill="#455A64"/>
<path d="M63.0977 58.325C62.5152 58.2624 61.932 58.4368 61.476 58.8098C61.491 58.8352 61.809 58.624 62.2652 58.4922C62.7214 58.3605 63.0977 58.3537 63.0977 58.325Z" fill="#455A64"/>
<path d="M62.3302 57.7988C62.1241 57.8876 61.9427 58.0265 61.8022 58.2033C61.6616 58.3801 61.5662 58.5893 61.5243 58.8125C61.5509 58.8125 61.6475 58.5405 61.8723 58.2617C62.0971 57.983 62.3451 57.8225 62.3302 57.7988Z" fill="#455A64"/>
<path d="M66.1014 68.4193C66.1014 68.4092 65.9948 68.3872 65.8716 68.4903C65.7265 68.6276 65.6354 68.8137 65.6152 69.014C65.586 69.2109 65.6138 69.4122 65.6951 69.5935C65.7584 69.7303 65.8283 69.7945 65.8367 69.7877C65.8147 69.7126 65.7874 69.6392 65.7551 69.5681C65.6968 69.3944 65.6797 69.2092 65.7051 69.0275C65.7249 68.8465 65.798 68.6758 65.9149 68.5376C66.0098 68.4379 66.1031 68.4345 66.1014 68.4193Z" fill="#263238"/>
<path d="M63.5623 51.5918L60.3904 59.7515L46.7324 59.9779L46.4793 59.2278L51.2662 59.0521L53.5672 51.8131L63.5623 51.5918Z" fill="#455A64"/>
<path d="M57.1837 55.1282C57.2886 55.0748 57.4065 55.0532 57.5231 55.0661C57.6398 55.079 57.7503 55.1258 57.8414 55.2009C57.9187 55.2747 57.9723 55.3704 57.9952 55.4756C58.0181 55.5808 58.0092 55.6905 57.9696 55.7905C57.9268 55.8903 57.8574 55.9759 57.7691 56.0377C57.6808 56.0995 57.5772 56.135 57.4701 56.1402C57.3573 56.1475 57.2453 56.1174 57.1509 56.0542C57.0566 55.9911 56.9851 55.8985 56.9473 55.7905C56.9116 55.6696 56.9147 55.5404 56.956 55.4214C56.9972 55.3024 57.0747 55.1998 57.1771 55.1282" fill="#EBEBEB"/>
<path d="M61.3196 66.841C61.3196 66.841 48.7355 58.4651 48.2227 58.2911C47.7098 58.1171 46.4611 57.2893 45.2173 57.6373C43.9736 57.9853 42.8547 59.1189 42.2969 60.7744C41.9772 61.7205 41.8274 63.3339 41.7558 64.5452C41.6604 65.9936 42.123 67.423 43.0461 68.5321C43.4551 69.0496 43.9983 69.441 44.6146 69.6623C44.7461 69.7045 44.8826 69.74 45.0225 69.7704C47.4018 70.2941 49.851 69.2095 51.183 67.1451L51.4761 66.6924C51.4761 66.6924 59.7095 69.7603 59.8377 69.718L61.3196 66.841Z" fill="#263238"/>
<path d="M45.7518 64.536C45.774 64.5474 45.7968 64.5575 45.82 64.5665L46.0265 64.6492L46.824 64.9618L49.7894 66.0953C51.0482 66.5718 52.5567 67.1394 54.25 67.7644C55.9433 68.3895 57.8181 69.0737 59.8227 69.7613L59.8577 69.7748L59.876 69.7393L60.86 67.8337L61.3595 66.8623L61.3779 66.8252L61.3429 66.8032L51.7441 60.6201L48.8603 58.7753L48.0778 58.2786L47.873 58.1519C47.8264 58.1232 47.8014 58.1113 47.8014 58.1113L47.868 58.1603L48.0678 58.2938L48.842 58.8006L51.7192 60.6741L61.3029 66.8809L61.2863 66.8201C61.1281 67.1292 60.9533 67.4587 60.7868 67.7915L59.8044 69.6971L59.8594 69.6751C57.8614 68.9893 55.9799 68.3067 54.2849 67.6867L49.8177 66.0379L46.8357 64.9263L46.0332 64.629L45.8234 64.5546L45.7518 64.536Z" fill="#455A64"/>
<path d="M47.0571 34.7945C47.2719 34.2049 47.7464 33.9498 48.3475 33.8029C48.6498 33.7315 48.9647 33.7352 49.2653 33.8137C49.5659 33.8923 49.8433 34.0433 50.0741 34.2539C50.3788 34.5361 50.6019 34.9297 50.9782 35.0986C51.5992 35.3841 52.3935 34.9669 52.9762 35.3166C53.1513 35.4212 53.2852 35.5841 53.3552 35.7776C53.4253 35.9711 53.4271 36.1833 53.3604 36.378C53.2937 36.5727 53.1625 36.738 52.9893 36.8457C52.816 36.9534 52.6114 36.9969 52.4101 36.9688C52.8147 37.1614 52.8896 37.7797 52.6116 38.1344C52.3335 38.4892 51.819 38.5855 51.3878 38.4622C50.9627 38.3136 50.5857 38.0502 50.2972 37.7003C49.9942 37.3624 49.7278 36.9992 49.3981 36.6866C49.0817 36.3604 48.6618 36.1582 48.2126 36.1156C47.6082 36.092 47.0471 36.5059 46.7324 37.0279C46.4177 37.5499 46.2962 38.1699 46.208 38.7781C46.1197 39.3863 46.0531 40.0046 45.8217 40.5722C45.795 40.6398 45.7551 40.7124 45.6868 40.7276C45.5852 40.7496 45.512 40.6364 45.472 40.5401C45.0164 39.4552 44.7754 38.2899 44.7627 37.1107C44.7544 36.4349 44.831 35.7879 45.2489 35.2524C45.6668 34.7168 46.6309 34.384 47.0521 34.7861" fill="#263238"/>
<path d="M45.6385 37.5207L44.7128 44.3424C44.6756 44.6179 44.6942 44.8981 44.7672 45.1661C44.8403 45.4341 44.9663 45.6842 45.1376 45.9012C45.309 46.1182 45.522 46.2975 45.7638 46.4283C46.0057 46.5591 46.2712 46.6386 46.5443 46.6619C47.0612 46.7075 47.5757 46.5497 47.9811 46.221C48.3865 45.8924 48.6518 45.4182 48.7221 44.8965C48.7904 44.3897 48.8486 43.9555 48.8603 43.9031C48.8603 43.9031 50.5936 43.9792 50.9499 42.278C51.1164 41.4552 51.3412 39.7321 51.5226 38.1711C51.6142 37.3633 51.4031 36.5501 50.9312 35.8929C50.4592 35.2357 49.7611 34.7825 48.9752 34.6234L48.8087 34.5913C47.0354 34.3345 45.8366 35.7198 45.6385 37.5207Z" fill="#FFBE9D"/>
<path d="M48.8586 43.8778C48.0793 43.7327 47.3601 43.3558 46.7924 42.7949C46.7924 42.7949 47.0688 44.1262 48.7754 44.3154L48.8586 43.8778Z" fill="#EB996E"/>
<path d="M50.7984 39.2152C50.7866 39.2787 50.7507 39.3351 50.6984 39.3721C50.6461 39.409 50.5815 39.4237 50.5187 39.4128C50.4877 39.4093 50.4578 39.3995 50.4306 39.3839C50.4035 39.3684 50.3797 39.3475 50.3608 39.3224C50.3418 39.2973 50.328 39.2686 50.3202 39.238C50.3125 39.2074 50.3109 39.1755 50.3155 39.1442C50.3269 39.0803 50.3627 39.0235 50.415 38.9862C50.4674 38.9489 50.5322 38.934 50.5953 38.9449C50.6263 38.9486 50.6563 38.9586 50.6834 38.9743C50.7106 38.99 50.7343 39.0111 50.7533 39.0363C50.7722 39.0615 50.786 39.0904 50.7937 39.1211C50.8015 39.1518 50.8031 39.1838 50.7984 39.2152Z" fill="#263238"/>
<path d="M50.9882 38.9324C50.9516 38.9595 50.7967 38.7855 50.5387 38.7331C50.2806 38.6807 50.0641 38.7753 50.0392 38.7331C50.0142 38.6909 50.0708 38.6655 50.1657 38.6216C50.2922 38.5645 50.4333 38.5497 50.5686 38.5794C50.7031 38.6055 50.8257 38.6748 50.9183 38.777C50.9899 38.8581 51.0049 38.9223 50.9882 38.9324Z" fill="#263238"/>
<path d="M48.2475 38.7867C48.2362 38.8506 48.2004 38.9074 48.148 38.9447C48.0957 38.982 48.0309 38.9969 47.9678 38.9861C47.9368 38.9821 47.9069 38.972 47.8798 38.9562C47.8527 38.9404 47.8289 38.9194 47.8099 38.8943C47.7908 38.8691 47.7769 38.8404 47.7688 38.8098C47.7608 38.7791 47.7588 38.7472 47.763 38.7158C47.7756 38.6525 47.8116 38.5965 47.8636 38.5594C47.9157 38.5223 47.9798 38.5069 48.0427 38.5164C48.0738 38.5201 48.1039 38.5302 48.1311 38.5459C48.1583 38.5615 48.1822 38.5826 48.2013 38.6078C48.2203 38.633 48.2343 38.6618 48.2422 38.6925C48.2502 38.7232 48.252 38.7553 48.2475 38.7867Z" fill="#263238"/>
<path d="M48.4391 38.4687C48.4025 38.494 48.2476 38.32 47.9895 38.2676C47.7315 38.2153 47.515 38.3099 47.49 38.2676C47.4651 38.2254 47.5217 38.2001 47.6166 38.1561C47.7433 38.1 47.8841 38.0852 48.0195 38.1139C48.1539 38.1415 48.2766 38.2106 48.3708 38.3116C48.4408 38.4028 48.4557 38.4569 48.4391 38.4687Z" fill="#263238"/>
<path d="M48.9935 40.5987C49.1381 40.5823 49.2842 40.5851 49.4281 40.6071C49.4964 40.6071 49.5613 40.6071 49.5813 40.5683C49.6024 40.5012 49.6024 40.4292 49.5813 40.3622C49.5513 40.1932 49.5197 40.004 49.4864 39.8114C49.3582 39.0309 49.2799 38.3957 49.3099 38.3907C49.3399 38.3856 49.4764 39.014 49.5979 39.7945C49.6279 39.9871 49.6579 40.1696 49.6845 40.3453C49.7106 40.4347 49.7041 40.5306 49.6662 40.6156C49.6521 40.6369 49.6333 40.6547 49.6114 40.6676C49.5895 40.6805 49.5649 40.6881 49.5397 40.6899C49.5015 40.6954 49.4629 40.6954 49.4248 40.6899C49.2778 40.6779 49.133 40.6472 48.9935 40.5987Z" fill="#263238"/>
<path d="M48.1976 40.6294C48.2409 40.6294 48.1843 40.92 48.3841 41.17C48.5839 41.42 48.8836 41.4504 48.8836 41.491C48.8836 41.5315 48.807 41.5315 48.6805 41.5096C48.5156 41.4787 48.3666 41.3902 48.2592 41.2595C48.1576 41.1329 48.1081 40.9713 48.121 40.8085C48.1344 40.6868 48.1793 40.6226 48.1976 40.6294Z" fill="#263238"/>
<path d="M48.7072 37.4553C48.6689 37.5229 48.4174 37.4367 48.1061 37.4114C47.7947 37.386 47.535 37.4215 47.5067 37.3489C47.495 37.3151 47.5516 37.2577 47.6632 37.2087C47.8112 37.1494 47.9709 37.1262 48.1294 37.1411C48.2888 37.1534 48.443 37.2044 48.579 37.2897C48.6805 37.3573 48.7221 37.4249 48.7072 37.4553Z" fill="#263238"/>
<path d="M51.0415 38.1557C50.9849 38.2064 50.82 38.1084 50.6052 38.0611C50.3905 38.0138 50.2023 38.0223 50.174 37.9513C50.1607 37.9175 50.2006 37.8635 50.2922 37.8229C50.4115 37.7753 50.5424 37.7664 50.6669 37.7976C50.7924 37.8244 50.9062 37.8913 50.9915 37.9885C51.0531 38.0645 51.0681 38.1304 51.0415 38.1557Z" fill="#263238"/>
<path d="M45.5269 38.8091C45.5003 38.7905 44.4397 38.2279 44.2465 39.402C44.0534 40.5761 45.2555 40.5305 45.2622 40.4967C45.2688 40.463 45.5269 38.8091 45.5269 38.8091Z" fill="#FFBE9D"/>
<path d="M44.9825 39.9929C44.9825 39.9929 44.9609 40.0047 44.9242 40.0148C44.8728 40.0273 44.8186 40.0195 44.7727 39.9929C44.7053 39.9326 44.6552 39.8549 44.6276 39.7681C44.6001 39.6812 44.5961 39.5885 44.6162 39.4996C44.6295 39.3981 44.6654 39.3011 44.7211 39.2158C44.7369 39.1807 44.7607 39.15 44.7905 39.1262C44.8203 39.1024 44.8553 39.0862 44.8926 39.0789C44.917 39.0768 44.9413 39.0835 44.9614 39.0977C44.9814 39.1119 44.996 39.1327 45.0025 39.1566C45.0125 39.1904 45.0025 39.2141 45.0025 39.2158C45.0025 39.2175 45.0308 39.2006 45.0291 39.1516C45.0274 39.1215 45.0156 39.0929 44.9958 39.0705C44.9823 39.0553 44.9659 39.0431 44.9476 39.0347C44.9293 39.0263 44.9094 39.0218 44.8893 39.0215C44.8404 39.0229 44.7927 39.037 44.7508 39.0625C44.7088 39.0879 44.6739 39.1238 44.6495 39.1668C44.5834 39.2603 44.5405 39.3687 44.5246 39.4827C44.493 39.7209 44.5763 39.9625 44.7361 40.0385C44.7657 40.053 44.7981 40.0605 44.831 40.0605C44.8639 40.0605 44.8963 40.053 44.9259 40.0385C44.9759 40.0216 44.9858 39.9963 44.9825 39.9929Z" fill="#EB996E"/>
<path d="M51.9389 37.8954C51.5476 37.9168 51.1569 37.8438 50.7989 37.6823C50.4409 37.5208 50.1257 37.2754 49.8793 36.9663C49.5463 36.5304 49.3248 35.9611 48.8436 35.6976C48.6779 35.6148 48.4977 35.5662 48.3133 35.5546C48.129 35.543 47.9442 35.5687 47.7697 35.63C47.4223 35.756 47.1039 35.9526 46.834 36.2077C46.9871 37.1403 46.5792 38.0661 46.1813 38.9108C46.147 39.0104 46.0807 39.0955 45.9931 39.1523C45.8366 39.2317 45.6501 39.1067 45.5552 38.9564C45.4222 38.7043 45.3644 38.4185 45.3887 38.1336C45.3923 37.4846 45.5224 36.8427 45.7717 36.2449C46.0248 35.6454 46.4456 35.1344 46.9821 34.7752C47.6703 34.3488 48.4946 34.2101 49.2815 34.3883C50.0639 34.573 50.7693 35.0026 51.2978 35.6165C51.5554 35.8885 51.7424 36.2211 51.8423 36.5845" fill="#263238"/>
<path d="M5.34192 65.411C5.3492 65.3862 5.35926 65.3624 5.37189 65.34L5.46513 65.1356C5.57995 64.8713 5.67295 64.5978 5.74319 64.3179C5.92634 63.5915 5.98961 62.4816 5.71821 61.1639C5.5722 60.4451 5.37975 59.7368 5.14212 59.0437C4.89736 58.2919 4.61431 57.4945 4.38287 56.6313C4.12157 55.7309 3.99528 54.7958 4.00825 53.8573C4.04321 52.8758 4.32959 51.8959 4.64428 50.9211C4.95897 49.9464 5.28364 48.9902 5.38021 48.0306C5.48935 47.1073 5.30687 46.1727 4.85907 45.3614C4.44115 44.5809 3.91834 43.9153 3.52706 43.2243C3.16032 42.5845 2.88983 41.8927 2.72453 41.1717C2.48868 40.1266 2.47166 39.0429 2.67458 37.9906C2.74922 37.606 2.86075 37.2298 3.00758 36.8672C3.00367 36.893 2.99754 36.9185 2.98926 36.9432L2.92266 37.1578C2.53091 38.4552 2.48894 39.8354 2.80112 41.1548C2.96796 41.8675 3.23904 42.5508 3.60532 43.1821C3.99659 43.8578 4.52273 44.5336 4.94731 45.3158C5.40206 46.1431 5.58793 47.0949 5.47845 48.0357C5.38021 49.0121 5.05221 49.9734 4.73919 50.9482C4.42616 51.9229 4.14145 52.891 4.10648 53.8556C4.09199 54.7846 4.2149 55.7105 4.47112 56.6025C4.69923 57.4607 4.98061 58.2581 5.22037 59.0133C5.45601 59.7104 5.64568 60.4226 5.78814 61.1453C6.05288 62.4731 5.97629 63.5949 5.78814 64.323C5.71475 64.6038 5.61552 64.877 5.49177 65.139C5.44848 65.2234 5.41351 65.2893 5.38854 65.34C5.37528 65.3651 5.35967 65.3889 5.34192 65.411Z" fill="#263238"/>
<path d="M4.05819 43.9046C4.05819 43.9046 3.26065 41.3198 4.69089 39.8061C4.70197 39.794 4.71617 39.7852 4.7319 39.7807C4.74762 39.7762 4.76427 39.7762 4.77998 39.7808C4.79568 39.7853 4.80983 39.7942 4.82086 39.8065C4.83188 39.8187 4.83934 39.8338 4.84241 39.8501C4.919 40.2775 5.0139 41.5783 4.05819 43.9046Z" fill="#E23E3E"/>
<path d="M4.53609 40.668C4.53342 40.8282 4.51502 40.9878 4.48115 41.1444C4.42953 41.4822 4.36793 41.859 4.29966 42.2847C4.2314 42.7104 4.17312 43.0973 4.12151 43.425C4.10804 43.5851 4.07961 43.7435 4.03659 43.8981C4.02313 43.7375 4.02816 43.5759 4.05158 43.4166C4.07822 43.1209 4.12983 42.7155 4.20143 42.2695C4.27302 41.8235 4.34961 41.4248 4.41288 41.1325C4.43623 40.9734 4.47758 40.8175 4.53609 40.668Z" fill="#263238"/>
<path d="M4.99396 50.0043C4.99396 50.0043 5.4818 47.3402 7.44318 46.6847C7.45864 46.6792 7.4753 46.6782 7.49128 46.6818C7.50727 46.6854 7.52196 46.6934 7.53371 46.705C7.54546 46.7165 7.55381 46.7312 7.55781 46.7473C7.56182 46.7634 7.56133 46.7803 7.5564 46.7962C7.42986 47.205 6.91205 48.4011 4.99396 50.0043Z" fill="#E23E3E"/>
<path d="M6.90869 47.3672C6.83254 47.5077 6.74274 47.6401 6.64063 47.7625C6.44416 48.0294 6.21106 48.3403 5.95464 48.6849L5.26533 49.609C5.17928 49.7435 5.08118 49.8696 4.97229 49.9857C5.0342 49.8373 5.11299 49.6967 5.20706 49.5668C5.37356 49.3184 5.59833 48.9839 5.87306 48.6241C6.14779 48.2642 6.39587 47.9483 6.58402 47.7186C6.67852 47.5891 6.78747 47.4712 6.90869 47.3672Z" fill="#263238"/>
<path d="M4.46447 56.685C4.46447 56.685 4.1681 53.9921 5.85642 52.7826C5.86971 52.7728 5.88541 52.767 5.90177 52.7659C5.91812 52.7647 5.93447 52.7681 5.94899 52.7758C5.96352 52.7836 5.97563 52.7952 5.98398 52.8095C5.99234 52.8239 5.99659 52.8403 5.99628 52.8569C5.99128 53.2894 5.83977 54.5851 4.46447 56.685Z" fill="#E23E3E"/>
<path d="M5.54175 53.5996C5.51009 53.7569 5.46209 53.9104 5.39856 54.0574C5.28534 54.37 5.15381 54.7332 5.00562 55.142L4.61767 56.2266C4.57641 56.3809 4.52065 56.5308 4.45117 56.6743C4.46879 56.5143 4.50398 56.3567 4.55607 56.2046C4.63765 55.9191 4.76419 55.5289 4.91904 55.1065C5.07388 54.6842 5.2254 54.3041 5.34028 54.0321C5.39109 53.8807 5.45868 53.7356 5.54175 53.5996Z" fill="#263238"/>
<path d="M5.94139 63.4091C5.94139 63.4091 5.73993 60.7061 7.46987 59.5607C7.48339 59.5513 7.49924 59.5458 7.51564 59.545C7.53203 59.5442 7.54833 59.5481 7.56268 59.5561C7.57704 59.5642 7.58889 59.5762 7.59691 59.5907C7.60493 59.6053 7.60879 59.6218 7.60807 59.6384C7.58642 60.0692 7.38995 61.3582 5.94139 63.4091Z" fill="#E23E3E"/>
<path d="M7.12675 60.3672C7.0868 60.5235 7.031 60.6753 6.96025 60.8199C6.83537 61.1274 6.69052 61.4957 6.52901 61.8876L6.1011 62.9587C6.05747 63.1078 6.00063 63.2525 5.93127 63.3912C5.95366 63.232 5.99445 63.0761 6.05282 62.9266C6.14273 62.6445 6.28426 62.261 6.45409 61.8437C6.62392 61.4264 6.78709 61.0514 6.91196 60.7845C6.96823 60.6378 7.04026 60.4979 7.12675 60.3672Z" fill="#263238"/>
<path d="M2.91268 41.633C2.91268 41.633 0.546707 40.3795 0.500086 38.283C0.49936 38.2663 0.503223 38.2498 0.51124 38.2353C0.519257 38.2207 0.531111 38.2088 0.545468 38.2007C0.559826 38.1926 0.576119 38.1888 0.592515 38.1896C0.608911 38.1904 0.62476 38.1958 0.638282 38.2052C0.989598 38.4519 1.96363 39.3016 2.91268 41.633Z" fill="#E23E3E"/>
<path d="M0.991211 39.0039C1.10181 39.1184 1.20056 39.2441 1.28592 39.3789L1.95192 40.3149L2.61792 41.2491C2.71938 41.3718 2.80966 41.5035 2.88765 41.6427C2.76245 41.541 2.65055 41.4235 2.55465 41.293C2.36651 41.0666 2.11842 40.7423 1.85868 40.3757C1.59894 40.0091 1.3725 39.6695 1.21432 39.4195C1.12457 39.2901 1.04971 39.1506 0.991211 39.0039Z" fill="#263238"/>
<path d="M5.4535 47.1902C5.4535 47.1902 3.0176 46.0854 2.84444 43.9956C2.84305 43.9792 2.84617 43.9627 2.85343 43.9479C2.86069 43.9332 2.87182 43.9208 2.88559 43.912C2.89936 43.9033 2.91525 43.8986 2.93149 43.8984C2.94773 43.8983 2.9637 43.9027 2.97764 43.9111C3.34394 44.129 4.36792 44.918 5.4535 47.1902Z" fill="#E23E3E"/>
<path d="M3.37891 44.6816C3.49581 44.7895 3.60179 44.9089 3.69526 45.0381L4.41787 45.9318L5.14215 46.8221C5.25024 46.9356 5.34727 47.0595 5.43186 47.1921C5.30489 47.0929 5.18929 46.9795 5.0872 46.8542C4.88574 46.6379 4.61934 46.3305 4.33795 45.9808C4.05656 45.6311 3.81014 45.305 3.63865 45.0668C3.538 44.9488 3.45086 44.8196 3.37891 44.6816Z" fill="#263238"/>
<path d="M4.05152 53.3807C4.05152 53.3807 2.37818 51.269 3.16407 49.3262C3.17004 49.3108 3.18009 49.2974 3.19309 49.2875C3.20609 49.2776 3.22154 49.2715 3.23773 49.2699C3.25393 49.2684 3.27024 49.2714 3.28486 49.2786C3.29948 49.2858 3.31184 49.297 3.32058 49.311C3.54535 49.6843 4.0998 50.8585 4.05152 53.3807Z" fill="#E23E3E"/>
<path d="M3.32899 50.1914C3.38499 50.3411 3.42572 50.4962 3.45053 50.6543C3.52046 50.9803 3.60205 51.3621 3.69362 51.7845C3.7852 52.2068 3.86012 52.587 3.93838 52.9113C3.98292 53.0653 4.01357 53.223 4.02996 53.3826C3.95602 53.2394 3.90008 53.0873 3.86346 52.9299C3.78021 52.6444 3.68197 52.2541 3.58873 51.8048C3.49549 51.3554 3.42223 50.9601 3.37561 50.6695C3.34288 50.5123 3.32725 50.352 3.32899 50.1914Z" fill="#263238"/>
<path d="M5.7099 60.6676C5.7099 60.6676 3.29065 59.5222 3.15412 57.4274C3.15307 57.4111 3.15642 57.3949 3.16382 57.3804C3.17122 57.3659 3.18237 57.3537 3.19608 57.3452C3.2098 57.3367 3.22554 57.3321 3.24162 57.332C3.2577 57.3319 3.2735 57.3363 3.28732 57.3446C3.65029 57.5761 4.66095 58.3819 5.7099 60.6676Z" fill="#E23E3E"/>
<path d="M3.67523 58.127C3.79083 58.2364 3.89516 58.3576 3.98659 58.4885C4.18972 58.7503 4.42948 59.0561 4.69422 59.394L5.40351 60.2978C5.51016 60.416 5.60601 60.5438 5.68989 60.6796C5.56601 60.5808 5.45422 60.4674 5.35689 60.3417C5.16042 60.1238 4.89901 59.8113 4.62429 59.4565C4.34956 59.1017 4.09981 58.774 3.93331 58.5324C3.83323 58.407 3.7467 58.2711 3.67523 58.127Z" fill="#263238"/>
<path d="M10.5267 50.0176C10.5291 50.0378 10.5291 50.0582 10.5267 50.0784C10.5267 50.1257 10.5267 50.1814 10.5267 50.2473C10.5267 50.4163 10.5101 50.6308 10.4984 50.9045C10.4668 51.4823 10.4235 52.2864 10.3719 53.2511C10.2054 54.2309 9.7059 55.3172 9.0399 56.3713C8.55538 57.1485 8.04089 57.8563 7.60966 58.5135C7.21098 59.0872 6.85213 59.6884 6.53573 60.3127C6.32885 60.7362 6.16162 61.1785 6.03622 61.6338C5.99293 61.7943 5.9613 61.921 5.94299 62.0071C5.93563 62.0516 5.92392 62.0951 5.90802 62.1372C5.90856 62.0923 5.91358 62.0476 5.923 62.0037C5.93466 61.9159 5.9613 61.7875 5.99793 61.6236C6.11092 61.1579 6.27048 60.705 6.47412 60.2721C6.78359 59.6403 7.13806 59.0322 7.53473 58.4527C7.9693 57.7904 8.47546 57.0826 8.95831 56.3105C9.62431 55.2597 10.1038 54.1903 10.2903 53.2257C10.3569 52.2645 10.4119 51.4603 10.4568 50.8825C10.4785 50.6089 10.4968 50.3892 10.5084 50.2271C10.5084 50.1595 10.5218 50.102 10.5267 50.0581C10.5253 50.0446 10.5253 50.0311 10.5267 50.0176Z" fill="#263238"/>
<path d="M9.09485 56.1795C9.09485 56.1795 10.1188 53.6775 8.83012 52.0388C8.82013 52.0256 8.80673 52.0156 8.79143 52.0097C8.77613 52.0038 8.75952 52.0024 8.74345 52.0055C8.72739 52.0087 8.7125 52.0163 8.70046 52.0276C8.68842 52.0388 8.6797 52.0532 8.67527 52.0692C8.55373 52.4882 8.34227 53.7805 9.09485 56.1795Z" fill="#E23E3E"/>
<path d="M8.90005 52.9121C8.94421 53.0663 8.97157 53.2249 8.98164 53.3851C9.01827 53.6791 9.05823 54.0862 9.08986 54.5373C9.1215 54.9884 9.13648 55.3972 9.13648 55.6928C9.14674 55.8533 9.13724 56.0145 9.10818 56.1726C9.07924 56.0155 9.0653 55.856 9.06655 55.6962C9.04491 55.3583 9.01827 54.9748 8.98996 54.5441C8.96166 54.1133 8.93335 53.723 8.91171 53.3919C8.89229 53.2327 8.88839 53.072 8.90005 52.9121Z" fill="#263238"/>
<g opacity="0.3">
<path d="M9.09485 56.1795C9.09485 56.1795 10.1188 53.6775 8.83012 52.0388C8.82013 52.0256 8.80673 52.0156 8.79143 52.0097C8.77613 52.0038 8.75952 52.0024 8.74345 52.0055C8.72739 52.0087 8.7125 52.0163 8.70046 52.0276C8.68842 52.0388 8.6797 52.0532 8.67527 52.0692C8.55373 52.4882 8.34227 53.7805 9.09485 56.1795Z" fill="black"/>
</g>
<path d="M5.91476 62.2049C5.91476 62.2049 6.7356 59.6286 5.32035 58.1014C5.30938 58.0892 5.29531 58.0803 5.2797 58.0758C5.26408 58.0712 5.24753 58.0711 5.23186 58.0755C5.21619 58.0798 5.20201 58.0885 5.19089 58.1005C5.17977 58.1125 5.17213 58.1275 5.16883 58.1436C5.08725 58.5693 4.98069 59.8685 5.91476 62.2049Z" fill="#E23E3E"/>
<path d="M5.4668 58.9648C5.52337 59.1153 5.56303 59.2717 5.58501 59.4311C5.64495 59.72 5.71821 60.1221 5.78648 60.5698C5.85474 61.0174 5.90136 61.4229 5.92467 61.7185C5.9473 61.878 5.95065 62.0397 5.93466 62.2C5.89411 62.0451 5.86737 61.8868 5.85474 61.727C5.80646 61.3891 5.74985 61.0124 5.68824 60.585C5.62664 60.1575 5.5667 59.7724 5.52174 59.4429C5.48798 59.2858 5.46958 59.1257 5.4668 58.9648Z" fill="#263238"/>
<g opacity="0.3">
<path d="M5.91469 62.2049C5.91469 62.2049 6.73554 59.6286 5.32029 58.1014C5.30932 58.0892 5.29525 58.0803 5.27964 58.0758C5.26402 58.0712 5.24747 58.0711 5.2318 58.0755C5.21613 58.0798 5.20195 58.0885 5.19083 58.1005C5.17971 58.1125 5.17207 58.1275 5.16877 58.1436C5.08719 58.5693 4.98063 59.8685 5.91469 62.2049Z" fill="black"/>
</g>
<path d="M10.3903 53.123C10.3903 53.123 12.5781 51.5688 12.3566 49.4841C12.3552 49.4675 12.3493 49.4517 12.3395 49.4384C12.3298 49.4251 12.3165 49.4148 12.3013 49.4087C12.2861 49.4025 12.2696 49.4008 12.2535 49.4037C12.2373 49.4066 12.2223 49.4139 12.2101 49.4249C11.8938 49.7257 11.0346 50.6869 10.3903 53.123Z" fill="#E23E3E"/>
<g opacity="0.3">
<path d="M10.3902 53.123C10.3902 53.123 12.578 51.5688 12.3566 49.4841C12.3551 49.4675 12.3492 49.4517 12.3395 49.4384C12.3297 49.4251 12.3165 49.4148 12.3013 49.4087C12.2861 49.4025 12.2695 49.4008 12.2534 49.4037C12.2373 49.4066 12.2223 49.4139 12.21 49.4249C11.8937 49.7257 11.0346 50.6869 10.3902 53.123Z" fill="black"/>
</g>
<path d="M11.962 50.2617C11.9178 50.4156 11.8569 50.5641 11.7805 50.7043C11.6556 50.9729 11.4741 51.3379 11.2627 51.7366C11.0512 52.1352 10.8481 52.4883 10.6899 52.7384C10.6143 52.8796 10.5208 53.0102 10.4119 53.1269C10.4719 52.9787 10.5449 52.8362 10.63 52.7012L11.1744 51.6876L11.7172 50.6739C11.7846 50.5283 11.8666 50.3902 11.962 50.2617Z" fill="#263238"/>
<path d="M6.79553 59.6533C6.79553 59.6533 9.42791 59.236 10.1405 57.2662C10.1464 57.2507 10.1479 57.2338 10.1449 57.2175C10.1418 57.2011 10.1344 57.1859 10.1233 57.1737C10.1122 57.1614 10.098 57.1525 10.0822 57.1479C10.0665 57.1434 10.0497 57.1434 10.034 57.148C9.62271 57.2662 8.4289 57.7545 6.79553 59.6533Z" fill="#E23E3E"/>
<g opacity="0.3">
<path d="M6.79547 59.6533C6.79547 59.6533 9.42785 59.236 10.1405 57.2662C10.1464 57.2507 10.1479 57.2338 10.1448 57.2175C10.1418 57.2011 10.1343 57.1859 10.1232 57.1737C10.1122 57.1614 10.0979 57.1525 10.0822 57.1479C10.0664 57.1434 10.0497 57.1434 10.0339 57.148C9.62265 57.2662 8.42884 57.7545 6.79547 59.6533Z" fill="black"/>
</g>
<path d="M9.44787 57.7871C9.34151 57.9047 9.22319 58.0106 9.09489 58.103C8.86678 58.2889 8.54543 58.5355 8.18246 58.7974C7.81949 59.0592 7.48316 59.2873 7.23507 59.4427C7.10465 59.5345 6.96376 59.6099 6.81549 59.6674C6.93324 59.5607 7.0603 59.4652 7.19511 59.3819L8.12585 58.7163L9.05326 58.0405C9.17578 57.9424 9.30803 57.8575 9.44787 57.7871Z" fill="#263238"/>
<path d="M4.27961 64.5781L3.51038 69.8321H8.3056L7.68288 64.5781H4.27961Z" fill="#455A64"/>
<path d="M7.87605 66.2071C7.87605 66.2358 7.01025 66.2578 5.94131 66.2578C4.87238 66.2578 4.00824 66.2358 4.00824 66.2071C4.65134 66.157 5.29652 66.1401 5.94131 66.1564C6.58665 66.1401 7.2324 66.157 7.87605 66.2071Z" fill="#263238"/>
<path d="M7.97093 66.619C7.97093 66.6461 7.07682 66.6697 5.97292 66.6697C4.86902 66.6697 3.97491 66.6461 3.97491 66.619C3.97491 66.592 4.86902 66.5684 5.97292 66.5684C7.07682 66.5684 7.97093 66.5954 7.97093 66.619Z" fill="#263238"/>
</svg>
