<svg width="25" height="24" viewBox="0 0 25 24" fill="none" xmlns="http://www.w3.org/2000/svg">
<path fill-rule="evenodd" clip-rule="evenodd" d="M19.2171 3.56518L22.9997 1.40991C23.1564 1.32062 23.35 1.43312 23.35 1.61354V21.7732C23.35 21.9023 23.2448 22.0076 23.1157 22.0076H19.3331C19.2041 22.0076 19.0988 21.9023 19.0988 21.7732V21.3465C20.0124 20.1641 20.5564 18.6815 20.5564 17.0717C20.5564 15.4619 20.0124 13.9793 19.0988 12.7969V3.76885C19.0988 3.68232 19.142 3.60802 19.2171 3.56518ZM15.563 1.23305C15.3868 1.19274 15.2766 1.0171 15.3169 0.840849C15.3573 0.664599 15.5329 0.554396 15.7091 0.594756L17.9099 1.10101C18.0861 1.14137 18.1963 1.31696 18.156 1.49321L17.6496 3.69404C17.6093 3.87029 17.4337 3.98049 17.2574 3.94013C17.0812 3.89977 16.971 3.72418 17.0113 3.54793L17.3553 2.05252L2.46307 10.097C2.30379 10.1826 2.10522 10.1229 2.01958 9.96366C1.93394 9.80438 1.99361 9.60582 2.15289 9.52018L16.9176 1.54468L15.563 1.23305ZM13.558 12.6192C11.0989 12.6192 9.10549 14.6126 9.10549 17.0717C9.10549 19.5308 11.0988 21.5242 13.558 21.5242C16.017 21.5242 18.0104 19.5308 18.0104 17.0717C18.0104 14.6126 16.017 12.6192 13.558 12.6192ZM13.8913 19.6845L13.9001 20.0459C13.9043 20.2264 13.7614 20.3761 13.5809 20.3804C13.4004 20.3847 13.2506 20.2418 13.2463 20.0613L13.2374 19.6905C12.8309 19.6202 12.5526 19.411 12.2583 19.1334C12.1266 19.0095 12.1203 18.8024 12.2441 18.6707C12.368 18.539 12.5752 18.5327 12.7068 18.6566C12.9798 18.9142 13.1679 19.0601 13.5579 19.0601C14.0251 19.0601 14.515 18.745 14.515 18.2406C14.515 17.7361 14.0251 17.421 13.5579 17.421C12.7308 17.421 11.9445 16.8137 11.9445 15.9451C11.9446 15.206 12.5254 14.636 13.2255 14.5009L13.2158 14.0975C13.2116 13.917 13.3545 13.7672 13.5349 13.763C13.7155 13.7588 13.8652 13.9016 13.8695 14.0821L13.8797 14.5104C14.2578 14.5944 14.7553 14.8198 14.9711 15.1483C15.0702 15.299 15.0283 15.5016 14.8776 15.6007C14.7268 15.6998 14.5242 15.6579 14.4251 15.5071C14.2982 15.3141 13.7845 15.1242 13.5579 15.1242C13.0936 15.1242 12.5995 15.4399 12.5995 15.9451C12.5995 16.4496 13.0907 16.7647 13.5579 16.7647C14.3868 16.7647 15.1713 17.3733 15.1713 18.2405C15.1713 18.9786 14.5902 19.5492 13.8913 19.6845ZM13.558 10.7295C10.0553 10.7295 7.21572 13.569 7.21572 17.0716C7.21572 20.5743 10.0552 23.4138 13.558 23.4138C17.0607 23.4138 19.9002 20.5743 19.9002 17.0716C19.9002 13.569 17.0607 10.7295 13.558 10.7295ZM13.558 22.1804C10.7366 22.1804 8.44924 19.8931 8.44924 17.0716C8.44924 14.2503 10.7366 11.9629 13.558 11.9629C16.3793 11.9629 18.6667 14.2503 18.6667 17.0716C18.6667 19.893 16.3794 22.1804 13.558 22.1804ZM3.88422 11.2379C3.80904 11.2807 3.76586 11.355 3.76591 11.4416V21.7732C3.76586 21.9023 3.87115 22.0076 4.00029 22.0076H7.78282C7.91191 22.0076 8.01719 21.9023 8.01719 21.7732V21.3465C7.10355 20.1641 6.55957 18.6814 6.55957 17.0716C6.55957 15.4619 7.10355 13.9793 8.01719 12.7968V9.28627C8.01724 9.10585 7.8236 8.99326 7.6668 9.08255C6.40591 9.80101 5.14507 10.5195 3.88422 11.2379ZM11.5507 7.40152C11.4755 7.44437 11.4323 7.51866 11.4323 7.60519V10.4024C12.1027 10.1888 12.8168 10.0732 13.558 10.0732C14.2991 10.0732 15.0132 10.1888 15.6836 10.4024V5.44993C15.6836 5.26946 15.49 5.15691 15.3332 5.24626C14.0724 5.96462 12.8115 6.68307 11.5507 7.40152Z" fill="#868686"/>
</svg>
