<svg width="17" height="18" viewBox="0 0 17 18" fill="none" xmlns="http://www.w3.org/2000/svg">
<path d="M16.8981 7.56091L16.5181 8.50091C16.3981 8.82091 16.3981 9.16091 16.5181 9.48091L16.8981 10.4209C17.1181 10.9809 16.9381 11.6209 16.4381 11.9809L15.5981 12.5609C15.3181 12.7609 15.1381 13.0609 15.0581 13.3809L14.8781 14.3809C14.7581 14.9809 14.2581 15.4209 13.6581 15.4409L12.6381 15.4809C12.2981 15.5009 11.9781 15.6409 11.7381 15.8809L11.0381 16.6209C10.6181 17.0609 9.95813 17.1609 9.43813 16.8609L8.55813 16.3409C8.25813 16.1609 7.91813 16.1209 7.57813 16.2009L6.57813 16.4409C5.99813 16.5809 5.37813 16.3009 5.09812 15.7609L4.63813 14.8409C4.47813 14.5409 4.21813 14.3009 3.89813 14.2009L2.93813 13.8809C2.35813 13.6809 1.99812 13.1209 2.05812 12.5209L2.15812 11.5009C2.19812 11.1609 2.09812 10.8209 1.87812 10.5609L1.23813 9.76091C0.858125 9.28091 0.858125 8.62091 1.23813 8.14091L1.87812 7.34091C2.09812 7.08091 2.19812 6.74091 2.15812 6.40091L2.05812 5.38091C1.99812 4.78091 2.35813 4.22091 2.93813 4.02091L3.89813 3.70091C4.21813 3.60091 4.47813 3.36091 4.63813 3.06091L5.09812 2.14091C5.37813 1.60091 5.97813 1.32091 6.57813 1.46091L7.57813 1.70091C7.89813 1.78091 8.25813 1.74091 8.55813 1.56091L9.43813 1.04091C9.95813 0.740913 10.6181 0.820913 11.0381 1.28091L11.7381 2.02091C11.9781 2.26091 12.2981 2.42091 12.6381 2.42091L13.6581 2.46091C14.2581 2.48091 14.7781 2.92091 14.8781 3.52091L15.0581 4.52091C15.1181 4.86091 15.3181 5.16091 15.5981 5.34091L16.4381 5.92091C16.9381 6.36091 17.1381 7.00091 16.8981 7.56091Z" fill="#00D566"/>
<g opacity="0.15">
<path d="M5.67812 15.7013L5.21812 14.7813C5.05812 14.4813 4.79813 14.2413 4.47813 14.1413L3.51812 13.8213C2.93812 13.6213 2.57813 13.0613 2.63813 12.4613L2.73813 11.4413C2.77813 11.1013 2.67812 10.7613 2.45812 10.5013L1.81812 9.70127C1.43812 9.22127 1.43812 8.56127 1.81812 8.08127L2.45812 7.28127C2.67812 7.02127 2.77813 6.68127 2.73813 6.34127L2.63813 5.32127C2.57813 4.72127 2.93812 4.16127 3.51812 3.96127L4.47813 3.64127C4.79813 3.54127 5.05812 3.30127 5.21812 3.00127L5.67812 2.08127C5.83813 1.76127 6.11812 1.54127 6.41812 1.44127C5.87812 1.36127 5.33812 1.64127 5.09812 2.14127L4.63812 3.06127C4.47812 3.36127 4.21812 3.60127 3.89812 3.70127L2.93813 4.02127C2.35813 4.22127 1.99812 4.78127 2.05812 5.38127L2.15812 6.40127C2.19812 6.74127 2.09812 7.08127 1.87812 7.34127L1.23812 8.14127C0.858125 8.62127 0.858125 9.28127 1.23812 9.76127L1.87812 10.5613C2.09812 10.8213 2.19812 11.1613 2.15812 11.5013L2.05812 12.5213C1.99812 13.1213 2.35813 13.6813 2.93813 13.8813L3.89812 14.2013C4.21812 14.3013 4.47812 14.5413 4.63812 14.8413L5.09812 15.7613C5.37812 16.3013 5.97813 16.5813 6.57812 16.4413L6.69812 16.4213C6.25812 16.3413 5.87813 16.1013 5.67812 15.7013Z" fill="black"/>
<path d="M9.11687 1.50131L9.99687 0.981306C10.0769 0.941306 10.1569 0.901306 10.2369 0.881306C9.95687 0.841306 9.65687 0.901306 9.41687 1.04131L8.53688 1.56131C8.45688 1.60131 8.37687 1.64131 8.29688 1.66131C8.57687 1.70131 8.85687 1.66131 9.11687 1.50131Z" fill="black"/>
<path d="M13.198 15.4013C13.098 15.4013 12.998 15.4213 12.918 15.4413L13.638 15.4013C13.738 15.4013 13.818 15.3813 13.918 15.3613L13.198 15.4013Z" fill="black"/>
<path d="M9.99953 16.7813L9.11953 16.2613C8.81953 16.0813 8.47953 16.0413 8.13953 16.1213L8.01953 16.1413C8.19953 16.1613 8.35953 16.2213 8.51953 16.3013L9.39953 16.8213C9.73953 17.0213 10.1195 17.0413 10.4795 16.9213C10.3195 16.9213 10.1595 16.8813 9.99953 16.7813Z" fill="black"/>
</g>
<path d="M5.79688 7.72094L8.29688 10.5809L13.4169 6.46094" fill="#00D566"/>
<path d="M7.69818 12.0602C7.41818 12.0602 7.13818 11.9402 6.93818 11.7202L4.43818 8.86019C4.07818 8.44019 4.11818 7.82019 4.51818 7.44019C4.93818 7.08019 5.55818 7.12019 5.93818 7.52018L7.81818 9.66019L12.1982 6.14019C12.6182 5.80019 13.2582 5.86019 13.5982 6.30019C13.9382 6.74019 13.8782 7.36019 13.4382 7.70019L8.31818 11.8402C8.13818 11.9802 7.91818 12.0602 7.69818 12.0602Z" fill="white"/>
</svg>
