<svg width="70" height="69" viewBox="0 0 70 69" fill="none" xmlns="http://www.w3.org/2000/svg">
<mask id="path-1-inside-1_2432_47102" fill="white">
<path d="M19 16C19 7.16344 26.1634 0 35 0C43.8366 0 51 7.16344 51 16C51 24.8366 43.8366 32 35 32C26.1634 32 19 24.8366 19 16Z"/>
</mask>
<path d="M19 16C19 7.16344 26.1634 0 35 0C43.8366 0 51 7.16344 51 16C51 24.8366 43.8366 32 35 32C26.1634 32 19 24.8366 19 16Z" fill="#EEF2F3"/>
<path d="M36.6968 12.1116L34.6145 14.1939L34.5113 14.2971L33.8516 14.9568L33.3624 15.4504L32.7027 16.1101L32.5995 16.2088L32.3123 16.5005L32.2091 16.5993L31.2353 17.5731L31.132 17.6718C30.8493 17.9545 30.5262 18.1969 30.1762 18.3943C30.0101 18.4886 29.8351 18.5694 29.6556 18.6367C29.2517 18.7937 28.8299 18.888 28.3991 18.9104C28.1388 18.9329 27.874 18.9329 27.6137 18.9104C27.0438 18.8476 26.4918 18.6726 25.9892 18.3898C25.7648 18.2732 25.5539 18.1251 25.3654 17.9545L25.2442 17.8334L21.4521 14.0054L21.3758 13.9291C21.3085 13.8573 21.2502 13.7765 21.2008 13.6913C21.0707 13.4714 21.0034 13.22 21.0034 12.9642C20.9989 12.9239 20.9989 12.8835 21.0034 12.8431C21.0034 12.7803 21.0034 12.7174 21.0034 12.6591V12.5963C21.0527 12.4078 21.1425 12.2283 21.2637 12.0757C21.2951 12.0353 21.331 11.9949 21.3669 11.9635L21.4342 11.8962L25.518 7.86626L27.9637 5.42496C28.5023 4.88644 29.3684 4.85503 29.9473 5.35765L36.6968 12.1116Z" fill="#005BAA"/>
<path d="M29.3496 21.1852C29.022 21.1852 28.6944 21.1134 28.3982 20.9698L27.6218 20.198L27.4288 20.0095L27.3974 19.9736L27.0384 19.6146L25.2344 17.7881L25.3555 17.9092C25.544 18.0843 25.7549 18.2324 25.9838 18.3535C26.4819 18.6363 27.0339 18.8113 27.6084 18.8741C27.8686 18.8965 28.1334 18.8965 28.3937 18.8741C28.8245 18.8472 29.2508 18.7529 29.6502 18.6003C29.8298 18.533 30.0048 18.4478 30.1708 18.358C30.5209 18.1606 30.844 17.9182 31.1267 17.6355L31.2299 17.5368L32.2037 16.5629L32.3069 16.4642L32.5942 16.1725L32.6974 16.0738L33.3571 15.4141L33.8462 14.9205L34.5239 14.2967L34.6271 14.1935L38.8141 10.0334L40.5284 8.12612L40.6226 8.03637C41.1521 7.51131 42.0048 7.51131 42.5299 8.03637L43.4768 8.98327H43.5082C43.0774 8.96532 42.66 9.12688 42.3548 9.42755L39.1551 12.5465L39.1237 12.5824L33.568 18.1157L31.5126 20.1262L31.387 20.2563C31.1087 20.5256 30.7856 20.7544 30.4356 20.9205C30.2426 21.0147 30.0362 21.0865 29.8208 21.1269C29.6996 21.1538 29.574 21.1673 29.4528 21.1718L29.3496 21.1852Z" fill="#ED1C24"/>
<path d="M48.6068 16.0058L48.5036 16.109L43.9755 20.7044L39.2051 25.5376C39.057 25.6857 38.8955 25.8248 38.7249 25.9505L38.6576 25.9954C36.9478 27.216 34.6098 27.0545 33.0884 25.6049L32.9628 25.5331L32.146 24.7164L29.8438 22.4142L29.072 21.6378L28.9688 21.5301C29.0944 21.5526 29.2156 21.5615 29.3412 21.5615H29.4489C29.597 21.5571 29.7406 21.5346 29.8842 21.5032C30.1266 21.4538 30.3644 21.3731 30.5843 21.2654C30.9658 21.0769 31.3203 20.8256 31.6255 20.5249L31.7646 20.3723L33.5327 18.6356L39.6225 12.658L39.6539 12.6176L42.6382 9.72755C43.0376 9.3461 43.6479 9.29225 44.1102 9.59741L44.8057 10.2975L48.6023 14.0985C48.6382 14.13 48.6696 14.1659 48.6966 14.2018C49.1319 14.7403 49.096 15.5167 48.6068 16.0058Z" fill="#ED1C24"/>
<path d="M33.9331 10.9764C33.8209 11.0796 33.6504 11.0796 33.5382 10.9764C31.7431 9.1679 28.8217 9.15892 27.0131 10.954C25.2046 12.7491 25.1956 15.6705 26.9907 17.4791L28.3774 18.8747C28.3774 18.8837 27.8299 18.8927 27.5741 18.8702L26.5913 17.8874C24.5808 15.8635 24.5943 12.592 26.6182 10.5815C28.6421 8.57104 31.9137 8.5845 33.9241 10.6084C34.0184 10.7072 34.0229 10.8687 33.9331 10.9764Z" fill="#009EDB"/>
<path d="M36.0811 12.7445L35.6906 13.1305L35.0085 12.4439C34.9008 12.3362 34.9008 12.1611 35.0085 12.0534C35.1162 11.9457 35.2912 11.9457 35.3989 12.0534L36.0811 12.7445Z" fill="#009EDB"/>
<path d="M30.1716 18.3545C30.1716 18.3545 29.8306 18.534 29.6511 18.5969L27.7617 16.7076C26.5635 15.5004 26.393 13.6155 27.3578 12.2154C27.4431 12.0897 27.6136 12.0583 27.7438 12.1436C27.8694 12.2289 27.9009 12.4039 27.8111 12.5295C26.9988 13.7098 27.1424 15.3029 28.1522 16.3216L30.1716 18.3545Z" fill="#009EDB"/>
<path d="M34.919 13.8927L34.6318 14.1799L34.5375 14.2742L32.3924 12.1021C31.5891 11.2989 30.3999 11.0161 29.3229 11.3796C29.1837 11.4425 29.0222 11.3841 28.9549 11.245C28.892 11.1059 28.9504 10.9443 29.0895 10.877C29.1075 10.868 29.1299 10.8635 29.1478 10.8591C30.4179 10.4417 31.8135 10.7828 32.7514 11.7342L34.919 13.8927Z" fill="#009EDB"/>
<path d="M33.7437 15.0205L33.3577 15.411L31.2216 13.2614C30.6427 12.7902 29.79 12.871 29.3188 13.4499C28.9105 13.9525 28.9105 14.6705 29.3233 15.1686L30.71 16.5688C30.8177 16.6765 30.8177 16.8515 30.71 16.9592C30.6023 17.0669 30.4273 17.0669 30.3196 16.9592L28.906 15.5591C28.1969 14.7782 28.2597 13.571 29.0406 12.862C29.7721 12.1978 30.8895 12.2023 31.6165 12.8754L33.7437 15.0205Z" fill="#009EDB"/>
<path d="M32.5956 16.1679L32.2142 16.5493L30.0691 14.4087C29.9614 14.301 29.9614 14.126 30.0691 14.0183C30.1768 13.9106 30.3518 13.9106 30.4595 14.0183L32.5956 16.1679Z" fill="#009EDB"/>
<path d="M19 0H51H19ZM51 17C51 25.8366 43.8366 33 35 33C26.1634 33 19 25.8366 19 17V16C19 24.2843 26.1634 31 35 31C43.8366 31 51 24.2843 51 16V17ZM19 32V0V32ZM51 0V32V0Z" fill="#919191" mask="url(#path-1-inside-1_2432_47102)"/>
<g filter="url(#filter0_dd_2432_47102)">
<path d="M6.5 50C6.5 45.5817 10.0817 42 14.5 42H55.5C59.9183 42 63.5 45.5817 63.5 50V51C63.5 55.4183 59.9183 59 55.5 59H14.5C10.0817 59 6.5 55.4183 6.5 51V50Z" fill="#F0F2F5" shape-rendering="crispEdges"/>
<path d="M14.6577 53.0703L16.835 45.7578H18.9551L15.7368 55H14.3403L14.6577 53.0703ZM12.6519 45.7578L14.8228 53.0703L15.1528 55H13.7437L10.5444 45.7578H12.6519ZM27.3403 45.7578V55H25.436L21.7227 48.8047V55H19.8184V45.7578H21.7227L25.4424 51.9595V45.7578H27.3403Z" fill="#E23E3E"/>
<path d="M32.5962 51.7056H30.2412V50.2202H32.5962C32.9601 50.2202 33.2563 50.161 33.4849 50.0425C33.7134 49.9198 33.8805 49.7505 33.9863 49.5347C34.0921 49.3188 34.145 49.0755 34.145 48.8047C34.145 48.5296 34.0921 48.2736 33.9863 48.0366C33.8805 47.7996 33.7134 47.6092 33.4849 47.4653C33.2563 47.3215 32.9601 47.2495 32.5962 47.2495H30.9014V55H28.9971V45.7578H32.5962C33.3198 45.7578 33.9398 45.889 34.4561 46.1514C34.9766 46.4095 35.3743 46.7671 35.6494 47.2241C35.9245 47.6812 36.062 48.2038 36.062 48.792C36.062 49.3887 35.9245 49.9049 35.6494 50.3408C35.3743 50.7767 34.9766 51.1131 34.4561 51.3501C33.9398 51.5871 33.3198 51.7056 32.5962 51.7056ZM40.0801 47.3384L37.5664 55H35.5415L38.9756 45.7578H40.2642L40.0801 47.3384ZM42.1685 55L39.6484 47.3384L39.4453 45.7578H40.7466L44.1997 55H42.1685ZM42.0542 51.5596V53.0513H37.1729V51.5596H42.0542ZM45.4883 45.7578L47.418 49.9727L49.3477 45.7578H51.4233L48.3828 51.6357V55H46.4531V51.6357L43.4062 45.7578H45.4883Z" fill="#005BAA"/>
<path d="M54.1982 49.3672L55.3525 50.2812L54.7988 50.7617L53.6621 49.8477L54.1982 49.3672ZM55.3818 47.7676V47.9697C55.3818 48.2939 55.3379 48.585 55.25 48.8428C55.1641 49.1006 55.04 49.3203 54.8779 49.502C54.7158 49.6816 54.5244 49.8193 54.3037 49.915C54.083 50.0107 53.8379 50.0586 53.5684 50.0586C53.3008 50.0586 53.0557 50.0107 52.833 49.915C52.6104 49.8193 52.418 49.6816 52.2559 49.502C52.0938 49.3203 51.9678 49.1006 51.8779 48.8428C51.79 48.585 51.7461 48.2939 51.7461 47.9697V47.7676C51.7461 47.4414 51.79 47.1504 51.8779 46.8945C51.9678 46.6367 52.0928 46.417 52.2529 46.2354C52.4131 46.0537 52.6045 45.915 52.8271 45.8193C53.0498 45.7236 53.2949 45.6758 53.5625 45.6758C53.832 45.6758 54.0771 45.7236 54.2979 45.8193C54.5205 45.915 54.7129 46.0537 54.875 46.2354C55.0371 46.417 55.1621 46.6367 55.25 46.8945C55.3379 47.1504 55.3818 47.4414 55.3818 47.7676ZM54.4941 47.9697V47.7617C54.4941 47.5352 54.4727 47.3359 54.4297 47.1641C54.3887 46.9922 54.3281 46.8477 54.248 46.7305C54.1699 46.6133 54.0732 46.5254 53.958 46.4668C53.8428 46.4062 53.7109 46.376 53.5625 46.376C53.4141 46.376 53.2822 46.4062 53.167 46.4668C53.0518 46.5254 52.9551 46.6133 52.877 46.7305C52.7988 46.8477 52.7393 46.9922 52.6982 47.1641C52.6572 47.3359 52.6367 47.5352 52.6367 47.7617V47.9697C52.6367 48.1943 52.6572 48.3936 52.6982 48.5674C52.7393 48.7393 52.7988 48.8848 52.877 49.0039C52.957 49.1211 53.0547 49.21 53.1699 49.2705C53.2871 49.3311 53.4199 49.3613 53.5684 49.3613C53.7168 49.3613 53.8477 49.3311 53.9609 49.2705C54.0762 49.21 54.1729 49.1211 54.251 49.0039C54.3311 48.8848 54.3916 48.7393 54.4326 48.5674C54.4736 48.3936 54.4941 48.1943 54.4941 47.9697ZM56.0176 45.7344H57.6084C57.9346 45.7344 58.2148 45.7832 58.4492 45.8809C58.6855 45.9785 58.8672 46.123 58.9941 46.3145C59.1211 46.5059 59.1846 46.7412 59.1846 47.0205C59.1846 47.249 59.1455 47.4453 59.0674 47.6094C58.9912 47.7715 58.8828 47.9072 58.7422 48.0166C58.6035 48.124 58.4404 48.21 58.2529 48.2744L57.9746 48.4209H56.5918L56.5859 47.7354H57.6143C57.7686 47.7354 57.8965 47.708 57.998 47.6533C58.0996 47.5986 58.1758 47.5225 58.2266 47.4248C58.2793 47.3271 58.3057 47.2139 58.3057 47.085C58.3057 46.9482 58.2803 46.8301 58.2295 46.7305C58.1787 46.6309 58.1016 46.5547 57.998 46.502C57.8945 46.4492 57.7646 46.4229 57.6084 46.4229H56.8965V50H56.0176V45.7344ZM58.4023 50L57.4297 48.0986L58.3584 48.0928L59.3428 49.959V50H58.4023Z" fill="#E23E3E"/>
</g>
<defs>
<filter id="filter0_dd_2432_47102" x="0.5" y="40" width="69" height="29" filterUnits="userSpaceOnUse" color-interpolation-filters="sRGB">
<feFlood flood-opacity="0" result="BackgroundImageFix"/>
<feColorMatrix in="SourceAlpha" type="matrix" values="0 0 0 0 0 0 0 0 0 0 0 0 0 0 0 0 0 0 127 0" result="hardAlpha"/>
<feOffset dy="4"/>
<feGaussianBlur stdDeviation="3"/>
<feComposite in2="hardAlpha" operator="out"/>
<feColorMatrix type="matrix" values="0 0 0 0 0 0 0 0 0 0 0 0 0 0 0 0 0 0 0.1 0"/>
<feBlend mode="normal" in2="BackgroundImageFix" result="effect1_dropShadow_2432_47102"/>
<feColorMatrix in="SourceAlpha" type="matrix" values="0 0 0 0 0 0 0 0 0 0 0 0 0 0 0 0 0 0 127 0" result="hardAlpha"/>
<feOffset dy="2"/>
<feGaussianBlur stdDeviation="2"/>
<feComposite in2="hardAlpha" operator="out"/>
<feColorMatrix type="matrix" values="0 0 0 0 0 0 0 0 0 0 0 0 0 0 0 0 0 0 0.06 0"/>
<feBlend mode="normal" in2="effect1_dropShadow_2432_47102" result="effect2_dropShadow_2432_47102"/>
<feBlend mode="normal" in="SourceGraphic" in2="effect2_dropShadow_2432_47102" result="shape"/>
</filter>
</defs>
</svg>
