<svg width="48" height="48" viewBox="0 0 48 48" fill="none" xmlns="http://www.w3.org/2000/svg">
<g clip-path="url(#clip0_2432_47023)">
<path d="M44.8847 44.6528H3.11531C1.395 44.6528 0 43.2578 0 41.5375V15.1544C0 13.4341 1.395 12.0391 3.11531 12.0391H44.8847C46.605 12.0391 48 13.4341 48 15.1544V41.5375C48 43.2578 46.605 44.6528 44.8847 44.6528Z" fill="#616484"/>
<path d="M44.8847 12.0391H24V44.6528H44.8847C46.605 44.6528 48 43.2578 48 41.5375V15.1544C48 13.4331 46.605 12.0391 44.8847 12.0391Z" fill="#424566"/>
<path d="M25.0387 12.0391C24.7191 21.6634 16.7897 29.3941 7.08844 29.3941C4.57219 29.3941 2.17594 28.8737 0 27.9353V23.7466C2.08781 24.9531 4.50844 25.6441 7.08844 25.6441C14.7216 25.6441 20.9681 19.5953 21.2859 12.0391H25.0387Z" fill="#6B6E91"/>
<path d="M24 12.0391V17.4859C24.6141 15.7741 24.9759 13.9441 25.0387 12.0391H24Z" fill="#616484"/>
<path d="M47.9993 31.1117V34.918C45.7446 34.4867 43.5574 34.2955 41.3777 34.5149C37.4524 34.9096 33.8027 36.748 29.8924 40.3002C29.2671 40.8683 28.6315 41.4636 28.0165 42.0383C27.0827 42.9121 26.1387 43.7952 25.1599 44.653H19.084C21.3321 43.1549 23.3487 41.2686 25.4552 39.2989C26.0796 38.7149 26.7255 38.1111 27.3715 37.5242C31.9062 33.4049 36.2374 31.2636 41.0018 30.7836C43.3596 30.5464 45.7371 30.7302 47.9993 31.1117Z" fill="#616484"/>
<path d="M19.084 44.6527H23.9993V40.6523C22.3999 42.1233 20.8099 43.5023 19.084 44.6527Z" fill="#6B6E91"/>
<path d="M10.0454 27.9159H5.44695C4.74383 27.9159 4.17383 27.3459 4.17383 26.6428V23.5856C4.17383 22.8825 4.74383 22.3125 5.44695 22.3125H10.0454C10.7485 22.3125 11.3185 22.8825 11.3185 23.5856V26.6428C11.3185 27.3459 10.7485 27.9159 10.0454 27.9159Z" fill="#424566"/>
<path d="M10.0512 27.8383H5.44148C4.78242 27.8383 4.24805 27.3039 4.24805 26.6448V23.5802C4.24805 22.9211 4.78242 22.3867 5.44148 22.3867H10.0521C10.7112 22.3867 11.2455 22.9211 11.2455 23.5802V26.6448C11.2446 27.3039 10.7102 27.8383 10.0512 27.8383Z" fill="#FEBD55"/>
<path d="M11.2446 25.2077V25.0202H8.79961V24.1934L9.43055 23.5624H11.2437C11.2437 23.4987 11.2371 23.4359 11.2259 23.3749H9.39117C9.3668 23.3749 9.34242 23.3852 9.32555 23.403L8.66742 24.0602H7.84055V22.3887H7.65305V24.0602H6.83648L6.1793 23.403C6.16148 23.3852 6.13711 23.3749 6.11273 23.3749H4.2668C4.25555 23.4359 4.24898 23.4987 4.24898 23.5624H6.07336L6.69305 24.1821V25.0202H4.24805V25.2077H6.69305V26.0459L6.07336 26.6655H4.24898C4.24898 26.7293 4.25555 26.7921 4.2668 26.853H6.11273C6.13711 26.853 6.16148 26.8427 6.1793 26.8249L6.83648 26.1677H7.65305V27.8393H7.84055V26.1677H8.66742L9.32555 26.8249C9.34242 26.8427 9.3668 26.853 9.39117 26.853H11.2259C11.2371 26.7921 11.2437 26.7293 11.2437 26.6655H9.43055L8.79961 26.0346V25.2077H11.2446ZM8.61211 25.9802H6.88055V24.2477H8.61211V25.9802Z" fill="#B5613C"/>
<path d="M42.9731 27.7788C42.9309 27.7788 42.8878 27.7694 42.8465 27.7488C42.7078 27.6785 42.6515 27.5097 42.7218 27.371C43.4437 25.9366 43.4437 24.2922 42.7218 22.8569C42.6525 22.7182 42.7078 22.5494 42.8465 22.4791C42.9853 22.4097 43.154 22.4651 43.2243 22.6038C44.0268 24.1994 44.0268 26.0285 43.2243 27.6232C43.1756 27.7216 43.0762 27.7788 42.9731 27.7788ZM42.0075 27.2416C42.7678 25.8888 42.7678 24.3382 42.0075 22.9854C41.9315 22.8504 41.76 22.8016 41.624 22.8776C41.489 22.9535 41.4403 23.1251 41.5171 23.261C42.179 24.4376 42.179 25.7885 41.5171 26.966C41.4412 27.101 41.489 27.2726 41.625 27.3494C41.6681 27.3738 41.7159 27.386 41.7628 27.386C41.8612 27.3851 41.9559 27.3335 42.0075 27.2416ZM40.8103 26.8647C41.5471 25.7847 41.5471 24.4422 40.8103 23.3622C40.7231 23.2338 40.5478 23.201 40.4193 23.2882C40.2909 23.3754 40.2581 23.5507 40.3453 23.6791C40.949 24.5641 40.949 25.6629 40.3453 26.5479C40.2581 26.6763 40.2909 26.8516 40.4193 26.9388C40.4681 26.9716 40.5234 26.9876 40.5778 26.9876C40.6678 26.9876 40.7559 26.9444 40.8103 26.8647ZM39.5446 26.5001C39.9534 26.1213 40.1793 25.6291 40.1793 25.1135C40.1793 24.5979 39.9543 24.1057 39.5446 23.7269C39.4303 23.6219 39.2531 23.6285 39.1471 23.7429C39.0412 23.8572 39.0487 24.0344 39.1631 24.1404C39.4556 24.4113 39.6168 24.7572 39.6168 25.1144C39.6168 25.4716 39.4556 25.8176 39.1631 26.0885C39.0487 26.1944 39.0421 26.3716 39.1471 26.486C39.2025 26.546 39.2784 26.576 39.3534 26.576C39.4218 26.5751 39.4912 26.5507 39.5446 26.5001Z" fill="#CAD4FF"/>
<path d="M23.6149 39.9258H4.5293C4.37367 39.9258 4.24805 39.8002 4.24805 39.6445C4.24805 39.4889 4.37367 39.3633 4.5293 39.3633H23.6149C23.7705 39.3633 23.8962 39.4889 23.8962 39.6445C23.8962 39.8002 23.7705 39.9258 23.6149 39.9258Z" fill="#E6EAFF"/>
<path d="M43.5457 39.9258H39.9251C39.7695 39.9258 39.6438 39.8002 39.6438 39.6445C39.6438 39.4889 39.7695 39.3633 39.9251 39.3633H43.5457C43.7013 39.3633 43.827 39.4889 43.827 39.6445C43.827 39.8002 43.7013 39.9258 43.5457 39.9258ZM38.396 39.6445C38.396 39.4889 38.2704 39.3633 38.1148 39.3633H34.4941C34.3385 39.3633 34.2129 39.4889 34.2129 39.6445C34.2129 39.8002 34.3385 39.9258 34.4941 39.9258H38.1148C38.2695 39.9258 38.396 39.8002 38.396 39.6445Z" fill="#CAD4FF"/>
<path d="M4.5293 18.4307C4.37367 18.4307 4.24805 18.3051 4.24805 18.1495V17.0488C4.24805 16.8932 4.37367 16.7676 4.5293 16.7676C4.68492 16.7676 4.81055 16.8932 4.81055 17.0488V18.1495C4.81055 18.3051 4.68492 18.4307 4.5293 18.4307ZM6.34242 18.1495V17.0488C6.34242 16.8932 6.2168 16.7676 6.06117 16.7676C5.90555 16.7676 5.77992 16.8932 5.77992 17.0488V18.1495C5.77992 18.3051 5.90555 18.4307 6.06117 18.4307C6.2168 18.4307 6.34242 18.3051 6.34242 18.1495ZM7.8743 18.1495V17.0488C7.8743 16.8932 7.74867 16.7676 7.59305 16.7676C7.43742 16.7676 7.3118 16.8932 7.3118 17.0488V18.1495C7.3118 18.3051 7.43742 18.4307 7.59305 18.4307C7.74867 18.4307 7.8743 18.3051 7.8743 18.1495ZM9.40617 18.1495V17.0488C9.40617 16.8932 9.28055 16.7676 9.12492 16.7676C8.9693 16.7676 8.84367 16.8932 8.84367 17.0488V18.1495C8.84367 18.3051 8.9693 18.4307 9.12492 18.4307C9.28055 18.4307 9.40617 18.3051 9.40617 18.1495Z" fill="#E6EAFF"/>
<path d="M5.11281 35.1577H5.06313C4.59344 35.1577 4.21094 34.7752 4.21094 34.3055V32.9752C4.21094 32.5055 4.59344 32.123 5.06313 32.123H5.11281C5.5825 32.123 5.965 32.5055 5.965 32.9752V34.3055C5.96594 34.7752 5.58344 35.1577 5.11281 35.1577ZM5.06313 32.6846C4.90281 32.6846 4.77344 32.8149 4.77344 32.9743V34.3046C4.77344 34.4649 4.90375 34.5943 5.06313 34.5943H5.11281C5.27313 34.5943 5.4025 34.464 5.4025 34.3046V32.9743C5.4025 32.814 5.27219 32.6846 5.11281 32.6846H5.06313Z" fill="#E6EAFF"/>
<path d="M7.39109 35.1577H7.34047C6.87078 35.1577 6.48828 34.7752 6.48828 34.3055V32.9752C6.48828 32.5055 6.87078 32.123 7.34047 32.123H7.39016C7.85984 32.123 8.24234 32.5055 8.24234 32.9752V34.3055C8.24328 34.7752 7.86078 35.1577 7.39109 35.1577ZM7.34047 32.6846C7.18016 32.6846 7.05078 32.8149 7.05078 32.9743V34.3046C7.05078 34.4649 7.18109 34.5943 7.34047 34.5943H7.39016C7.55047 34.5943 7.67984 34.464 7.67984 34.3046V32.9743C7.67984 32.814 7.54953 32.6846 7.39016 32.6846H7.34047Z" fill="#E6EAFF"/>
<path d="M9.6675 35.1577H9.61781C9.14812 35.1577 8.76562 34.7752 8.76562 34.3055V32.9752C8.76562 32.5055 9.14812 32.123 9.61781 32.123H9.6675C10.1372 32.123 10.5197 32.5055 10.5197 32.9752V34.3055C10.5206 34.7752 10.1381 35.1577 9.6675 35.1577ZM9.61781 32.6846C9.4575 32.6846 9.32812 32.8149 9.32812 32.9743V34.3046C9.32812 34.4649 9.45844 34.5943 9.61781 34.5943H9.6675C9.82781 34.5943 9.95719 34.464 9.95719 34.3046V32.9743C9.95719 32.814 9.82687 32.6846 9.6675 32.6846H9.61781Z" fill="#E6EAFF"/>
<path d="M11.9468 35.1577H11.8971C11.4274 35.1577 11.0449 34.7752 11.0449 34.3055V32.9752C11.0449 32.5055 11.4274 32.123 11.8971 32.123H11.9468C12.4165 32.123 12.799 32.5055 12.799 32.9752V34.3055C12.799 34.7752 12.4165 35.1577 11.9468 35.1577ZM11.8962 32.6846C11.7359 32.6846 11.6065 32.8149 11.6065 32.9743V34.3046C11.6065 34.4649 11.7368 34.5943 11.8962 34.5943H11.9459C12.1062 34.5943 12.2355 34.464 12.2355 34.3046V32.9743C12.2355 32.814 12.1052 32.6846 11.9459 32.6846H11.8962Z" fill="#E6EAFF"/>
<path d="M15.4429 35.1577H15.3932C14.9235 35.1577 14.541 34.7752 14.541 34.3055V32.9752C14.541 32.5055 14.9235 32.123 15.3932 32.123H15.4429C15.9126 32.123 16.2951 32.5055 16.2951 32.9752V34.3055C16.2951 34.7752 15.9135 35.1577 15.4429 35.1577ZM15.3932 32.6846C15.2329 32.6846 15.1035 32.8149 15.1035 32.9743V34.3046C15.1035 34.4649 15.2338 34.5943 15.3932 34.5943H15.4429C15.6032 34.5943 15.7326 34.464 15.7326 34.3046V32.9743C15.7326 32.814 15.6023 32.6846 15.4429 32.6846H15.3932Z" fill="#E6EAFF"/>
<path d="M17.7202 35.1577H17.6705C17.2009 35.1577 16.8184 34.7752 16.8184 34.3055V32.9752C16.8184 32.5055 17.2009 32.123 17.6705 32.123H17.7202C18.1899 32.123 18.5724 32.5055 18.5724 32.9752V34.3055C18.5734 34.7752 18.1909 35.1577 17.7202 35.1577ZM17.6705 32.6846C17.5102 32.6846 17.3809 32.8149 17.3809 32.9743V34.3046C17.3809 34.4649 17.5112 34.5943 17.6705 34.5943H17.7202C17.8805 34.5943 18.0099 34.464 18.0099 34.3046V32.9743C18.0099 32.814 17.8796 32.6846 17.7202 32.6846H17.6705Z" fill="#E6EAFF"/>
<path d="M19.9976 35.1577H19.9479C19.4782 35.1577 19.0957 34.7752 19.0957 34.3055V32.9752C19.0957 32.5055 19.4782 32.123 19.9479 32.123H19.9976C20.4673 32.123 20.8498 32.5055 20.8498 32.9752V34.3055C20.8498 34.7752 20.4673 35.1577 19.9976 35.1577ZM19.9479 32.6846C19.7876 32.6846 19.6582 32.8149 19.6582 32.9743V34.3046C19.6582 34.4649 19.7885 34.5943 19.9479 34.5943H19.9976C20.1579 34.5943 20.2873 34.464 20.2873 34.3046V32.9743C20.2873 32.814 20.157 32.6846 19.9976 32.6846H19.9479Z" fill="#E6EAFF"/>
<path d="M22.2749 35.1577H22.2252C21.7555 35.1577 21.373 34.7752 21.373 34.3055V32.9752C21.373 32.5055 21.7555 32.123 22.2252 32.123H22.2749C22.7446 32.123 23.1271 32.5055 23.1271 32.9752V34.3055C23.128 34.7752 22.7455 35.1577 22.2749 35.1577ZM22.2252 32.6846C22.0649 32.6846 21.9355 32.8149 21.9355 32.9743V34.3046C21.9355 34.4649 22.0659 34.5943 22.2252 34.5943H22.2749C22.4352 34.5943 22.5646 34.464 22.5646 34.3046V32.9743C22.5646 32.814 22.4343 32.6846 22.2749 32.6846H22.2252Z" fill="#E6EAFF"/>
<path d="M25.773 35.1577H25.7233C25.2536 35.1577 24.8711 34.7752 24.8711 34.3055V32.9752C24.8711 32.5055 25.2536 32.123 25.7233 32.123H25.773C26.2427 32.123 26.6252 32.5055 26.6252 32.9752V34.3055C26.6252 34.7752 26.2427 35.1577 25.773 35.1577ZM25.7223 32.6846C25.562 32.6846 25.4327 32.8149 25.4327 32.9743V34.3046C25.4327 34.4649 25.563 34.5943 25.7223 34.5943H25.772C25.9323 34.5943 26.0617 34.464 26.0617 34.3046V32.9743C26.0617 32.814 25.9314 32.6846 25.772 32.6846H25.7223Z" fill="#CAD4FF"/>
<path d="M28.0503 35.1577H28.0006C27.5309 35.1577 27.1484 34.7752 27.1484 34.3055V32.9752C27.1484 32.5055 27.5309 32.123 28.0006 32.123H28.0503C28.52 32.123 28.9025 32.5055 28.9025 32.9752V34.3055C28.9034 34.7752 28.5209 35.1577 28.0503 35.1577ZM28.0006 32.6846C27.8403 32.6846 27.7109 32.8149 27.7109 32.9743V34.3046C27.7109 34.4649 27.8412 34.5943 28.0006 34.5943H28.0503C28.2106 34.5943 28.34 34.464 28.34 34.3046V32.9743C28.34 32.814 28.2097 32.6846 28.0503 32.6846H28.0006Z" fill="#CAD4FF"/>
<path d="M30.3277 35.1577H30.278C29.8083 35.1577 29.4258 34.7752 29.4258 34.3055V32.9752C29.4258 32.5055 29.8083 32.123 30.278 32.123H30.3277C30.7973 32.123 31.1798 32.5055 31.1798 32.9752V34.3055C31.1798 34.7752 30.7973 35.1577 30.3277 35.1577ZM30.277 32.6846C30.1167 32.6846 29.9873 32.8149 29.9873 32.9743V34.3046C29.9873 34.4649 30.1177 34.5943 30.277 34.5943H30.3267C30.487 34.5943 30.6164 34.464 30.6164 34.3046V32.9743C30.6164 32.814 30.4861 32.6846 30.3267 32.6846H30.277Z" fill="#CAD4FF"/>
<path d="M32.605 35.1577H32.5553C32.0856 35.1577 31.7031 34.7752 31.7031 34.3055V32.9752C31.7031 32.5055 32.0856 32.123 32.5553 32.123H32.605C33.0747 32.123 33.4572 32.5055 33.4572 32.9752V34.3055C33.4581 34.7752 33.0756 35.1577 32.605 35.1577ZM32.5553 32.6846C32.395 32.6846 32.2656 32.8149 32.2656 32.9743V34.3046C32.2656 34.4649 32.3959 34.5943 32.5553 34.5943H32.605C32.7653 34.5943 32.8947 34.464 32.8947 34.3046V32.9743C32.8947 32.814 32.7644 32.6846 32.605 32.6846H32.5553Z" fill="#CAD4FF"/>
<path d="M36.103 35.1577H36.0534C35.5837 35.1577 35.2012 34.7752 35.2012 34.3055V32.9752C35.2012 32.5055 35.5837 32.123 36.0534 32.123H36.103C36.5727 32.123 36.9552 32.5055 36.9552 32.9752V34.3055C36.9552 34.7752 36.5727 35.1577 36.103 35.1577ZM36.0524 32.6846C35.8921 32.6846 35.7627 32.8149 35.7627 32.9743V34.3046C35.7627 34.4649 35.893 34.5943 36.0524 34.5943H36.1021C36.2624 34.5943 36.3918 34.464 36.3918 34.3046V32.9743C36.3918 32.814 36.2615 32.6846 36.1021 32.6846H36.0524Z" fill="#CAD4FF"/>
<path d="M38.3804 35.1577H38.3307C37.861 35.1577 37.4785 34.7752 37.4785 34.3055V32.9752C37.4785 32.5055 37.861 32.123 38.3307 32.123H38.3804C38.8501 32.123 39.2326 32.5055 39.2326 32.9752V34.3055C39.2335 34.7752 38.851 35.1577 38.3804 35.1577ZM38.3307 32.6846C38.1704 32.6846 38.041 32.8149 38.041 32.9743V34.3046C38.041 34.4649 38.1713 34.5943 38.3307 34.5943H38.3804C38.5407 34.5943 38.6701 34.464 38.6701 34.3046V32.9743C38.6701 32.814 38.5398 32.6846 38.3804 32.6846H38.3307Z" fill="#CAD4FF"/>
<path d="M40.6577 35.1577H40.608C40.1384 35.1577 39.7559 34.7752 39.7559 34.3055V32.9752C39.7559 32.5055 40.1384 32.123 40.608 32.123H40.6577C41.1274 32.123 41.5099 32.5055 41.5099 32.9752V34.3055C41.5099 34.7752 41.1274 35.1577 40.6577 35.1577ZM40.6071 32.6846C40.4468 32.6846 40.3174 32.8149 40.3174 32.9743V34.3046C40.3174 34.4649 40.4477 34.5943 40.6071 34.5943H40.6568C40.8171 34.5943 40.9465 34.464 40.9465 34.3046V32.9743C40.9465 32.814 40.8162 32.6846 40.6568 32.6846H40.6071Z" fill="#CAD4FF"/>
<path d="M42.9351 35.1577H42.8854C42.4157 35.1577 42.0332 34.7752 42.0332 34.3055V32.9752C42.0332 32.5055 42.4157 32.123 42.8854 32.123H42.9351C43.4048 32.123 43.7873 32.5055 43.7873 32.9752V34.3055C43.7882 34.7752 43.4057 35.1577 42.9351 35.1577ZM42.8854 32.6846C42.7251 32.6846 42.5957 32.8149 42.5957 32.9743V34.3046C42.5957 34.4649 42.726 34.5943 42.8854 34.5943H42.9351C43.0954 34.5943 43.2248 34.464 43.2248 34.3046V32.9743C43.2248 32.814 43.0945 32.6846 42.9351 32.6846H42.8854Z" fill="#CAD4FF"/>
<path d="M23.7587 3.44258C23.0312 4.12039 20.71 6.08727 17.5656 6.79977C17.4044 6.83633 17.2891 6.97883 17.2891 7.14383V12.3657C17.2891 17.1891 22.8297 20.1863 23.8413 20.6935C23.9406 20.7432 24.0569 20.7432 24.1563 20.6935C25.1678 20.1863 30.7094 17.1891 30.7094 12.3657V7.14383C30.7094 6.97883 30.5941 6.83633 30.4328 6.79977C27.2875 6.08727 24.9662 4.12039 24.2387 3.44258C24.1047 3.31602 23.8947 3.31602 23.7587 3.44258Z" fill="#A1DB33"/>
<path d="M30.4341 6.79953C27.2888 6.08703 24.9675 4.12016 24.24 3.44234C24.1725 3.37859 24.0863 3.34766 24 3.34766V20.7298C24.0544 20.7298 24.1078 20.7167 24.1575 20.6923C25.1691 20.1852 30.7106 17.188 30.7106 12.3645V7.14359C30.7106 6.97766 30.5953 6.83609 30.4341 6.79953Z" fill="#5EB206"/>
<path d="M23.097 14.24C22.9948 14.24 22.8926 14.2006 22.8148 14.1228L21.027 12.335C20.8723 12.1803 20.8573 11.9271 21.0063 11.7678C21.161 11.6037 21.4198 11.6 21.5791 11.7593L22.991 13.1712C23.0491 13.2293 23.1448 13.2293 23.2029 13.1712L26.4195 9.95465C26.5779 9.79621 26.8366 9.79902 26.9923 9.96308C27.1423 10.1225 27.1263 10.3756 26.9716 10.5303L23.3791 14.1228C23.3013 14.2006 23.1991 14.24 23.097 14.24Z" fill="#E6EAFF"/>
<path d="M26.9925 9.96391C26.8378 9.79891 26.5791 9.7961 26.4206 9.95454L24 12.3752V13.502L26.9728 10.5302C27.1266 10.3764 27.1425 10.1223 26.9925 9.96391Z" fill="#CAD4FF"/>
</g>
<defs>
<clipPath id="clip0_2432_47023">
<rect width="48" height="48" fill="white"/>
</clipPath>
</defs>
</svg>
