<svg width="48" height="49" viewBox="0 0 48 49" fill="none" xmlns="http://www.w3.org/2000/svg">
<g clip-path="url(#clip0_2168_50271)">
<circle cx="23.5" cy="23.5" r="23.5" fill="url(#paint0_linear_2168_50271)"/>
<path d="M35.951 48.0039H28.2255C27.7914 48.0039 27.4395 47.6519 27.4395 47.2181C27.4395 46.7839 27.7914 46.4319 28.2255 46.4319H36.4012C36.5867 46.4319 36.7371 46.5823 36.7371 46.7675V47.2181C36.7371 47.6519 36.3852 48.0039 35.951 48.0039Z" fill="#211D1D"/>
<path d="M27.4453 47.1743L27.4439 47.1739C27.443 47.189 27.4395 47.203 27.4395 47.2181C27.4395 47.6519 27.7914 48.0039 28.2255 48.0039H35.951C36.3852 48.0039 36.7371 47.6519 36.7371 47.2181V47.1743H27.4453Z" fill="#3B393D"/>
<path d="M10.2355 27.707C7.06892 27.707 4.50195 25.14 4.50195 21.9734C4.50195 18.8069 7.06892 16.2398 10.2355 16.2398C13.4021 16.2398 15.9692 18.8069 15.9692 21.9734C15.9692 23.3001 15.5187 24.5212 14.7623 25.4927C14.5537 25.7605 15.5813 26.8249 15.3293 27.0516C15.2582 27.1158 15.1259 27.1393 14.9584 27.1393C14.7219 27.1393 14.415 27.0924 14.1113 27.0451C13.8074 26.9981 13.5067 26.9509 13.2822 26.9509C13.1596 26.9509 13.0597 26.965 12.9945 27.0009C12.176 27.4509 11.2357 27.707 10.2355 27.707Z" fill="#E2E1E1"/>
<path d="M37.9114 38.5696L37.1102 43.3008H25.0835L24.069 39.3341C23.7826 39.3341 23.5029 43.2717 23.2329 43.2165C21.3421 42.8295 19.9199 41.1568 19.9199 39.1516V18.0918H42.0603V39.1516C42.0603 40.8704 41.0154 42.3448 39.5263 42.9749C39.0299 43.1848 38.484 38.5696 37.9114 38.5696Z" fill="#B55D42"/>
<path d="M19.6498 37.2858C19.6092 36.1764 19.7012 35.068 19.9201 33.9807V39.1537C19.9201 39.2663 19.9259 39.3776 19.9347 39.4879C19.7887 38.7636 19.6773 38.0373 19.6498 37.2858ZM19.9201 18.0939V33.9041C19.3989 36.1049 19.3576 38.6149 20.1609 40.7481C20.1715 40.7762 20.2162 40.7581 20.2098 40.7307C20.1986 40.6826 20.1877 40.6348 20.1766 40.587C20.334 41.0128 20.5582 41.4066 20.838 41.7539C20.8409 41.4791 20.8422 41.2047 20.8454 40.93C20.9336 33.3168 21.1264 25.7057 21.2883 18.0939H19.9201Z" fill="#C97F51"/>
<path d="M40.566 18.0939C40.5918 20.0654 40.3946 22.0369 40.316 24.0124C40.2197 26.4431 40.5563 28.8458 40.6255 31.2719C40.6977 33.8196 40.6336 36.3747 40.6389 38.9235C40.6416 40.0362 40.6479 41.149 40.6586 42.2617C41.5187 41.5013 42.0625 40.3919 42.0625 39.1538V18.0939H40.566Z" fill="#C97F51"/>
<path d="M26.2139 44.1086C26.2673 43.8954 26.0791 43.5033 25.8313 43.052L26.3111 42.0767C26.3111 38.6491 26.0258 35.482 29.2839 34.7169C29.7827 34.5976 30.3626 34.5351 31.0401 34.5381C31.708 34.5568 32.2692 34.6353 32.7459 34.764C35.1857 35.4255 35.3488 37.4639 35.3488 40.1921C35.3488 40.6153 35.3454 41.0545 35.3454 41.5061L36.0447 42.8575C35.8127 43.3184 35.6279 43.6698 35.6653 43.7764C36.2299 45.3912 36.3332 45.8301 36.7126 46.9843L25.3359 47C25.3359 47 26.0164 44.8738 26.2139 44.1086Z" fill="white"/>
<path d="M31.0258 37.4492C29.9194 37.4492 29.1462 36.6039 29.3244 35.3484L29.6794 32.3026H32.3906L32.7232 35.3303C32.9662 36.4174 32.1392 37.4492 31.0258 37.4492Z" fill="#FBC8C2"/>
<path d="M32.522 33.4918L32.3916 32.3028H29.6804L29.3254 35.3486C29.2863 35.624 29.2953 35.8781 29.3415 36.1094C30.4913 35.3292 31.6298 34.5323 32.522 33.4918Z" fill="#F89D8A"/>
<path d="M41.1917 23.6472C41.1636 24.4782 41.0504 25.2968 40.8559 26.0869C40.3608 28.1126 39.3319 29.9538 37.8176 31.3489C37.0148 32.0858 36.0741 32.7007 35.0079 33.1551C31.3797 34.6982 27.1619 33.9583 24.2989 31.4182C23.9352 31.0947 23.5965 30.747 23.2798 30.3674C22.3203 29.2196 21.7401 27.7333 21.4924 26.0965C20.8244 21.7001 22.5429 16.1997 25.7539 13.136C29.3226 9.73372 34.6598 10.0098 38.1626 13.553C40.2822 15.698 40.7839 18.1315 41.0785 21.0728C41.1443 21.7251 41.2167 22.9761 41.1917 23.6472Z" fill="#FBC8C2"/>
<path d="M22.4389 23.0023C23.0227 22.496 23.7513 21.9234 24.2749 21.357C25.5559 19.9709 27.8626 16.6341 27.9602 16.8289C31.2343 23.377 39.6578 23.9418 40.9951 24.1875C41.054 23.7697 41.1787 24.0724 41.1934 23.6457C41.2184 22.9746 41.146 21.7236 41.0802 21.0714C40.7856 18.13 40.2839 15.6965 38.1642 13.5515C34.6615 10.0083 29.3243 9.73223 25.7556 13.1345C23.0936 15.6746 21.4625 19.8877 21.3613 23.7597C21.7599 23.5691 22.1244 23.2749 22.4389 23.0023Z" fill="#F89D8A"/>
<path d="M26.1483 22.8176C26.8926 22.4703 27.6333 22.6204 28.3262 23.0168C28.4382 23.081 28.5502 22.9162 28.4773 22.8229C27.9425 22.1397 26.5991 21.9034 26.0716 22.7153C26.0388 22.7658 26.0836 22.848 26.1483 22.8176Z" fill="#351415"/>
<path d="M35.9382 22.8175C35.4118 22.0063 34.0687 22.2376 33.5336 22.9215C33.4386 23.0425 33.5917 23.1698 33.7097 23.1023C34.3926 22.7116 35.1297 22.5775 35.8597 22.9182C35.9225 22.9476 35.9717 22.869 35.9382 22.8175Z" fill="#351415"/>
<path d="M35.6657 43.7764C36.2303 45.3912 36.3336 45.8301 36.7129 46.9843L25.3363 47C25.3363 47 26.0168 44.8738 26.2143 44.1086C26.2676 43.8954 26.3645 43.4 26.1168 42.9484C25.775 42.315 25.452 41.9239 25.3994 41.4111C25.2969 40.4117 26.131 39.0362 26.1937 38.6695C26.2219 38.5001 25.2046 36.1562 25.2453 36.1342C26.3209 35.5164 27.7257 35.0869 29.2592 34.5317C29.2623 34.5287 29.3472 34.513 29.3502 34.516C29.3532 34.516 29.3438 34.6447 29.3438 34.6574C29.3438 34.6668 29.3157 34.6885 29.2843 34.7169C29.2499 34.742 29.2121 34.7734 29.2121 34.7827C29.2716 34.9459 29.4692 41.9165 31.2067 45.3882C31.5138 45.0807 33.0003 35.9273 33.0003 34.8737C33.0003 34.8643 32.8499 34.8045 32.7463 34.764C32.6931 34.742 32.6523 34.7263 32.649 34.7232C32.646 34.7105 32.6426 34.654 32.646 34.6417C32.6584 34.6417 32.9752 34.7105 33.016 34.7232C34.5148 35.253 36.5719 36.1121 36.6692 36.3538C36.7193 36.4761 35.9104 38.3135 35.9355 38.3386C36.0578 38.461 36.9011 39.7184 36.8667 40.5902C36.8386 41.2895 36.387 42.1896 36.0451 42.8575C35.8131 43.3184 35.6283 43.6698 35.6657 43.7764Z" fill="#3B393D"/>
<path d="M29.7834 36.2878C30.0532 36.8136 30.4095 37.1963 30.9533 37.4507C30.4386 37.4142 29.8991 38.0747 29.6307 38.5156C29.6384 38.5039 29.5234 37.914 29.5103 37.8912C29.4037 37.708 29.2991 37.5235 29.1981 37.3374C28.8154 36.6304 28.8488 35.7837 29.1236 35.046C29.155 34.9618 29.2413 34.6345 29.3689 34.6372C29.4137 34.6382 29.404 34.9755 29.4077 35.0079C29.4532 35.4438 29.5785 35.888 29.7834 36.2878Z" fill="#E8E9E9"/>
<path d="M31.7277 37.5117C32.1646 37.6689 32.4718 38.1301 32.4487 38.5938C32.8719 38.0395 33.1186 37.353 33.1453 36.6564C33.1717 35.9601 33.1373 35.2809 32.6667 34.7344C32.6971 35.0833 32.7676 35.4072 32.7195 35.7779C32.6713 36.149 32.5176 36.5106 32.2568 36.779C31.9002 37.1464 31.6111 37.2828 31.1484 37.4519C31.4082 37.4546 31.4784 37.4218 31.7277 37.5117Z" fill="#E8E9E9"/>
<path d="M31.0953 45.4085L28.3838 39.7264C28.2989 39.5486 28.3453 39.3356 28.4964 39.209L29.4063 38.4472L28.2073 37.7907C28.0372 37.6978 27.9556 37.4982 28.0118 37.3127L28.827 34.5737L29.4487 34.313C29.4364 34.4146 29.4173 34.5477 29.4096 34.65C29.4083 34.6707 29.3358 34.7018 29.3364 34.7105C29.5804 37.8605 30.2058 41.2439 31.1909 45.3724C31.2053 45.4326 31.1217 45.4643 31.0953 45.4085Z" fill="#505256"/>
<path d="M31.2242 45.3851L33.9357 39.703C34.0206 39.5251 33.9742 39.3122 33.8231 39.1855L32.9129 38.4237L34.1122 37.7672C34.2824 37.6743 34.3639 37.4748 34.3078 37.2892L33.4972 34.6111L32.6181 34.3842C32.6304 34.5139 32.6355 34.5787 32.6532 34.7184C32.6545 34.7291 32.7789 34.8284 32.7782 34.8394C32.6612 37.921 32.11 41.2359 31.1286 45.349C31.1142 45.4091 31.1975 45.4409 31.2242 45.3851Z" fill="#505256"/>
<path d="M29.3855 34.6073C29.2966 34.8905 29.343 35.2284 29.4025 35.5135C29.4654 35.8154 29.5814 36.1072 29.7405 36.3712C29.8885 36.6176 30.0741 36.8415 30.2883 37.0331C30.4875 37.2112 30.7406 37.4178 31.0006 37.494C31.0504 37.5087 31.0772 37.4415 31.0364 37.4131C30.9298 37.3399 30.8071 37.2881 30.6981 37.2169C30.5741 37.136 30.4568 37.0454 30.3475 36.9455C30.1416 36.758 29.9631 36.5407 29.822 36.3004C29.674 36.0483 29.5683 35.7726 29.5025 35.4878C29.435 35.195 29.45 34.9032 29.4152 34.608C29.4132 34.592 29.3895 34.5943 29.3855 34.6073Z" fill="#D2D3D2"/>
<path d="M31.0579 37.4647C31.4302 37.436 31.7912 37.2826 32.0817 37.0483C32.4103 36.7832 32.5744 36.4172 32.7081 36.0264C32.7168 36.0003 32.6753 35.981 32.663 36.0067C32.4942 36.3553 32.3287 36.701 32.0162 36.9446C31.7334 37.1652 31.3935 37.3083 31.0515 37.4089C31.0224 37.4176 31.0248 37.4674 31.0579 37.4647Z" fill="#D2D3D2"/>
<path d="M31.0557 37.4361C30.9989 37.9392 31.0236 38.4563 31.0203 38.9617C31.0173 39.4524 31.0246 39.9431 31.0209 40.4341C31.0133 41.4095 31.0062 42.3856 31.0179 43.3613C31.0246 43.9272 31.0136 44.5008 31.0604 45.065C31.0647 45.1168 31.1409 45.1205 31.1426 45.0667C31.1573 44.5686 31.1292 44.0676 31.1239 43.5692C31.1186 43.0835 31.1145 42.5978 31.1125 42.1121C31.1089 41.1321 31.1242 40.1527 31.1279 39.1726C31.1299 38.5987 31.166 38.0084 31.1018 37.4368C31.0985 37.4077 31.0591 37.4061 31.0557 37.4361Z" fill="#E8E9E9"/>
<path d="M23.8851 44.7724L23.7894 44.1667L23.7609 43.7342L23.9434 42.6027L25.2258 41.6581L27.0161 38.7952L25.6069 35.9255L25.0432 36.2073L21.6191 39.6833C21.3289 39.9667 21.1464 40.3421 21.1027 40.7456L20.722 44.2607L20.2832 44.7403L20.4745 45.6328L23.8851 44.7724Z" fill="#3B393D"/>
<path d="M33.2466 45.9297L29.9662 44.9202C29.8261 44.4412 30.0521 44.0896 30.614 43.8553L31.4607 43.745L35.3264 41.9674L35.4076 35.6732C35.7937 35.7965 36.5197 36.1211 36.9369 36.3681C37.7779 36.8538 38.1108 38.1447 38.2214 39.5389L38.2699 42.9357C38.2596 43.5461 37.8788 44.2657 37.2982 44.4539L34.5646 45.6492L33.2466 45.9297Z" fill="#3B393D"/>
<path d="M30.4681 44.918C30.3608 45.1299 30.2598 45.3448 30.1649 45.5625C30.0967 45.7199 29.96 45.8994 29.9684 46.0819C29.9804 46.3339 30.3397 46.4021 30.4958 46.2293C30.6312 46.0792 30.8645 45.7373 31.0213 45.6093C31.0484 45.5872 31.0794 45.5661 31.1145 45.5655C31.2964 45.5618 31.279 45.879 31.267 45.9873C31.2546 46.0979 31.2362 46.2113 31.2616 46.3196C31.3425 46.6642 31.7135 46.4964 31.8145 46.2601C31.882 46.1016 31.9285 45.9141 32.0765 45.8265C32.1019 45.8115 32.1314 45.8001 32.1601 45.8045C32.1985 45.8105 32.227 45.8422 32.2507 45.8733C32.369 46.0287 32.1294 46.345 32.4081 46.4315C32.7006 46.5221 32.857 46.107 32.9259 45.9014C33.0312 45.5869 33.1351 45.1978 32.9309 44.8993C32.7825 44.6827 32.5131 44.5891 32.2597 44.5199C31.8021 44.3955 31.2432 44.2227 30.7649 44.2806C30.4694 44.3163 30.1973 44.5065 30.0616 44.7716C29.9262 45.0363 29.7985 45.3659 30.2538 45.6962" fill="#FBC8C2"/>
<path d="M23.2323 44.918C23.3394 45.1299 23.4404 45.3448 23.5352 45.5625C23.6036 45.7199 23.7404 45.8994 23.7317 46.0819C23.7198 46.3339 23.3605 46.4021 23.2046 46.2293C23.0691 46.0792 22.8358 45.7373 22.679 45.6093C22.6519 45.5872 22.6207 45.5661 22.5857 45.5655C22.4038 45.5618 22.4214 45.879 22.4334 45.9873C22.4457 46.0979 22.464 46.2113 22.4385 46.3196C22.3576 46.6642 21.9868 46.4964 21.8858 46.2601C21.8181 46.1016 21.7719 45.9141 21.6235 45.8265C21.5982 45.8115 21.569 45.8001 21.54 45.8045C21.5016 45.8105 21.4733 45.8422 21.4497 45.8733C21.3311 46.0287 21.571 46.345 21.2921 46.4315C20.9995 46.5221 20.8431 46.107 20.7743 45.9014C20.6691 45.5869 20.565 45.1978 20.7694 44.8993C20.9179 44.6827 21.1871 44.5891 21.4406 44.5199C21.8981 44.3955 22.4569 44.2227 22.9353 44.2806C23.2307 44.3163 23.503 44.5065 23.6385 44.7716C23.774 45.0363 23.9019 45.3659 23.4464 45.6962" fill="#FBC8C2"/>
<path d="M15.4672 21.817C15.4672 23.1439 15.0167 24.3652 14.2604 25.3366C14.0518 25.6045 15.0794 26.6686 14.8274 26.8957C14.5007 27.1895 12.8806 26.6313 12.4926 26.8444C11.6741 27.2947 10.7337 27.5508 9.73362 27.5508C6.56704 27.5508 4 24.9839 4 21.817C4 18.6504 6.56704 16.0836 9.73362 16.0836C12.9002 16.0836 15.4672 18.6504 15.4672 21.817Z" fill="#211D1D"/>
<path d="M8.20702 21.8155C8.20702 22.1999 7.89529 22.5117 7.51075 22.5117C7.12622 22.5117 6.81445 22.1999 6.81445 21.8155C6.81445 21.4307 7.12622 21.1192 7.51075 21.1192C7.89529 21.1192 8.20702 21.4307 8.20702 21.8155Z" fill="white"/>
<path d="M10.4336 21.8155C10.4336 22.1999 10.1218 22.5117 9.73731 22.5117C9.35275 22.5117 9.04102 22.1999 9.04102 21.8155C9.04102 21.4307 9.35275 21.1192 9.73731 21.1192C10.1218 21.1192 10.4336 21.4307 10.4336 21.8155Z" fill="white"/>
<path d="M12.6523 21.8155C12.6523 22.1999 12.3406 22.5117 11.956 22.5117C11.5715 22.5117 11.2598 22.1999 11.2598 21.8155C11.2598 21.4307 11.5715 21.1192 11.956 21.1192C12.3406 21.1192 12.6523 21.4307 12.6523 21.8155Z" fill="white"/>
<path d="M35.5059 38.1289C35.5059 38.1289 35.7525 37.4313 35.7779 37.3798C35.7826 37.3698 35.7886 37.3611 35.7957 37.3531C35.7977 37.3431 35.801 37.3327 35.8057 37.323C35.8311 37.2715 36.2309 36.6491 36.2309 36.6491C36.2309 36.6491 35.9842 37.3464 35.9588 37.3979C35.9541 37.4079 35.9481 37.4166 35.9411 37.4246C35.9391 37.4346 35.9357 37.445 35.931 37.455C35.9056 37.5062 35.5059 38.1289 35.5059 38.1289Z" fill="#222021"/>
<path d="M26.166 38.7266C26.166 38.7266 26.085 38.4805 25.985 38.2332C25.8874 37.9848 25.7694 37.7365 25.7562 37.6994C25.7512 37.685 25.7483 37.6706 25.7472 37.6563C25.739 37.6446 25.7321 37.6315 25.7268 37.6172C25.7137 37.58 25.6485 37.313 25.5674 37.0586C25.4889 36.8036 25.3965 36.5619 25.3965 36.5619C25.3965 36.5619 25.5417 36.7758 25.6765 37.0105C25.8135 37.2438 25.9375 37.4978 25.951 37.5359C25.9564 37.5506 25.9597 37.5657 25.9611 37.5804C25.9692 37.5924 25.9761 37.6061 25.9812 37.6208C25.9948 37.6589 26.059 37.9344 26.0999 38.2018C26.1435 38.4688 26.166 38.7266 26.166 38.7266Z" fill="#222021"/>
<path d="M25.375 41.0977C25.375 41.0977 25.4021 40.9081 25.4441 40.7126C25.4844 40.5167 25.541 40.3158 25.5523 40.2881C25.5566 40.2774 25.5621 40.2674 25.5685 40.2587C25.57 40.248 25.5729 40.2373 25.5774 40.2262C25.5887 40.1985 25.6885 40.0153 25.7965 39.8468C25.9031 39.6777 26.0159 39.5233 26.0159 39.5233C26.0159 39.5233 25.9414 39.6994 25.8757 39.8856C25.8084 40.0715 25.7513 40.2667 25.7404 40.2938C25.736 40.3041 25.7305 40.3135 25.724 40.3218C25.7227 40.3325 25.7201 40.3432 25.7159 40.3536C25.7049 40.3807 25.6093 40.5605 25.5279 40.7403C25.4448 40.9195 25.375 41.0977 25.375 41.0977Z" fill="#222021"/>
<path d="M30.8337 43.832C30.8293 43.8123 30.825 43.7926 30.8203 43.7729C30.8862 43.7588 30.9544 43.7478 31.0239 43.7388C31.0239 43.7615 31.0242 43.7846 31.0242 43.8073L30.8337 43.832ZM31.1308 43.7936C31.1305 43.7709 31.1298 43.7488 31.1295 43.7264C31.1619 43.7227 31.1947 43.7197 31.2271 43.7164C31.311 43.71 31.3976 43.7063 31.4858 43.7063C31.4928 43.7063 31.4999 43.7063 31.5069 43.7063C31.5049 43.7157 31.5029 43.7244 31.5009 43.7338L31.4661 43.7498L31.1308 43.7936Z" fill="#898888"/>
<path d="M30.3555 43.9922C30.3615 43.9861 30.3679 43.9801 30.3743 43.9744C30.383 43.9667 30.3917 43.9593 30.4004 43.9519L30.4055 43.9623C30.3883 43.9721 30.3716 43.9821 30.3555 43.9922Z" fill="#222021"/>
<path d="M30.4015 43.9648L30.3965 43.9545C30.5108 43.8626 30.6559 43.8091 30.8146 43.7746C30.8193 43.7944 30.8237 43.8141 30.828 43.8338L30.6138 43.8619C30.5365 43.894 30.466 43.9284 30.4015 43.9648Z" fill="#2C2B2C"/>
<path d="M31.5 43.7344C31.502 43.725 31.504 43.7163 31.506 43.7069C31.5231 43.7072 31.5406 43.7072 31.5577 43.7075C31.5577 43.7079 31.5574 43.7082 31.557 43.7082L31.5 43.7344Z" fill="#2C2B2C"/>
<path d="M31.0218 43.8086C31.0218 43.7858 31.0215 43.7626 31.0215 43.7398C31.0567 43.7351 31.0919 43.7311 31.1275 43.7274C31.1278 43.7499 31.1285 43.772 31.1288 43.7948L31.0218 43.8086Z" fill="#7A797C"/>
<path d="M33.2528 45.8359C33.2528 45.8359 33.3169 45.7901 33.3908 45.6775C33.466 45.5675 33.5305 45.3757 33.5105 45.1427C33.4951 44.9087 33.3764 44.649 33.1445 44.4501C32.9161 44.2489 32.5969 44.1098 32.247 44.0222C31.9167 43.9383 31.5901 43.9029 31.29 43.9029C31.2706 43.9029 31.2512 43.9032 31.2321 43.9032C30.9166 43.9129 30.6221 43.929 30.4399 44.064C30.2528 44.1984 30.1595 44.3842 30.094 44.5009C30.0345 44.6192 29.998 44.6911 29.998 44.6911C29.998 44.6911 30.0178 44.6176 30.0629 44.4872C30.111 44.3649 30.1719 44.1723 30.3537 43.9968C30.3697 43.9868 30.3865 43.9768 30.4035 43.9671C30.468 43.9306 30.5385 43.8962 30.6158 43.8641L30.83 43.8361L31.0206 43.8113L31.1272 43.7976L31.4624 43.7538L31.4972 43.7378L31.554 43.7117C31.4203 43.8137 31.3297 43.8825 31.3297 43.8825C31.3297 43.8825 31.4534 43.8127 31.6289 43.7137C31.8458 43.7231 32.0725 43.7538 32.3001 43.8117C32.6735 43.9049 33.0238 44.0707 33.2698 44.3167C33.5205 44.5577 33.6331 44.8833 33.6191 45.1397C33.6124 45.3994 33.5128 45.5953 33.4179 45.6979C33.3233 45.8032 33.2528 45.8359 33.2528 45.8359Z" fill="#222021"/>
<path d="M36.0807 44.9961C36.0804 44.9951 36.0801 44.9944 36.0801 44.9938L37.15 44.5258C36.9495 44.6351 36.7322 44.732 36.5093 44.8233C36.3645 44.8844 36.2211 44.9419 36.0807 44.9961Z" fill="#75656D"/>
<path d="M33.7539 45.6641C33.7539 45.6641 34.9679 45.2322 36.42 44.6105C36.7853 44.4607 37.1266 44.3146 37.4054 44.1352C37.6818 43.9546 37.8924 43.7387 38.0087 43.5158C38.238 43.0685 38.2066 42.7216 38.221 42.7216C38.2213 42.7216 38.2213 42.7219 38.2213 42.7219C38.2213 42.7219 38.2213 42.7219 38.221 42.7219C38.2046 42.7219 38.3035 43.0558 38.1127 43.5652C38.0151 43.8183 37.8028 44.0817 37.516 44.2946C37.4027 44.3782 37.2794 44.4544 37.1487 44.5256L36.0787 44.9935L36.0309 45.0143C35.4794 45.2242 34.9716 45.3789 34.5779 45.4792C34.0725 45.6099 33.7539 45.6641 33.7539 45.6641Z" fill="#222021"/>
<path d="M23.8284 42.6992C23.8284 42.6992 23.8686 42.378 23.7871 42.0036C23.7122 41.6276 23.5469 41.3495 23.5469 41.3495C23.5469 41.3495 23.6035 41.4063 23.6755 41.5156C23.7474 41.6239 23.8291 41.789 23.8705 41.9862C23.9113 42.1835 23.9025 42.3676 23.8799 42.4957C23.8575 42.6243 23.8284 42.6992 23.8284 42.6992Z" fill="#222021"/>
<path d="M20.7884 44.2578C20.7884 44.2578 20.7872 44.2437 20.7852 44.2162C20.7889 44.2145 20.7928 44.2129 20.7968 44.2112C20.7914 44.2417 20.7884 44.2578 20.7884 44.2578Z" fill="#222021"/>
<path d="M20.7707 43.8359C20.7653 43.6701 20.7618 43.4589 20.7647 43.2115C20.7715 42.8164 20.7918 42.3251 20.8668 41.7806C20.9033 41.825 20.9408 41.8688 20.9791 41.9116L20.7707 43.8359Z" fill="#75656D"/>
<path d="M20.9737 41.9141C20.9354 41.8713 20.8978 41.8275 20.8613 41.783C20.908 41.4438 20.9758 41.0841 21.0748 40.7141C21.1074 40.5937 21.143 40.4757 21.1823 40.3601C21.1974 40.3066 21.2279 40.2361 21.2588 40.1692C21.2913 40.1094 21.3246 40.0536 21.3593 40.0007C21.3639 39.9941 21.3685 39.987 21.3731 39.9807C21.2242 40.2093 21.1299 40.4711 21.1002 40.7462L20.9737 41.9141ZM21.4964 39.8139C21.5955 39.6879 21.6976 39.5756 21.7985 39.4689C21.9926 39.2644 22.1833 39.0855 22.3609 38.9284L21.6165 39.6839C21.5741 39.7253 21.534 39.7688 21.4964 39.8139Z" fill="#603227"/>
<path d="M20.7827 44.1875C20.778 44.1196 20.7709 44.0003 20.7656 43.8382L20.974 41.9139L21.1006 40.7459C21.1303 40.4708 21.2246 40.2091 21.3735 39.9805C21.4138 39.922 21.455 39.8665 21.4967 39.8137C21.5344 39.7686 21.5745 39.7251 21.6169 39.6837L22.3613 38.9282C22.4548 38.8453 22.5447 38.7684 22.6296 38.6969C23.1233 38.2848 23.4556 38.0648 23.4556 38.0648C23.4556 38.0648 23.1725 38.3921 22.7783 38.8473C22.5723 39.0897 22.3244 39.3765 22.0693 39.7024C21.9421 39.8642 21.8107 40.038 21.7018 40.2178C21.6757 40.2619 21.6521 40.3071 21.6303 40.3502C21.6151 40.3906 21.5971 40.4274 21.5811 40.4886C21.5469 40.5982 21.5146 40.7108 21.4836 40.8255C21.2374 41.7437 21.0858 42.6081 20.9704 43.2342C20.8911 43.6761 20.8285 44.025 20.8018 44.1745C20.7951 44.1791 20.7888 44.1835 20.7827 44.1875Z" fill="#222021"/>
<path d="M20.6992 44.2461C20.6992 44.2461 20.707 44.2397 20.7219 44.2283L20.7211 44.2361C20.7068 44.2424 20.6992 44.2461 20.6992 44.2461Z" fill="#75656D"/>
<path d="M20.7227 44.2383L20.7235 44.2306C20.7373 44.2202 20.7573 44.2055 20.7831 44.1875C20.7837 44.1965 20.7843 44.2045 20.7848 44.2115C20.7578 44.2229 20.7369 44.2323 20.7227 44.2383ZM20.7964 44.2065C20.7981 44.1972 20.8 44.1865 20.8022 44.1744C20.8446 44.1454 20.8996 44.1099 20.9663 44.0705C21.1364 43.9702 21.3873 43.8522 21.6825 43.7787C21.9251 43.7185 22.1554 43.6991 22.3392 43.6991C22.3792 43.6991 22.4168 43.6998 22.452 43.7015C22.6499 43.7105 22.7698 43.7342 22.7698 43.7342C22.7698 43.7342 22.2818 43.76 21.7137 43.9044C21.3022 44.0043 20.9565 44.1393 20.7964 44.2065Z" fill="#222021"/>
<path d="M20.783 44.2109C20.7824 44.2039 20.7819 44.1959 20.7812 44.1868C20.7873 44.1828 20.7937 44.1785 20.8004 44.1738C20.7982 44.1858 20.7963 44.1965 20.7946 44.2059C20.7906 44.2076 20.7867 44.2093 20.783 44.2109Z" fill="#191716"/>
<path d="M26.0625 44.6406C26.0789 44.5718 26.0955 44.5019 26.1122 44.4317C26.1465 44.2739 26.1869 44.1105 26.2144 43.9447C26.2236 44.0065 26.2233 44.0607 26.2118 44.1068C26.1758 44.2465 26.1236 44.4314 26.0625 44.6406Z" fill="#75656D"/>
<path d="M26.2155 44.1068C26.227 44.0607 26.2273 44.0065 26.2181 43.9447C26.2464 43.7746 26.261 43.6024 26.2412 43.4326C26.2197 43.2107 26.1396 43.0078 26.043 42.8105C26.0678 42.8547 26.0929 42.9001 26.118 42.9466C26.3657 43.3982 26.2688 43.8935 26.2155 44.1068Z" fill="#898888"/>
<path d="M25.7341 46.0742C25.7341 46.0742 25.7979 45.7694 25.9139 45.2834C25.9612 45.0848 26.0128 44.8682 26.0666 44.6422C26.1277 44.433 26.1799 44.2481 26.2159 44.1084C26.2692 43.8952 26.3661 43.3998 26.1184 42.9482C26.0933 42.9017 26.0682 42.8563 26.0434 42.8122C25.9921 42.7075 25.9363 42.6046 25.882 42.501C25.7287 42.2065 25.6048 41.9254 25.5343 41.6773C25.4919 41.5336 25.4681 41.4019 25.457 41.2889L25.5253 41.18C25.5559 41.302 25.6083 41.4521 25.6893 41.6188C25.7937 41.8388 25.9463 42.0861 26.1243 42.3616C26.2958 42.6276 26.5283 42.9693 26.571 43.3985C26.616 43.8286 26.4828 44.197 26.3854 44.5092C26.2794 44.8258 26.1685 45.1032 26.0714 45.3348C25.8759 45.7971 25.7341 46.0742 25.7341 46.0742Z" fill="#222021"/>
<path d="M25.4549 41.2891C25.447 41.2078 25.4457 41.1363 25.4488 41.0768C25.4528 41.0053 25.459 40.9508 25.467 40.9144C25.4735 40.8783 25.4771 40.8585 25.4771 40.8585C25.4771 40.8585 25.4786 40.8786 25.4813 40.915C25.4823 40.9518 25.4891 41.0056 25.5005 41.0735C25.5061 41.1059 25.5136 41.1417 25.5232 41.1801L25.4549 41.2891Z" fill="#222021"/>
<path d="M29.0128 44.5312C29.0128 44.5312 28.6037 44.4694 28.118 44.3277C27.6323 44.1863 27.2539 44.0185 27.2539 44.0185C27.2539 44.0185 27.663 44.0807 28.1487 44.2221C28.6344 44.3638 29.0128 44.5312 29.0128 44.5312Z" fill="#222021"/>
<path d="M32.1758 43.3945L32.2787 43.1789C32.4703 43.0432 32.6839 42.8982 32.9148 42.7564C33.3708 42.4753 33.8153 42.2624 34.1523 42.1541C34.4889 42.0434 34.7065 42.0201 34.7065 42.0201C34.7065 42.0201 34.4969 42.0816 34.1807 42.2263C33.8628 42.3687 33.449 42.6094 32.9954 42.8888C32.6959 43.0723 32.4178 43.2471 32.1758 43.3945Z" fill="#222021"/>
<path d="M31.5554 43.707C31.555 43.707 31.555 43.707 31.5547 43.707C31.6215 43.6566 31.6988 43.5977 31.781 43.5352C31.921 43.4336 32.0872 43.3106 32.2744 43.1782L32.1714 43.3938C32.0965 43.4396 32.025 43.4824 31.9571 43.5225L31.5554 43.707Z" fill="#2C2B2C"/>
<path d="M31.6282 43.7109C31.6035 43.7096 31.5791 43.7089 31.5547 43.7083L31.9565 43.5238C31.9107 43.5505 31.8669 43.5759 31.8248 43.6C31.7549 43.6391 31.6884 43.6768 31.6282 43.7109Z" fill="#222021"/>
<path d="M31.3281 43.8789C31.3281 43.8789 31.419 43.8098 31.5532 43.7075L31.5545 43.7068C31.579 43.7075 31.6035 43.7082 31.6283 43.7095C31.4522 43.8088 31.3281 43.8789 31.3281 43.8789Z" fill="#191716"/>
<path d="M34.9125 41.8359C34.9125 41.8359 34.8881 41.6454 34.8821 41.3355C34.8754 41.026 34.8935 40.5955 34.9777 40.1289C35.0626 39.6626 35.197 39.2531 35.312 38.9656C35.3324 38.9142 35.3521 38.8664 35.3705 38.8226L35.3658 39.1969C35.3093 39.4697 35.2428 39.8043 35.1786 40.1653C35.0105 41.0772 34.9125 41.8359 34.9125 41.8359Z" fill="#222021"/>
<path d="M35.3672 39.1992L35.3719 38.8248C35.4571 38.6246 35.5176 38.5103 35.5176 38.5103C35.5176 38.5103 35.4538 38.7824 35.3672 39.1992Z" fill="#222021"/>
<path d="M35.2565 42.0039C35.0442 41.931 34.9082 41.8909 34.9082 41.8909C34.9082 41.8909 35.0369 41.8953 35.2428 41.928C35.2702 41.9327 35.2993 41.9377 35.3297 41.9434L35.3294 41.9705L35.2565 42.0039Z" fill="#222021"/>
<path d="M36.9987 42.7539C36.9987 42.7539 36.5471 42.5086 35.9729 42.2732C35.7014 42.1596 35.4477 42.067 35.2559 42.0011L35.3287 41.9677L35.3291 41.9406C35.5239 41.9771 35.77 42.0413 36.0253 42.1466C36.3201 42.2692 36.5672 42.4217 36.7356 42.544C36.9044 42.666 36.9987 42.7539 36.9987 42.7539Z" fill="#222021"/>
<path d="M35.1055 41.8867C35.1055 41.8867 35.195 41.8498 35.3302 41.825L35.3295 41.8642C35.1974 41.8753 35.1055 41.8867 35.1055 41.8867Z" fill="#222021"/>
<path d="M35.3301 41.8633L35.3307 41.8242C35.3812 41.8148 35.4384 41.8071 35.4992 41.8038C35.5263 41.8021 35.5524 41.8014 35.5774 41.8014C35.7626 41.8014 35.8987 41.8395 35.8987 41.8395C35.8987 41.8395 35.8926 41.8395 35.8809 41.8395C35.8305 41.8395 35.6787 41.8406 35.5022 41.8516C35.4407 41.8549 35.3822 41.8589 35.3301 41.8633Z" fill="#222021"/>
<path d="M35.1535 42.0547C35.0415 41.9893 34.9707 41.9571 34.9707 41.9571C34.9707 41.9571 35.064 41.9718 35.2136 42.0272L35.1535 42.0547Z" fill="#222021"/>
<path d="M36.4621 43.7539C36.4621 43.7539 36.4287 43.6182 36.3448 43.4156C36.2615 43.2127 36.1158 42.949 35.9059 42.696C35.695 42.4439 35.4623 42.2524 35.2778 42.1341C35.2307 42.1037 35.1872 42.0773 35.1484 42.0545L35.2083 42.0271C35.2404 42.0391 35.2755 42.0532 35.3126 42.0692C35.5205 42.1578 35.7939 42.332 36.0192 42.6017C36.2438 42.8721 36.3655 43.1726 36.415 43.3929C36.4658 43.6145 36.4621 43.7539 36.4621 43.7539Z" fill="#222021"/>
<path d="M23.401 44.5239C23.5171 44.6766 23.6528 44.8173 23.705 45.0079C23.7607 45.2111 23.6552 45.3839 23.5532 45.5524C23.5371 45.5788 23.5731 45.6079 23.5957 45.5861C23.7528 45.4361 23.8487 45.2208 23.793 45.0029C23.7415 44.8013 23.5986 44.6078 23.4265 44.4921C23.4055 44.4781 23.3879 44.5068 23.401 44.5239Z" fill="#F89D8A"/>
<path d="M30.5035 44.3737C30.3895 44.4225 30.2852 44.5077 30.1979 44.5953C30.1107 44.6826 30.0372 44.7818 29.989 44.8958C29.9011 45.1034 29.8971 45.3711 30.0719 45.5349C30.0843 45.5463 30.1053 45.5323 30.0963 45.5165C29.989 45.329 29.9813 45.0907 30.0756 44.8965C30.1237 44.7965 30.1913 44.7073 30.2671 44.6271C30.346 44.5435 30.4386 44.4747 30.5162 44.3908C30.5248 44.3814 30.5145 44.3687 30.5035 44.3737Z" fill="#F89D8A"/>
<path d="M21.0523 44.6392C20.8247 44.7114 20.6649 44.916 20.623 45.1486C20.5737 45.4224 20.6635 45.6938 20.8057 45.9268C20.8091 45.9325 20.8191 45.9291 20.8168 45.9224C20.7741 45.8035 20.731 45.6911 20.707 45.5665C20.684 45.4465 20.668 45.3248 20.6827 45.2028C20.7114 44.9645 20.8536 44.7739 21.0586 44.6549C21.0668 44.6502 21.0619 44.6362 21.0523 44.6392Z" fill="#F89D8A"/>
<path d="M32.7745 44.7744C32.9423 44.9289 33.0228 45.1528 33.0171 45.3788C33.0101 45.6509 32.9001 45.9032 32.8025 46.1526C32.7989 46.1623 32.8139 46.1686 32.8189 46.16C32.9583 45.9106 33.1004 45.6328 33.0923 45.3397C33.0863 45.1124 32.9954 44.8714 32.7862 44.7597C32.7771 44.755 32.7661 44.7668 32.7745 44.7744Z" fill="#F89D8A"/>
<path d="M18.9699 39.853C18.7532 39.4442 18.6223 38.9922 18.5644 38.534C18.417 37.3684 18.7477 36.1978 19.0049 35.072C19.5375 32.7405 19.8937 30.3579 19.964 27.9656C19.9651 27.9282 19.912 27.9272 19.9087 27.9633C19.6646 30.5819 19.2636 33.1517 18.6697 35.7135C18.4156 36.8095 18.1924 37.964 18.451 39.0811C18.6313 39.8596 19.0738 40.8026 19.875 41.1008C19.9503 41.1288 19.9921 41.0242 19.9409 40.9764C19.569 40.6301 19.2115 40.3096 18.9699 39.853Z" fill="#C97F51"/>
<path d="M42.7575 35.6595C42.5596 33.1563 42.4099 30.6329 42.0766 28.1437C42.0659 28.0635 41.96 28.0989 41.9617 28.1687C42.0151 30.4825 42.2414 32.7963 42.4086 35.104C42.558 37.1711 43.154 39.8402 41.5295 41.4991C41.4579 41.572 41.5388 41.6879 41.6251 41.6201C43.395 40.2342 42.9116 37.6049 42.7575 35.6595Z" fill="#C97F51"/>
<path d="M39.5923 30.1266C39.588 30.0604 39.483 30.0741 39.482 30.1363C39.4486 32.186 39.4803 34.2363 39.4415 36.286C39.4031 38.337 39.3366 40.3874 39.2871 42.4378C39.2865 42.4628 39.3215 42.4635 39.3239 42.4394C39.5295 40.3714 39.6307 38.2959 39.6688 36.2185C39.7059 34.1899 39.723 32.1522 39.5923 30.1266Z" fill="#9D4633"/>
<path d="M39.1491 31.8444C39.1491 31.8411 39.1444 31.8424 39.1448 31.8454C39.2364 33.9927 39.1551 36.143 39.0625 38.289C39.0609 38.3301 39.1184 38.3305 39.1224 38.2917C39.3433 36.1461 39.2985 33.9934 39.1491 31.8444Z" fill="#9D4633"/>
<path d="M23.3498 32.6894C23.3446 32.6109 23.2358 32.6356 23.2256 32.7005C23.103 33.4793 23.1247 34.2919 23.1156 35.0787C23.1066 35.8502 23.1234 36.6193 23.1758 37.3888C23.1816 37.4744 23.3176 37.4567 23.3185 37.3764C23.3275 36.5832 23.3267 35.79 23.3312 34.9968C23.3357 34.2307 23.401 33.4539 23.3498 32.6894Z" fill="#9D4633"/>
<path d="M22.7677 33.36C22.7673 33.352 22.7539 33.3536 22.7539 33.3613C22.7543 34.4159 22.7511 35.4718 22.8047 36.5254C22.8067 36.5639 22.869 36.5559 22.8691 36.5198C22.8717 35.4658 22.8183 34.4126 22.7677 33.36Z" fill="#9D4633"/>
<path d="M36.1976 35.0356C36.1983 34.8046 36.1846 34.573 36.1762 34.342C36.1598 33.8834 36.1675 33.4074 36.0693 32.9575C36.0572 32.9023 35.986 32.9144 35.9773 32.9655C35.9018 33.4168 35.9272 33.8871 35.9309 34.3427C35.9325 34.5723 35.9289 34.8026 35.9376 35.0319C35.9459 35.2472 35.9289 35.5009 36.0004 35.7055C36.0268 35.781 36.1438 35.7619 36.1639 35.6914C36.222 35.4858 36.1969 35.2482 36.1976 35.0356Z" fill="#9D4633"/>
<path d="M26.813 33.6726C26.7993 33.5924 26.6988 33.6001 26.6705 33.666C26.6188 33.7866 26.6036 33.9086 26.5857 34.038C26.5674 34.171 26.5542 34.3034 26.5464 34.4374C26.5311 34.6998 26.5327 34.9589 26.5661 35.2203C26.5804 35.3316 26.7408 35.3062 26.7502 35.2042C26.774 34.9472 26.7846 34.6911 26.7977 34.4338C26.8042 34.3054 26.8099 34.1767 26.8159 34.0484C26.8218 33.9203 26.8345 33.7997 26.813 33.6726Z" fill="#9D4633"/>
<path d="M26.0447 33.6923C26.045 33.6298 25.9571 33.6278 25.9526 33.688C25.921 34.1065 25.9132 34.541 26.0165 34.9508C26.0343 35.021 26.1263 34.9943 26.1223 34.9274C26.0975 34.5153 26.0429 34.1061 26.0447 33.6923Z" fill="#9D4633"/>
<path d="M37.0595 34.3554C37.0411 33.9168 37.0619 33.4555 36.9706 33.0253C36.9596 32.9732 36.8904 32.9839 36.883 33.033C36.8199 33.4622 36.8643 33.9118 36.8713 34.3447C36.8787 34.7912 36.878 35.2365 36.9389 35.6794C36.9496 35.7569 37.0622 35.7405 37.0679 35.6683C37.1013 35.2301 37.0776 34.7936 37.0595 34.3554Z" fill="#9D4633"/>
<path d="M36.0374 25.0055C36.0374 25.7833 35.5193 26.4141 34.8802 26.4141C34.2408 26.4141 33.7227 25.7833 33.7227 25.0055C33.7227 24.2273 34.2408 23.5966 34.8802 23.5966C35.5193 23.5966 36.0374 24.2273 36.0374 25.0055Z" fill="#351415"/>
<path d="M35.8204 24.6903C35.8204 24.8721 35.6997 25.0195 35.551 25.0195C35.4019 25.0195 35.2812 24.8721 35.2812 24.6903C35.2812 24.5081 35.4019 24.3607 35.551 24.3607C35.6997 24.3607 35.8204 24.5081 35.8204 24.6903Z" fill="white"/>
<path d="M28.4439 25.0055C28.4439 25.7833 27.9254 26.4141 27.2863 26.4141C26.6471 26.4141 26.1289 25.7833 26.1289 25.0055C26.1289 24.2273 26.6471 23.5966 27.2863 23.5966C27.9254 23.5966 28.4439 24.2273 28.4439 25.0055Z" fill="#351415"/>
<path d="M26.9316 24.577C26.9316 24.7588 26.8109 24.9062 26.6621 24.9062C26.5132 24.9062 26.3926 24.7588 26.3926 24.577C26.3926 24.3948 26.5132 24.2474 26.6621 24.2474C26.8109 24.2474 26.9316 24.3948 26.9316 24.577Z" fill="white"/>
<path d="M33.9978 27.088C33.6825 28.3098 32.6654 29.2561 31.082 29.234C29.1523 29.1895 28.4814 28.2135 28.1953 27.088H33.9978Z" fill="white"/>
<path d="M30.9148 26.5977C30.5846 26.5977 30.2864 26.3637 30.1932 26.0134C30.1317 25.7831 30.1758 25.538 30.3135 25.3415C30.4419 25.158 30.6394 25.0417 30.8554 25.0226C30.9449 25.0139 31.0178 25.0788 31.0255 25.1647C31.0332 25.2509 30.9693 25.3271 30.8831 25.3348C30.7577 25.3462 30.6468 25.412 30.5706 25.5213C30.487 25.6403 30.4592 25.7941 30.4964 25.9325C30.5595 26.1708 30.7631 26.3162 30.9817 26.2781C31.0679 26.2631 31.1485 26.3206 31.1632 26.4058C31.1779 26.491 31.1211 26.5723 31.0355 26.5873C30.9951 26.5943 30.9546 26.5977 30.9148 26.5977Z" fill="#F89D8A"/>
<path d="M35.1597 21.5933C34.045 21.2072 32.9374 20.749 31.9903 20.052C31.0821 19.3838 30.2896 18.5656 29.595 17.6797C29.239 17.2254 28.9081 16.7516 28.6006 16.263C28.5013 16.1049 27.7639 15.0888 27.8785 14.9107C27.8825 14.9045 27.8869 14.8982 27.8906 14.8924C29.8303 17.9649 32.706 20.4124 36.0258 21.882C35.7383 21.7889 35.4488 21.6934 35.1597 21.5933ZM31.5461 8.98983H30.1519C24.2661 8.98983 19.3203 13.7212 19.3203 19.6071V23.1996L21.3213 23.165C23.6173 20.8211 25.9027 17.9582 27.7906 15.0432C27.6516 15.2582 28.2636 16.2627 28.3853 16.4672C29.253 17.9224 30.4243 19.2977 31.775 20.3263C32.7039 21.0338 33.8202 21.4772 34.91 21.8691C36.1181 22.3039 37.3672 22.7239 38.6514 22.8494C39.3133 23.0461 39.9924 23.2164 40.6886 23.3594L42.3242 23.3068L42.4847 19.3386C42.0558 12.9042 37.4319 8.98983 31.5461 8.98983Z" fill="#C97F51"/>
<path d="M19.5517 18.4717C20.0778 17.1537 20.7689 15.9774 21.6816 14.89C23.4102 12.8298 25.6702 11.1962 28.3523 10.7162C30.7984 10.2782 33.4135 10.5525 35.7118 11.5012C36.8417 11.9672 37.9046 12.5917 38.7808 13.4516C39.8604 14.511 40.6747 15.7787 41.374 17.1112C41.7749 17.8741 42.1431 18.6587 42.4797 19.457L42.4848 19.3347C42.0558 12.9003 37.432 8.98591 31.5462 8.98591H30.1519C24.4551 8.98591 19.6393 13.4185 19.3359 19.0402C19.4058 18.8481 19.4774 18.6579 19.5517 18.4717Z" fill="#B55D42"/>
<path d="M27.8871 14.7586C26.9157 16.3662 26.0313 18.0276 24.9712 19.5813C24.4601 20.3304 23.9106 21.0821 23.232 21.6894C22.5348 22.3131 21.7496 22.7155 20.8612 22.9878C20.7552 23.0201 20.7626 23.1931 20.8855 23.1697C22.6036 22.8428 24.0343 21.4058 25.0061 20.0358C26.1574 18.4127 27.2126 16.6431 27.987 14.8086C28.0138 14.7458 27.9226 14.7001 27.8871 14.7586Z" fill="#C97F51"/>
<path d="M28.16 12.6491C32.3792 13.3938 36.1712 15.6501 38.8204 19.0198C39.5509 19.9486 40.181 20.9397 40.7572 21.9702C40.7796 22.0099 40.8406 21.9775 40.8219 21.9379C39.0305 18.1451 35.7603 14.9964 31.8184 13.5194C30.6366 13.0765 29.4135 12.7897 28.1617 12.6348C28.153 12.6337 28.1514 12.6476 28.16 12.6491Z" fill="#B55D42"/>
<path d="M27.8542 13.7683C29.4082 15.9189 31.2681 17.8161 33.3761 19.4269C34.4332 20.2342 35.5411 20.9736 36.6991 21.6287C37.8312 22.269 39.0455 22.8906 40.302 23.2435C40.3698 23.263 40.4069 23.1657 40.3434 23.1343C39.1371 22.5394 37.9005 22.0282 36.7197 21.3796C35.5905 20.7598 34.5021 20.0636 33.4716 19.291C31.3672 17.7126 29.4811 15.8328 27.8763 13.7492C27.8653 13.7348 27.8442 13.7543 27.8542 13.7683Z" fill="#B55D42"/>
<path d="M38.0556 21.306C38.7245 21.7369 39.377 22.1925 40.0361 22.6377C40.0776 22.6658 40.1237 22.5996 40.0839 22.5696C39.4485 22.0879 38.7746 21.6637 38.0864 21.2619C38.059 21.2459 38.0282 21.2883 38.0556 21.306Z" fill="#B55D42"/>
<path d="M29.1033 10.7065C28.1613 11.8481 27.563 13.4221 27.6188 14.9116C27.6215 14.9829 27.7268 14.9632 27.7342 14.9013C27.8207 14.1654 27.9371 13.4366 28.1834 12.7347C28.4291 12.0355 28.7704 11.3773 29.1768 10.7581C29.2116 10.7054 29.1424 10.6587 29.1033 10.7065Z" fill="#B55D42"/>
<path d="M21.1999 19.4469C21.662 18.9071 22.0704 18.3291 22.5522 17.8033C23.0446 17.266 23.5564 16.75 24.1072 16.2721C24.6599 15.7925 25.244 15.3427 25.8577 14.9438C26.443 14.5636 27.0676 14.2606 27.6749 13.9193C27.7397 13.8829 27.7257 13.7557 27.6378 13.7809C26.274 14.1737 25.0094 15.164 23.9708 16.0995C23.4234 16.5921 22.8996 17.1197 22.4257 17.684C21.9732 18.2231 21.4945 18.8044 21.1719 19.4329C21.1625 19.4512 21.1887 19.4599 21.1999 19.4469Z" fill="#B55D42"/>
<path d="M21.7494 15.7864C22.5543 14.9276 23.5342 14.2289 24.6077 13.7459C25.7113 13.249 26.8339 13.0762 28.02 12.9128C28.0965 12.9022 28.0999 12.7778 28.019 12.7712C26.8441 12.6765 25.5837 13.0663 24.5373 13.5764C23.4542 14.1041 22.5072 14.8487 21.7364 15.7743C21.7295 15.7824 21.7418 15.7945 21.7494 15.7864Z" fill="#B55D42"/>
<path d="M24.9129 12.0727C25.5422 11.9714 26.1874 11.9397 26.8186 12.0451C27.2878 12.1237 27.7848 12.308 28.0843 12.6971C28.1401 12.7694 28.242 12.6726 28.1949 12.6014C27.9122 12.1754 27.4131 11.9941 26.9283 11.9114C26.2601 11.7978 25.5634 11.8794 24.9061 12.0213C24.8747 12.028 24.8788 12.0782 24.9129 12.0727Z" fill="#B55D42"/>
<path d="M28.3643 12.4593C30.2549 11.577 32.43 11.3334 34.4758 11.7307C36.5141 12.1264 38.3182 13.1454 39.8296 14.5499C39.879 14.5959 39.9584 14.5047 39.914 14.4565C38.4899 12.9089 36.5401 11.8692 34.4739 11.4976C32.3713 11.1195 30.2539 11.475 28.354 12.4337C28.3379 12.442 28.3473 12.4672 28.3643 12.4593Z" fill="#B55D42"/>
<path d="M42.844 26.4727C42.2376 26.4727 41.7461 25.9811 41.7461 25.3748V20.0822C41.7461 17.3518 40.5999 14.7176 38.6014 12.8553C36.1692 10.5887 32.8309 10.155 30.4656 10.1978C24.7043 10.2916 20.1912 14.6332 20.1912 20.0822V25.3748C20.1912 25.9811 19.6998 26.4727 19.0937 26.4727C18.4875 26.4727 17.9961 25.9811 17.9961 25.3748V20.0822C17.9961 13.5334 23.5738 8.11489 30.4299 8.0032C34.4099 7.93468 37.7491 9.06068 40.0981 11.2497C42.5406 13.5255 43.9415 16.745 43.9415 20.0822V25.3748C43.9415 25.9811 43.45 26.4727 42.844 26.4727Z" fill="#211D1D"/>
<path d="M20.9028 27.4258H19.8226C18.473 27.4258 17.3789 26.3317 17.3789 24.982V22.5372C17.3789 21.1878 18.473 20.0938 19.8226 20.0938H20.9028V27.4258Z" fill="#211D1D"/>
<path d="M20.5296 28.168C20.0117 28.168 19.5918 27.7481 19.5918 27.2304V20.2961C19.5918 19.778 20.0117 19.3582 20.5296 19.3582C21.0475 19.3582 21.4674 19.778 21.4674 20.2961V27.2304C21.4674 27.7481 21.0475 28.168 20.5296 28.168Z" fill="#505256"/>
<path d="M41.4746 27.4258H42.5549C43.9047 27.4258 44.9987 26.3317 44.9987 24.982V22.5372C44.9987 21.1878 43.9047 20.0938 42.5549 20.0938H41.4746V27.4258Z" fill="#211D1D"/>
<path d="M41.8442 28.168C42.362 28.168 42.7818 27.7481 42.7818 27.2304V20.2961C42.7818 19.778 42.362 19.3582 41.8442 19.3582C41.3261 19.3582 40.9062 19.778 40.9062 20.2961V27.2304C40.9062 27.7481 41.3261 28.168 41.8442 28.168Z" fill="#505256"/>
<path d="M18.6719 25.3982C18.7054 27.2387 19.2444 29.0768 20.511 30.4523C21.9632 32.0293 24.1435 32.7186 26.2412 32.7667C27.5331 32.7964 28.8254 32.5912 30.0635 32.2302C30.4502 32.1176 30.2858 31.5122 29.897 31.6255C27.3727 32.3612 24.4406 32.4438 22.1408 30.9964C20.2075 29.7797 19.3394 27.6154 19.2991 25.3982C19.2918 24.9951 18.6646 24.9938 18.6719 25.3982Z" fill="#66686D"/>
<path d="M31.5566 32.3656L30.49 32.6548C29.9933 32.7895 29.4819 32.4963 29.3472 31.9996C29.2125 31.5032 29.5059 30.9915 30.0023 30.8568L31.069 30.5676C31.5653 30.4329 32.0771 30.7264 32.2118 31.2228C32.3462 31.7195 32.053 32.2309 31.5566 32.3656Z" fill="#211D1D"/>
<path d="M27.1751 27.3419C27.1751 28.0137 26.2413 28.5586 25.0895 28.5586C23.9377 28.5586 23.0039 28.0137 23.0039 27.3419C23.0039 26.67 23.9377 26.1252 25.0895 26.1252C26.2413 26.1252 27.1751 26.67 27.1751 27.3419Z" fill="#F68592"/>
<path d="M39.0795 27.3419C39.0795 28.0137 38.1455 28.5586 36.994 28.5586C35.8421 28.5586 34.9082 28.0137 34.9082 27.3419C34.9082 26.67 35.8421 26.1252 36.994 26.1252C38.1455 26.1252 39.0795 26.67 39.0795 27.3419Z" fill="#F68592"/>
<path d="M29.5783 47.9834C29.5251 47.9931 29.4686 47.9961 29.4091 47.9961H13.3818C12.786 47.9961 12.1933 47.5351 12.0647 46.9676L10.1142 38.3533C10.0829 38.2123 10.0829 38.0776 10.1079 37.9552C10.1863 37.5852 10.5125 37.3218 10.964 37.3218H26.9913C27.5901 37.3218 28.1797 37.7857 28.3084 38.3533L30.2588 46.9676C30.3748 47.4787 30.077 47.9052 29.5783 47.9834Z" fill="#505256"/>
<path d="M29.5783 47.9834C29.5251 47.9931 29.4686 47.9961 29.4091 47.9961H13.3818C12.786 47.9961 12.1933 47.5351 12.0647 46.9676L10.1142 38.3533C10.0829 38.2123 10.0829 38.0776 10.1079 37.9552C10.1612 37.9459 10.2177 37.9425 10.2742 37.9425H26.3014C26.9003 37.9425 27.4898 38.4035 27.6185 38.9744L29.5719 47.5853C29.6033 47.7263 29.6033 47.8614 29.5783 47.9834Z" fill="#211D1D"/>
<path d="M21.4946 42.2439C21.6381 42.9853 20.8736 43.5859 19.7872 43.5859C18.7008 43.5859 17.7037 42.9853 17.5603 42.2439C17.4168 41.5028 18.1813 40.9022 19.2677 40.9022C20.3541 40.9022 21.3511 41.5028 21.4946 42.2439Z" fill="#505256"/>
<path d="M11.3993 44.0273C11.4366 43.9856 11.4748 43.9441 11.512 43.9023C13.3055 41.8784 15.0431 39.818 16.9892 37.9411H10.2742C10.2177 37.9411 10.1612 37.9445 10.1079 37.9538C10.0829 38.0762 10.0829 38.2109 10.1142 38.3519L11.3993 44.0273Z" fill="#3B393D"/>
<path d="M12.2048 47.3047C12.3075 47.1787 12.4099 47.0523 12.5119 46.9256C13.0541 46.2504 13.6134 45.5889 14.1842 44.9378C16.2647 42.5639 18.4938 40.318 20.6915 38.0537C20.7275 38.0166 20.7638 37.9801 20.7998 37.943H18.3585C18.2144 38.0757 18.0697 38.2074 17.9267 38.3411C16.8598 39.3386 15.854 40.3928 14.8819 41.4825C13.7981 42.6972 12.7441 43.942 11.6523 45.1507L12.0638 46.9681C12.0907 47.0864 12.1416 47.1987 12.2048 47.3047Z" fill="#3B393D"/>
</g>
<defs>
<linearGradient id="paint0_linear_2168_50271" x1="2.75397e-06" y1="-0.940008" x2="57.2816" y2="19.2728" gradientUnits="userSpaceOnUse">
<stop offset="0.043837" stop-color="#1D33FF" stop-opacity="0.9"/>
<stop offset="0.994792" stop-color="#12D35F" stop-opacity="0.96"/>
</linearGradient>
<clipPath id="clip0_2168_50271">
<rect width="48" height="49" rx="24" fill="white"/>
</clipPath>
</defs>
</svg>
