<svg width="32" height="33" viewBox="0 0 32 33" fill="none" xmlns="http://www.w3.org/2000/svg">
<g clip-path="url(#clip0_2294_22568)">
<path d="M5.96117 0.16184C7.05676 -0.0123073 8.17098 -0.0133501 9.27795 0.011677L9.18277 0.100315C7.7344 1.05656 6.53328 2.36944 5.66529 3.87628C3.92517 6.89309 3.29099 10.4605 3.43479 13.9184C3.57756 16.7339 4.24795 19.5651 5.66943 22.0126C5.90737 22.4506 6.30361 22.8374 6.30982 23.3693C6.3543 24.5101 5.79461 25.5852 5.03731 26.4007C5.08697 26.4528 5.1356 26.5049 5.18526 26.5571C5.89393 27.3371 6.65018 28.0702 7.37023 28.8398C8.39341 30.0056 9.55935 31.038 10.5618 32.2247C8.89413 32.2497 7.20677 32.3279 5.55873 32.014C3.48445 31.6084 1.64294 30.1589 0.763572 28.2214C0.230776 27.1014 0.071455 25.849 0.0300728 24.6217C0.0290382 18.9551 0.0290382 13.2896 0.0300728 7.62408C0.052833 5.73037 0.550454 3.74906 1.87261 2.34441C2.91958 1.15458 4.4021 0.380827 5.96117 0.16184Z" fill="#0068FF"/>
<path d="M21.15 10.5664C21.5938 10.5664 22.0377 10.5664 22.4825 10.5664C22.4753 13.187 22.4753 15.8085 22.4825 18.4291C22.048 18.3676 21.3249 18.6481 21.1614 18.0651C21.1345 15.5666 21.1593 13.066 21.15 10.5664Z" fill="#0068FF"/>
<path d="M7.57248 10.6601C9.63745 10.658 11.7004 10.6444 13.7643 10.659C13.7498 11.0668 13.727 11.511 13.456 11.8405C12.0449 13.6112 10.6637 15.4048 9.25363 17.1755C10.7527 17.1848 12.2518 17.1786 13.7508 17.1786C13.7229 17.5321 13.846 17.944 13.6184 18.2506C13.4756 18.4487 13.217 18.431 13.0029 18.4331C11.1272 18.4226 9.25157 18.4425 7.37695 18.4226C7.38213 18.0233 7.38626 17.5811 7.66352 17.2631C9.0581 15.4997 10.4692 13.7488 11.8576 11.9813C10.431 11.9834 9.00327 11.9719 7.57662 11.9876C7.56731 11.5454 7.57041 11.1022 7.57248 10.6601Z" fill="#0068FF"/>
<path d="M25.7854 12.3937C27.271 12.0589 28.8829 13.0423 29.2894 14.5168C29.7995 16.0508 28.8684 17.8746 27.33 18.3418C26.0234 18.8058 24.4591 18.2 23.7815 16.9862C23.2497 16.0894 23.2177 14.9152 23.7008 13.9923C24.1105 13.1779 24.9019 12.5824 25.7854 12.3937ZM25.7606 13.7222C24.8543 14.0444 24.366 15.1561 24.7198 16.0539C25.0126 16.9027 25.9985 17.422 26.8551 17.1613C27.8328 16.9257 28.4235 15.7713 28.077 14.8255C27.7873 13.8891 26.6648 13.3489 25.7606 13.7222Z" fill="#0068FF"/>
<path d="M14.7817 13.4849C15.4966 12.5923 16.7484 12.1522 17.8512 12.4703C18.2154 12.5631 18.5454 12.7466 18.864 12.9416C18.8609 12.8436 18.8537 12.6486 18.8506 12.5506C19.2675 12.5485 19.6834 12.5495 20.1003 12.5474C20.0983 14.5079 20.0962 16.4684 20.1014 18.4299C19.7951 18.4215 19.4837 18.458 19.1827 18.3954C18.9716 18.3089 18.9065 18.0763 18.8227 17.8866C17.6722 18.7875 15.8649 18.5831 14.9089 17.4861C13.8899 16.4235 13.8371 14.6132 14.7817 13.4849ZM16.4659 13.7477C15.5079 14.0877 15.0434 15.3317 15.5286 16.2285C15.9425 17.1024 17.1074 17.4694 17.9402 16.9877C18.713 16.5789 19.0699 15.5643 18.7378 14.753C18.4161 13.8708 17.3308 13.3765 16.4659 13.7477Z" fill="#0068FF"/>
<path d="M9.18368 0.0988007C9.41542 0.0320617 9.65751 0.0112058 9.89752 0.00390625C14.0347 0.0195482 18.1719 0.00182066 22.3091 0.00912023C23.415 0.0226766 24.5272 -0.0524047 25.6248 0.117571C27.1446 0.234364 28.6074 0.882983 29.7382 1.90805C31.1576 3.27516 31.9149 5.24395 31.9387 7.20754C31.9397 12.7354 31.9366 18.2674 31.9418 23.7932C31.9273 23.8255 31.8994 23.8923 31.8849 23.9256C30.4107 25.5879 28.4285 26.713 26.3562 27.4409C23.564 28.4003 20.5731 28.7089 17.6381 28.4837C14.703 28.2293 11.7452 27.4565 9.2561 25.8214C7.9836 26.3918 6.57971 26.6713 5.18617 26.5556C5.13651 26.5034 5.08788 26.4513 5.03822 26.3991C5.79552 25.5837 6.35521 24.5086 6.31073 23.3677C6.30452 22.8359 5.90828 22.449 5.67034 22.0111C4.24886 19.5636 3.57847 16.7324 3.4357 13.9169C3.2919 10.459 3.92608 6.89157 5.6662 3.87476C6.53419 2.36792 7.73531 1.05504 9.18368 0.0988007ZM21.1514 10.5653C21.1607 13.0649 21.1359 15.5655 21.1628 18.0641C21.3262 18.647 22.0494 18.3665 22.4839 18.428C22.4767 15.8075 22.4767 13.1859 22.4839 10.5653C22.0391 10.5653 21.5952 10.5653 21.1514 10.5653ZM7.57392 10.6581C7.57185 11.1003 7.56874 11.5435 7.57805 11.9856C9.0047 11.97 10.4324 11.9815 11.859 11.9794C10.4707 13.7469 9.05954 15.4978 7.66496 17.2611C7.3877 17.5792 7.38356 18.0213 7.37839 18.4207C9.253 18.4405 11.1286 18.4207 13.0043 18.4311C13.2184 18.4291 13.4771 18.4468 13.6199 18.2487C13.8475 17.9421 13.7243 17.5302 13.7523 17.1767C12.2532 17.1767 10.7541 17.1829 9.25507 17.1735C10.6652 15.4029 12.0463 13.6093 13.4574 11.8386C13.7285 11.5091 13.7512 11.0648 13.7657 10.6571C11.7018 10.6425 9.63889 10.6561 7.57392 10.6581ZM25.7872 12.3934C24.9037 12.5821 24.1123 13.1775 23.7026 13.992C23.2195 14.9148 23.2515 16.089 23.7833 16.9858C24.4609 18.1996 26.0252 18.8055 27.3318 18.3415C28.8702 17.8743 29.8013 16.0504 29.2913 14.5165C28.8847 13.042 27.2729 12.0586 25.7872 12.3934ZM14.7817 13.4852C13.8371 14.6135 13.8899 16.4238 14.9089 17.4864C15.8648 18.5834 17.6722 18.7878 18.8226 17.8868C18.9064 18.0766 18.9716 18.3091 19.1826 18.3957C19.4837 18.4583 19.7951 18.4218 20.1013 18.4301C20.0962 16.4686 20.0982 14.5082 20.1003 12.5477C19.6834 12.5498 19.2675 12.5487 18.8506 12.5508C18.8537 12.6488 18.8609 12.8438 18.864 12.9419C18.5454 12.7469 18.2153 12.5633 17.8512 12.4705C16.7483 12.1525 15.4965 12.5925 14.7817 13.4852Z" fill="white"/>
<path d="M16.4656 13.7496C17.3305 13.3784 18.4157 13.8727 18.7375 14.7549C19.0696 15.5662 18.7127 16.5808 17.9399 16.9896C17.107 17.4713 15.9421 17.1043 15.5283 16.2304C15.0431 15.3336 15.5076 14.0896 16.4656 13.7496Z" fill="white"/>
<path d="M25.762 13.7208C26.6662 13.3475 27.7887 13.8877 28.0784 14.8241C28.4249 15.7699 27.8342 16.9243 26.8566 17.16C26 17.4207 25.014 16.9014 24.7212 16.0525C24.3674 15.1547 24.8557 14.0431 25.762 13.7208Z" fill="white"/>
<path d="M31.8843 23.9256L31.966 23.8359C32.0084 25.4658 31.8336 27.1666 31.0401 28.6172C30.1173 30.319 28.4434 31.5829 26.5605 31.9875C25.5042 32.2075 24.421 32.2565 23.3451 32.243C20.0355 32.244 16.726 32.243 13.4165 32.244C12.4647 32.2284 11.5108 32.2732 10.5621 32.2231C9.55964 31.0364 8.3937 30.0041 7.37052 28.8382C6.65048 28.0686 5.89422 27.3356 5.18555 26.5555C6.57909 26.6713 7.98298 26.3918 9.25548 25.8214C11.7446 27.4565 14.7024 28.2292 17.6374 28.4837C20.5725 28.7089 23.5634 28.4003 26.3556 27.4409C28.4278 26.713 30.41 25.5878 31.8843 23.9256Z" fill="#005BE0"/>
</g>
<defs>
<clipPath id="clip0_2294_22568">
<rect width="32" height="32.2549" fill="white"/>
</clipPath>
</defs>
</svg>
