<svg width="17" height="17" viewBox="0 0 17 17" fill="none" xmlns="http://www.w3.org/2000/svg">
<path d="M16.9001 7.32849L16.5201 8.26849C16.4001 8.58849 16.4001 8.92849 16.5201 9.24849L16.9001 10.1885C17.1201 10.7485 16.9401 11.3885 16.4401 11.7485L15.6001 12.3285C15.3201 12.5285 15.1401 12.8285 15.0601 13.1485L14.8801 14.1485C14.7601 14.7485 14.2601 15.1885 13.6601 15.2085L12.6401 15.2485C12.3001 15.2685 11.9801 15.4085 11.7401 15.6485L11.0401 16.3885C10.6201 16.8285 9.96008 16.9285 9.44008 16.6285L8.56008 16.1085C8.26008 15.9285 7.92008 15.8885 7.58008 15.9685L6.58008 16.2085C6.00008 16.3485 5.38008 16.0685 5.10008 15.5285L4.64008 14.6085C4.48008 14.3085 4.22008 14.0685 3.90008 13.9685L2.94008 13.6485C2.36008 13.4485 2.00008 12.8885 2.06008 12.2885L2.16008 11.2685C2.20008 10.9285 2.10008 10.5885 1.88008 10.3285L1.24008 9.52849C0.860078 9.04849 0.860078 8.38849 1.24008 7.90849L1.88008 7.10849C2.10008 6.84849 2.20008 6.50849 2.16008 6.16849L2.06008 5.14849C2.00008 4.54849 2.36008 3.98849 2.94008 3.78849L3.90008 3.46849C4.22008 3.36849 4.48008 3.12849 4.64008 2.82849L5.10008 1.90849C5.38008 1.36849 5.98008 1.08849 6.58008 1.22849L7.58008 1.46849C7.90008 1.54849 8.26008 1.50849 8.56008 1.32849L9.44008 0.808491C9.96008 0.508491 10.6201 0.588491 11.0401 1.04849L11.7401 1.78849C11.9801 2.02849 12.3001 2.18849 12.6401 2.18849L13.6601 2.22849C14.2601 2.24849 14.7801 2.68849 14.8801 3.28849L15.0601 4.28849C15.1201 4.62849 15.3201 4.92849 15.6001 5.10849L16.4401 5.68849C16.9401 6.12849 17.1401 6.76849 16.9001 7.32849Z" fill="#00D566"/>
<g opacity="0.15">
<path d="M5.68008 15.4688L5.22008 14.5488C5.06008 14.2488 4.80008 14.0088 4.48008 13.9088L3.52008 13.5888C2.94008 13.3888 2.58008 12.8288 2.64008 12.2288L2.74008 11.2088C2.78008 10.8688 2.68008 10.5288 2.46008 10.2688L1.82008 9.46884C1.44008 8.98884 1.44008 8.32885 1.82008 7.84885L2.46008 7.04884C2.68008 6.78884 2.78008 6.44884 2.74008 6.10884L2.64008 5.08884C2.58008 4.48884 2.94008 3.92884 3.52008 3.72884L4.48008 3.40884C4.80008 3.30884 5.06008 3.06884 5.22008 2.76884L5.68008 1.84884C5.84008 1.52884 6.12008 1.30884 6.42008 1.20884C5.88008 1.12884 5.34008 1.40884 5.10008 1.90884L4.64008 2.82884C4.48008 3.12884 4.22008 3.36884 3.90008 3.46884L2.94008 3.78884C2.36008 3.98884 2.00008 4.54884 2.06008 5.14884L2.16008 6.16884C2.20008 6.50884 2.10008 6.84884 1.88008 7.10884L1.24008 7.90884C0.860078 8.38884 0.860078 9.04884 1.24008 9.52884L1.88008 10.3288C2.10008 10.5888 2.20008 10.9288 2.16008 11.2688L2.06008 12.2888C2.00008 12.8888 2.36008 13.4488 2.94008 13.6488L3.90008 13.9688C4.22008 14.0688 4.48008 14.3088 4.64008 14.6088L5.10008 15.5288C5.38008 16.0688 5.98008 16.3488 6.58008 16.2088L6.70008 16.1888C6.26008 16.1088 5.88008 15.8688 5.68008 15.4688Z" fill="black"/>
<path d="M9.12029 1.26888L10.0003 0.748884C10.0803 0.708884 10.1603 0.668884 10.2403 0.648884C9.96029 0.608884 9.66029 0.668884 9.42029 0.808884L8.54029 1.32888C8.46029 1.36888 8.38029 1.40888 8.30029 1.42888C8.58029 1.46888 8.86029 1.42888 9.12029 1.26888Z" fill="black"/>
<path d="M13.1999 15.1689C13.0999 15.1689 12.9999 15.1889 12.9199 15.2089L13.6399 15.1689C13.7399 15.1689 13.8199 15.1489 13.9199 15.1289L13.1999 15.1689Z" fill="black"/>
<path d="M10 16.5489L9.12002 16.0289C8.82002 15.8489 8.48002 15.8089 8.14002 15.8889L8.02002 15.9089C8.20002 15.9289 8.36002 15.9889 8.52002 16.0689L9.40002 16.5889C9.74002 16.7889 10.12 16.8089 10.48 16.6889C10.32 16.6889 10.16 16.6489 10 16.5489Z" fill="black"/>
</g>
<path d="M5.80029 7.48852L8.30029 10.3485L13.4203 6.22852" fill="#00D566"/>
<path d="M7.70013 11.8278C7.42013 11.8278 7.14013 11.7078 6.94013 11.4878L4.44013 8.62776C4.08013 8.20776 4.12013 7.58776 4.52013 7.20776C4.94013 6.84776 5.56013 6.88776 5.94013 7.28776L7.82013 9.42776L12.2001 5.90776C12.6201 5.56776 13.2601 5.62776 13.6001 6.06776C13.9401 6.50776 13.8801 7.12776 13.4401 7.46776L8.32013 11.6078C8.14013 11.7478 7.92013 11.8278 7.70013 11.8278Z" fill="white"/>
</svg>
