<svg width="24" height="24" viewBox="0 0 24 24" fill="none" xmlns="http://www.w3.org/2000/svg">
<g clip-path="url(#clip0_2945_91218)">
<path d="M12.25 23.5C18.4632 23.5 23.5 18.4632 23.5 12.25C23.5 6.0368 18.4632 1 12.25 1C6.0368 1 1 6.0368 1 12.25C1 18.4632 6.0368 23.5 12.25 23.5Z" fill="#2DBA6E"/>
<path fill-rule="evenodd" clip-rule="evenodd" d="M4 12C4 7.58172 7.58172 4 12 4C13.2758 4 14.4839 4.29921 15.556 4.83201C15.9517 5.02863 16.113 5.50878 15.9164 5.90444C15.7198 6.3001 15.2396 6.46146 14.844 6.26482C13.9882 5.83952 13.0232 5.6 12 5.6C8.46538 5.6 5.6 8.46538 5.6 12C5.6 15.5346 8.46538 18.4 12 18.4C15.5346 18.4 18.4 15.5346 18.4 12C18.4 11.759 18.3867 11.5214 18.3609 11.2879C18.3123 10.8487 18.629 10.4534 19.0682 10.4049C19.5073 10.3563 19.9026 10.673 19.9512 11.1121C19.9834 11.4039 20 11.7002 20 12C20 16.4182 16.4182 20 12 20C7.58172 20 4 16.4182 4 12ZM19.7657 5.83431C20.0781 6.14674 20.0781 6.65326 19.7657 6.96569L12.5657 14.1657C12.2533 14.4781 11.7467 14.4781 11.4343 14.1657L9.03431 11.7657C8.7219 11.4533 8.7219 10.9467 9.03431 10.6343C9.34674 10.3219 9.85326 10.3219 10.1657 10.6343L12 12.4686L18.6343 5.83431C18.9467 5.5219 19.4533 5.5219 19.7657 5.83431Z" fill="white"/>
</g>
<defs>
<clipPath id="clip0_2945_91218">
<rect width="24" height="24" fill="white"/>
</clipPath>
</defs>
</svg>
