<svg width="24" height="24" viewBox="0 0 24 24" fill="none" xmlns="http://www.w3.org/2000/svg">
<path fill-rule="evenodd" clip-rule="evenodd" d="M11.7539 2.625C6.57891 2.625 2.37891 6.8265 2.37891 12C2.37891 15.1695 3.95391 17.973 6.36441 19.6695C6.87141 20.028 7.57341 19.905 7.93191 19.398C8.28891 18.8895 8.16741 18.1875 7.65891 17.8305C5.82741 16.5405 4.62891 14.409 4.62891 12C4.62891 8.067 7.82091 4.875 11.7539 4.875C12.3749 4.875 12.8789 4.371 12.8789 3.75C12.8789 3.129 12.3749 2.625 11.7539 2.625Z" fill="#00D566"/>
<path fill-rule="evenodd" clip-rule="evenodd" d="M12.3566 21.3547C17.2496 21.0427 21.1286 16.9702 21.1286 11.9992C21.1286 9.14321 19.8476 6.58271 17.8301 4.86221C17.3576 4.46021 16.6466 4.51571 16.2446 4.98821C15.8411 5.46071 15.8981 6.17171 16.3706 6.57521C17.9051 7.88171 18.8786 9.82721 18.8786 11.9992C18.8786 15.7777 15.9311 18.8722 12.2126 19.1092C11.5931 19.1497 11.1221 19.6837 11.1626 20.3032C11.2016 20.9242 11.7371 21.3952 12.3566 21.3547Z" fill="#00D566"/>
<path fill-rule="evenodd" clip-rule="evenodd" d="M20.4959 4.125L16.2539 4.125C15.6329 4.125 15.1289 4.629 15.1289 5.25V9.492C15.1289 10.113 15.6329 10.617 16.2539 10.617C16.8749 10.617 17.3789 10.113 17.3789 9.492V6.375L20.4959 6.375C21.1169 6.375 21.6209 5.871 21.6209 5.25C21.6209 4.629 21.1169 4.125 20.4959 4.125Z" fill="#00D566"/>
<path fill-rule="evenodd" clip-rule="evenodd" d="M3.50391 20.6248H7.74591C8.36691 20.6248 8.87091 20.1208 8.87091 19.4998V15.2578C8.87091 14.6368 8.36691 14.1328 7.74591 14.1328C7.12491 14.1328 6.62091 14.6368 6.62091 15.2578L6.62091 18.3748H3.50391C2.88291 18.3748 2.37891 18.8788 2.37891 19.4998C2.37891 20.1208 2.88291 20.6248 3.50391 20.6248Z" fill="#00D566"/>
</svg>
