<svg width="24" height="24" viewBox="0 0 24 24" fill="none" xmlns="http://www.w3.org/2000/svg">
<g clip-path="url(#clip0_6324_16917)">
<path d="M0.75 4.2308H12.169C12.5131 5.79731 13.9121 6.97336 15.5805 6.97336C17.2488 6.97336 18.6478 5.79736 18.9919 4.2308H23.25C23.6642 4.2308 24 3.89498 24 3.4808C24 3.06661 23.6642 2.7308 23.25 2.7308H18.9915C18.6467 1.16508 17.2459 -0.0117188 15.5805 -0.0117188C13.9141 -0.0117188 12.5139 1.16489 12.1693 2.7308H0.75C0.335812 2.7308 0 3.06661 0 3.4808C0 3.89498 0.335812 4.2308 0.75 4.2308ZM13.588 3.48277C13.588 3.48009 13.588 3.47738 13.588 3.4747C13.5913 2.37937 14.4851 1.48833 15.5805 1.48833C16.6743 1.48833 17.5681 2.37816 17.5728 3.47297L17.573 3.48398C17.5712 4.58119 16.6781 5.47341 15.5805 5.47341C14.4833 5.47341 13.5904 4.58208 13.5879 3.48553L13.588 3.48277ZM23.25 19.769H18.9915C18.6467 18.2033 17.2459 17.0265 15.5805 17.0265C13.9141 17.0265 12.5139 18.2031 12.1693 19.769H0.75C0.335812 19.769 0 20.1047 0 20.519C0 20.9332 0.335812 21.269 0.75 21.269H12.169C12.5131 22.8355 13.9121 24.0115 15.5805 24.0115C17.2488 24.0115 18.6478 22.8355 18.9919 21.269H23.25C23.6642 21.269 24 20.9332 24 20.519C24 20.1047 23.6642 19.769 23.25 19.769ZM15.5805 22.5115C14.4833 22.5115 13.5904 21.6202 13.5879 20.5237L13.588 20.5209C13.588 20.5182 13.588 20.5155 13.588 20.5129C13.5913 19.4175 14.4851 18.5265 15.5805 18.5265C16.6743 18.5265 17.5681 19.4163 17.5728 20.511L17.573 20.5221C17.5714 21.6194 16.6782 22.5115 15.5805 22.5115ZM23.25 11.2499H11.831C11.4869 9.68339 10.0879 8.50739 8.41955 8.50739C6.75117 8.50739 5.35223 9.68339 5.00808 11.2499H0.75C0.335812 11.2499 0 11.5857 0 11.9999C0 12.4141 0.335812 12.7499 0.75 12.7499H5.00845C5.35331 14.3156 6.75413 15.4924 8.41955 15.4924C10.0859 15.4924 11.4861 14.3158 11.8307 12.7499H23.25C23.6642 12.7499 24 12.4141 24 11.9999C24 11.5857 23.6642 11.2499 23.25 11.2499ZM10.412 11.9979C10.412 12.0007 10.412 12.0033 10.412 12.006C10.4087 13.1013 9.51492 13.9924 8.41955 13.9924C7.32572 13.9924 6.43191 13.1025 6.42717 12.0078L6.42703 11.9968C6.42867 10.8995 7.32188 10.0074 8.41955 10.0074C9.5167 10.0074 10.4096 10.8987 10.4121 11.9953L10.412 11.9979Z" fill="#181818"/>
</g>
<defs>
<clipPath id="clip0_6324_16917">
<rect width="24" height="24" fill="white"/>
</clipPath>
</defs>
</svg>
