<svg width="24" height="24" viewBox="0 0 24 24" fill="none" xmlns="http://www.w3.org/2000/svg">
<path d="M19.9001 10.5609L19.5201 11.5009C19.4001 11.8209 19.4001 12.1609 19.5201 12.4809L19.9001 13.4209C20.1201 13.9809 19.9401 14.6209 19.4401 14.9809L18.6001 15.5609C18.3201 15.7609 18.1401 16.0609 18.0601 16.3809L17.8801 17.3809C17.7601 17.9809 17.2601 18.4209 16.6601 18.4409L15.6401 18.4809C15.3001 18.5009 14.9801 18.6409 14.7401 18.8809L14.0401 19.6209C13.6201 20.0609 12.9601 20.1609 12.4401 19.8609L11.5601 19.3409C11.2601 19.1609 10.9201 19.1209 10.5801 19.2009L9.58008 19.4409C9.00008 19.5809 8.38008 19.3009 8.10008 18.7609L7.64008 17.8409C7.48008 17.5409 7.22008 17.3009 6.90008 17.2009L5.94008 16.8809C5.36008 16.6809 5.00008 16.1209 5.06008 15.5209L5.16008 14.5009C5.20008 14.1609 5.10008 13.8209 4.88008 13.5609L4.24008 12.7609C3.86008 12.2809 3.86008 11.6209 4.24008 11.1409L4.88008 10.3409C5.10008 10.0809 5.20008 9.74091 5.16008 9.40091L5.06008 8.38091C5.00008 7.78091 5.36008 7.22091 5.94008 7.02091L6.90008 6.70091C7.22008 6.60091 7.48008 6.36091 7.64008 6.06091L8.10008 5.14091C8.38008 4.60091 8.98008 4.32091 9.58008 4.46091L10.5801 4.70091C10.9001 4.78091 11.2601 4.74091 11.5601 4.56091L12.4401 4.04091C12.9601 3.74091 13.6201 3.82091 14.0401 4.28091L14.7401 5.02091C14.9801 5.26091 15.3001 5.42091 15.6401 5.42091L16.6601 5.46091C17.2601 5.48091 17.7801 5.92091 17.8801 6.52091L18.0601 7.52091C18.1201 7.86091 18.3201 8.16091 18.6001 8.34091L19.4401 8.92091C19.9401 9.36091 20.1401 10.0009 19.9001 10.5609Z" fill="#00D566"/>
<g opacity="0.15">
<path d="M8.68008 18.7013L8.22008 17.7813C8.06008 17.4813 7.80008 17.2413 7.48008 17.1413L6.52008 16.8213C5.94008 16.6213 5.58008 16.0613 5.64008 15.4613L5.74008 14.4413C5.78008 14.1013 5.68008 13.7613 5.46008 13.5013L4.82008 12.7013C4.44008 12.2213 4.44008 11.5613 4.82008 11.0813L5.46008 10.2813C5.68008 10.0213 5.78008 9.68127 5.74008 9.34127L5.64008 8.32127C5.58008 7.72127 5.94008 7.16127 6.52008 6.96127L7.48008 6.64127C7.80008 6.54127 8.06008 6.30127 8.22008 6.00127L8.68008 5.08127C8.84008 4.76127 9.12008 4.54127 9.42008 4.44127C8.88008 4.36127 8.34008 4.64127 8.10008 5.14127L7.64008 6.06127C7.48008 6.36127 7.22008 6.60127 6.90008 6.70127L5.94008 7.02127C5.36008 7.22127 5.00008 7.78127 5.06008 8.38127L5.16008 9.40127C5.20008 9.74127 5.10008 10.0813 4.88008 10.3413L4.24008 11.1413C3.86008 11.6213 3.86008 12.2813 4.24008 12.7613L4.88008 13.5613C5.10008 13.8213 5.20008 14.1613 5.16008 14.5013L5.06008 15.5213C5.00008 16.1213 5.36008 16.6813 5.94008 16.8813L6.90008 17.2013C7.22008 17.3013 7.48008 17.5413 7.64008 17.8413L8.10008 18.7613C8.38008 19.3013 8.98008 19.5813 9.58008 19.4413L9.70008 19.4213C9.26008 19.3413 8.88008 19.1013 8.68008 18.7013Z" fill="black"/>
<path d="M12.1208 4.50131L13.0008 3.98131C13.0808 3.94131 13.1608 3.90131 13.2408 3.88131C12.9608 3.84131 12.6608 3.90131 12.4208 4.04131L11.5408 4.56131C11.4608 4.60131 11.3808 4.64131 11.3008 4.66131C11.5808 4.70131 11.8608 4.66131 12.1208 4.50131Z" fill="black"/>
<path d="M16.1999 18.4013C16.0999 18.4013 15.9999 18.4213 15.9199 18.4413L16.6399 18.4013C16.7399 18.4013 16.8199 18.3813 16.9199 18.3613L16.1999 18.4013Z" fill="black"/>
<path d="M12.9995 19.7813L12.1195 19.2613C11.8195 19.0813 11.4795 19.0413 11.1395 19.1213L11.0195 19.1413C11.1995 19.1613 11.3595 19.2213 11.5195 19.3013L12.3995 19.8213C12.7395 20.0213 13.1195 20.0413 13.4795 19.9213C13.3195 19.9213 13.1595 19.8813 12.9995 19.7813Z" fill="black"/>
</g>
<path d="M8.80078 10.7209L11.3008 13.5809L16.4208 9.46094" fill="#00D566"/>
<path d="M10.7001 15.0602C10.4201 15.0602 10.1401 14.9402 9.94013 14.7202L7.44013 11.8602C7.08013 11.4402 7.12013 10.8202 7.52013 10.4402C7.94013 10.0802 8.56013 10.1202 8.94013 10.5202L10.8201 12.6602L15.2001 9.14019C15.6201 8.80019 16.2601 8.86019 16.6001 9.30019C16.9401 9.74019 16.8801 10.3602 16.4401 10.7002L11.3201 14.8402C11.1401 14.9802 10.9201 15.0602 10.7001 15.0602Z" fill="white"/>
</svg>
