<svg width="16" height="16" viewBox="0 0 16 16" fill="none" xmlns="http://www.w3.org/2000/svg">
<path d="M15.5312 1.3125H0.46875C0.209839 1.3125 0 1.52234 0 1.78125V14.2014C0 14.4603 0.209839 14.6702 0.46875 14.6702H15.5312C15.7902 14.6702 16 14.4603 16 14.2014V1.78125C16 1.52234 15.7902 1.3125 15.5312 1.3125ZM6.01697 9.56494V6.41772C6.01697 6.19263 6.14539 5.98743 6.35205 5.8822C6.56201 5.77539 6.8175 5.78967 7.01184 5.91687L9.69397 7.48254C9.70764 7.49048 9.72083 7.49915 9.73364 7.50842C9.89221 7.6239 9.98315 7.79993 9.98315 7.99133C9.98315 8.18274 9.89221 8.35876 9.73364 8.47424C9.72083 8.48352 9.70764 8.49219 9.69397 8.50012L7.01184 10.0658C6.90442 10.136 6.77856 10.1718 6.65186 10.1718C6.54919 10.1718 6.44604 10.1482 6.35205 10.1003C6.14526 9.99524 6.01697 9.79004 6.01697 9.56494ZM11.0072 3.06616V2.25H12.5801V3.06616H11.0072ZM10.0697 3.06616H8.4967V2.25H10.0697V3.06616ZM7.5592 3.06616H5.98633V2.25H7.5592V3.06616ZM5.04883 3.06616H3.47595V2.25H5.04883V3.06616ZM5.04883 12.9165V13.7327H3.47595V12.9165H5.04883ZM5.98633 12.9165H7.5592V13.7327H5.98633V12.9165ZM8.4967 12.9165H10.0697V13.7327H8.4967V12.9165ZM11.0072 12.9165H12.5801V13.7327H11.0072V12.9165ZM15.0625 3.06616H13.5176V2.25H15.0625V3.06616ZM2.53845 2.25V3.06616H0.9375V2.25H2.53845ZM0.9375 12.9165H2.53845V13.7327H0.9375V12.9165ZM13.5176 13.7327V12.9165H15.0625V13.7327H13.5176Z" fill="white"/>
</svg>
