<svg width="24" height="24" viewBox="0 0 24 24" fill="none" xmlns="http://www.w3.org/2000/svg">
<path fill-rule="evenodd" clip-rule="evenodd" d="M6.1111 21.5497C8.93389 21.5497 11.2222 19.2156 11.2222 16.3364C11.2222 13.4571 8.93389 11.123 6.1111 11.123C3.28832 11.123 1 13.4571 1 16.3364C1 19.2156 3.28832 21.5497 6.1111 21.5497ZM5.61099 12.8608V15.8363H2.70359V16.8363H5.61099V19.8119H6.61099V16.8363H9.51839V15.8363H6.61099V12.8608H5.61099Z" fill="#CB3838"/>
<circle cx="20.6504" cy="13.5508" r="0.75" fill="#CB3838"/>
<path d="M15.5452 2L8.30989 4.63103M4.54521 6L8.30989 4.63103M8.30989 4.63103H3.85709C2.35726 5.13103 2.50021 7 3.85713 7.5H20.0451C20.7118 7.5 21.9451 7.8 21.5451 9C21.5451 9.4 21.5451 10.8333 21.5451 11.5H17.5451V15.5H22.5451H23.0451V11.5M9.04509 6L17.5451 3C17.7403 3.58579 17.8927 4.04289 18.0451 4.5M18.5451 6C18.3498 5.41421 18.1975 4.95711 18.0451 4.5M18.0451 4.5H20.0451C20.2118 4.83333 20.5451 5.6 20.5451 6M21.5451 17V16.5V19C21.5451 19.3333 21.1451 20.5 19.5451 20.5C17.9451 20.5 12.8784 20.5 10.5451 20.5" stroke="#CB3838"/>
</svg>
