<svg width="357" height="297" viewBox="0 0 357 297" fill="none" xmlns="http://www.w3.org/2000/svg">
<g filter="url(#filter0_dd_2569_69720)">
<path d="M56.5218 259.887C123.904 295.084 233.103 295.084 300.469 259.887C367.836 224.69 367.852 167.645 300.469 132.447C233.087 97.2499 123.888 97.2579 56.5218 132.447C-10.8446 167.637 -10.8366 224.697 56.5218 259.887Z" fill="#F5F5F5"/>
</g>
<path d="M36.538 203.778H39.376C40.6768 199.434 41.5294 194.969 41.9207 190.452C42.539 182.088 38.4882 169.286 31.0682 164.997C23.6482 160.708 19.6291 166.012 22.1182 170.546C24.6074 175.081 33.0025 187.978 33.1134 199.077L36.538 203.778Z" fill="#E23E3E"/>
<path d="M35.8548 203.777H36.6476C37.4221 198.3 37.4221 192.741 36.6476 187.265C35.3633 176.412 31.796 171.37 28.4824 167.866C28.4099 167.79 28.3098 167.745 28.2043 167.742C28.0987 167.739 27.9963 167.778 27.9196 167.85C27.8428 167.923 27.7981 168.023 27.7951 168.129C27.7921 168.234 27.8312 168.337 27.9037 168.413C31.1301 171.814 34.6023 176.729 35.831 187.352C36.6164 192.798 36.6244 198.328 35.8548 203.777Z" fill="white"/>
<path d="M36.7675 203.777C35.3088 196.896 28.6816 188.715 22.4269 187.304C15.1734 185.719 11.6458 189.548 12.6843 192.853C13.7227 196.159 19.4542 197.697 25.0192 200.289C26.893 201.156 28.6059 202.336 30.0847 203.777H36.7675Z" fill="#E23E3E"/>
<path d="M34.1275 203.777H34.9757C31.9078 196.064 24.9318 190.562 19.2241 190.055C19.1724 190.049 19.1202 190.054 19.0705 190.069C19.0208 190.085 18.9746 190.11 18.9347 190.143C18.8947 190.176 18.8619 190.217 18.8381 190.263C18.8143 190.309 18.8 190.36 18.796 190.412C18.7894 190.463 18.7936 190.516 18.8082 190.566C18.8229 190.617 18.8477 190.663 18.8812 190.703C18.9146 190.743 18.956 190.776 19.0028 190.8C19.0495 190.823 19.1005 190.837 19.1528 190.84C24.5433 191.323 31.1309 196.492 34.1275 203.777Z" fill="white"/>
<path d="M292.67 131.25L298.607 134.366L299.107 130.648C296.166 122.356 298.583 112.954 301.762 109.038C304.941 105.122 304.331 102.244 303.181 100.96C302.032 99.6757 297.672 98.7007 293.359 103.742C289.047 108.784 288.056 114.904 288.777 121.079C289.237 124.94 291.266 128.904 292.67 131.25Z" fill="#E23E3E"/>
<path opacity="0.2" d="M292.67 131.25L298.607 134.366L299.107 130.648C296.166 122.356 298.583 112.954 301.762 109.038C304.941 105.122 304.331 102.244 303.181 100.96C302.032 99.6757 297.672 98.7007 293.359 103.742C289.047 108.784 288.056 114.904 288.777 121.079C289.237 124.94 291.266 128.904 292.67 131.25Z" fill="black"/>
<path d="M295.119 132.535L296.292 133.153C296.281 133.131 296.268 133.109 296.253 133.089C294.572 131.092 292.4 121.309 293.312 115.578C294.437 108.499 298.068 103.877 301.176 101.919C301.214 101.896 301.247 101.865 301.273 101.829C301.298 101.792 301.317 101.751 301.326 101.707C301.336 101.664 301.337 101.618 301.329 101.575C301.32 101.531 301.303 101.489 301.279 101.452C301.228 101.376 301.151 101.323 301.062 101.303C300.973 101.284 300.88 101.3 300.803 101.348C297.632 103.386 293.795 108.166 292.63 115.475C291.79 120.81 293.47 129.261 295.119 132.535Z" fill="white"/>
<path d="M298.727 117.1C300.463 121.357 300.455 123.442 297.625 123.878C295.072 124.258 291.973 127.358 294.85 132.392L311.688 141.223C311.73 140.282 311.963 139.359 312.372 138.51C312.78 137.661 313.357 136.904 314.066 136.284C316.833 133.517 319.385 131.433 318.989 128.357C318.593 125.281 315.921 122.316 315.477 119.637C315.033 116.957 316.397 115.427 319.306 112.423C322.215 109.418 324.855 104.757 320.971 102.633C317.086 100.508 312.639 104.147 310.784 106.596C308.929 109.046 307.233 110.124 303.578 109.918C299.924 109.712 296.991 112.843 298.727 117.1Z" fill="#E23E3E"/>
<path d="M303.49 136.926C303.411 123.862 312.773 108.562 317.981 105.47C318.058 105.421 318.113 105.345 318.136 105.256C318.158 105.168 318.145 105.074 318.1 104.995C318.053 104.918 317.978 104.863 317.89 104.841C317.803 104.819 317.711 104.832 317.633 104.876C312.353 108.047 302.912 123.354 302.809 136.585L303.49 136.926Z" fill="white"/>
<path d="M305.994 123.346C305.923 123.363 305.848 123.355 305.782 123.323C305.715 123.291 305.662 123.238 305.63 123.172C304.117 120.351 302.844 117.407 301.825 114.373C301.811 114.33 301.806 114.285 301.81 114.241C301.814 114.196 301.826 114.152 301.847 114.113C301.867 114.073 301.896 114.038 301.93 114.009C301.964 113.98 302.004 113.958 302.047 113.945C302.089 113.931 302.134 113.926 302.179 113.93C302.223 113.934 302.267 113.946 302.307 113.967C302.346 113.988 302.382 114.016 302.41 114.05C302.439 114.084 302.461 114.124 302.475 114.167C303.485 117.159 304.742 120.062 306.232 122.847C306.274 122.928 306.283 123.023 306.256 123.11C306.23 123.198 306.17 123.271 306.089 123.315L305.994 123.346Z" fill="white"/>
<path d="M303.744 131.353C303.679 131.366 303.612 131.359 303.551 131.335C303.489 131.312 303.436 131.271 303.396 131.219C303.343 131.143 303.323 131.05 303.34 130.959C303.356 130.868 303.407 130.788 303.483 130.735C306.896 128.345 311.038 127.224 315.191 127.564C315.282 127.576 315.364 127.623 315.42 127.695C315.475 127.767 315.5 127.858 315.489 127.949C315.477 128.039 315.43 128.121 315.358 128.177C315.286 128.233 315.195 128.258 315.104 128.246C311.128 127.943 307.167 129.009 303.879 131.266C303.84 131.304 303.795 131.334 303.744 131.353Z" fill="white"/>
<path d="M204.257 51.5488L184.938 40.395L165.627 51.5488L184.938 62.7025L204.257 51.5488Z" fill="#F5F5F5"/>
<path d="M184.938 85.018L204.256 73.8642V51.5488L184.938 62.7026V85.018Z" fill="#EBEBEB"/>
<path d="M188.665 77.6141C188.562 77.6159 188.461 77.5913 188.371 77.5427C188.248 77.4526 188.15 77.3325 188.086 77.1937C188.022 77.055 187.995 76.9022 188.007 76.75V74.3718V74.1974H188.126L189.98 73.1113V75.7511C189.978 76.0911 189.894 76.4255 189.735 76.7262C189.576 77.0269 189.348 77.2852 189.069 77.4793C188.949 77.5603 188.809 77.6069 188.665 77.6141ZM188.308 74.5462V76.7341C188.295 76.8359 188.307 76.9394 188.345 77.035C188.382 77.1307 188.443 77.2153 188.522 77.2811C188.586 77.3098 188.657 77.3205 188.727 77.3121C188.796 77.3038 188.863 77.2766 188.918 77.2335C189.156 77.0679 189.351 76.849 189.489 76.5943C189.626 76.3397 189.702 76.0563 189.711 75.767V75.5767H189.021L188.887 74.6492L188.308 74.5462ZM189.259 75.2755H189.687V73.6504L188.577 74.2925L189.124 74.3956L189.259 75.2755Z" fill="white"/>
<path d="M188.997 79.5006C188.957 79.5006 188.918 79.4847 188.89 79.4565C188.862 79.4282 188.846 79.3899 188.846 79.35V77.3681C188.845 77.348 188.848 77.328 188.855 77.3092C188.862 77.2904 188.873 77.2733 188.887 77.2591C188.902 77.2448 188.919 77.2338 188.938 77.2266C188.956 77.2195 188.976 77.2164 188.997 77.2175C189.037 77.2175 189.075 77.2334 189.103 77.2616C189.131 77.2899 189.147 77.3282 189.147 77.3681V79.3183C189.151 79.3403 189.149 79.3629 189.143 79.3844C189.137 79.4059 189.127 79.4259 189.113 79.4431C189.098 79.4603 189.081 79.4744 189.061 79.4843C189.041 79.4942 189.019 79.4997 188.997 79.5006Z" fill="white"/>
<path d="M188.132 80.0002C188.106 80 188.08 79.9925 188.058 79.9785C188.035 79.9645 188.017 79.9445 188.006 79.9209C187.995 79.9047 187.987 79.8863 187.984 79.8669C187.981 79.8476 187.982 79.8278 187.987 79.8089C187.993 79.79 188.002 79.7726 188.015 79.7577C188.027 79.7428 188.043 79.7308 188.061 79.7227L189.781 78.7239C189.799 78.7139 189.817 78.7075 189.837 78.7049C189.857 78.7023 189.877 78.7036 189.896 78.7088C189.915 78.7139 189.933 78.7228 189.949 78.7349C189.964 78.747 189.978 78.7621 189.987 78.7794C190.006 78.8145 190.01 78.855 190 78.8931C189.989 78.9313 189.965 78.9642 189.932 78.9855L188.204 79.9764L188.132 80.0002Z" fill="white"/>
<path d="M194.283 76.5754C194.229 76.5919 194.171 76.5919 194.117 76.5754C194.059 76.5365 194.012 76.4831 193.982 76.4204C193.951 76.3578 193.938 76.2882 193.942 76.2187V75.8144C193.941 75.795 193.944 75.7756 193.951 75.7573C193.958 75.7391 193.968 75.7224 193.981 75.7083C193.995 75.6942 194.011 75.683 194.029 75.6753C194.046 75.6677 194.066 75.6637 194.085 75.6638C194.105 75.6626 194.125 75.6657 194.144 75.6729C194.163 75.68 194.18 75.6911 194.194 75.7053C194.208 75.7195 194.219 75.7366 194.227 75.7554C194.234 75.7742 194.237 75.7943 194.236 75.8144V76.1473C194.236 76.2107 194.236 76.2425 194.236 76.2425C194.236 76.2425 194.283 76.2425 194.331 76.2425C194.423 76.1587 194.496 76.0556 194.544 75.9405C194.592 75.8254 194.614 75.7011 194.608 75.5766V72.9764C194.608 72.957 194.612 72.9378 194.62 72.9199C194.627 72.9021 194.639 72.886 194.653 72.8726C194.667 72.8592 194.684 72.8489 194.702 72.8422C194.72 72.8355 194.739 72.8326 194.759 72.8337C194.797 72.8337 194.833 72.8487 194.86 72.8755C194.887 72.9023 194.902 72.9386 194.902 72.9764V75.6241C194.907 75.8006 194.873 75.9761 194.8 76.1369C194.727 76.2978 194.618 76.4397 194.481 76.5516C194.417 76.572 194.35 76.5801 194.283 76.5754Z" fill="white"/>
<path d="M192.715 74.2688V74.0151C192.752 73.3549 192.943 72.7126 193.274 72.1398C193.604 71.5671 194.064 71.0798 194.617 70.7174C194.815 70.5509 195.06 70.4493 195.317 70.4263C195.575 70.4034 195.833 70.4603 196.057 70.5893C196.282 70.7182 196.461 70.913 196.57 71.1473C196.68 71.3815 196.715 71.6438 196.671 71.8985V71.9857L192.715 74.2688ZM195.505 70.7491C195.243 70.7573 194.988 70.8368 194.768 70.979C194.297 71.2895 193.898 71.6969 193.597 72.174C193.297 72.6511 193.101 73.1869 193.024 73.7456L196.369 71.8193C196.382 71.6322 196.346 71.445 196.266 71.2756C196.185 71.1062 196.063 70.9604 195.91 70.8521C195.786 70.7823 195.647 70.7467 195.505 70.7491Z" fill="white"/>
<path d="M199.586 73.5316C199.548 73.5317 199.51 73.5169 199.482 73.4903C199.454 73.4638 199.438 73.4275 199.436 73.3889V68.3313C199.436 68.2913 199.451 68.253 199.48 68.2248C199.508 68.1965 199.546 68.1807 199.586 68.1807C199.626 68.1807 199.664 68.1965 199.693 68.2248C199.721 68.253 199.737 68.2913 199.737 68.3313V73.3889C199.735 73.4275 199.718 73.4638 199.69 73.4903C199.662 73.5169 199.625 73.5317 199.586 73.5316Z" fill="white"/>
<path d="M199.182 69.4805H199.127C199.108 69.4727 199.092 69.4614 199.078 69.4473C199.064 69.4331 199.053 69.4163 199.046 69.3979C199.039 69.3795 199.035 69.3598 199.035 69.34C199.035 69.3201 199.04 69.3005 199.047 69.2823L199.579 68.0615L200.165 68.7433C200.178 68.7578 200.187 68.7747 200.193 68.793C200.199 68.8112 200.201 68.8305 200.2 68.8496C200.198 68.8687 200.193 68.8874 200.185 68.9045C200.176 68.9216 200.164 68.9369 200.149 68.9494C200.135 68.9619 200.118 68.9714 200.1 68.9773C200.081 68.9833 200.062 68.9856 200.043 68.9841C200.024 68.9827 200.005 68.9774 199.988 68.9688C199.971 68.9601 199.956 68.9481 199.943 68.9335L199.658 68.6164L199.317 69.4092C199.304 69.4326 199.284 69.4517 199.26 69.4643C199.236 69.477 199.209 69.4826 199.182 69.4805Z" fill="white"/>
<path d="M200.99 72.7545C200.952 72.7525 200.916 72.7357 200.889 72.7077C200.862 72.6797 200.848 72.6425 200.848 72.6039V67.5463C200.843 67.5242 200.842 67.5012 200.847 67.479C200.852 67.4569 200.862 67.4361 200.876 67.4184C200.89 67.4006 200.908 67.3862 200.929 67.3763C200.949 67.3665 200.972 67.3613 200.994 67.3613C201.017 67.3613 201.039 67.3665 201.06 67.3763C201.08 67.3862 201.098 67.4006 201.112 67.4184C201.126 67.4361 201.136 67.4569 201.141 67.479C201.146 67.5012 201.146 67.5242 201.141 67.5463V72.6039C201.141 72.6438 201.125 72.6822 201.097 72.7104C201.069 72.7387 201.03 72.7545 200.99 72.7545Z" fill="white"/>
<path d="M200.555 68.6959H200.5C200.482 68.6881 200.465 68.6768 200.451 68.6626C200.437 68.6484 200.426 68.6316 200.419 68.6132C200.412 68.5948 200.408 68.5751 200.408 68.5553C200.408 68.5355 200.413 68.5159 200.421 68.4977L200.952 67.2769L201.538 67.9586C201.564 67.9865 201.579 68.0234 201.579 68.0617C201.579 68.1 201.564 68.1368 201.538 68.1647C201.509 68.1915 201.471 68.2063 201.431 68.2063C201.392 68.2063 201.353 68.1915 201.324 68.1647L201.047 67.8397L200.706 68.6324C200.69 68.6564 200.667 68.6751 200.64 68.6863C200.613 68.6976 200.584 68.7009 200.555 68.6959Z" fill="white"/>
<path d="M184.938 85.018L165.619 73.8642L165.627 51.5488L184.938 62.7026V85.018Z" fill="#E0E0E0"/>
<path d="M176.329 57.7322L195.632 46.5705L193.452 45.3101L174.141 56.4717L176.329 57.7322Z" fill="white"/>
<path d="M168.551 64.3438L175.472 68.3074C175.87 68.5696 176.201 68.9212 176.439 69.3341C176.677 69.747 176.816 70.2098 176.843 70.6856V74.9505C176.843 75.8304 176.225 76.1872 175.472 75.7432L168.551 71.7796C168.153 71.5178 167.821 71.1664 167.583 70.7534C167.345 70.3404 167.207 69.8774 167.18 69.4014V65.1365C167.18 64.2566 167.798 63.9078 168.551 64.3438Z" fill="#E23E3E"/>
<path d="M168.021 65.4058L168.283 65.5643V70.2969L168.021 70.1463V65.4058Z" fill="#E23E3E"/>
<path d="M169.09 66.0244L169.542 66.294V71.0266L169.09 70.765V66.0244Z" fill="#E23E3E"/>
<path d="M170.16 66.6426L170.422 66.7932V71.5337L170.16 71.3831V66.6426Z" fill="#E23E3E"/>
<path d="M170.963 67.1025L171.494 67.4117V72.1523L170.963 71.8352V67.1025Z" fill="#E23E3E"/>
<path d="M172.293 67.8794L172.562 68.03V72.7706L172.293 72.612V67.8794Z" fill="#E23E3E"/>
<path d="M173.07 68.3149L173.625 68.6479V73.3805L173.062 73.0476L173.07 68.3149Z" fill="#E23E3E"/>
<path d="M174.434 69.1157L174.695 69.2663V73.9989L174.434 73.8483V69.1157Z" fill="#E23E3E"/>
<path d="M175.045 69.4565L175.18 69.5358V74.2684L175.045 74.1971V69.4565Z" fill="#E23E3E"/>
<path d="M173.949 68.8545L174.076 68.9338V73.6664L173.949 73.595V68.8545Z" fill="#E23E3E"/>
<path d="M171.795 67.5938L171.922 67.6651V72.4056L171.795 72.3263V67.5938Z" fill="#E23E3E"/>
<path d="M170.613 66.9121L170.748 66.9914V71.7319L170.613 71.6526V66.9121Z" fill="#E23E3E"/>
<path d="M169.766 66.4443L169.9 66.5236V71.2641L169.766 71.1849V66.4443Z" fill="#E23E3E"/>
<path d="M168.615 65.7466L168.75 65.8258V70.5664L168.615 70.4871V65.7466Z" fill="#E23E3E"/>
<path d="M175.504 69.7261L175.766 69.8767V74.6172L175.504 74.4666V69.7261Z" fill="#E23E3E"/>
<path d="M178.501 47.831L155.955 34.8223L133.418 47.831L155.955 60.8477L178.501 47.831Z" fill="#F5F5F5"/>
<path d="M146.291 55.2667L168.837 42.258L166.649 40.9976L144.111 54.0063L146.291 55.2667Z" fill="white"/>
<path d="M155.955 101.745L178.5 88.736V47.8311L155.955 60.8477V101.745Z" fill="#EBEBEB"/>
<path d="M159.681 94.3803C159.578 94.3821 159.476 94.3546 159.388 94.301C159.263 94.2125 159.163 94.0927 159.099 93.9535C159.035 93.8144 159.009 93.6608 159.023 93.5083V91.1301V90.9557H159.15L160.997 89.8696V92.5094C160.993 92.8492 160.909 93.1831 160.75 93.4836C160.592 93.7841 160.364 94.0426 160.086 94.2376C159.966 94.3214 159.827 94.3707 159.681 94.3803ZM159.325 91.3124V93.5003C159.311 93.6022 159.324 93.7057 159.361 93.8013C159.399 93.8969 159.46 93.9815 159.539 94.0473C159.603 94.076 159.674 94.0867 159.743 94.0784C159.813 94.07 159.879 94.0428 159.935 93.9998C160.172 93.8341 160.368 93.6152 160.505 93.3606C160.643 93.1059 160.719 92.8226 160.728 92.5332V92.3429H160.038L159.903 91.4155L159.325 91.3124ZM160.276 92.0417H160.744V90.4166L159.634 91.0667L160.181 91.1618L160.276 92.0417Z" fill="white"/>
<path d="M160.014 96.2354C159.974 96.2354 159.936 96.2196 159.907 96.1913C159.879 96.1631 159.863 96.1248 159.863 96.0848V94.0951C159.863 94.0756 159.867 94.0564 159.875 94.0386C159.883 94.0207 159.894 94.0046 159.908 93.9912C159.922 93.9779 159.939 93.9675 159.957 93.9609C159.975 93.9542 159.995 93.9513 160.014 93.9524C160.053 93.9523 160.09 93.9671 160.118 93.9936C160.146 94.0202 160.162 94.0565 160.165 94.0951V96.0848C160.163 96.1241 160.146 96.1613 160.118 96.1892C160.09 96.217 160.053 96.2335 160.014 96.2354Z" fill="white"/>
<path d="M159.158 96.7583C159.132 96.7589 159.107 96.7526 159.085 96.7401C159.063 96.7275 159.044 96.7092 159.031 96.687C159.013 96.6519 159.009 96.6113 159.019 96.5732C159.029 96.5351 159.054 96.5022 159.087 96.4809L160.807 95.49C160.824 95.48 160.843 95.4736 160.863 95.471C160.882 95.4684 160.902 95.4698 160.922 95.4749C160.941 95.4801 160.959 95.489 160.974 95.5011C160.99 95.5132 161.003 95.5283 161.013 95.5455C161.023 95.562 161.029 95.5804 161.032 95.5994C161.034 95.6185 161.033 95.6379 161.028 95.6564C161.022 95.6749 161.014 95.6922 161.001 95.7072C160.989 95.7221 160.975 95.7346 160.958 95.7436L159.229 96.7425C159.208 96.7551 159.183 96.7607 159.158 96.7583Z" fill="white"/>
<path d="M165.301 93.3099C165.243 93.3101 165.186 93.2965 165.134 93.2703C165.076 93.2314 165.03 93.178 164.999 93.1153C164.969 93.0527 164.955 92.9831 164.96 92.9135V92.5013C164.96 92.4819 164.964 92.4627 164.972 92.4448C164.979 92.427 164.99 92.4109 165.005 92.3975C165.019 92.3842 165.035 92.3738 165.054 92.3671C165.072 92.3605 165.091 92.3576 165.111 92.3586C165.129 92.3586 165.148 92.3623 165.165 92.3695C165.182 92.3767 165.198 92.3872 165.211 92.4004C165.225 92.4137 165.235 92.4294 165.242 92.4467C165.25 92.464 165.253 92.4826 165.253 92.5013V92.9135C165.253 92.969 165.253 93.0008 165.253 93.0087C165.253 93.0166 165.301 93.0087 165.348 93.0087C165.441 92.9234 165.514 92.8188 165.562 92.7024C165.61 92.5861 165.631 92.4606 165.626 92.3349V89.6951C165.626 89.6551 165.642 89.6168 165.67 89.5885C165.698 89.5603 165.737 89.5444 165.776 89.5444C165.816 89.5464 165.853 89.5628 165.881 89.5907C165.909 89.6185 165.925 89.6557 165.927 89.6951V92.3349C165.935 92.5123 165.9 92.6891 165.825 92.8504C165.751 93.0117 165.639 93.1529 165.499 93.2623C165.437 93.2931 165.37 93.3094 165.301 93.3099Z" fill="white"/>
<path d="M163.732 91.0032V90.7416C163.77 90.0826 163.962 89.4416 164.292 88.8702C164.623 88.2988 165.083 87.813 165.635 87.4517C165.833 87.2852 166.077 87.1836 166.335 87.1607C166.592 87.1378 166.851 87.1947 167.075 87.3237C167.299 87.4526 167.478 87.6474 167.588 87.8816C167.698 88.1159 167.733 88.3781 167.688 88.6329V88.7201L163.732 91.0032ZM166.523 87.4755C166.261 87.4875 166.007 87.5667 165.786 87.7054C165.314 88.0168 164.914 88.4255 164.613 88.904C164.313 89.3826 164.118 89.9199 164.042 90.48L167.387 88.5536C167.399 88.3655 167.363 88.1775 167.282 88.007C167.202 87.8365 167.08 87.6892 166.927 87.5786C166.803 87.5111 166.664 87.4757 166.523 87.4755Z" fill="white"/>
<path d="M170.637 90.2661C170.597 90.2661 170.559 90.2502 170.53 90.222C170.502 90.1937 170.486 90.1554 170.486 90.1155V85.0578C170.486 85.0179 170.502 84.9796 170.53 84.9513C170.559 84.9231 170.597 84.9072 170.637 84.9072C170.677 84.9072 170.715 84.9231 170.743 84.9513C170.772 84.9796 170.788 85.0179 170.788 85.0578V90.1155C170.788 90.1554 170.772 90.1937 170.743 90.222C170.715 90.2502 170.677 90.2661 170.637 90.2661Z" fill="white"/>
<path d="M170.201 86.2153H170.146C170.128 86.2083 170.112 86.1978 170.098 86.1844C170.084 86.1709 170.073 86.1548 170.066 86.1371C170.058 86.1193 170.055 86.1002 170.055 86.0809C170.055 86.0617 170.059 86.0427 170.067 86.025L170.598 84.8042L171.184 85.4859C171.21 85.5154 171.222 85.5536 171.219 85.5923C171.216 85.6309 171.198 85.6668 171.169 85.6921C171.139 85.7173 171.101 85.7298 171.062 85.7268C171.024 85.7238 170.988 85.7056 170.962 85.6762L170.677 85.3512L170.336 86.1439C170.323 86.1673 170.303 86.1865 170.279 86.1991C170.255 86.2117 170.228 86.2173 170.201 86.2153Z" fill="white"/>
<path d="M172.008 89.4811C171.97 89.4811 171.934 89.466 171.907 89.4393C171.88 89.4125 171.865 89.3762 171.865 89.3384V84.2807C171.864 84.2613 171.867 84.2419 171.874 84.2237C171.881 84.2055 171.891 84.1888 171.904 84.1747C171.918 84.1606 171.934 84.1493 171.952 84.1417C171.97 84.134 171.989 84.1301 172.008 84.1301C172.028 84.129 172.048 84.1321 172.067 84.1392C172.086 84.1464 172.103 84.1574 172.117 84.1717C172.131 84.1859 172.142 84.203 172.15 84.2218C172.157 84.2406 172.16 84.2606 172.159 84.2807V89.3384C172.159 89.3578 172.155 89.377 172.147 89.3949C172.14 89.4127 172.128 89.4288 172.114 89.4422C172.1 89.4555 172.083 89.4659 172.065 89.4726C172.047 89.4792 172.028 89.4821 172.008 89.4811Z" fill="white"/>
<path d="M171.58 85.4302H171.517C171.482 85.413 171.454 85.3831 171.439 85.3465C171.424 85.3098 171.424 85.269 171.438 85.232L171.969 84.0112L172.563 84.693C172.588 84.7217 172.602 84.7582 172.602 84.796C172.602 84.8338 172.588 84.8704 172.563 84.8991C172.549 84.9132 172.533 84.9245 172.514 84.9321C172.496 84.9398 172.476 84.9437 172.456 84.9437C172.437 84.9437 172.417 84.9398 172.398 84.9321C172.38 84.9245 172.363 84.9132 172.349 84.8991L172.072 84.5741L171.731 85.3668C171.716 85.3915 171.693 85.4109 171.666 85.4222C171.639 85.4336 171.609 85.4364 171.58 85.4302Z" fill="white"/>
<path d="M155.955 101.745L133.418 88.736V47.8311L155.955 60.8477V101.745Z" fill="#E0E0E0"/>
<path d="M138 80.2298L144.913 84.1934C145.313 84.4543 145.646 84.8054 145.886 85.2184C146.125 85.6315 146.264 86.0949 146.292 86.5716V90.8444C146.292 91.7164 145.674 92.0732 144.913 91.6372L138 87.6735C137.601 87.4132 137.268 87.062 137.03 86.6488C136.791 86.2355 136.654 85.7717 136.629 85.2953V81.0304C136.629 80.1109 137.247 79.7938 138 80.2298Z" fill="#F5F5F5"/>
<path d="M137.469 81.292L137.73 81.4505V86.1831L137.469 86.0325V81.292Z" fill="#E0E0E0"/>
<path d="M138.539 81.9106L138.991 82.1802V86.9207L138.539 86.6512V81.9106Z" fill="#E0E0E0"/>
<path d="M139.602 82.5288L139.871 82.6794L139.863 87.42L139.602 87.2693V82.5288Z" fill="#E0E0E0"/>
<path d="M140.41 82.9888L140.933 83.2979V88.0385L140.41 87.7214V82.9888Z" fill="#E0E0E0"/>
<path d="M141.742 83.7656L142.004 83.9162V88.6568L141.742 88.4982V83.7656Z" fill="#E0E0E0"/>
<path d="M142.51 84.2017L143.073 84.5346V89.2672L142.51 88.9343V84.2017Z" fill="#E0E0E0"/>
<path d="M143.883 84.9941L144.144 85.1527V89.8853L143.883 89.7347V84.9941Z" fill="#E0E0E0"/>
<path d="M144.492 85.3433L144.627 85.4225V90.1631L144.492 90.0838V85.3433Z" fill="#E0E0E0"/>
<path d="M143.398 84.7407L143.525 84.82V89.5526L143.398 89.4813V84.7407Z" fill="#E0E0E0"/>
<path d="M141.242 83.48L141.369 83.5513V88.2919L141.242 88.2126V83.48Z" fill="#E0E0E0"/>
<path d="M140.061 82.7983L140.187 82.8776V87.6182L140.061 87.5389V82.7983Z" fill="#E0E0E0"/>
<path d="M139.213 82.3306L139.348 82.4098V87.1504L139.213 87.0711V82.3306Z" fill="#E0E0E0"/>
<path d="M138.062 81.6333L138.197 81.7126V86.4531L138.062 86.3738V81.6333Z" fill="#E0E0E0"/>
<path d="M144.951 85.6128L145.213 85.7634V90.5039L144.951 90.3533V85.6128Z" fill="#E0E0E0"/>
<path d="M144.111 59.2859L146.291 60.5464V55.2668L144.111 54.0063V59.2859Z" fill="#F0F0F0"/>
<path d="M110.872 90.5911L94.7717 81.3003L72.2344 94.309L88.3348 103.608L110.872 90.5911Z" fill="#F5F5F5"/>
<path d="M88.3359 140.787L110.873 127.778V90.5908L88.3359 103.607V140.787Z" fill="#EBEBEB"/>
<path d="M92.0538 133.391C91.953 133.393 91.8537 133.365 91.7684 133.311C91.644 133.222 91.5449 133.102 91.4809 132.963C91.417 132.824 91.3904 132.671 91.4038 132.519V130.14V129.966H91.5227L93.3777 128.88V131.52C93.3738 131.859 93.2891 132.193 93.1306 132.494C92.972 132.794 92.7442 133.053 92.466 133.248C92.3436 133.331 92.2014 133.38 92.0538 133.391ZM91.705 130.323V132.511C91.6903 132.612 91.7022 132.716 91.7398 132.812C91.7773 132.908 91.8391 132.993 91.919 133.058C91.9839 133.083 92.054 133.092 92.1232 133.084C92.1924 133.076 92.2585 133.05 92.3154 133.01C92.5528 132.844 92.7482 132.625 92.8858 132.371C93.0235 132.116 93.0996 131.833 93.1081 131.543V131.353H92.4185L92.2837 130.426L91.705 130.323ZM92.6563 131.052H93.0844V129.419L91.9745 130.069L92.5215 130.164L92.6563 131.052Z" fill="white"/>
<path d="M92.3928 135.277C92.3529 135.277 92.3145 135.262 92.2863 135.233C92.2581 135.205 92.2422 135.167 92.2422 135.127V133.137C92.2422 133.118 92.2461 133.098 92.2538 133.081C92.2614 133.063 92.2726 133.047 92.2867 133.033C92.3009 133.02 92.3175 133.01 92.3358 133.003C92.354 132.996 92.3734 132.993 92.3928 132.994C92.4307 132.994 92.4669 133.009 92.4937 133.036C92.5205 133.063 92.5355 133.099 92.5355 133.137V135.127C92.5356 135.165 92.5208 135.203 92.4942 135.231C92.4677 135.259 92.4314 135.275 92.3928 135.277Z" fill="white"/>
<path d="M91.5294 135.769C91.5036 135.77 91.478 135.764 91.4555 135.752C91.433 135.739 91.4146 135.72 91.4025 135.697C91.3911 135.681 91.3833 135.662 91.3795 135.643C91.3758 135.623 91.3761 135.603 91.3806 135.584C91.3851 135.564 91.3936 135.546 91.4056 135.53C91.4175 135.514 91.4327 135.501 91.4501 135.491L93.1783 134.5C93.1954 134.49 93.2144 134.484 93.234 134.481C93.2537 134.479 93.2737 134.48 93.2928 134.485C93.312 134.49 93.3299 134.499 93.3456 134.511C93.3613 134.523 93.3745 134.539 93.3844 134.556C93.3941 134.572 93.4004 134.591 93.4029 134.61C93.4054 134.629 93.404 134.648 93.3988 134.667C93.3936 134.685 93.3848 134.702 93.3728 134.717C93.3607 134.732 93.3458 134.745 93.3289 134.754L91.6007 135.753C91.5792 135.765 91.5542 135.771 91.5294 135.769Z" fill="white"/>
<path d="M97.6817 132.352C97.6238 132.352 97.5668 132.339 97.5152 132.312C97.4573 132.274 97.4107 132.22 97.3801 132.157C97.3495 132.095 97.3359 132.025 97.3408 131.956V131.543C97.3408 131.506 97.3558 131.469 97.3826 131.443C97.4094 131.416 97.4457 131.401 97.4835 131.401C97.5029 131.4 97.5223 131.403 97.5405 131.409C97.5588 131.416 97.5755 131.426 97.5896 131.44C97.6037 131.453 97.6149 131.469 97.6226 131.487C97.6302 131.505 97.6341 131.524 97.6341 131.543V131.956C97.6341 132.011 97.6341 132.043 97.6341 132.051C97.6341 132.059 97.6817 132.051 97.7292 132.051C97.8201 131.964 97.8918 131.859 97.9396 131.743C97.9874 131.627 98.0103 131.502 98.0067 131.377V128.737C98.0015 128.715 98.0014 128.692 98.0064 128.67C98.0113 128.648 98.0212 128.627 98.0353 128.609C98.0494 128.591 98.0674 128.577 98.0878 128.567C98.1083 128.557 98.1307 128.552 98.1534 128.552C98.1761 128.552 98.1985 128.557 98.2189 128.567C98.2393 128.577 98.2573 128.591 98.2714 128.609C98.2855 128.627 98.2954 128.648 98.3003 128.67C98.3053 128.692 98.3052 128.715 98.3 128.737V131.377C98.3065 131.554 98.272 131.729 98.1991 131.89C98.1262 132.051 98.0169 132.193 97.8799 132.304C97.8183 132.335 97.7505 132.351 97.6817 132.352Z" fill="white"/>
<path d="M96.1113 130.053V129.791C96.1489 129.132 96.3406 128.491 96.671 127.92C97.0015 127.349 97.4614 126.863 98.0139 126.502C98.2108 126.333 98.455 126.23 98.7129 126.206C98.9709 126.183 99.2298 126.24 99.4541 126.369C99.6785 126.499 99.8571 126.694 99.9654 126.93C100.074 127.165 100.107 127.428 100.059 127.683V127.77L96.1113 130.053ZM98.9017 126.525C98.6403 126.537 98.3864 126.617 98.1645 126.755C97.6928 127.067 97.2931 127.475 96.9923 127.954C96.6915 128.432 96.4966 128.97 96.4205 129.53L99.7658 127.596C99.777 127.409 99.7407 127.222 99.6603 127.053C99.5799 126.884 99.458 126.738 99.306 126.628C99.185 126.559 99.0489 126.521 98.9097 126.517L98.9017 126.525Z" fill="white"/>
<path d="M103.016 129.308C102.976 129.308 102.938 129.292 102.909 129.264C102.881 129.236 102.865 129.197 102.865 129.157V124.1C102.865 124.06 102.881 124.022 102.909 123.993C102.938 123.965 102.976 123.949 103.016 123.949C103.056 123.949 103.094 123.965 103.122 123.993C103.151 124.022 103.166 124.06 103.166 124.1V129.157C103.166 129.197 103.151 129.236 103.122 129.264C103.094 129.292 103.056 129.308 103.016 129.308Z" fill="white"/>
<path d="M102.58 125.297H102.525C102.507 125.29 102.49 125.279 102.477 125.266C102.463 125.252 102.452 125.236 102.445 125.219C102.437 125.201 102.433 125.182 102.434 125.162C102.434 125.143 102.438 125.124 102.446 125.107L102.977 123.886L103.563 124.567C103.589 124.597 103.601 124.635 103.598 124.674C103.595 124.712 103.577 124.748 103.547 124.774C103.533 124.786 103.516 124.796 103.498 124.802C103.479 124.808 103.46 124.81 103.441 124.808C103.402 124.805 103.367 124.787 103.341 124.758L103.056 124.433L102.715 125.225C102.702 125.249 102.682 125.268 102.658 125.281C102.634 125.293 102.607 125.299 102.58 125.297Z" fill="white"/>
<path d="M104.389 128.523C104.35 128.523 104.313 128.508 104.285 128.482C104.257 128.455 104.24 128.419 104.238 128.38V123.323C104.238 123.283 104.254 123.244 104.282 123.216C104.311 123.188 104.349 123.172 104.389 123.172C104.409 123.171 104.429 123.174 104.448 123.181C104.467 123.188 104.484 123.199 104.498 123.214C104.512 123.228 104.523 123.245 104.53 123.264C104.538 123.283 104.541 123.303 104.54 123.323V128.38C104.54 128.4 104.536 128.419 104.528 128.437C104.52 128.455 104.509 128.471 104.495 128.484C104.481 128.498 104.464 128.508 104.446 128.515C104.428 128.521 104.408 128.524 104.389 128.523Z" fill="white"/>
<path d="M103.951 124.504C103.934 124.511 103.914 124.511 103.896 124.504C103.878 124.497 103.862 124.486 103.848 124.473C103.834 124.46 103.823 124.443 103.816 124.426C103.808 124.408 103.805 124.389 103.805 124.37C103.805 124.35 103.809 124.331 103.817 124.314L104.348 123.093L104.934 123.775C104.961 123.802 104.975 123.839 104.975 123.878C104.975 123.916 104.961 123.953 104.934 123.981C104.92 123.995 104.904 124.006 104.885 124.014C104.867 124.021 104.847 124.025 104.827 124.025C104.807 124.025 104.788 124.021 104.769 124.014C104.751 124.006 104.734 123.995 104.72 123.981L104.443 123.656L104.102 124.448C104.085 124.471 104.061 124.488 104.035 124.498C104.008 124.508 103.979 124.51 103.951 124.504Z" fill="white"/>
<path d="M88.3348 140.787L72.2344 131.496V94.3091L88.3348 103.608V140.787Z" fill="#E0E0E0"/>
<path d="M79.7109 103.909L81.891 105.169V99.8898L79.7109 98.6294V103.909Z" fill="#F5F5F5"/>
<path d="M81.891 99.8899L104.436 86.8732L102.248 85.6128L79.7109 98.6295L81.891 99.8899Z" fill="white"/>
<path d="M81.8902 122.197L52.9159 105.471L23.9336 122.197L52.9159 138.932L81.8902 122.197Z" fill="#F5F5F5"/>
<path d="M52.916 161.239L81.8904 144.513V122.197L52.916 138.932V161.239Z" fill="#EBEBEB"/>
<path d="M56.6335 153.835C56.5332 153.833 56.4351 153.806 56.3481 153.756C56.2243 153.666 56.1256 153.546 56.0617 153.407C55.9978 153.268 55.9709 153.115 55.9835 152.963V150.585V150.41H56.1024L57.9574 149.316V151.964C57.9523 152.303 57.867 152.635 57.7085 152.934C57.55 153.233 57.3229 153.49 57.0458 153.684C56.9238 153.77 56.7817 153.821 56.6335 153.835ZM56.2768 150.767V152.955C56.2627 153.056 56.275 153.158 56.3125 153.253C56.3501 153.347 56.4115 153.431 56.4908 153.494C56.5557 153.524 56.6273 153.536 56.6983 153.529C56.7693 153.522 56.8372 153.496 56.8951 153.454C57.1317 153.288 57.3263 153.069 57.4639 152.814C57.6014 152.56 57.6781 152.277 57.6879 151.988V151.79H56.9744L56.8396 150.862L56.2768 150.767ZM57.2281 151.496H57.6879V149.871L56.586 150.521L57.133 150.616L57.2281 151.496Z" fill="white"/>
<path d="M56.967 155.722C56.9482 155.722 56.9297 155.718 56.9124 155.711C56.895 155.704 56.8793 155.693 56.8661 155.68C56.8528 155.667 56.8423 155.651 56.8351 155.634C56.828 155.616 56.8243 155.598 56.8243 155.579V153.589C56.8191 153.567 56.819 153.544 56.824 153.522C56.8289 153.5 56.8388 153.479 56.8529 153.461C56.867 153.444 56.885 153.429 56.9054 153.419C56.9258 153.409 56.9482 153.404 56.9709 153.404C56.9936 153.404 57.016 153.409 57.0365 153.419C57.0569 153.429 57.0748 153.444 57.0889 153.461C57.103 153.479 57.113 153.5 57.1179 153.522C57.1229 153.544 57.1228 153.567 57.1176 153.589V155.579C57.1176 155.598 57.1137 155.618 57.106 155.636C57.0984 155.653 57.0871 155.669 57.073 155.683C57.0589 155.696 57.0422 155.707 57.024 155.713C57.0058 155.72 56.9864 155.723 56.967 155.722Z" fill="white"/>
<path d="M56.1021 156.214C56.0704 156.212 56.0401 156.2 56.0156 156.179C55.9911 156.159 55.9736 156.132 55.9657 156.101C55.9578 156.07 55.9598 156.037 55.9715 156.008C55.9832 155.978 56.0039 155.953 56.0308 155.936L57.7589 154.945C57.7747 154.934 57.7926 154.926 57.8116 154.922C57.8306 154.919 57.8501 154.919 57.8689 154.924C57.8877 154.928 57.9053 154.937 57.9205 154.949C57.9358 154.961 57.9482 154.976 57.9571 154.993C57.9685 155.009 57.9763 155.028 57.9801 155.047C57.9839 155.067 57.9835 155.087 57.979 155.106C57.9746 155.126 57.9661 155.144 57.9541 155.16C57.9421 155.176 57.927 155.189 57.9096 155.199L56.1814 156.214H56.1021Z" fill="white"/>
<path d="M62.2541 152.804C62.2019 152.816 62.1478 152.816 62.0956 152.804C62.035 152.766 61.9861 152.712 61.954 152.647C61.9218 152.583 61.9078 152.511 61.9133 152.44V152.036C61.9133 151.996 61.9291 151.957 61.9574 151.929C61.9856 151.901 62.0239 151.885 62.0639 151.885C62.1038 151.885 62.1421 151.901 62.1704 151.929C62.1986 151.957 62.2145 151.996 62.2145 152.036V152.44C62.2036 152.473 62.2036 152.509 62.2145 152.543C62.2145 152.543 62.2621 152.543 62.3176 152.543C62.407 152.456 62.4772 152.351 62.5236 152.234C62.57 152.118 62.5917 151.994 62.5871 151.869V149.229C62.589 149.19 62.6055 149.153 62.6333 149.125C62.6612 149.097 62.6984 149.081 62.7377 149.079C62.7777 149.079 62.816 149.094 62.8442 149.123C62.8725 149.151 62.8883 149.189 62.8883 149.229V151.869C62.8949 152.046 62.8603 152.221 62.7874 152.382C62.7145 152.543 62.6052 152.685 62.4682 152.797C62.3985 152.816 62.3251 152.819 62.2541 152.804Z" fill="white"/>
<path d="M60.6934 150.498V150.236C60.7278 149.577 60.9182 148.934 61.2489 148.363C61.5796 147.791 62.0413 147.305 62.5959 146.946C62.7928 146.778 63.037 146.675 63.295 146.651C63.5529 146.628 63.8119 146.684 64.0362 146.814C64.2605 146.943 64.4391 147.139 64.5475 147.375C64.6558 147.61 64.6885 147.873 64.6412 148.128V148.215L60.6934 150.498ZM63.4838 146.97C63.2201 146.984 62.964 147.063 62.7386 147.2C62.2684 147.512 61.8702 147.921 61.5708 148.4C61.2714 148.878 61.0777 149.415 61.0025 149.975L64.3399 148.04C64.3527 147.854 64.318 147.668 64.2389 147.498C64.1599 147.329 64.0392 147.183 63.8881 147.073C63.7649 147.003 63.6253 146.968 63.4838 146.97Z" fill="white"/>
<path d="M67.5979 149.76C67.5779 149.762 67.5578 149.758 67.539 149.751C67.5202 149.744 67.5031 149.733 67.4889 149.719C67.4747 149.705 67.4636 149.688 67.4564 149.669C67.4493 149.65 67.4462 149.63 67.4473 149.61V144.552C67.4421 144.53 67.442 144.507 67.447 144.485C67.452 144.463 67.4619 144.442 67.476 144.424C67.4901 144.406 67.508 144.392 67.5284 144.382C67.5489 144.372 67.5713 144.367 67.594 144.367C67.6167 144.367 67.6391 144.372 67.6595 144.382C67.68 144.392 67.6979 144.406 67.712 144.424C67.7261 144.442 67.736 144.463 67.741 144.485C67.7459 144.507 67.7458 144.53 67.7406 144.552V149.61C67.7417 149.629 67.7388 149.649 67.7321 149.667C67.7255 149.685 67.7151 149.702 67.7018 149.716C67.6884 149.73 67.6723 149.741 67.6544 149.749C67.6366 149.756 67.6174 149.76 67.5979 149.76Z" fill="white"/>
<path d="M67.202 145.71H67.1386C67.1203 145.702 67.1038 145.691 67.0901 145.676C67.0764 145.662 67.0659 145.645 67.0592 145.626C67.0525 145.608 67.0497 145.588 67.0511 145.568C67.0525 145.548 67.058 145.529 67.0672 145.511L67.5904 144.291L68.185 144.972C68.2112 145.003 68.2243 145.042 68.2214 145.083C68.2184 145.123 68.1996 145.16 68.1691 145.186C68.1386 145.213 68.0989 145.226 68.0588 145.223C68.0187 145.22 67.9814 145.201 67.9551 145.17L67.6776 144.845L67.3367 145.638C67.3227 145.661 67.3027 145.68 67.2791 145.692C67.2554 145.705 67.2288 145.711 67.202 145.71Z" fill="white"/>
<path d="M68.969 148.976C68.929 148.976 68.8907 148.96 68.8625 148.931C68.8342 148.903 68.8184 148.865 68.8184 148.825V143.767C68.8184 143.727 68.8342 143.689 68.8625 143.661C68.8907 143.633 68.929 143.617 68.969 143.617C69.0089 143.617 69.0472 143.633 69.0755 143.661C69.1037 143.689 69.1196 143.727 69.1196 143.767V148.825C69.1196 148.865 69.1037 148.903 69.0755 148.931C69.0472 148.96 69.0089 148.976 68.969 148.976Z" fill="white"/>
<path d="M68.5334 144.925H68.4779C68.46 144.918 68.4436 144.907 68.4298 144.894C68.416 144.881 68.4051 144.864 68.3977 144.847C68.3903 144.829 68.3866 144.81 68.3867 144.791C68.3869 144.771 68.391 144.752 68.3987 144.735L68.9298 143.506L69.5164 144.188C69.5306 144.202 69.5418 144.218 69.5495 144.237C69.5571 144.255 69.5611 144.275 69.5611 144.295C69.5611 144.315 69.5571 144.334 69.5495 144.353C69.5418 144.371 69.5306 144.388 69.5164 144.402C69.5031 144.416 69.4871 144.427 69.4694 144.434C69.4517 144.442 69.4326 144.446 69.4134 144.446C69.3941 144.446 69.3751 144.442 69.3573 144.434C69.3396 144.427 69.3236 144.416 69.3103 144.402L69.0249 144.077L68.6841 144.869C68.6674 144.893 68.6441 144.91 68.6173 144.92C68.5904 144.93 68.5612 144.932 68.5334 144.925Z" fill="white"/>
<path d="M52.9159 161.239L23.9336 144.513V122.197L52.9159 138.932V161.239Z" fill="#E0E0E0"/>
<path d="M37.3301 135.214L39.5101 136.474V131.195L37.3301 129.934V135.214Z" fill="#F5F5F5"/>
<path d="M39.5101 131.195L68.4924 114.468L66.3124 113.2L37.3301 129.934L39.5101 131.195Z" fill="white"/>
<path d="M28.5238 136.006L35.4364 139.97C35.8363 140.231 36.1695 140.582 36.409 140.995C36.6486 141.408 36.7879 141.872 36.8157 142.348V146.621C36.8157 147.493 36.1974 147.85 35.4364 147.414L28.5238 143.45C28.124 143.19 27.7914 142.839 27.5531 142.425C27.3148 142.012 27.1774 141.548 27.1523 141.072V136.807C27.1523 135.919 27.7707 135.602 28.5238 136.006Z" fill="#F5F5F5"/>
<path d="M27.9922 137.069L28.2538 137.219V141.96L27.9922 141.809V137.069Z" fill="#E0E0E0"/>
<path d="M29.0547 137.687L29.5145 137.957V142.689L29.0547 142.428V137.687Z" fill="#E0E0E0"/>
<path d="M30.125 138.306L30.3945 138.456L30.3866 143.197L30.125 143.046V138.306Z" fill="#E0E0E0"/>
<path d="M30.9336 138.765L31.4647 139.074L31.4568 143.815L30.9336 143.498V138.765Z" fill="#E0E0E0"/>
<path d="M32.2656 139.542L32.5272 139.693V144.433L32.2656 144.275V139.542Z" fill="#E0E0E0"/>
<path d="M33.0352 139.978L33.598 140.311V145.044L33.0352 144.711V139.978Z" fill="#E0E0E0"/>
<path d="M34.4043 140.779L34.6659 140.929V145.662L34.4043 145.511V140.779Z" fill="#E0E0E0"/>
<path d="M35.0156 141.12L35.1504 141.199V145.932L35.0156 145.86V141.12Z" fill="#E0E0E0"/>
<path d="M33.9219 140.517L34.0487 140.588V145.329L33.9219 145.258V140.517Z" fill="#E0E0E0"/>
<path d="M31.7656 139.257L31.8925 139.328V144.069L31.7656 143.989V139.257Z" fill="#E0E0E0"/>
<path d="M30.584 138.575L30.7187 138.654V143.387L30.584 143.316V138.575Z" fill="#E0E0E0"/>
<path d="M29.7363 138.107L29.8711 138.187V142.927L29.7363 142.848V138.107Z" fill="#E0E0E0"/>
<path d="M28.5879 137.41L28.7227 137.489V142.222L28.5879 142.15V137.41Z" fill="#E0E0E0"/>
<path d="M35.4766 141.389L35.7382 141.548V146.28L35.4766 146.13V141.389Z" fill="#E0E0E0"/>
<path d="M75.4538 77.5821L52.9164 64.5654L30.3711 77.5821L52.9164 90.5908L75.4538 77.5821Z" fill="#F5F5F5"/>
<path d="M52.916 135.214L75.4534 122.197V77.5825L52.916 90.5913V135.214Z" fill="#EBEBEB"/>
<path d="M56.6335 127.81C56.5339 127.811 56.4357 127.786 56.3481 127.738C56.2243 127.649 56.1256 127.529 56.0617 127.39C55.9978 127.251 55.9709 127.098 55.9835 126.946V124.568V124.393H56.1024L57.9574 123.307V125.947C57.9529 126.287 57.8679 126.62 57.7094 126.921C57.5509 127.221 57.3235 127.48 57.0458 127.675C56.9225 127.755 56.7804 127.802 56.6335 127.81ZM56.2768 124.742V126.938C56.2642 127.038 56.2773 127.141 56.3147 127.235C56.3521 127.329 56.4127 127.412 56.4908 127.477C56.5557 127.507 56.6273 127.519 56.6983 127.512C56.7693 127.505 56.8372 127.479 56.8951 127.437C57.1318 127.269 57.3265 127.048 57.464 126.793C57.6015 126.537 57.6781 126.253 57.6879 125.963V125.773H56.9744L56.8396 124.845L56.2768 124.742ZM57.2281 125.471H57.6879V123.846L56.586 124.496L57.133 124.591L57.2281 125.471Z" fill="white"/>
<path d="M56.9671 129.696C56.9477 129.696 56.9285 129.692 56.9106 129.685C56.8928 129.677 56.8767 129.666 56.8633 129.652C56.85 129.638 56.8396 129.621 56.8329 129.603C56.8263 129.585 56.8234 129.565 56.8244 129.546V127.564C56.8234 127.545 56.8263 127.525 56.8329 127.507C56.8396 127.489 56.85 127.472 56.8633 127.458C56.8767 127.444 56.8928 127.433 56.9106 127.425C56.9285 127.417 56.9477 127.413 56.9671 127.413C56.9872 127.412 57.0073 127.415 57.0261 127.422C57.0449 127.43 57.062 127.441 57.0762 127.455C57.0904 127.469 57.1015 127.486 57.1086 127.505C57.1158 127.524 57.1189 127.544 57.1177 127.564V129.546C57.1189 129.566 57.1158 129.586 57.1086 129.605C57.1015 129.624 57.0904 129.641 57.0762 129.655C57.062 129.669 57.0449 129.68 57.0261 129.687C57.0073 129.694 56.9872 129.698 56.9671 129.696Z" fill="white"/>
<path d="M56.1021 130.196C56.0704 130.194 56.0401 130.182 56.0156 130.162C55.9911 130.141 55.9736 130.114 55.9657 130.083C55.9578 130.052 55.9598 130.02 55.9715 129.99C55.9832 129.961 56.0039 129.935 56.0308 129.918L57.7589 128.92C57.7936 128.9 57.8348 128.894 57.8735 128.905C57.9121 128.915 57.9451 128.94 57.9651 128.975C57.985 129.01 57.9904 129.051 57.98 129.09C57.9696 129.128 57.9443 129.161 57.9096 129.181L56.1814 130.172C56.1581 130.188 56.1304 130.196 56.1021 130.196Z" fill="white"/>
<path d="M62.2543 126.779C62.1979 126.779 62.1427 126.763 62.0957 126.732C62.0352 126.695 61.986 126.642 61.9538 126.579C61.9216 126.516 61.9076 126.446 61.9134 126.375V125.971C61.9134 125.931 61.9293 125.892 61.9575 125.864C61.9857 125.836 62.0241 125.82 62.064 125.82C62.1039 125.82 62.1423 125.836 62.1705 125.864C62.1988 125.892 62.2146 125.931 62.2146 125.971V126.375C62.2037 126.408 62.2037 126.445 62.2146 126.478C62.2483 126.488 62.284 126.488 62.3177 126.478C62.4082 126.393 62.4791 126.29 62.5257 126.175C62.5722 126.06 62.5932 125.936 62.5872 125.812V123.172C62.5872 123.132 62.6031 123.094 62.6313 123.066C62.6596 123.038 62.6979 123.022 62.7378 123.022C62.7579 123.021 62.778 123.024 62.7968 123.031C62.8156 123.038 62.8327 123.049 62.8469 123.063C62.8611 123.077 62.8722 123.095 62.8793 123.113C62.8865 123.132 62.8896 123.152 62.8884 123.172V125.812C62.895 125.989 62.8604 126.164 62.7875 126.325C62.7146 126.486 62.6053 126.628 62.4683 126.74C62.4012 126.77 62.3278 126.783 62.2543 126.779Z" fill="white"/>
<path d="M60.6934 124.504V124.25C60.7291 123.59 60.9199 122.947 61.2505 122.374C61.5811 121.801 62.042 121.314 62.5959 120.953C62.7946 120.788 63.0389 120.689 63.2959 120.667C63.553 120.646 63.8103 120.704 64.0333 120.834C64.2562 120.964 64.4341 121.158 64.5428 121.392C64.6515 121.626 64.6858 121.888 64.6412 122.142V122.221L60.6934 124.504ZM63.4838 120.984C63.2201 120.998 62.964 121.077 62.7386 121.214C62.2693 121.526 61.8717 121.933 61.5723 122.41C61.273 122.888 61.0787 123.423 61.0025 123.981L64.3399 122.055C64.3543 121.868 64.3202 121.681 64.241 121.512C64.1619 121.342 64.0403 121.196 63.8881 121.087C63.769 121.004 63.6291 120.954 63.4838 120.945V120.984Z" fill="white"/>
<path d="M67.5979 123.712C67.558 123.712 67.5197 123.696 67.4914 123.667C67.4632 123.639 67.4473 123.601 67.4473 123.561V118.503C67.4421 118.481 67.442 118.458 67.447 118.436C67.452 118.414 67.4619 118.393 67.476 118.375C67.4901 118.358 67.508 118.343 67.5284 118.333C67.5489 118.323 67.5713 118.318 67.594 118.318C67.6167 118.318 67.6391 118.323 67.6595 118.333C67.68 118.343 67.6979 118.358 67.712 118.375C67.7261 118.393 67.736 118.414 67.741 118.436C67.7459 118.458 67.7458 118.481 67.7406 118.503V123.561C67.7407 123.6 67.7259 123.637 67.6994 123.665C67.6728 123.693 67.6365 123.71 67.5979 123.712Z" fill="white"/>
<path d="M67.202 119.676H67.1386C67.1203 119.669 67.1038 119.657 67.0901 119.643C67.0764 119.629 67.0659 119.612 67.0592 119.593C67.0525 119.574 67.0497 119.554 67.0511 119.535C67.0525 119.515 67.058 119.496 67.0672 119.478L67.5904 118.257L68.185 118.939C68.2112 118.967 68.2257 119.004 68.2257 119.042C68.2257 119.08 68.2112 119.117 68.185 119.145C68.1557 119.172 68.1176 119.187 68.0779 119.187C68.0383 119.187 68.0002 119.172 67.9709 119.145L67.6935 118.82L67.3526 119.613C67.337 119.638 67.3142 119.657 67.2873 119.668C67.2603 119.68 67.2306 119.682 67.202 119.676Z" fill="white"/>
<path d="M68.969 122.918C68.9297 122.917 68.8924 122.9 68.8646 122.872C68.8368 122.844 68.8203 122.807 68.8184 122.768V117.71C68.8184 117.67 68.8342 117.632 68.8625 117.604C68.8907 117.575 68.929 117.56 68.969 117.56C69.0089 117.56 69.0472 117.575 69.0755 117.604C69.1037 117.632 69.1196 117.67 69.1196 117.71V122.768C69.1177 122.807 69.1012 122.844 69.0733 122.872C69.0455 122.9 69.0083 122.917 68.969 122.918Z" fill="white"/>
<path d="M68.5338 118.899H68.4783C68.46 118.892 68.4435 118.88 68.4297 118.866C68.4158 118.852 68.4049 118.835 68.3975 118.817C68.3901 118.798 68.3865 118.779 68.3867 118.759C68.387 118.739 68.3912 118.719 68.399 118.701L68.9302 117.48L69.5168 118.162C69.5309 118.176 69.5421 118.193 69.5498 118.211C69.5575 118.23 69.5614 118.249 69.5614 118.269C69.5614 118.289 69.5575 118.309 69.5498 118.327C69.5421 118.346 69.5309 118.362 69.5168 118.376C69.4881 118.401 69.4515 118.414 69.4137 118.414C69.3759 118.414 69.3394 118.401 69.3107 118.376L69.0253 118.051L68.6844 118.844C68.6671 118.866 68.6438 118.884 68.6171 118.893C68.5905 118.903 68.5616 118.905 68.5338 118.899Z" fill="white"/>
<path d="M52.9164 135.214L30.3711 122.197V77.5825L52.9164 90.5913V135.214Z" fill="#E0E0E0"/>
<path d="M41.0645 89.0291L43.2524 90.2896V85.0179L41.0645 83.7495V89.0291Z" fill="#F5F5F5"/>
<path d="M43.2524 85.0178L65.7898 72.0012L63.6098 70.7407L41.0645 83.7495L43.2524 85.0178Z" fill="white"/>
<path d="M34.9614 113.691L41.874 117.655C42.2742 117.915 42.6072 118.266 42.8455 118.679C43.0839 119.092 43.221 119.556 43.2454 120.033V124.298C43.2454 125.17 42.635 125.526 41.874 125.09L34.9614 121.127C34.5602 120.867 34.226 120.517 33.9863 120.103C33.7465 119.69 33.608 119.226 33.582 118.749V114.484C33.59 113.612 34.2004 113.255 34.9614 113.691Z" fill="#F5F5F5"/>
<path d="M34.4219 114.761L34.6835 114.912V119.652L34.4219 119.494V114.761Z" fill="#E0E0E0"/>
<path d="M35.4922 115.38L35.944 115.641V120.382L35.4922 120.112V115.38Z" fill="#E0E0E0"/>
<path d="M36.5625 115.99L36.8241 116.149V120.881L36.5625 120.731V115.99Z" fill="#E0E0E0"/>
<path d="M37.3711 116.45L37.8943 116.767V121.499L37.3711 121.19V116.45Z" fill="#E0E0E0"/>
<path d="M38.7012 117.227L38.9628 117.377V122.118L38.7012 121.967V117.227Z" fill="#E0E0E0"/>
<path d="M39.4707 117.663L40.0335 117.996V122.736L39.4707 122.403V117.663Z" fill="#E0E0E0"/>
<path d="M40.8438 118.463L41.1054 118.614V123.355L40.8438 123.196V118.463Z" fill="#E0E0E0"/>
<path d="M41.4531 118.812L41.58 118.884V123.624L41.4531 123.545V118.812Z" fill="#E0E0E0"/>
<path d="M40.3516 118.202L40.4863 118.281V123.021L40.3516 122.942V118.202Z" fill="#E0E0E0"/>
<path d="M38.1953 116.941L38.3301 117.021V121.753L38.1953 121.682V116.941Z" fill="#E0E0E0"/>
<path d="M37.0137 116.268L37.1484 116.339V121.079L37.0137 121V116.268Z" fill="#E0E0E0"/>
<path d="M36.1738 115.8L36.3007 115.871V120.612L36.1738 120.532V115.8Z" fill="#E0E0E0"/>
<path d="M35.0234 115.102L35.1503 115.173V119.914L35.0234 119.835V115.102Z" fill="#E0E0E0"/>
<path d="M41.9043 119.082L42.1738 119.232V123.965L41.9043 123.814V119.082Z" fill="#E0E0E0"/>
<path d="M30.585 200.408L117.104 250.35C118.168 250.89 119.344 251.171 120.536 251.171C121.729 251.171 122.905 250.89 123.969 250.35L313.535 140.953C315.43 139.859 315.43 138.084 313.535 136.99L227.016 87.0475C225.954 86.5041 224.777 86.2207 223.584 86.2207C222.39 86.2207 221.214 86.5041 220.151 87.0475L30.585 196.445C28.6904 197.538 28.6904 199.314 30.585 200.408Z" fill="#455A64"/>
<path d="M77.347 223.595C78.8221 224.34 80.4512 224.727 82.1034 224.727C83.7556 224.727 85.3847 224.34 86.8598 223.595C89.4996 222.073 89.4996 219.632 86.8598 218.086C85.3858 217.338 83.7563 216.948 82.1034 216.948C80.4506 216.948 78.821 217.338 77.347 218.086C74.7072 219.632 74.7072 222.089 77.347 223.595Z" fill="#263238"/>
<path d="M118.729 250.35L32.2099 200.408C30.5134 199.425 30.339 197.903 31.6787 196.809C30.8326 197.478 30.1368 198.318 29.6369 199.275C29.137 200.231 28.8441 201.281 28.7773 202.358V205.585C28.8424 206.776 29.1871 207.934 29.7834 208.967C30.3798 210 31.211 210.878 32.2099 211.53L118.729 261.472C119.787 262.025 120.968 262.298 122.161 262.265V251.175C120.965 251.198 119.784 250.914 118.729 250.35Z" fill="#37474F"/>
<path d="M313.526 152.067C314.527 151.417 315.36 150.54 315.958 149.507C316.556 148.473 316.902 147.314 316.966 146.122V142.895C316.902 141.817 316.609 140.765 316.108 139.808C315.606 138.852 314.907 138.012 314.057 137.346C315.405 138.44 315.23 139.962 313.534 140.937L123.968 250.35C122.909 250.901 121.728 251.174 120.535 251.143V262.297C121.728 262.327 122.909 262.054 123.968 261.504L313.526 152.067Z" fill="#263238"/>
<path d="M131.356 240.005L48.5476 192.172C47.406 191.514 47.406 190.443 48.5476 189.793L208.616 97.3529C209.255 97.0285 209.961 96.8594 210.677 96.8594C211.393 96.8594 212.1 97.0285 212.738 97.3529L295.579 145.178C296.712 145.836 296.712 146.899 295.579 147.557L135.447 240.005C134.812 240.324 134.112 240.491 133.402 240.491C132.691 240.491 131.991 240.324 131.356 240.005Z" fill="white"/>
<path d="M97.99 213.298L107.653 207.717L104.435 205.862L94.7715 211.435L97.99 213.298Z" fill="#E23E3E"/>
<path d="M213.92 146.367L223.583 140.787L220.357 138.932L210.701 144.512L213.92 146.367Z" fill="#E23E3E"/>
<path d="M233.238 135.214L242.901 129.633L239.683 127.778L230.02 133.351L233.238 135.214Z" fill="#E23E3E"/>
<path d="M264.251 115.673C264.626 115.861 265.04 115.959 265.46 115.959C265.879 115.959 266.293 115.861 266.669 115.673C266.814 115.623 266.94 115.529 267.03 115.404C267.119 115.279 267.167 115.129 267.167 114.976C267.167 114.822 267.119 114.672 267.03 114.547C266.94 114.422 266.814 114.328 266.669 114.278C266.294 114.087 265.88 113.987 265.46 113.987C265.039 113.987 264.625 114.087 264.251 114.278C264.105 114.328 263.979 114.422 263.889 114.547C263.8 114.672 263.752 114.822 263.752 114.976C263.752 115.129 263.8 115.279 263.889 115.404C263.979 115.529 264.105 115.623 264.251 115.673Z" fill="#263238"/>
<path d="M268.11 126.621C268.858 127 269.685 127.197 270.524 127.197C271.363 127.197 272.19 127 272.938 126.621C274.27 125.828 274.27 124.599 272.938 123.83C272.19 123.451 271.363 123.254 270.524 123.254C269.685 123.254 268.858 123.451 268.11 123.83C266.778 124.599 266.778 125.852 268.11 126.621Z" fill="#263238"/>
<path d="M264.703 121.769C265.591 121.254 265.543 120.398 264.6 119.851L248.745 110.679C248.235 110.405 247.667 110.257 247.088 110.246C246.509 110.235 245.936 110.361 245.416 110.615C244.528 111.131 244.575 111.987 245.519 112.534L261.421 121.706C261.925 121.971 262.485 122.115 263.054 122.126C263.624 122.137 264.189 122.015 264.703 121.769Z" fill="#263238"/>
<path d="M237.638 84.574L238.177 84.2569C237.805 85.6097 237.623 87.0078 237.638 88.4108V90.3451C237.638 97.2894 245.969 115.031 249.037 121.309C249.354 121.967 245.145 126.446 245.145 126.446L250.147 123.561C250.147 123.561 262.648 113.255 262.648 104.789V102.854C262.648 94.3484 257.052 84.2252 250.147 80.2377C246.659 78.2321 243.512 78.1608 241.245 79.6828L236.488 82.4098L237.638 84.574ZM243.892 91.0665C243.892 87.1028 246.691 85.4618 250.147 87.4595C249.862 90.02 254.539 97.9949 256.394 98.2882C256.394 102.252 253.595 103.893 250.147 101.895C248.332 100.706 246.823 99.1059 245.741 97.2245C244.66 95.3431 244.038 93.2334 243.924 91.0665H243.892Z" fill="#E23E3E"/>
<path d="M232.493 93.4447C232.636 101.943 245.541 126.446 245.541 126.446C245.541 126.446 257.876 115.966 257.741 107.468V105.534C257.599 97.0358 251.836 86.9998 244.86 83.1312C237.883 79.2627 232.35 83.0044 232.493 91.5104V93.4447ZM238.756 94.063C238.692 90.0994 241.467 88.4109 244.947 90.3451C246.786 91.5015 248.327 93.0754 249.444 94.939C250.561 96.8026 251.223 98.9034 251.376 101.071C251.447 105.034 248.673 106.723 245.185 104.789C243.347 103.63 241.808 102.055 240.691 100.192C239.575 98.3292 238.911 96.2296 238.756 94.063Z" fill="#E23E3E"/>
<path opacity="0.1" d="M232.493 93.4447C232.636 101.943 245.541 126.446 245.541 126.446C245.541 126.446 257.876 115.966 257.741 107.468V105.534C257.599 97.0358 251.836 86.9998 244.86 83.1312C237.883 79.2627 232.35 83.0044 232.493 91.5104V93.4447ZM238.756 94.063C238.692 90.0994 241.467 88.4109 244.947 90.3451C246.786 91.5015 248.327 93.0754 249.444 94.939C250.561 96.8026 251.223 98.9034 251.376 101.071C251.447 105.034 248.673 106.723 245.185 104.789C243.347 103.63 241.808 102.055 240.691 100.192C239.575 98.3292 238.911 96.2296 238.756 94.063Z" fill="black"/>
<path d="M111.593 206.782C119.607 211.395 138.395 208.042 153.56 199.282L195.218 175.239C210.383 166.479 216.17 155.65 208.14 151.045C200.109 146.439 181.306 149.808 166.125 158.56L124.546 182.572C109.389 191.323 103.586 202.192 111.593 206.782Z" fill="#F0F0F0"/>
<path d="M232.88 5.21361H232.919L239.776 1.24995H239.832C244.152 -0.937992 249.923 -0.335511 256.138 3.70742C268.632 11.7457 278.168 30.2957 277.447 45.1277C277.082 52.5239 274.276 57.5973 269.94 59.8329H269.9L263.035 63.7965H262.988C258.667 65.9924 252.888 65.382 246.665 61.347C234.18 53.3007 224.643 34.7587 225.365 19.9267C225.745 12.5226 228.591 7.44911 232.88 5.21361Z" fill="#37474F"/>
<path d="M263.383 63.5902L269.923 59.7851H269.97C274.267 57.5416 277.105 52.4681 277.47 45.0799C277.787 38.4685 276.067 31.1199 272.959 24.2944L266.094 28.2581C269.209 35.0835 270.93 42.4321 270.605 49.0515C270.264 56.2653 267.537 61.2833 263.383 63.5902Z" fill="#263238"/>
<path d="M246.697 61.3392C234.211 53.2929 224.674 34.7509 225.396 19.9189C226.117 5.0869 236.843 -0.42259 249.305 7.61571C261.766 15.654 271.335 34.2039 270.613 49.036C269.892 63.868 259.182 69.3775 246.697 61.3392Z" fill="#455A64"/>
<path d="M257.161 60.2924C264.525 60.6492 265.722 52.3651 265.881 48.7978C266.515 35.7177 257.747 18.674 246.736 11.579C244.39 9.93561 241.66 8.92534 238.809 8.64593C231.453 8.2892 230.256 16.5733 230.089 20.1405C229.455 33.2206 238.215 50.2644 249.234 57.399C251.58 59.0424 254.31 60.0527 257.161 60.3321V60.2924Z" fill="#FAFAFA"/>
<path d="M246.562 36.9311C246.649 36.9313 246.735 36.9152 246.816 36.8835C246.981 36.8297 247.125 36.723 247.223 36.5797C247.322 36.4365 247.371 36.2646 247.363 36.0908V17.2C247.363 16.9897 247.279 16.7881 247.131 16.6394C246.982 16.4907 246.78 16.4072 246.57 16.4072C246.36 16.4072 246.158 16.4907 246.009 16.6394C245.861 16.7881 245.777 16.9897 245.777 17.2V33.7918L236.954 22.4558C236.824 22.2876 236.632 22.1781 236.421 22.1513C236.21 22.1245 235.997 22.1827 235.828 22.3131C235.66 22.4434 235.551 22.6353 235.524 22.8464C235.497 23.0575 235.555 23.2706 235.686 23.4388L245.952 36.6219C246.024 36.7157 246.116 36.7922 246.222 36.8457C246.327 36.8992 246.444 36.9284 246.562 36.9311Z" fill="#37474F"/>
<path d="M251.112 50.9064C251.149 50.9137 251.186 50.9137 251.223 50.9064C251.307 50.8807 251.378 50.8234 251.421 50.7466C251.464 50.6697 251.475 50.5793 251.453 50.4942L247.006 35.5195C246.98 35.4344 246.922 35.3627 246.844 35.3204C246.766 35.278 246.674 35.2684 246.589 35.2936C246.504 35.3188 246.433 35.3768 246.39 35.4549C246.348 35.5329 246.338 35.6246 246.363 35.7098L250.803 50.6845C250.825 50.7486 250.867 50.8043 250.922 50.844C250.978 50.8837 251.044 50.9055 251.112 50.9064Z" fill="#E23E3E"/>
<path d="M246.816 32.341C245.342 31.3977 244.081 32.0477 244.002 33.7917C244.007 34.743 244.236 35.6796 244.671 36.5255C245.107 37.3713 245.736 38.1023 246.507 38.6591C247.974 39.6104 249.234 38.9603 249.321 37.2163C249.314 36.2643 249.084 35.3272 248.649 34.4804C248.214 33.6336 247.586 32.9008 246.816 32.341Z" fill="#E23E3E"/>
<path d="M117.318 202.144L126.974 196.563L123.755 194.708L114.1 200.281L117.318 202.144Z" fill="#E23E3E"/>
<path d="M136.636 190.991L146.3 185.41L143.073 183.555L133.418 189.128L136.636 190.991Z" fill="#E23E3E"/>
<path d="M132.664 188.715C132.664 193.376 129.398 199.021 125.363 201.399C123.214 202.643 121.28 202.683 119.948 201.748C119.411 201.326 118.97 200.794 118.655 200.189C118.339 199.583 118.156 198.918 118.117 198.236C118.388 198.109 118.653 197.969 118.91 197.816C122.945 195.493 126.211 189.825 126.211 185.132C126.215 184.785 126.194 184.438 126.148 184.093C126.752 183.773 127.417 183.583 128.099 183.534C128.782 183.485 129.467 183.578 130.111 183.808C131.697 184.474 132.664 186.194 132.664 188.715Z" fill="#263238"/>
<path d="M133.323 179.139L133.189 179.059C131.159 177.981 128.432 178.179 125.364 179.939C119.142 183.53 114.092 192.266 114.092 199.456C114.092 203.071 115.368 205.6 117.429 206.773C119.49 207.947 122.273 207.748 125.357 205.981C131.579 202.39 136.621 193.646 136.621 186.456C136.629 182.841 135.377 180.312 133.323 179.139ZM125.396 201.383C123.24 202.627 121.306 202.667 119.974 201.724C118.801 200.931 118.087 199.345 118.087 197.165C118.087 192.512 121.361 186.86 125.396 184.482C127.235 183.419 128.908 183.237 130.153 183.784C131.69 184.442 132.658 186.162 132.658 188.699C132.666 193.392 129.399 199.06 125.364 201.399L125.396 201.383Z" fill="#37474F"/>
<path d="M130.524 183.998L130.437 183.951C129.121 183.245 127.338 183.38 125.364 184.514C121.329 186.844 118.055 192.512 118.055 197.197C118.055 199.576 118.847 201.161 120.219 201.954C121.59 202.746 123.39 202.588 125.364 201.431C129.399 199.1 132.665 193.432 132.665 188.747C132.665 186.4 131.848 184.751 130.524 183.998ZM125.364 199.734C123.636 200.733 122.082 200.765 121.004 200.004C120.068 199.346 119.49 198.085 119.49 196.341C119.601 194.304 120.19 192.321 121.211 190.554C122.232 188.787 123.654 187.285 125.364 186.17C125.919 185.783 126.557 185.53 127.227 185.432C127.898 185.334 128.581 185.395 129.224 185.608C130.461 186.139 131.238 187.518 131.238 189.571C131.127 191.608 130.538 193.59 129.517 195.356C128.496 197.122 127.073 198.622 125.364 199.734Z" fill="#E23E3E"/>
<path d="M155.955 179.828L165.618 174.256L162.4 172.393L152.736 177.973L155.955 179.828Z" fill="#E23E3E"/>
<path d="M175.281 168.675L184.937 163.102L181.718 161.239L172.055 166.82L175.281 168.675Z" fill="#E23E3E"/>
<path d="M194.601 157.521L204.257 151.948L201.038 150.085L191.375 155.666L194.601 157.521Z" fill="#E23E3E"/>
<path d="M146.521 105.653C146.622 105.518 146.764 105.418 146.925 105.369C147.086 105.32 147.259 105.324 147.418 105.379C147.577 105.435 147.714 105.54 147.809 105.679C147.905 105.818 147.953 105.984 147.948 106.152C148.01 106.603 147.964 107.063 147.814 107.493C147.664 107.923 147.414 108.311 147.084 108.625C146.45 109.172 145.808 108.95 145.657 108.126C145.596 107.675 145.642 107.215 145.792 106.785C145.942 106.356 146.192 105.967 146.521 105.653Z" fill="#E23E3E"/>
<path d="M153.956 109.157L147.495 105.423L146.076 108.84L152.561 112.581L153.956 109.157Z" fill="#E23E3E"/>
<path d="M152.966 109.37C153.6 108.831 154.234 109.053 154.393 109.878C154.451 110.328 154.403 110.786 154.251 111.215C154.1 111.643 153.85 112.03 153.521 112.343C152.887 112.89 152.245 112.668 152.094 111.844C152.036 111.392 152.085 110.933 152.236 110.504C152.388 110.074 152.638 109.686 152.966 109.37Z" fill="#E23E3E"/>
<path d="M202.623 140.636C202.623 140.794 202.623 140.937 202.623 141.096C202.623 141.413 202.623 141.738 202.623 142.063C201.339 141.516 199.666 141.698 197.827 142.76C193.792 145.091 190.518 150.759 190.518 155.444C190.518 157.616 191.231 159.186 192.405 160.002C192.075 160.237 191.734 160.454 191.382 160.652L191.009 160.843L189.892 165.052L183.423 161.445C181.378 160.264 180.117 157.743 180.117 154.144C180.117 146.954 185.159 138.218 191.382 134.619C194.458 132.843 197.24 132.661 199.309 133.826L205.651 137.378L205.786 137.457L202.623 140.636Z" fill="#455A64"/>
<path d="M205.779 137.386L205.644 137.306C203.614 136.228 200.887 136.427 197.82 138.186C191.597 141.777 186.547 150.513 186.547 157.703C186.547 161.318 187.823 163.847 189.884 165.02C191.945 166.194 194.728 165.995 197.812 164.228C204.035 160.637 209.076 151.893 209.076 144.703C209.1 141.088 207.824 138.559 205.779 137.386ZM197.851 159.63C195.695 160.874 193.761 160.914 192.429 159.971C191.256 159.178 190.542 157.592 190.542 155.412C190.542 150.759 193.816 145.107 197.851 142.729C199.69 141.667 201.363 141.484 202.647 142.031C204.185 142.689 205.152 144.409 205.152 146.946C205.136 151.639 201.855 157.307 197.82 159.63H197.851Z" fill="#37474F"/>
<path d="M205.136 146.978C205.136 151.639 201.87 157.283 197.835 159.661C195.687 160.906 193.753 160.946 192.421 160.01C191.884 159.588 191.443 159.057 191.127 158.451C190.812 157.846 190.628 157.18 190.59 156.498C190.861 156.372 191.126 156.232 191.383 156.078C195.418 153.756 198.684 148.088 198.684 143.395C198.687 143.047 198.666 142.7 198.62 142.356C199.225 142.036 199.89 141.846 200.572 141.796C201.254 141.747 201.94 141.841 202.584 142.071C204.153 142.737 205.136 144.441 205.136 146.978Z" fill="#263238"/>
<path d="M202.979 142.245L202.892 142.19C201.576 141.492 199.785 141.619 197.819 142.76C193.784 145.091 190.51 150.751 190.51 155.444C190.51 157.822 191.303 159.408 192.674 160.2C194.045 160.993 195.845 160.827 197.819 159.669C201.854 157.347 205.12 151.679 205.12 146.986C205.136 144.647 204.343 143.006 202.979 142.245ZM197.819 157.973C196.083 158.98 194.529 159.011 193.459 158.25C192.515 157.592 191.945 156.332 191.945 154.588C192.056 152.55 192.645 150.567 193.666 148.8C194.687 147.033 196.109 145.532 197.819 144.417C199.293 143.561 200.641 143.41 201.671 143.854C202.908 144.385 203.685 145.765 203.685 147.818C203.575 149.853 202.986 151.833 201.967 153.597C200.948 155.362 199.526 156.861 197.819 157.973Z" fill="#E23E3E"/>
<path d="M191.375 149.348L209.608 138.821C211.725 137.592 204.852 130.418 199.738 129.934C196.923 129.594 194.068 129.864 191.367 130.727C191.367 130.727 195.26 135.713 194.594 138.543C193.928 141.373 191.375 149.348 191.375 149.348Z" fill="#E23E3E"/>
<path d="M165.618 119.597C165.618 119.597 192.048 132.93 193.189 133.731C194.331 134.532 193.189 143.83 191.374 149.348C189.558 154.865 186.768 163.348 185.65 165.726C184.532 168.104 183.074 168.992 180.394 170.538L161.369 181.533L135.613 184.672L125.387 179.123L128.05 162.388C128.05 162.388 155.423 147.826 159.173 145.662C162.923 143.498 174.013 133.343 165.618 119.597Z" fill="#E23E3E"/>
<path opacity="0.2" d="M165.618 119.597C165.618 119.597 192.048 132.93 193.189 133.731C194.331 134.532 193.189 143.83 191.374 149.348C189.558 154.865 186.768 163.348 185.65 165.726C184.532 168.104 183.074 168.992 180.394 170.538L161.369 181.533L135.613 184.672L125.387 179.123L128.05 162.388C128.05 162.388 155.423 147.826 159.173 145.662C162.923 143.498 174.013 133.343 165.618 119.597Z" fill="black"/>
<path d="M193.698 146.169C196.076 139.78 197.851 134.484 197.55 130.909C197.186 126.668 195.6 123.204 188.608 121.46C181.616 119.716 171.842 119.748 171.842 119.748L168.869 121.468C168.869 121.468 188.973 133.121 191.256 134.389C192.651 135.182 194.141 138.678 191.407 149.356L191.874 149.626C192.104 149.768 192.936 148.223 193.698 146.169Z" fill="#E23E3E"/>
<path opacity="0.3" d="M193.698 146.169C196.076 139.78 197.851 134.484 197.55 130.909C197.186 126.668 195.6 123.204 188.608 121.46C181.616 119.716 171.842 119.748 171.842 119.748L168.869 121.468C168.869 121.468 188.973 133.121 191.256 134.389C192.651 135.182 194.141 138.678 191.407 149.356L191.874 149.626C192.104 149.768 192.936 148.223 193.698 146.169Z" fill="white"/>
<path d="M178.468 127.033L181.719 125.178C181.719 125.178 181.528 113.913 176.788 111.178C172.047 108.443 155.955 110.306 155.955 110.306L152.736 112.161L178.468 127.033Z" fill="#E23E3E"/>
<path d="M167.925 113.754C166.379 114.65 166.379 116.093 167.925 116.981C168.792 117.422 169.751 117.652 170.723 117.652C171.696 117.652 172.655 117.422 173.522 116.981C175.06 116.093 175.06 114.642 173.522 113.754C172.654 113.317 171.695 113.089 170.723 113.089C169.751 113.089 168.793 113.317 167.925 113.754Z" fill="#F0F0F0"/>
<path d="M172.871 119.137C171.785 119.771 171.785 120.794 172.871 121.42C173.485 121.734 174.164 121.898 174.853 121.898C175.542 121.898 176.221 121.734 176.835 121.42C177.929 120.794 177.929 119.771 176.835 119.137C176.22 118.827 175.541 118.666 174.853 118.666C174.165 118.666 173.486 118.827 172.871 119.137Z" fill="#F0F0F0"/>
<path d="M160.418 112.32C159.324 112.946 159.324 113.969 160.418 114.603C161.033 114.913 161.712 115.074 162.4 115.074C163.088 115.074 163.767 114.913 164.382 114.603C165.476 113.969 165.476 112.946 164.382 112.32C163.768 112.006 163.089 111.842 162.4 111.842C161.711 111.842 161.032 112.006 160.418 112.32Z" fill="#F0F0F0"/>
<path d="M178.976 123.767C179.61 123.22 180.244 123.442 180.403 124.266C180.461 124.718 180.413 125.177 180.261 125.606C180.11 126.036 179.86 126.424 179.531 126.739C179.43 126.874 179.289 126.973 179.127 127.023C178.966 127.072 178.794 127.068 178.634 127.012C178.475 126.957 178.338 126.852 178.243 126.713C178.147 126.574 178.099 126.408 178.104 126.24C178.043 125.788 178.09 125.328 178.242 124.898C178.393 124.468 178.645 124.08 178.976 123.767Z" fill="#E23E3E"/>
<path d="M186.372 127.27L179.903 123.537L178.492 126.953L184.969 130.687L186.372 127.27Z" fill="#E23E3E"/>
<path d="M185.373 127.485C185.474 127.35 185.615 127.251 185.777 127.201C185.938 127.152 186.11 127.156 186.269 127.211C186.429 127.267 186.566 127.372 186.661 127.511C186.756 127.65 186.805 127.816 186.8 127.984C186.86 128.436 186.813 128.896 186.661 129.325C186.51 129.755 186.258 130.143 185.928 130.457C185.294 131.004 184.66 130.774 184.501 129.958C184.442 129.506 184.49 129.047 184.642 128.617C184.793 128.187 185.044 127.799 185.373 127.485Z" fill="#E23E3E"/>
<path d="M185.373 127.485C185.474 127.35 185.615 127.251 185.777 127.201C185.938 127.152 186.11 127.156 186.269 127.211C186.429 127.267 186.566 127.372 186.661 127.511C186.756 127.65 186.805 127.816 186.8 127.984C186.86 128.436 186.813 128.896 186.661 129.325C186.51 129.755 186.258 130.143 185.928 130.457C185.294 131.004 184.66 130.774 184.501 129.958C184.442 129.506 184.49 129.047 184.642 128.617C184.793 128.187 185.044 127.799 185.373 127.485Z" fill="black"/>
<path d="M130.167 182.373C130.167 182.532 130.167 182.674 130.167 182.833C130.167 183.15 130.167 183.475 130.167 183.8C128.883 183.253 127.21 183.435 125.411 184.498C121.376 186.828 118.102 192.496 118.102 197.181C118.102 199.354 118.815 200.923 119.989 201.74C119.659 201.974 119.318 202.191 118.966 202.39L118.593 202.58L117.476 206.789L111.007 203.182C108.962 202.001 107.701 199.48 107.701 195.881C107.701 188.691 112.743 179.955 118.966 176.356C122.042 174.581 124.824 174.398 126.893 175.564L133.235 179.115L133.37 179.194L130.167 182.373Z" fill="#455A64"/>
<path d="M110.873 169.792L106.045 186.527L115.708 192.108L120.71 175.476L110.873 169.792Z" fill="#E23E3E"/>
<path opacity="0.2" d="M110.873 169.792L106.045 186.527L115.708 192.108L120.71 175.476L110.873 169.792Z" fill="black"/>
<path d="M110.871 169.792C110.871 169.792 116.349 174.446 120.709 175.476C126.432 176.864 135.533 177.014 138.759 177.236C143.69 177.577 147.416 177.569 149.16 176.943C151.419 176.15 157.492 172.622 159.172 171.655C162.391 169.8 163.762 162.499 154.892 160.502C148.894 159.259 142.784 158.635 136.659 158.639L110.871 169.792Z" fill="#E23E3E"/>
<path d="M165.499 167.652C165.223 168.342 165.037 169.064 164.944 169.8C164.689 170.566 164.629 171.384 164.77 172.179C165.374 173.178 166.325 173.92 167.441 174.263C168.245 174.442 169.078 174.454 169.887 174.297C170.695 174.14 171.463 173.818 172.142 173.352C173.783 172.369 175.02 171.18 177.35 170.514C179.016 170.161 180.585 169.45 181.948 168.429C183.24 167.39 184.969 164.521 182.495 163.855C180.022 163.189 174.647 165.535 169.748 165.75L165.499 167.652Z" fill="#37474F"/>
<path d="M165.498 164.592V168.255C165.648 168.666 165.909 169.028 166.251 169.301C166.594 169.574 167.006 169.747 167.44 169.801C167.838 169.859 168.245 169.815 168.621 169.674C169.215 169.447 169.73 169.051 170.102 168.536C170.474 168.02 170.686 167.407 170.714 166.772L170.857 164.592H165.498Z" fill="#FFA8A7"/>
<path d="M172.476 141.944C172.476 146.502 171.191 166.209 171.191 166.209C171.191 166.209 169.328 168.588 165.278 166.209L163.914 144.187L172.476 141.944Z" fill="#37474F"/>
<path d="M151.23 161.366L163.914 154.057C164.434 153.784 164.869 153.374 165.173 152.872C165.477 152.37 165.637 151.794 165.637 151.207C165.637 150.62 165.477 150.044 165.173 149.542C164.869 149.04 164.434 148.63 163.914 148.357L154.465 142.903C153.933 142.634 153.345 142.493 152.749 142.493C152.152 142.493 151.564 142.634 151.032 142.903L138.349 150.212C137.831 150.487 137.398 150.897 137.096 151.399C136.794 151.901 136.635 152.476 136.635 153.062C136.635 153.648 136.794 154.223 137.096 154.725C137.398 155.227 137.831 155.637 138.349 155.912L147.798 161.366C148.33 161.635 148.918 161.776 149.514 161.776C150.111 161.776 150.699 161.635 151.23 161.366Z" fill="#E23E3E"/>
<path d="M151.23 161.366L163.914 154.057C164.434 153.784 164.869 153.374 165.173 152.872C165.477 152.37 165.637 151.794 165.637 151.207C165.637 150.62 165.477 150.044 165.173 149.542C164.869 149.04 164.434 148.63 163.914 148.357L154.465 142.903C153.933 142.634 153.345 142.493 152.749 142.493C152.152 142.493 151.564 142.634 151.032 142.903L138.349 150.212C137.831 150.487 137.398 150.897 137.096 151.399C136.794 151.901 136.635 152.476 136.635 153.062C136.635 153.648 136.794 154.223 137.096 154.725C137.398 155.227 137.831 155.637 138.349 155.912L147.798 161.366C148.33 161.635 148.918 161.776 149.514 161.776C150.111 161.776 150.699 161.635 151.23 161.366Z" fill="white"/>
<path d="M138.349 152.194L147.798 157.648C148.33 157.918 148.918 158.058 149.514 158.058C150.111 158.058 150.699 157.918 151.231 157.648L163.914 150.339C164.122 150.269 164.301 150.135 164.429 149.958C164.556 149.78 164.625 149.567 164.625 149.348C164.625 149.129 164.556 148.916 164.429 148.739C164.301 148.561 164.122 148.427 163.914 148.357L154.465 142.903C153.933 142.634 153.345 142.493 152.749 142.493C152.152 142.493 151.565 142.634 151.033 142.903L138.349 150.212C138.142 150.282 137.962 150.416 137.835 150.593C137.707 150.771 137.639 150.984 137.639 151.203C137.639 151.422 137.707 151.635 137.835 151.813C137.962 151.99 138.142 152.124 138.349 152.194Z" fill="#E23E3E"/>
<path d="M146.077 103.679L144.467 110.314L137.555 110.734L139.045 101.539L146.077 103.679Z" fill="#FFA8A7"/>
<path d="M152.816 98.6846C152.816 98.6846 153.609 101.491 153.284 101.649C152.784 101.726 152.277 101.726 151.777 101.649L152.816 98.6846Z" fill="#F28F8F"/>
<path d="M151.492 89.7267C152.602 91.0347 153.616 93.183 152.832 98.4467C151.976 104.202 150.913 104.868 150.057 105.423C148.939 106.152 144.468 105.764 143.208 104.844C141.694 103.742 139.355 100.246 138.8 96.7979C138.15 92.747 139.506 88.2522 142.486 87.4833C146.68 86.3972 150.549 88.6169 151.492 89.7267Z" fill="#FFA8A7"/>
<path d="M138.348 103.401C139.418 104.511 141.614 104.812 142.993 105.066C144.372 105.32 148.614 105.597 149.866 102.577C151.119 99.5565 150.262 97.3844 151.8 96.6551C153.338 95.9258 154.876 95.4502 155.28 95.0697C155.685 94.6891 155.693 89.7187 151.562 87.1423C147.432 84.566 141.106 83.9714 136.944 89.1955C133.789 93.2305 135.082 99.9925 138.348 103.401Z" fill="#455A64"/>
<path d="M142.51 105.105C143.58 105.201 146.965 104.669 147.988 103.274C149.01 101.879 149.422 99.382 149.573 98.074C149.587 97.5588 149.776 97.0637 150.109 96.6704C150.442 96.277 150.898 96.0087 151.404 95.9098C152.427 95.5848 154.686 94.4749 154.686 94.4749V93.8566C155.415 93.8108 156.145 93.8108 156.874 93.8566C157.35 93.9438 157.088 94.6493 155.883 95.2597C154.678 95.8702 151.373 97.0513 150.865 97.4556C150.358 97.8599 150.12 99.5643 149.716 101.38C149.311 103.195 148.059 105.906 142.51 105.105Z" fill="#37474F"/>
<path d="M152.023 112.613L155.987 110.338C156.367 109.188 155.757 108.61 154.679 108.681C153.601 108.752 153.934 107.706 153.276 107.413C152.411 107.016 151.92 107.238 151.532 107.056C151.143 106.874 150.977 106.414 150.469 106.358C148.202 106.144 146.656 109.379 146.656 109.379L152.023 112.613Z" fill="#F28F8F"/>
<path d="M125.117 141.722C125.117 141.722 142.629 133.041 145.681 131.638C148.733 130.235 153.521 128.198 156.065 128.198C157.06 128.28 157.991 128.718 158.689 129.431C159.386 130.145 159.803 131.086 159.863 132.082C159.896 133.611 159.808 135.141 159.601 136.656C154.79 138.235 149.873 139.472 144.888 140.358C137.603 141.627 125.117 141.722 125.117 141.722Z" fill="#37474F"/>
<path d="M127.02 136.704C127.02 140.303 126.679 144.045 128.177 146.677C129.675 149.309 137.793 155.397 145.435 154.121C150.429 153.28 165.253 146.455 165.253 146.455C165.253 146.455 172.443 143.815 172.475 141.936C172.522 139.17 172.332 135.269 166.062 135.436C160.346 135.586 143.485 139.106 143.485 139.106L127.02 136.704Z" fill="#455A64"/>
<path d="M131.912 108.189C134.623 105.359 136.455 105.122 137.755 105.47C140.743 106.325 143.635 107.484 146.388 108.927C146.388 108.927 145.341 119.058 150.296 121.975V137.766C150.296 137.766 150.145 139.479 147.989 141.183C146.086 142.681 141.782 144.195 136.645 143.767C130.541 143.26 127.021 136.704 127.021 136.704C127.021 136.704 126.863 123.79 127.727 118.661C128.741 112.676 130.977 109.172 131.912 108.189Z" fill="#455A64"/>
<path d="M150.295 122.744C150.295 122.744 147.298 120.366 146.387 117.274C146.387 117.274 146.743 122.125 150.295 124.583V122.744Z" fill="#37474F"/>
<path d="M178.032 130.196C179.455 130.254 180.855 129.82 181.996 128.967C181.996 128.967 183.375 126.287 185.071 126.517C185.071 126.517 185.373 125.376 184.675 125.003C183.977 124.631 183.676 124.734 183.391 124.337C183.105 123.941 183.074 123.204 181.805 123.204C181.282 123.204 181.353 122.831 180.085 122.68C178.817 122.53 177.564 125.455 176.637 125.455L178.032 130.196Z" fill="#FFA8A7"/>
<path d="M146.386 108.927C150.738 109.601 152.316 110.893 153.901 112.359C155.487 113.826 165.19 123.561 165.19 123.561L176.938 125.249C177.555 125.749 178.008 126.423 178.238 127.183C178.714 128.563 178.286 130.069 177.834 130.426C177.834 130.426 166.181 131.123 163.89 130.687C161.599 130.251 150.255 122.72 150.255 122.72C149.17 121.903 148.261 120.876 147.58 119.701C146.899 118.526 146.461 117.226 146.291 115.879C145.554 111.099 146.386 108.927 146.386 108.927Z" fill="#455A64"/>
<path d="M135.938 150.799L117.935 172.773C117.735 172.799 117.534 172.812 117.333 172.813C116.619 172.824 115.913 172.658 115.279 172.329L100.075 163.546L99.0442 162.951C98.4814 162.626 98.0137 161.295 98.0137 159.979V156.277C98.0131 152.474 99.0134 148.738 100.914 145.444C102.815 142.15 105.549 139.415 108.842 137.513L126.996 127.033L146.315 138.186L135.938 150.799Z" fill="#E23E3E"/>
<g opacity="0.1">
<path d="M135.938 150.799L117.935 172.773C117.735 172.799 117.534 172.812 117.333 172.813C116.619 172.824 115.913 172.658 115.279 172.329L100.075 163.546L99.0442 162.951C98.4814 162.626 98.0137 161.295 98.0137 159.979V156.277C98.0131 152.474 99.0134 148.738 100.914 145.444C102.815 142.15 105.549 139.415 108.842 137.513L126.996 127.033L146.315 138.186L135.938 150.799Z" fill="black"/>
</g>
<path d="M129.731 158.377L146.291 138.194L126.972 127.041L108.827 137.513C106.479 138.871 104.409 140.66 102.723 142.784L129.731 158.377Z" fill="#E23E3E"/>
<path d="M146.291 154.398C146.291 155.714 145.831 157.046 145.26 157.371L144.23 157.965L119.37 172.322C118.917 172.565 118.422 172.719 117.911 172.773C117.711 172.799 117.51 172.812 117.309 172.813V167.43C117.308 163.627 118.309 159.89 120.212 156.596C122.114 153.302 124.85 150.567 128.145 148.666L130.198 147.485L146.291 138.187V154.398Z" fill="#E23E3E"/>
<g opacity="0.2">
<path d="M146.291 154.398C146.291 155.714 145.831 157.046 145.26 157.371L144.23 157.965L119.37 172.322C118.917 172.565 118.422 172.719 117.911 172.773C117.711 172.799 117.51 172.812 117.309 172.813V167.43C117.308 163.627 118.309 159.89 120.212 156.596C122.114 153.302 124.85 150.567 128.145 148.666L130.198 147.485L146.291 138.187V154.398Z" fill="black"/>
</g>
<path d="M151.627 181.589L161.354 181.557L175.274 173.519L161.639 183.372L151.373 183.515L151.627 181.589Z" fill="#E0E0E0"/>
<path d="M128.011 195.43C128.011 195.43 145.546 188.818 147.036 188.041C148.785 186.969 150.445 185.758 151.999 184.419C152.316 183.999 152.465 183.476 152.416 182.953C152.368 182.429 152.126 181.943 151.737 181.588C151.737 181.588 144.603 181.263 142.771 181.826C141.749 182.135 125.244 187.431 125.244 187.431L128.011 195.43Z" fill="#E0E0E0"/>
<path d="M127.225 188.042C125.775 186.797 124.316 187.312 123.959 189.183C123.823 190.215 123.932 191.265 124.278 192.247C124.624 193.229 125.196 194.116 125.949 194.835C127.4 196.08 128.858 195.572 129.215 193.694C129.351 192.661 129.241 191.612 128.895 190.63C128.55 189.648 127.978 188.761 127.225 188.042Z" fill="#455A64"/>
<defs>
<filter id="filter0_dd_2569_69720" x="0" y="104.052" width="357" height="192.232" filterUnits="userSpaceOnUse" color-interpolation-filters="sRGB">
<feFlood flood-opacity="0" result="BackgroundImageFix"/>
<feColorMatrix in="SourceAlpha" type="matrix" values="0 0 0 0 0 0 0 0 0 0 0 0 0 0 0 0 0 0 127 0" result="hardAlpha"/>
<feOffset dy="4"/>
<feGaussianBlur stdDeviation="3"/>
<feComposite in2="hardAlpha" operator="out"/>
<feColorMatrix type="matrix" values="0 0 0 0 0 0 0 0 0 0 0 0 0 0 0 0 0 0 0.1 0"/>
<feBlend mode="normal" in2="BackgroundImageFix" result="effect1_dropShadow_2569_69720"/>
<feColorMatrix in="SourceAlpha" type="matrix" values="0 0 0 0 0 0 0 0 0 0 0 0 0 0 0 0 0 0 127 0" result="hardAlpha"/>
<feOffset dy="2"/>
<feGaussianBlur stdDeviation="2"/>
<feComposite in2="hardAlpha" operator="out"/>
<feColorMatrix type="matrix" values="0 0 0 0 0 0 0 0 0 0 0 0 0 0 0 0 0 0 0.06 0"/>
<feBlend mode="normal" in2="effect1_dropShadow_2569_69720" result="effect2_dropShadow_2569_69720"/>
<feBlend mode="normal" in="SourceGraphic" in2="effect2_dropShadow_2569_69720" result="shape"/>
</filter>
</defs>
</svg>
