<svg width="25" height="16" viewBox="0 0 25 16" fill="none" xmlns="http://www.w3.org/2000/svg">
<path d="M8.6805 14.1017C9.86297 13.5156 10.3608 12.052 9.79248 10.8326C9.22414 9.61315 7.80483 9.09974 6.62237 9.68584C5.4399 10.2719 4.94205 11.7356 5.51039 12.955C6.07873 14.1744 7.49804 14.6878 8.6805 14.1017Z" stroke="#CB3838" stroke-miterlimit="22.9256" stroke-linecap="round" stroke-linejoin="round"/>
<path d="M7.65112 11.8938H7.65145" stroke="#CB3838" stroke-miterlimit="22.9256" stroke-linecap="round" stroke-linejoin="round"/>
<path d="M20.433 14.1984C21.6666 13.7378 22.3046 12.3332 21.858 11.061C21.4114 9.78882 20.0493 9.13086 18.8157 9.5914C17.5821 10.0519 16.9441 11.4566 17.3907 12.7288C17.8372 14.001 19.1993 14.6589 20.433 14.1984Z" stroke="#CB3838" stroke-miterlimit="22.9256" stroke-linecap="round" stroke-linejoin="round"/>
<path d="M19.624 11.8938H19.6244" stroke="#CB3838" stroke-miterlimit="22.9256" stroke-linecap="round" stroke-linejoin="round"/>
<path d="M19.387 2.33982V6.01443C20.8913 6.01443 21.9205 6.01443 23.4248 6.01443C23.985 6.01443 24.375 6.42882 24.375 6.99432V12.3837H22.0234M22.8957 5.94549L21.2873 2.09484H17.4865M17.2487 9.93401V0.625H3.85071L2.90051 12.3837H5.25207M21.3619 10.179H24.1375M17.2249 12.3837H10.0506M3.13802 10.179H5.90177M9.40089 10.179H17.8865" stroke="#CB3838" stroke-miterlimit="22.9256" stroke-linecap="round" stroke-linejoin="round"/>
<path d="M4.28242 7.79053H1" stroke="#CB3838" stroke-miterlimit="22.9256" stroke-linecap="round" stroke-linejoin="round"/>
<path d="M7.60812 5.40198H2.42529" stroke="#CB3838" stroke-miterlimit="22.9256" stroke-linecap="round" stroke-linejoin="round"/>
<path d="M5.47017 3.01355H1.71265" stroke="#CB3838" stroke-miterlimit="22.9256" stroke-linecap="round" stroke-linejoin="round"/>
<path d="M9.36812 3.01355H7.60815" stroke="#CB3838" stroke-miterlimit="22.9256" stroke-linecap="round" stroke-linejoin="round"/>
<path d="M10.6261 5.40198H9.74609" stroke="#CB3838" stroke-miterlimit="22.9256" stroke-linecap="round" stroke-linejoin="round"/>
</svg>
