<svg width="277" height="27" viewBox="0 0 277 27" fill="none" xmlns="http://www.w3.org/2000/svg">
<g filter="url(#filter0_d_4313_87213)">
<path d="M15.8223 18.3906H9.96632C7.96632 18.3906 6.47832 17.9906 5.50232 17.1906C4.54232 16.3906 4.06232 15.1586 4.06232 13.4946V6.03062C4.06232 4.36662 4.54232 3.13462 5.50232 2.33462C6.47832 1.51862 7.96632 1.11062 9.96632 1.11062H15.8223C16.1263 1.11062 16.3423 1.18262 16.4703 1.32662C16.6143 1.45462 16.6863 1.67062 16.6863 1.97462V4.87862C16.6863 5.18262 16.6143 5.40662 16.4703 5.55062C16.3423 5.67862 16.1263 5.74262 15.8223 5.74262H10.9983C10.5023 5.74262 10.1343 5.84662 9.89432 6.05463C9.65432 6.24662 9.53432 6.54262 9.53432 6.94262V12.6546C9.53432 13.0546 9.65432 13.3506 9.89432 13.5426C10.1343 13.7186 10.5023 13.8066 10.9983 13.8066H15.8223C16.1263 13.8066 16.3423 13.8786 16.4703 14.0226C16.6143 14.1506 16.6863 14.3666 16.6863 14.6706V17.5266C16.6863 17.8306 16.6143 18.0546 16.4703 18.1986C16.3423 18.3266 16.1263 18.3906 15.8223 18.3906ZM34.6394 13.8546C34.6394 14.5906 34.5274 15.2626 34.3034 15.8706C34.0954 16.4626 33.7114 16.9746 33.1514 17.4066C32.6074 17.8226 31.8474 18.1506 30.8714 18.3906C29.9114 18.6306 28.6874 18.7506 27.1994 18.7506C25.7114 18.7506 24.4794 18.6306 23.5034 18.3906C22.5274 18.1506 21.7594 17.8226 21.1994 17.4066C20.6554 16.9746 20.2714 16.4626 20.0474 15.8706C19.8394 15.2626 19.7354 14.5906 19.7354 13.8546V5.67062C19.7354 4.93462 19.8394 4.27062 20.0474 3.67862C20.2714 3.07062 20.6554 2.55062 21.1994 2.11862C21.7594 1.68662 22.5274 1.35062 23.5034 1.11062C24.4794 0.870625 25.7114 0.750625 27.1994 0.750625C28.6874 0.750625 29.9114 0.870625 30.8714 1.11062C31.8474 1.35062 32.6074 1.68662 33.1514 2.11862C33.7114 2.55062 34.0954 3.07062 34.3034 3.67862C34.5274 4.27062 34.6394 4.93462 34.6394 5.67062V13.8546ZM25.1834 12.9906C25.1834 13.3106 25.3034 13.5826 25.5434 13.8066C25.7834 14.0146 26.3354 14.1186 27.1994 14.1186C28.0634 14.1186 28.6154 14.0146 28.8554 13.8066C29.0954 13.5826 29.2154 13.3106 29.2154 12.9906V6.53462C29.2154 6.23062 29.0954 5.97462 28.8554 5.76662C28.6154 5.54262 28.0634 5.43062 27.1994 5.43062C26.3354 5.43062 25.7834 5.54262 25.5434 5.76662C25.3034 5.97462 25.1834 6.23062 25.1834 6.53462V12.9906ZM42.8788 18.3906H39.2788C38.9748 18.3906 38.7508 18.3266 38.6068 18.1986C38.4788 18.0546 38.4148 17.8306 38.4148 17.5266V1.97462C38.4148 1.67062 38.4788 1.45462 38.6068 1.32662C38.7508 1.18262 38.9748 1.11062 39.2788 1.11062H41.7748C42.0788 1.11062 42.3348 1.15862 42.5428 1.25462C42.7668 1.35062 42.9828 1.51862 43.1908 1.75862L47.8468 7.08662V1.97462C47.8468 1.67062 47.9108 1.45462 48.0388 1.32662C48.1828 1.18262 48.4068 1.11062 48.7108 1.11062H52.3108C52.6148 1.11062 52.8308 1.18262 52.9588 1.32662C53.1028 1.45462 53.1748 1.67062 53.1748 1.97462V17.5266C53.1748 17.8306 53.1028 18.0546 52.9588 18.1986C52.8308 18.3266 52.6148 18.3906 52.3108 18.3906H48.7108C48.4068 18.3906 48.1828 18.3266 48.0388 18.1986C47.9108 18.0546 47.8468 17.8306 47.8468 17.5266V14.5746L43.7428 9.60662V17.5266C43.7428 17.8306 43.6708 18.0546 43.5268 18.1986C43.3988 18.3266 43.1828 18.3906 42.8788 18.3906ZM70.4051 18.3906H62.8451C60.8451 18.3906 59.3571 17.9906 58.3811 17.1906C57.4211 16.3906 56.9411 15.1586 56.9411 13.4946V6.00662C56.9411 4.34262 57.4211 3.11062 58.3811 2.31062C59.3571 1.51062 60.8451 1.11062 62.8451 1.11062H68.8451C69.1491 1.11062 69.3651 1.18262 69.4931 1.32662C69.6371 1.45462 69.7091 1.67062 69.7091 1.97462V4.87862C69.7091 5.18262 69.6371 5.40662 69.4931 5.55062C69.3651 5.67862 69.1491 5.74262 68.8451 5.74262H63.8531C63.3571 5.74262 62.9891 5.84662 62.7491 6.05463C62.5091 6.24662 62.3891 6.54262 62.3891 6.94262V12.6786C62.3891 13.0786 62.4771 13.3746 62.6531 13.5666C62.8451 13.7586 63.1251 13.8546 63.4931 13.8546H65.8211V10.1106C65.8211 9.80662 65.8851 9.59062 66.0131 9.46262C66.1571 9.31862 66.3811 9.24662 66.6851 9.24662H70.4051C70.7091 9.24662 70.9251 9.31862 71.0531 9.46262C71.1971 9.59062 71.2691 9.80662 71.2691 10.1106V17.5266C71.2691 17.8306 71.1971 18.0546 71.0531 18.1986C70.9251 18.3266 70.7091 18.3906 70.4051 18.3906ZM80.3413 5.43062V8.50262H82.1413C82.5573 8.50262 82.8373 8.39862 82.9813 8.19062C83.1253 7.96662 83.1973 7.69462 83.1973 7.37462V6.55862C83.1973 6.23862 83.1253 5.97462 82.9813 5.76662C82.8373 5.54262 82.5573 5.43062 82.1413 5.43062H80.3413ZM79.4773 18.3906H75.7813C75.4773 18.3906 75.2533 18.3266 75.1093 18.1986C74.9813 18.0546 74.9173 17.8306 74.9173 17.5266V1.97462C74.9173 1.67062 74.9813 1.45462 75.1093 1.32662C75.2533 1.18262 75.4773 1.11062 75.7813 1.11062H83.7733C85.5653 1.11062 86.7973 1.48662 87.4693 2.23862C88.1573 2.97462 88.5013 3.93462 88.5013 5.11862V6.22262C88.5013 6.89462 88.3973 7.47062 88.1893 7.95062C87.9973 8.41462 87.6533 8.75062 87.1573 8.95862C88.0213 9.05462 88.7173 9.40662 89.2453 10.0146C89.7893 10.6226 90.0613 11.4306 90.0613 12.4386V17.5266C90.0613 17.8306 89.9893 18.0546 89.8453 18.1986C89.7173 18.3266 89.5013 18.3906 89.1973 18.3906H85.4773C85.1733 18.3906 84.9493 18.3266 84.8053 18.1986C84.6773 18.0546 84.6133 17.8306 84.6133 17.5266V13.8546C84.6133 13.5026 84.5413 13.2466 84.3973 13.0866C84.2693 12.9106 84.0373 12.8226 83.7013 12.8226H80.3413V17.5266C80.3413 17.8306 80.2693 18.0546 80.1253 18.1986C79.9973 18.3266 79.7813 18.3906 79.4773 18.3906ZM99.7372 6.15062L98.6092 9.79862H102.377L101.249 6.15062C101.185 6.00662 101.113 5.90262 101.033 5.83862C100.969 5.77462 100.889 5.74262 100.793 5.74262H100.193C100.097 5.74262 100.009 5.77462 99.9292 5.83862C99.8652 5.90262 99.8012 6.00662 99.7372 6.15062ZM98.3692 17.5266C98.3692 17.8306 98.2972 18.0546 98.1532 18.1986C98.0252 18.3266 97.8092 18.3906 97.5052 18.3906H93.9772C93.6732 18.3906 93.4492 18.3266 93.3052 18.1986C93.1772 18.0546 93.1132 17.8306 93.1132 17.5266V11.1906C93.1132 10.7106 93.1852 10.1586 93.3292 9.53462C93.4892 8.91062 93.7292 8.18262 94.0492 7.35062L96.1372 1.90262C96.2332 1.63062 96.3772 1.43062 96.5692 1.30262C96.7772 1.17462 97.0412 1.11062 97.3612 1.11062H103.817C104.121 1.11062 104.369 1.17462 104.561 1.30262C104.769 1.43062 104.921 1.63062 105.017 1.90262L107.105 7.35062C107.425 8.18262 107.657 8.91062 107.801 9.53462C107.961 10.1586 108.041 10.7106 108.041 11.1906V17.5266C108.041 17.8306 107.969 18.0546 107.825 18.1986C107.697 18.3266 107.481 18.3906 107.177 18.3906H103.553C103.233 18.3906 102.993 18.3266 102.833 18.1986C102.689 18.0546 102.617 17.8306 102.617 17.5266V14.1666H98.3692V17.5266ZM118.924 18.3906H115.036C114.732 18.3906 114.508 18.3266 114.364 18.1986C114.236 18.0546 114.172 17.8306 114.172 17.5266V5.74262H110.644C110.34 5.74262 110.116 5.67862 109.972 5.55062C109.844 5.40662 109.78 5.18262 109.78 4.87862V1.97462C109.78 1.67062 109.844 1.45462 109.972 1.32662C110.116 1.18262 110.34 1.11062 110.644 1.11062H123.316C123.62 1.11062 123.836 1.18262 123.964 1.32662C124.108 1.45462 124.18 1.67062 124.18 1.97462V4.87862C124.18 5.18262 124.108 5.40662 123.964 5.55062C123.836 5.67862 123.62 5.74262 123.316 5.74262H119.788V17.5266C119.788 17.8306 119.716 18.0546 119.572 18.1986C119.444 18.3266 119.228 18.3906 118.924 18.3906ZM141.946 13.8546C141.946 14.5906 141.834 15.2626 141.61 15.8706C141.402 16.4626 141.018 16.9746 140.458 17.4066C139.914 17.8226 139.162 18.1506 138.202 18.3906C137.242 18.6306 136.018 18.7506 134.53 18.7506C133.042 18.7506 131.818 18.6306 130.858 18.3906C129.898 18.1506 129.138 17.8226 128.578 17.4066C128.034 16.9746 127.65 16.4626 127.426 15.8706C127.218 15.2626 127.114 14.5906 127.114 13.8546V1.97462C127.114 1.67062 127.178 1.45462 127.306 1.32662C127.45 1.18262 127.674 1.11062 127.978 1.11062H131.746C132.05 1.11062 132.266 1.18262 132.394 1.32662C132.538 1.45462 132.61 1.67062 132.61 1.97462V12.9186C132.61 13.2386 132.73 13.5106 132.97 13.7346C133.21 13.9426 133.746 14.0466 134.578 14.0466C135.426 14.0466 135.97 13.9426 136.21 13.7346C136.45 13.5106 136.57 13.2386 136.57 12.9186V1.97462C136.57 1.67062 136.634 1.45462 136.762 1.32662C136.906 1.18262 137.13 1.11062 137.434 1.11062H141.082C141.386 1.11062 141.602 1.18262 141.73 1.32662C141.874 1.45462 141.946 1.67062 141.946 1.97462V13.8546ZM158.94 18.3906H146.724C146.42 18.3906 146.196 18.3266 146.052 18.1986C145.924 18.0546 145.86 17.8306 145.86 17.5266V1.97462C145.86 1.67062 145.924 1.45462 146.052 1.32662C146.196 1.18262 146.42 1.11062 146.724 1.11062H150.444C150.748 1.11062 150.964 1.18262 151.092 1.32662C151.236 1.45462 151.308 1.67062 151.308 1.97462V13.8546H154.596V9.96662C154.596 9.66262 154.66 9.44662 154.788 9.31862C154.932 9.17462 155.156 9.10262 155.46 9.10262H158.94C159.244 9.10262 159.46 9.17462 159.588 9.31862C159.732 9.44662 159.804 9.66262 159.804 9.96662V17.5266C159.804 17.8306 159.732 18.0546 159.588 18.1986C159.46 18.3266 159.244 18.3906 158.94 18.3906ZM169.531 6.15062L168.403 9.79862H172.171L171.043 6.15062C170.979 6.00662 170.907 5.90262 170.827 5.83862C170.763 5.77462 170.683 5.74262 170.587 5.74262H169.987C169.891 5.74262 169.803 5.77462 169.723 5.83862C169.659 5.90262 169.595 6.00662 169.531 6.15062ZM168.163 17.5266C168.163 17.8306 168.091 18.0546 167.947 18.1986C167.819 18.3266 167.603 18.3906 167.299 18.3906H163.771C163.467 18.3906 163.243 18.3266 163.099 18.1986C162.971 18.0546 162.907 17.8306 162.907 17.5266V11.1906C162.907 10.7106 162.979 10.1586 163.123 9.53462C163.283 8.91062 163.523 8.18262 163.843 7.35062L165.931 1.90262C166.027 1.63062 166.171 1.43062 166.363 1.30262C166.571 1.17462 166.835 1.11062 167.155 1.11062H173.611C173.915 1.11062 174.163 1.17462 174.355 1.30262C174.563 1.43062 174.715 1.63062 174.811 1.90262L176.899 7.35062C177.219 8.18262 177.451 8.91062 177.595 9.53462C177.755 10.1586 177.835 10.7106 177.835 11.1906V17.5266C177.835 17.8306 177.763 18.0546 177.619 18.1986C177.491 18.3266 177.275 18.3906 176.971 18.3906H173.347C173.027 18.3906 172.787 18.3266 172.627 18.1986C172.483 18.0546 172.411 17.8306 172.411 17.5266V14.1666H168.163V17.5266ZM188.718 18.3906H184.83C184.526 18.3906 184.302 18.3266 184.158 18.1986C184.03 18.0546 183.966 17.8306 183.966 17.5266V5.74262H180.438C180.134 5.74262 179.91 5.67862 179.766 5.55062C179.638 5.40662 179.574 5.18262 179.574 4.87862V1.97462C179.574 1.67062 179.638 1.45462 179.766 1.32662C179.91 1.18262 180.134 1.11062 180.438 1.11062H193.11C193.414 1.11062 193.63 1.18262 193.758 1.32662C193.902 1.45462 193.974 1.67062 193.974 1.97462V4.87862C193.974 5.18262 193.902 5.40662 193.758 5.55062C193.63 5.67862 193.414 5.74262 193.11 5.74262H189.582V17.5266C189.582 17.8306 189.51 18.0546 189.366 18.1986C189.238 18.3266 189.022 18.3906 188.718 18.3906ZM197.508 18.3906C197.204 18.3906 196.98 18.3266 196.836 18.1986C196.708 18.0546 196.644 17.8306 196.644 17.5266V14.6706C196.644 14.3666 196.708 14.1506 196.836 14.0226C196.98 13.8786 197.204 13.8066 197.508 13.8066H199.884V5.74262H197.508C197.204 5.74262 196.98 5.67862 196.836 5.55062C196.708 5.40662 196.644 5.18262 196.644 4.87862V1.97462C196.644 1.67062 196.708 1.45462 196.836 1.32662C196.98 1.18262 197.204 1.11062 197.508 1.11062H207.732C208.036 1.11062 208.252 1.18262 208.38 1.32662C208.524 1.45462 208.596 1.67062 208.596 1.97462V4.87862C208.596 5.18262 208.524 5.40662 208.38 5.55062C208.252 5.67862 208.036 5.74262 207.732 5.74262H205.404V13.8066H207.732C208.036 13.8066 208.252 13.8786 208.38 14.0226C208.524 14.1506 208.596 14.3666 208.596 14.6706V17.5266C208.596 17.8306 208.524 18.0546 208.38 18.1986C208.252 18.3266 208.036 18.3906 207.732 18.3906H197.508ZM226.919 13.8546C226.919 14.5906 226.807 15.2626 226.583 15.8706C226.375 16.4626 225.991 16.9746 225.431 17.4066C224.887 17.8226 224.127 18.1506 223.151 18.3906C222.191 18.6306 220.967 18.7506 219.479 18.7506C217.991 18.7506 216.759 18.6306 215.783 18.3906C214.807 18.1506 214.039 17.8226 213.479 17.4066C212.935 16.9746 212.551 16.4626 212.327 15.8706C212.119 15.2626 212.015 14.5906 212.015 13.8546V5.67062C212.015 4.93462 212.119 4.27062 212.327 3.67862C212.551 3.07062 212.935 2.55062 213.479 2.11862C214.039 1.68662 214.807 1.35062 215.783 1.11062C216.759 0.870625 217.991 0.750625 219.479 0.750625C220.967 0.750625 222.191 0.870625 223.151 1.11062C224.127 1.35062 224.887 1.68662 225.431 2.11862C225.991 2.55062 226.375 3.07062 226.583 3.67862C226.807 4.27062 226.919 4.93462 226.919 5.67062V13.8546ZM217.463 12.9906C217.463 13.3106 217.583 13.5826 217.823 13.8066C218.063 14.0146 218.615 14.1186 219.479 14.1186C220.343 14.1186 220.895 14.0146 221.135 13.8066C221.375 13.5826 221.495 13.3106 221.495 12.9906V6.53462C221.495 6.23062 221.375 5.97462 221.135 5.76662C220.895 5.54262 220.343 5.43062 219.479 5.43062C218.615 5.43062 218.063 5.54262 217.823 5.76662C217.583 5.97462 217.463 6.23062 217.463 6.53462V12.9906ZM235.158 18.3906H231.558C231.254 18.3906 231.03 18.3266 230.886 18.1986C230.758 18.0546 230.694 17.8306 230.694 17.5266V1.97462C230.694 1.67062 230.758 1.45462 230.886 1.32662C231.03 1.18262 231.254 1.11062 231.558 1.11062H234.054C234.358 1.11062 234.614 1.15862 234.822 1.25462C235.046 1.35062 235.262 1.51862 235.47 1.75862L240.126 7.08662V1.97462C240.126 1.67062 240.19 1.45462 240.318 1.32662C240.462 1.18262 240.686 1.11062 240.99 1.11062H244.59C244.894 1.11062 245.11 1.18262 245.238 1.32662C245.382 1.45462 245.454 1.67062 245.454 1.97462V17.5266C245.454 17.8306 245.382 18.0546 245.238 18.1986C245.11 18.3266 244.894 18.3906 244.59 18.3906H240.99C240.686 18.3906 240.462 18.3266 240.318 18.1986C240.19 18.0546 240.126 17.8306 240.126 17.5266V14.5746L236.022 9.60662V17.5266C236.022 17.8306 235.95 18.0546 235.806 18.1986C235.678 18.3266 235.462 18.3906 235.158 18.3906ZM257.5 18.3906H249.916C249.612 18.3906 249.388 18.3266 249.244 18.1986C249.116 18.0546 249.052 17.8306 249.052 17.5266V14.7186C249.052 14.4146 249.116 14.1986 249.244 14.0706C249.388 13.9266 249.612 13.8546 249.916 13.8546H256.372C256.58 13.8546 256.732 13.7906 256.828 13.6626C256.94 13.5186 256.996 13.3506 256.996 13.1586C256.996 12.8866 256.94 12.6866 256.828 12.5586C256.732 12.4306 256.58 12.3586 256.372 12.3426L252.772 11.8386C251.652 11.6786 250.748 11.3106 250.06 10.7346C249.388 10.1586 249.052 9.19862 249.052 7.85462V5.33462C249.052 3.97462 249.492 2.93462 250.372 2.21462C251.252 1.47862 252.468 1.11062 254.02 1.11062H260.74C261.044 1.11062 261.26 1.18262 261.388 1.32662C261.532 1.45462 261.604 1.67062 261.604 1.97462V4.83063C261.604 5.13462 261.532 5.35862 261.388 5.50262C261.26 5.63062 261.044 5.69462 260.74 5.69462H255.148C254.94 5.69462 254.78 5.76662 254.668 5.91062C254.556 6.03862 254.5 6.20662 254.5 6.41462C254.5 6.62262 254.556 6.79862 254.668 6.94262C254.78 7.08662 254.94 7.16662 255.148 7.18262L258.724 7.66262C259.844 7.82262 260.748 8.19062 261.436 8.76662C262.124 9.34262 262.468 10.3026 262.468 11.6466V14.1666C262.468 15.5266 262.02 16.5746 261.124 17.3106C260.244 18.0306 259.036 18.3906 257.5 18.3906ZM271.478 18.3906H267.062C266.758 18.3906 266.534 18.3266 266.39 18.1986C266.262 18.0546 266.198 17.8306 266.198 17.5266V14.3826C266.198 14.0786 266.262 13.8626 266.39 13.7346C266.534 13.5906 266.758 13.5186 267.062 13.5186H271.478C271.782 13.5186 271.998 13.5906 272.126 13.7346C272.27 13.8626 272.342 14.0786 272.342 14.3826V17.5266C272.342 17.8306 272.27 18.0546 272.126 18.1986C271.998 18.3266 271.782 18.3906 271.478 18.3906ZM271.118 12.1026H267.398C267.094 12.1026 266.87 12.0386 266.726 11.9106C266.598 11.7666 266.526 11.5426 266.51 11.2386L266.15 1.97462C266.134 1.67062 266.19 1.45462 266.318 1.32662C266.446 1.18262 266.662 1.11062 266.966 1.11062H271.55C271.854 1.11062 272.07 1.18262 272.198 1.32662C272.326 1.45462 272.382 1.67062 272.366 1.97462L272.03 11.2386C272.014 11.5426 271.934 11.7666 271.79 11.9106C271.646 12.0386 271.422 12.1026 271.118 12.1026Z" fill="#EE1133"/>
</g>
<defs>
<filter id="filter0_d_4313_87213" x="0.0623779" y="0.75" width="276.327" height="26" filterUnits="userSpaceOnUse" color-interpolation-filters="sRGB">
<feFlood flood-opacity="0" result="BackgroundImageFix"/>
<feColorMatrix in="SourceAlpha" type="matrix" values="0 0 0 0 0 0 0 0 0 0 0 0 0 0 0 0 0 0 127 0" result="hardAlpha"/>
<feOffset dy="4"/>
<feGaussianBlur stdDeviation="2"/>
<feComposite in2="hardAlpha" operator="out"/>
<feColorMatrix type="matrix" values="0 0 0 0 0 0 0 0 0 0 0 0 0 0 0 0 0 0 0.25 0"/>
<feBlend mode="normal" in2="BackgroundImageFix" result="effect1_dropShadow_4313_87213"/>
<feBlend mode="normal" in="SourceGraphic" in2="effect1_dropShadow_4313_87213" result="shape"/>
</filter>
</defs>
</svg>
