<svg width="32" height="30" viewBox="0 0 32 30" fill="none" xmlns="http://www.w3.org/2000/svg">
<path d="M29.9213 16.0659L10.5309 26.7374C9.46789 27.3225 8.13187 26.935 7.54683 25.872L1.63789 15.1353C1.05285 14.0723 1.44033 12.7362 2.50336 12.1512L21.8937 1.47968C22.9567 0.894643 24.2928 1.28213 24.8778 2.34516L30.7868 13.0818C31.3718 14.1449 30.9843 15.4809 29.9213 16.0659Z" fill="#FEBC1F"/>
<path d="M29.4975 15.2964L10.1071 25.9679C9.04406 26.5529 7.70804 26.1655 7.12301 25.1024L1.21406 14.3658C0.629018 13.3027 1.0165 11.9667 2.07953 11.3817L21.4699 0.71015C22.5329 0.125112 23.8689 0.512598 24.454 1.57562L30.3629 12.3123C30.948 13.3753 30.5605 14.7113 29.4975 15.2964Z" fill="#FFD475"/>
<path d="M21.4699 0.71082L2.07953 11.3824C1.0165 11.9674 0.629025 13.3034 1.21405 14.3664L7.12301 25.1031C7.12301 25.1031 1.61704 14.5733 23.4302 0.634485C22.8223 0.361313 22.0988 0.364698 21.4699 0.71082Z" fill="#FEBC1F"/>
<path d="M2.95045 15.6817L3.69245 17.0299C3.87949 17.3698 4.30662 17.4937 4.64647 17.3066L25.1019 6.04893C25.4418 5.86189 25.5656 5.43476 25.3786 5.09491L24.6366 3.74667C24.4496 3.40682 24.0224 3.28294 23.6826 3.46998L3.22714 14.7277C2.88729 14.9147 2.76341 15.3418 2.95045 15.6817Z" fill="#1D2943"/>
<path d="M2.74537 15.3086L3.48737 16.6569C3.67441 16.9967 4.10154 17.1206 4.44139 16.9336L24.8968 5.67588C25.2367 5.48884 25.3606 5.06171 25.1735 4.72186L24.4315 3.37363C24.2445 3.03377 23.8174 2.90989 23.4775 3.09693L3.02206 14.3546C2.68221 14.5417 2.55833 14.9688 2.74537 15.3086Z" fill="#4C5C75"/>
<path d="M26.4159 29.5634L4.28296 29.5634C3.06958 29.5634 2.08594 28.5797 2.08594 27.3664L2.08594 15.1111C2.08594 13.8977 3.06958 12.9141 4.28296 12.9141L26.4159 12.9141C27.6293 12.9141 28.6129 13.8977 28.6129 15.1111L28.6129 27.3663C28.6129 28.5797 27.6293 29.5634 26.4159 29.5634Z" fill="#5094FF"/>
<path d="M4.28296 28.6845L26.4159 28.6845C27.6293 28.6845 28.6129 27.7008 28.6129 26.4875L28.6129 14.2322C28.6129 13.0188 27.6293 12.0352 26.4159 12.0352L4.28296 12.0352C3.06958 12.0352 2.08594 13.0188 2.08594 14.2322L2.08594 26.4874C2.08594 27.7008 3.06958 28.6845 4.28296 28.6845Z" fill="#57B3FE"/>
<path d="M4.2816 12.0352L26.4145 12.0352C27.6279 12.0352 28.6116 13.0188 28.6116 14.2322L28.6116 26.4875C28.6116 26.4875 28.3582 14.6077 2.52734 12.9135C2.92826 12.381 3.56373 12.0352 4.2816 12.0352Z" fill="#5094FF"/>
<path d="M26.8898 24.7398V25.0807H26.8852C26.8941 25.5419 26.5095 25.9292 26.0458 25.9292L23.8166 25.9292C23.3612 25.9292 22.9682 25.549 22.9772 25.0807H22.9727V24.7398H23.0271C23.1587 24.4085 23.5172 24.1816 23.8937 24.1816L25.9686 24.1816C26.3452 24.1816 26.7037 24.4085 26.8353 24.7398H26.8898Z" fill="#E3E7F0"/>
<path d="M26.0436 25.5917L23.8888 25.5918C23.4546 25.5918 23.0444 25.297 22.9834 24.8671C22.9092 24.3437 23.314 23.8946 23.8232 23.8946L25.9696 23.8945C26.43 23.8945 26.8587 24.2286 26.8867 24.6882C26.9179 25.1983 26.5145 25.5917 26.0436 25.5917Z" fill="white"/>
<path d="M20.5011 24.7398V25.0807H20.4966C20.5054 25.5419 20.1208 25.9292 19.6571 25.9292L17.428 25.9292C16.9725 25.9292 16.5795 25.549 16.5885 25.0807H16.584V24.7398H16.6384C16.77 24.4085 17.1285 24.1816 17.5051 24.1816L19.58 24.1816C19.9566 24.1816 20.315 24.4085 20.4466 24.7398H20.5011Z" fill="#E3E7F0"/>
<path d="M19.655 25.5917L17.5001 25.5918C17.066 25.5918 16.6557 25.297 16.5947 24.8671C16.5205 24.3437 16.9254 23.8946 17.4345 23.8946L19.5809 23.8945C20.0413 23.8945 20.47 24.2286 20.4981 24.6882C20.5292 25.1983 20.1258 25.5917 19.655 25.5917Z" fill="white"/>
<path d="M14.1124 24.7398V25.0807H14.1079C14.1168 25.5419 13.7321 25.9292 13.2684 25.9292H11.0393C10.5838 25.9292 10.1908 25.549 10.1999 25.0807H10.1953V24.7398H10.2498C10.3814 24.4085 10.7399 24.1816 11.1164 24.1816H13.1913C13.5679 24.1816 13.9264 24.4085 14.058 24.7398H14.1124Z" fill="#E3E7F0"/>
<path d="M13.2663 25.5917L11.1114 25.5918C10.6773 25.5918 10.267 25.297 10.2061 24.8671C10.1319 24.3437 10.5367 23.8946 11.0459 23.8946L13.1922 23.8945C13.6526 23.8945 14.0814 24.2286 14.1094 24.6882C14.1405 25.1983 13.7372 25.5917 13.2663 25.5917Z" fill="white"/>
<path d="M7.72375 24.7398V25.0807H7.71921C7.72809 25.5419 7.34346 25.9292 6.87977 25.9292L4.65062 25.9292C4.19517 25.9292 3.80217 25.549 3.81118 25.0807H3.80664V24.7398H3.86109C3.9927 24.4085 4.35118 24.1816 4.72773 24.1816L6.80261 24.1816C7.17921 24.1816 7.5377 24.4085 7.66931 24.7398H7.72375Z" fill="#E3E7F0"/>
<path d="M6.87761 25.5917L4.72277 25.5918C4.28862 25.5918 3.87835 25.297 3.8174 24.8671C3.74318 24.3437 4.14803 23.8946 4.65719 23.8946L6.80355 23.8945C7.26394 23.8945 7.69269 24.2286 7.72073 24.6882C7.75185 25.1983 7.34851 25.5917 6.87761 25.5917Z" fill="white"/>
<path d="M3.80859 15.9064L3.80859 17.9565C3.80859 18.4733 4.22752 18.8922 4.74429 18.8922L8.58302 18.8922C9.09979 18.8922 9.51871 18.4732 9.51871 17.9565L9.51871 15.9064C9.51871 15.3896 9.09979 14.9707 8.58302 14.9707L4.74429 14.9707C4.22752 14.9707 3.80859 15.3896 3.80859 15.9064Z" fill="#FEBC1F"/>
<path d="M3.80859 15.5861L3.80859 17.6362C3.80859 18.1529 4.22752 18.5719 4.74429 18.5719L8.58302 18.5719C9.09979 18.5719 9.51871 18.1529 9.51871 17.6362V15.5861C9.51871 15.0693 9.09979 14.6504 8.58302 14.6504L4.74429 14.6504C4.22752 14.6504 3.80859 15.0693 3.80859 15.5861Z" fill="#FFD475"/>
<path d="M6.56421 16.3899V14.6504H6.11977V16.3899H3.80859V16.8344H5.07304V18.5718H5.51748V16.8344H7.51865V18.5718H7.96307V16.8344H9.51872V16.3899H6.56421Z" fill="#FEBC1F"/>
<path d="M26.4842 17.9244L23.982 17.9244C23.7735 17.9244 23.5765 17.7829 23.5472 17.5764C23.5116 17.3251 23.706 17.1094 23.9505 17.1094L26.4487 17.1094C26.6698 17.1094 26.8757 17.2698 26.8891 17.4905C26.9041 17.7355 26.7104 17.9244 26.4842 17.9244Z" fill="white"/>
<path d="M26.4845 16.1803L22.0914 16.1803C21.8829 16.1803 21.6858 16.0387 21.6566 15.8323C21.6209 15.5809 21.8154 15.3653 22.0599 15.3653L26.4489 15.3652C26.67 15.3652 26.8759 15.5257 26.8894 15.7464C26.9043 15.9913 26.7106 16.1803 26.4845 16.1803Z" fill="white"/>
<path d="M25.8164 6.67969C26.8623 8.02183 27.7172 9.48042 28.3722 11.0511C27.3247 9.70997 26.473 8.24948 25.8164 6.67969Z" fill="white"/>
<path d="M6.32617 11.0497C7.85036 9.88337 9.49181 8.90759 11.247 8.13086C9.72377 9.29871 8.08042 10.2713 6.32617 11.0497Z" fill="white"/>
<path d="M18.9141 27.5819C20.8199 27.3565 22.7294 27.3545 24.6352 27.5819C22.7294 27.8093 20.8199 27.8074 18.9141 27.5819Z" fill="white"/>
</svg>
