<svg width="24" height="24" viewBox="0 0 24 24" fill="none" xmlns="http://www.w3.org/2000/svg">
<path d="M21.422 15.9508V19.3371C21.422 20.1683 20.7481 20.8421 19.917 20.8421H1.85658C1.02539 20.8421 0.351562 20.1683 0.351562 19.3371V8.80189C0.351562 7.9707 1.02539 7.29688 1.85658 7.29688H19.917C20.7481 7.29688 21.422 7.9707 21.422 8.80189V14.4457" stroke="#303030" stroke-width="0.6" stroke-miterlimit="10" stroke-linecap="round" stroke-linejoin="round"/>
<path d="M1.82617 5.78999C2.06467 5.50218 2.41014 5.30221 2.81078 5.25557L20.7499 3.16649C21.5755 3.07035 22.3228 3.66168 22.4189 4.48734L23.6376 14.9518C23.7337 15.7774 23.1424 16.5247 22.3167 16.6208L21.4214 16.7251" stroke="#303030" stroke-width="0.6" stroke-miterlimit="10" stroke-linecap="round" stroke-linejoin="round"/>
<path d="M2.60938 16.3242H5.61945" stroke="#303030" stroke-width="0.6" stroke-miterlimit="10" stroke-linecap="round" stroke-linejoin="round"/>
<path d="M2.60938 18.207H10.1345" stroke="#303030" stroke-width="0.6" stroke-miterlimit="10" stroke-linecap="round" stroke-linejoin="round"/>
<path d="M7.125 16.3242H10.135" stroke="#303030" stroke-width="0.6" stroke-miterlimit="10" stroke-linecap="round" stroke-linejoin="round"/>
<path d="M11.6387 16.3242H14.6487" stroke="#303030" stroke-width="0.6" stroke-miterlimit="10" stroke-linecap="round" stroke-linejoin="round"/>
<path d="M16.1543 16.3242H19.1643" stroke="#303030" stroke-width="0.6" stroke-miterlimit="10" stroke-linecap="round" stroke-linejoin="round"/>
<path d="M5.61945 14.4437H3.36191C2.94631 14.4437 2.60938 14.1068 2.60938 13.6911V12.1861C2.60938 11.7705 2.94627 11.4336 3.36191 11.4336H5.61945C6.03505 11.4336 6.37198 11.7705 6.37198 12.1861V13.6911C6.37194 14.1068 6.03505 14.4437 5.61945 14.4437Z" stroke="#303030" stroke-width="0.6" stroke-miterlimit="10" stroke-linecap="round" stroke-linejoin="round"/>
<path d="M4.11328 12.9375H4.86581" stroke="#303030" stroke-width="0.6" stroke-miterlimit="10" stroke-linecap="round" stroke-linejoin="round"/>
<path d="M18.0117 13.316C18.2655 12.8059 18.4118 12.2322 18.4118 11.6229C18.4118 11.0135 18.2655 10.4397 18.0117 9.92969" stroke="#303030" stroke-width="0.6" stroke-miterlimit="10" stroke-linecap="round" stroke-linejoin="round"/>
<path d="M16.6621 12.6368C16.8148 12.331 16.9065 11.9889 16.9065 11.6231C16.9065 11.2573 16.8148 10.9152 16.6621 10.6094" stroke="#303030" stroke-width="0.6" stroke-miterlimit="10" stroke-linecap="round" stroke-linejoin="round"/>
<path d="M15.3184 11.959C15.3701 11.8575 15.4017 11.7442 15.4017 11.6221C15.4017 11.5 15.3701 11.3866 15.3184 11.2852" stroke="#303030" stroke-width="0.6" stroke-miterlimit="10" stroke-linecap="round" stroke-linejoin="round"/>
</svg>
