<svg width="32" height="33" viewBox="0 0 32 33" fill="none" xmlns="http://www.w3.org/2000/svg">
<g clip-path="url(#clip0_2294_5894)">
<path d="M21.2731 10.3411C27.1161 10.2512 31.8851 14.8866 31.9982 20.7757C32.0149 21.6403 31.9291 22.4819 31.7525 23.2892C31.4534 24.6561 31.2755 26.047 31.2755 27.4467V30.1524C31.2755 30.5669 30.9422 30.9029 30.5309 30.9029H27.8467C26.458 30.9029 25.0781 31.0821 23.722 31.3836C22.9212 31.5617 22.0863 31.6481 21.2284 31.6314C15.386 31.5174 10.7871 26.7105 10.8763 20.8211C10.9632 15.0726 15.5701 10.429 21.2731 10.3411Z" fill="url(#paint0_linear_2294_5894)"/>
<path d="M21.2731 10.3411C27.1161 10.2512 31.8851 14.8866 31.9982 20.7757C32.0149 21.6403 31.9291 22.4819 31.7525 23.2892C31.4534 24.6561 31.2755 26.047 31.2755 27.4467V30.1524C31.2755 30.5669 30.9422 30.9029 30.5309 30.9029H27.8467C26.458 30.9029 25.0781 31.0821 23.722 31.3836C22.9212 31.5617 22.0863 31.6481 21.2284 31.6314C15.386 31.5174 10.7871 26.7105 10.8763 20.8211C10.9632 15.0726 15.5701 10.429 21.2731 10.3411Z" fill="url(#paint1_linear_2294_5894)"/>
<path d="M13.0686 0.622663C5.95026 0.513047 0.140335 6.16023 0.00245995 13.3348C-0.0177275 14.3881 0.0867098 15.4135 0.301959 16.3969C0.666334 18.062 0.882958 19.7566 0.882958 21.4619V24.7581C0.882958 25.263 1.28908 25.6725 1.79014 25.6725H5.06026C6.75201 25.6725 8.43319 25.8908 10.0853 26.2581C11.0609 26.475 12.0781 26.5803 13.1231 26.5599C20.2408 26.421 25.8433 20.565 25.7348 13.39C25.6288 6.38677 20.0165 0.72957 13.0686 0.622663Z" fill="url(#paint2_linear_2294_5894)"/>
<path d="M8.26191 12.8994C7.89842 12.5101 7.38392 12.2656 6.81154 12.2656C5.71073 12.2656 4.81836 13.1651 4.81836 14.2747C4.81836 14.8516 5.06086 15.3702 5.44717 15.7366L9.74679 20.0705C10.1103 20.4598 10.6248 20.7043 11.1972 20.7043C12.298 20.7043 13.1903 19.8048 13.1903 18.6952C13.1903 18.1184 12.9478 17.5998 12.5615 17.2333L8.26191 12.8994Z" fill="url(#paint3_linear_2294_5894)"/>
<path d="M6.81154 16.2837C7.91235 16.2837 8.80473 15.3843 8.80473 14.2747C8.80473 13.1651 7.91235 12.2656 6.81154 12.2656C5.71074 12.2656 4.81836 13.1651 4.81836 14.2747C4.81836 15.3843 5.71074 16.2837 6.81154 16.2837Z" fill="white"/>
<path d="M13.8986 12.8994C13.5351 12.5101 13.0206 12.2656 12.4483 12.2656C11.3475 12.2656 10.4551 13.1651 10.4551 14.2747C10.4551 14.8516 10.6976 15.3702 11.0839 15.7366L15.3835 20.0705C15.7471 20.4598 16.2616 20.7043 16.8339 20.7043C17.9347 20.7043 18.8271 19.8048 18.8271 18.6952C18.8271 18.1184 18.5845 17.5998 18.1983 17.2333L13.8986 12.8994Z" fill="url(#paint4_linear_2294_5894)"/>
<path d="M12.4483 16.2837C13.5491 16.2837 14.4414 15.3843 14.4414 14.2747C14.4414 13.1651 13.5491 12.2656 12.4483 12.2656C11.3475 12.2656 10.4551 13.1651 10.4551 14.2747C10.4551 15.3843 11.3475 16.2837 12.4483 16.2837Z" fill="white"/>
<path d="M19.5354 12.8994C19.1719 12.5101 18.6574 12.2656 18.085 12.2656C16.9842 12.2656 16.0918 13.1651 16.0918 14.2747C16.0918 14.8516 16.3344 15.3702 16.7206 15.7366L21.0202 20.0705C21.3838 20.4598 21.8983 20.7043 22.4706 20.7043C23.5714 20.7043 24.4638 19.8048 24.4638 18.6952C24.4638 18.1184 24.2212 17.5998 23.835 17.2333L19.5354 12.8994Z" fill="url(#paint5_linear_2294_5894)"/>
<path d="M18.085 16.2837C19.1858 16.2837 20.0782 15.3843 20.0782 14.2747C20.0782 13.1651 19.1858 12.2656 18.085 12.2656C16.9842 12.2656 16.0918 13.1651 16.0918 14.2747C16.0918 15.3843 16.9842 16.2837 18.085 16.2837Z" fill="white"/>
</g>
<defs>
<linearGradient id="paint0_linear_2294_5894" x1="19.3054" y1="18.8381" x2="34.9362" y2="34.3453" gradientUnits="userSpaceOnUse">
<stop stop-color="#A7F3CE"/>
<stop offset="1" stop-color="#61DB99"/>
</linearGradient>
<linearGradient id="paint1_linear_2294_5894" x1="24.3818" y1="23.9547" x2="17.7428" y2="17.3687" gradientUnits="userSpaceOnUse">
<stop stop-color="#61DB99" stop-opacity="0"/>
<stop offset="1" stop-color="#009E74"/>
</linearGradient>
<linearGradient id="paint2_linear_2294_5894" x1="8.16682" y1="11.4948" x2="24.6697" y2="27.8672" gradientUnits="userSpaceOnUse">
<stop stop-color="#62E1FB"/>
<stop offset="1" stop-color="#00A2F3"/>
</linearGradient>
<linearGradient id="paint3_linear_2294_5894" x1="11.2454" y1="18.7443" x2="2.5564" y2="10.1242" gradientUnits="userSpaceOnUse">
<stop stop-color="#00A2F3" stop-opacity="0"/>
<stop offset="1" stop-color="#0075CD"/>
</linearGradient>
<linearGradient id="paint4_linear_2294_5894" x1="16.8817" y1="18.7441" x2="8.19299" y2="10.124" gradientUnits="userSpaceOnUse">
<stop stop-color="#00A2F3" stop-opacity="0"/>
<stop offset="1" stop-color="#0075CD"/>
</linearGradient>
<linearGradient id="paint5_linear_2294_5894" x1="22.5184" y1="18.7442" x2="13.8297" y2="10.1241" gradientUnits="userSpaceOnUse">
<stop stop-color="#00A2F3" stop-opacity="0"/>
<stop offset="1" stop-color="#0075CD"/>
</linearGradient>
<clipPath id="clip0_2294_5894">
<rect width="32" height="32.2549" fill="white"/>
</clipPath>
</defs>
</svg>
